<?xml version="1.0" standalone="no"?>
<!DOCTYPE svg PUBLIC "-//W3C//DTD SVG 20010904//EN"
 "http://www.w3.org/TR/2001/REC-SVG-20010904/DTD/svg10.dtd">
<svg version="1.0" xmlns="http://www.w3.org/2000/svg"
 width="735.000000pt" height="735.000000pt" viewBox="0 0 735.000000 735.000000"
 preserveAspectRatio="xMidYMid meet">

<g transform="translate(0.000000,735.000000) scale(0.100000,-0.100000)"
fill="white" stroke="none">
<path d="M3403 6529 c-195 -41 -388 -126 -574 -254 l-108 -74 -84 52 c-150 95
-395 194 -577 233 -65 15 -126 19 -260 19 -159 0 -184 -3 -273 -28 -209 -58
-299 -131 -314 -255 -8 -69 18 -158 83 -283 120 -231 290 -393 542 -519 86
-43 271 -110 305 -110 41 -1 39 -17 -17 -121 -64 -121 -82 -198 -66 -294 11
-69 24 -104 57 -157 13 -21 23 -40 23 -43 0 -3 -21 -26 -46 -52 -27 -27 -62
-79 -83 -123 l-36 -75 2 -138 2 -138 -35 -46 c-91 -120 -123 -223 -131 -423
-8 -206 33 -470 79 -520 24 -25 51 -23 125 10 46 20 46 20 40 63 -3 23 -13 80
-23 127 -12 60 -17 142 -18 280 l-1 195 28 48 c15 26 29 47 31 47 2 0 16 -21
31 -46 43 -73 151 -180 211 -210 67 -33 111 -28 148 17 45 53 37 69 -89 193
-105 104 -155 190 -181 316 -31 146 -2 251 87 318 73 54 87 71 94 117 6 35 2
45 -27 83 -71 93 -77 104 -83 157 -14 108 27 236 94 300 32 30 33 30 150 30
133 0 161 11 181 69 9 27 8 41 -4 69 -23 56 -52 67 -251 92 -320 41 -597 157
-782 329 -127 118 -240 317 -231 408 3 29 10 36 58 61 30 15 87 34 125 42 80
17 271 20 362 5 153 -25 373 -110 537 -207 98 -58 253 -208 318 -308 71 -110
113 -138 168 -115 19 8 33 24 40 46 21 63 -3 124 -99 249 -34 44 -60 84 -58
90 7 21 165 127 262 175 193 95 390 135 630 127 122 -5 172 -11 268 -36 123
-31 290 -104 403 -176 199 -126 337 -294 409 -495 51 -145 58 -196 64 -510 l7
-295 32 -75 c18 -41 61 -127 97 -190 100 -175 165 -310 165 -341 0 -20 -11
-36 -37 -58 -21 -17 -43 -31 -50 -31 -25 0 -122 42 -186 80 -72 44 -93 48
-136 25 -43 -22 -55 -67 -32 -119 24 -55 68 -91 167 -136 45 -21 84 -45 87
-55 4 -9 7 -38 7 -65 0 -42 -4 -51 -27 -68 -86 -61 -192 -53 -378 29 -50 21
-97 39 -106 39 -21 0 -56 -39 -69 -77 -25 -71 67 -155 200 -184 27 -6 50 -14
50 -19 0 -12 -85 -28 -220 -41 -280 -27 -621 43 -913 187 -71 35 -135 64 -142
64 -7 0 -25 -14 -39 -31 -20 -23 -26 -42 -26 -76 0 -42 4 -51 45 -90 51 -49
208 -128 329 -168 123 -39 426 -95 518 -95 l34 0 17 -92 c10 -51 27 -122 39
-158 39 -122 36 -434 -8 -648 -23 -113 -87 -299 -139 -404 -56 -113 -193 -319
-271 -408 -82 -94 -283 -300 -293 -300 -5 0 -63 42 -129 93 -66 50 -176 133
-244 183 -173 129 -395 330 -544 493 -195 215 -256 300 -450 630 -45 76 -88
138 -101 144 -26 12 -75 -13 -106 -55 -20 -27 -20 -29 -3 -85 39 -128 195
-382 378 -618 112 -144 353 -389 501 -510 165 -134 601 -459 658 -489 45 -25
53 -27 80 -16 16 7 95 81 176 164 342 353 529 637 642 972 94 279 111 628 46
931 -15 67 -25 135 -23 150 3 27 5 27 102 40 127 16 219 44 329 100 71 37 101
60 167 131 44 47 94 105 110 130 28 42 30 53 30 133 l0 87 60 52 c81 70 94 97
94 190 0 98 -25 170 -115 335 -39 72 -96 179 -126 240 l-55 109 6 176 c9 240
4 225 79 240 129 25 363 126 498 216 86 57 192 164 285 287 119 157 177 290
178 407 2 126 -78 205 -267 268 -184 61 -370 64 -590 8 -182 -47 -417 -145
-545 -228 -55 -36 -64 -39 -81 -27 -186 137 -303 200 -478 259 -189 62 -244
70 -485 69 -170 0 -232 -4 -305 -20z m2397 -247 c31 -11 75 -29 99 -42 43 -21
43 -22 38 -66 -6 -59 -75 -201 -145 -297 -89 -123 -235 -238 -392 -307 -84
-37 -281 -102 -289 -95 -2 3 -16 52 -31 111 l-26 106 65 29 c36 17 129 55 206
86 156 61 220 94 235 123 19 35 12 85 -16 111 -58 54 -206 17 -463 -117 -58
-30 -108 -54 -111 -54 -4 0 -14 14 -21 32 -7 18 -35 61 -62 96 -27 35 -47 64
-45 65 1 1 21 12 43 25 181 103 355 175 490 203 123 25 344 21 425 -9z"/>
<path d="M1838 6055 c-35 -20 -47 -74 -24 -110 20 -31 63 -53 245 -125 80 -32
203 -83 273 -114 151 -67 206 -78 237 -47 73 73 4 160 -214 266 -226 110 -452
167 -517 130z"/>
<path d="M3505 5196 c-92 -29 -172 -90 -189 -144 -10 -29 9 -67 47 -96 28 -22
36 -35 41 -74 9 -69 52 -149 98 -182 94 -68 213 -58 325 27 21 17 33 20 38 13
14 -23 99 -70 126 -70 39 0 69 29 76 74 5 34 -2 54 -63 173 -81 159 -131 220
-216 262 -55 28 -70 31 -152 30 -50 0 -109 -6 -131 -13z m192 -192 c48 -30 34
-89 -27 -114 -28 -11 -34 -11 -58 7 -31 23 -40 65 -21 99 19 36 57 39 106 8z"/>
<path d="M2677 4850 c-59 -47 -73 -115 -57 -272 24 -241 89 -391 258 -602 38
-48 68 -74 99 -88 65 -29 89 -19 120 48 29 64 31 58 -66 169 -151 172 -210
322 -211 540 -1 107 -13 163 -41 191 -36 34 -70 39 -102 14z"/>
<path d="M3292 3374 c-74 -52 -56 -140 50 -241 97 -91 235 -146 373 -146 101
-1 169 27 191 79 15 36 11 54 -19 97 l-20 29 -86 -7 c-137 -10 -221 20 -325
115 -49 45 -114 90 -130 90 -6 0 -22 -7 -34 -16z"/>
<path d="M2725 3021 c-66 -28 -79 -110 -30 -199 40 -74 157 -182 241 -223 61
-30 79 -34 151 -34 77 0 84 2 110 27 60 61 22 140 -74 154 -125 18 -185 60
-268 188 -26 41 -58 79 -72 85 -27 13 -31 13 -58 2z"/>
</g>
</svg>
