<?xml version="1.0" encoding="UTF-8" standalone="no"?>
<!DOCTYPE svg PUBLIC "-//W3C//DTD SVG 1.1//EN"
 "http://www.w3.org/Graphics/SVG/1.1/DTD/svg11.dtd">
<!-- Generated by graphviz version 12.1.2 (20240928.0832)
 -->
<!-- Title: G Pages: 1 -->
<svg xmlns="http://www.w3.org/2000/svg" viewBox="0 0 1166.74 1239.20" width="1167" height="1239">
<g id="graph0" class="graph" transform="scale(1 1) rotate(0) translate(4 1235.2)">
<title>G</title>
<!-- __project__ -->
<g id="node1" class="node">
<title>__project__</title>
<path fill="#d4edda" stroke="black" d="M590.76,-1231.2C590.76,-1231.2 471.32,-1231.2 471.32,-1231.2 465.32,-1231.2 459.32,-1225.2 459.32,-1219.2 459.32,-1219.2 459.32,-1200 459.32,-1200 459.32,-1194 465.32,-1188 471.32,-1188 471.32,-1188 590.76,-1188 590.76,-1188 596.76,-1188 602.76,-1194 602.76,-1200 602.76,-1200 602.76,-1219.2 602.76,-1219.2 602.76,-1225.2 596.76,-1231.2 590.76,-1231.2"/>
<text text-anchor="middle" x="531.04" y="-1202.4" font-family="Times,serif" font-size="24.00">__project__</text>
</g>
<!-- baml&#45;playground&#45;wasm -->
<g id="node2" class="node">
<title>baml&#45;playground&#45;wasm</title>
<path fill="#98d8c8" stroke="black" d="M246.08,-1152C246.08,-1152 12,-1152 12,-1152 6,-1152 0,-1146 0,-1140 0,-1140 0,-1120.8 0,-1120.8 0,-1114.8 6,-1108.8 12,-1108.8 12,-1108.8 246.08,-1108.8 246.08,-1108.8 252.08,-1108.8 258.08,-1114.8 258.08,-1120.8 258.08,-1120.8 258.08,-1140 258.08,-1140 258.08,-1146 252.08,-1152 246.08,-1152"/>
<text text-anchor="middle" x="129.04" y="-1123.2" font-family="Times,serif" font-size="24.00">baml&#45;playground&#45;wasm</text>
</g>
<!-- __project__&#45;&gt;baml&#45;playground&#45;wasm -->
<g id="edge1" class="edge">
<title>__project__&#45;&gt;baml&#45;playground&#45;wasm</title>
<path fill="none" stroke="#555555" d="M459.17,-1194.8C401.57,-1183.74 319.43,-1167.96 251.49,-1154.92"/>
<polygon fill="#555555" stroke="#555555" points="252.61,-1150.85 240.03,-1152.71 251.02,-1159.1 252.61,-1150.85"/>
</g>
<!-- baml_cli -->
<g id="node3" class="node">
<title>baml_cli</title>
<path fill="#ffb6c1" stroke="black" d="M575.43,-1152C575.43,-1152 486.65,-1152 486.65,-1152 480.65,-1152 474.65,-1146 474.65,-1140 474.65,-1140 474.65,-1120.8 474.65,-1120.8 474.65,-1114.8 480.65,-1108.8 486.65,-1108.8 486.65,-1108.8 575.43,-1108.8 575.43,-1108.8 581.43,-1108.8 587.43,-1114.8 587.43,-1120.8 587.43,-1120.8 587.43,-1140 587.43,-1140 587.43,-1146 581.43,-1152 575.43,-1152"/>
<text text-anchor="middle" x="531.04" y="-1123.2" font-family="Times,serif" font-size="24.00">baml_cli</text>
</g>
<!-- __project__&#45;&gt;baml_cli -->
<g id="edge2" class="edge">
<title>__project__&#45;&gt;baml_cli</title>
<path fill="none" stroke="#555555" d="M531.04,-1187.5C531.04,-1180.78 531.04,-1173.16 531.04,-1165.75"/>
<polygon fill="#555555" stroke="#555555" points="535.24,-1165.98 531.04,-1153.98 526.84,-1165.98 535.24,-1165.98"/>
</g>
<!-- baml_ide_tests -->
<g id="node4" class="node">
<title>baml_ide_tests</title>
<path fill="#a0a0a0" fill-opacity="0.501961" stroke="black" stroke-dasharray="5,2" d="M440.43,-1152C440.43,-1152 291.65,-1152 291.65,-1152 285.65,-1152 279.65,-1146 279.65,-1140 279.65,-1140 279.65,-1120.8 279.65,-1120.8 279.65,-1114.8 285.65,-1108.8 291.65,-1108.8 291.65,-1108.8 440.43,-1108.8 440.43,-1108.8 446.43,-1108.8 452.43,-1114.8 452.43,-1120.8 452.43,-1120.8 452.43,-1140 452.43,-1140 452.43,-1146 446.43,-1152 440.43,-1152"/>
<text text-anchor="middle" x="366.04" y="-1123.2" font-family="Times,serif" font-size="24.00">baml_ide_tests</text>
</g>
<!-- __project__&#45;&gt;baml_ide_tests -->
<g id="edge3" class="edge">
<title>__project__&#45;&gt;baml_ide_tests</title>
<path fill="none" stroke="#555555" d="M485.95,-1187.5C466.58,-1178.44 443.72,-1167.74 423.18,-1158.13"/>
<polygon fill="#555555" stroke="#555555" points="425.09,-1154.39 412.44,-1153.11 421.53,-1162 425.09,-1154.39"/>
</g>
<!-- baml_tests -->
<g id="node5" class="node">
<title>baml_tests</title>
<path fill="#a0a0a0" fill-opacity="0.501961" stroke="black" stroke-dasharray="5,2" d="M728.77,-1152C728.77,-1152 621.31,-1152 621.31,-1152 615.31,-1152 609.31,-1146 609.31,-1140 609.31,-1140 609.31,-1120.8 609.31,-1120.8 609.31,-1114.8 615.31,-1108.8 621.31,-1108.8 621.31,-1108.8 728.77,-1108.8 728.77,-1108.8 734.77,-1108.8 740.77,-1114.8 740.77,-1120.8 740.77,-1120.8 740.77,-1140 740.77,-1140 740.77,-1146 734.77,-1152 728.77,-1152"/>
<text text-anchor="middle" x="675.04" y="-1123.2" font-family="Times,serif" font-size="24.00">baml_tests</text>
</g>
<!-- __project__&#45;&gt;baml_tests -->
<g id="edge4" class="edge">
<title>__project__&#45;&gt;baml_tests</title>
<path fill="none" stroke="#555555" d="M570.39,-1187.5C586.9,-1178.65 606.31,-1168.25 623.91,-1158.81"/>
<polygon fill="#555555" stroke="#555555" points="625.81,-1162.56 634.4,-1153.18 621.84,-1155.15 625.81,-1162.56"/>
</g>
<!-- baml_tools_onionskin -->
<g id="node6" class="node">
<title>baml_tools_onionskin</title>
<path fill="#e6d5f2" stroke="black" d="M993.11,-1152C993.11,-1152 774.97,-1152 774.97,-1152 768.97,-1152 762.97,-1146 762.97,-1140 762.97,-1140 762.97,-1120.8 762.97,-1120.8 762.97,-1114.8 768.97,-1108.8 774.97,-1108.8 774.97,-1108.8 993.11,-1108.8 993.11,-1108.8 999.11,-1108.8 1005.11,-1114.8 1005.11,-1120.8 1005.11,-1120.8 1005.11,-1140 1005.11,-1140 1005.11,-1146 999.11,-1152 993.11,-1152"/>
<text text-anchor="middle" x="884.04" y="-1123.2" font-family="Times,serif" font-size="24.00">baml_tools_onionskin</text>
</g>
<!-- __project__&#45;&gt;baml_tools_onionskin -->
<g id="edge5" class="edge">
<title>__project__&#45;&gt;baml_tools_onionskin</title>
<path fill="none" stroke="#555555" d="M602.9,-1192.88C652.37,-1182.07 718.99,-1167.49 774.97,-1155.25"/>
<polygon fill="#555555" stroke="#555555" points="775.54,-1159.43 786.37,-1152.76 773.75,-1151.22 775.54,-1159.43"/>
</g>
<!-- baml_project -->
<g id="node13" class="node">
<title>baml_project</title>
<path fill="#c3e6cb" stroke="black" d="M672.75,-914.4C672.75,-914.4 541.33,-914.4 541.33,-914.4 535.33,-914.4 529.33,-908.4 529.33,-902.4 529.33,-902.4 529.33,-883.2 529.33,-883.2 529.33,-877.2 535.33,-871.2 541.33,-871.2 541.33,-871.2 672.75,-871.2 672.75,-871.2 678.75,-871.2 684.75,-877.2 684.75,-883.2 684.75,-883.2 684.75,-902.4 684.75,-902.4 684.75,-908.4 678.75,-914.4 672.75,-914.4"/>
<text text-anchor="middle" x="607.04" y="-885.6" font-family="Times,serif" font-size="24.00">baml_project</text>
</g>
<!-- baml&#45;playground&#45;wasm&#45;&gt;baml_project -->
<g id="edge6" class="edge">
<title>baml&#45;playground&#45;wasm&#45;&gt;baml_project</title>
<path fill="none" stroke="#555555" d="M132.17,-1108.49C139.07,-1070.29 159.4,-989.55 212.04,-950.4 258.72,-915.68 414.18,-902.16 515.58,-896.96"/>
<polygon fill="#555555" stroke="#555555" points="515.61,-901.16 527.39,-896.38 515.2,-892.77 515.61,-901.16"/>
</g>
<!-- baml_lsp -->
<g id="node7" class="node">
<title>baml_lsp</title>
<path fill="#98d8c8" stroke="black" d="M561.44,-1072.8C561.44,-1072.8 468.64,-1072.8 468.64,-1072.8 462.64,-1072.8 456.64,-1066.8 456.64,-1060.8 456.64,-1060.8 456.64,-1041.6 456.64,-1041.6 456.64,-1035.6 462.64,-1029.6 468.64,-1029.6 468.64,-1029.6 561.44,-1029.6 561.44,-1029.6 567.44,-1029.6 573.44,-1035.6 573.44,-1041.6 573.44,-1041.6 573.44,-1060.8 573.44,-1060.8 573.44,-1066.8 567.44,-1072.8 561.44,-1072.8"/>
<text text-anchor="middle" x="515.04" y="-1044" font-family="Times,serif" font-size="24.00">baml_lsp</text>
</g>
<!-- baml_cli&#45;&gt;baml_lsp -->
<g id="edge9" class="edge">
<title>baml_cli&#45;&gt;baml_lsp</title>
<path fill="none" stroke="#555555" d="M526.67,-1108.3C525.26,-1101.5 523.65,-1093.77 522.1,-1086.27"/>
<polygon fill="#555555" stroke="#555555" points="526.26,-1085.65 519.71,-1074.75 518.04,-1087.35 526.26,-1085.65"/>
</g>
<!-- baml_ide -->
<g id="node9" class="node">
<title>baml_ide</title>
<path fill="#f8d7da" stroke="black" d="M329.09,-993.6C329.09,-993.6 234.98,-993.6 234.98,-993.6 228.98,-993.6 222.98,-987.6 222.98,-981.6 222.98,-981.6 222.98,-962.4 222.98,-962.4 222.98,-956.4 228.98,-950.4 234.98,-950.4 234.98,-950.4 329.09,-950.4 329.09,-950.4 335.09,-950.4 341.09,-956.4 341.09,-962.4 341.09,-962.4 341.09,-981.6 341.09,-981.6 341.09,-987.6 335.09,-993.6 329.09,-993.6"/>
<text text-anchor="middle" x="282.04" y="-964.8" font-family="Times,serif" font-size="24.00">baml_ide</text>
</g>
<!-- baml_ide_tests&#45;&gt;baml_ide -->
<g id="edge26" class="edge">
<title>baml_ide_tests&#45;&gt;baml_ide</title>
<path fill="none" stroke="#555555" d="M354.71,-1108.31C340.58,-1082 316.27,-1036.73 299.69,-1005.86"/>
<polygon fill="#555555" stroke="#555555" points="303.42,-1003.93 294.04,-995.34 296.02,-1007.9 303.42,-1003.93"/>
</g>
<!-- baml_vm -->
<g id="node8" class="node">
<title>baml_vm</title>
<path fill="#98d8c8" stroke="black" d="M931.77,-1072.8C931.77,-1072.8 836.31,-1072.8 836.31,-1072.8 830.31,-1072.8 824.31,-1066.8 824.31,-1060.8 824.31,-1060.8 824.31,-1041.6 824.31,-1041.6 824.31,-1035.6 830.31,-1029.6 836.31,-1029.6 836.31,-1029.6 931.77,-1029.6 931.77,-1029.6 937.77,-1029.6 943.77,-1035.6 943.77,-1041.6 943.77,-1041.6 943.77,-1060.8 943.77,-1060.8 943.77,-1066.8 937.77,-1072.8 931.77,-1072.8"/>
<text text-anchor="middle" x="884.04" y="-1044" font-family="Times,serif" font-size="24.00">baml_vm</text>
</g>
<!-- baml_tests&#45;&gt;baml_vm -->
<g id="edge36" class="edge">
<title>baml_tests&#45;&gt;baml_vm</title>
<path fill="none" stroke="#555555" d="M732.15,-1108.3C757.61,-1098.9 787.83,-1087.74 814.58,-1077.86"/>
<polygon fill="#555555" stroke="#555555" points="815.78,-1081.89 825.58,-1073.79 812.87,-1074.01 815.78,-1081.89"/>
</g>
<!-- baml_tests&#45;&gt;baml_project -->
<g id="edge35" class="edge">
<title>baml_tests&#45;&gt;baml_project</title>
<path fill="none" stroke="#555555" d="M669,-1108.49C657.21,-1067.63 631.01,-976.84 616.74,-927.43"/>
<polygon fill="#555555" stroke="#555555" points="620.84,-926.48 613.48,-916.12 612.77,-928.81 620.84,-926.48"/>
</g>
<!-- anyhow -->
<g id="node14" class="node">
<title>anyhow</title>
<path fill="white" stroke="black" d="M901.43,-914.4C901.43,-914.4 820.65,-914.4 820.65,-914.4 814.65,-914.4 808.65,-908.4 808.65,-902.4 808.65,-902.4 808.65,-883.2 808.65,-883.2 808.65,-877.2 814.65,-871.2 820.65,-871.2 820.65,-871.2 901.43,-871.2 901.43,-871.2 907.43,-871.2 913.43,-877.2 913.43,-883.2 913.43,-883.2 913.43,-902.4 913.43,-902.4 913.43,-908.4 907.43,-914.4 901.43,-914.4"/>
<text text-anchor="middle" x="861.04" y="-885.6" font-family="Times,serif" font-size="24.00">anyhow</text>
</g>
<!-- baml_tests&#45;&gt;anyhow -->
<g id="edge34" class="edge">
<title>baml_tests&#45;&gt;anyhow</title>
<path fill="none" stroke="#555555" d="M702.11,-1108.33C729.46,-1087.41 773.23,-1054.89 813.04,-1029.6 840.91,-1011.89 861.27,-1022.05 878.04,-993.6 889.88,-973.51 884.88,-947.43 877.31,-926.97"/>
<polygon fill="#555555" stroke="#555555" points="881.31,-925.64 872.84,-916.16 873.54,-928.85 881.31,-925.64"/>
</g>
<!-- baml_tools_onionskin&#45;&gt;baml_vm -->
<g id="edge39" class="edge">
<title>baml_tools_onionskin&#45;&gt;baml_vm</title>
<path fill="none" stroke="#555555" d="M884.04,-1108.3C884.04,-1101.58 884.04,-1093.96 884.04,-1086.55"/>
<polygon fill="#555555" stroke="#555555" points="888.24,-1086.78 884.04,-1074.78 879.84,-1086.78 888.24,-1086.78"/>
</g>
<!-- baml_tools_onionskin&#45;&gt;baml_project -->
<g id="edge38" class="edge">
<title>baml_tools_onionskin&#45;&gt;baml_project</title>
<path fill="none" stroke="#555555" d="M842.39,-1108.51C797.82,-1084.8 726.71,-1042.94 676.04,-993.6 655.6,-973.7 637.48,-946.93 624.94,-926.12"/>
<polygon fill="#555555" stroke="#555555" points="628.68,-924.2 618.99,-915.96 621.43,-928.44 628.68,-924.2"/>
</g>
<!-- baml_tools_onionskin&#45;&gt;anyhow -->
<g id="edge37" class="edge">
<title>baml_tools_onionskin&#45;&gt;anyhow</title>
<path fill="none" stroke="#555555" d="M922.63,-1108.32C935.37,-1099.21 948.06,-1087.29 955.04,-1072.8 963.37,-1055.5 959.2,-1048.34 955.04,-1029.6 946.62,-991.67 940.39,-982.18 918.04,-950.4 911.54,-941.16 903.44,-932.09 895.41,-924.02"/>
<polygon fill="#555555" stroke="#555555" points="898.4,-921.07 886.84,-915.77 892.57,-927.12 898.4,-921.07"/>
</g>
<!-- baml_lsp&#45;&gt;baml_ide -->
<g id="edge27" class="edge">
<title>baml_lsp&#45;&gt;baml_ide</title>
<path fill="none" stroke="#555555" d="M456.24,-1030.72C425.18,-1020.43 386.79,-1007.71 353.97,-996.83"/>
<polygon fill="#555555" stroke="#555555" points="355.37,-992.87 342.66,-993.08 352.73,-1000.85 355.37,-992.87"/>
</g>
<!-- baml_lsp_types -->
<g id="node10" class="node">
<title>baml_lsp_types</title>
<path fill="#98d8c8" stroke="black" d="M854.77,-993.6C854.77,-993.6 699.31,-993.6 699.31,-993.6 693.31,-993.6 687.31,-987.6 687.31,-981.6 687.31,-981.6 687.31,-962.4 687.31,-962.4 687.31,-956.4 693.31,-950.4 699.31,-950.4 699.31,-950.4 854.77,-950.4 854.77,-950.4 860.77,-950.4 866.77,-956.4 866.77,-962.4 866.77,-962.4 866.77,-981.6 866.77,-981.6 866.77,-987.6 860.77,-993.6 854.77,-993.6"/>
<text text-anchor="middle" x="777.04" y="-964.8" font-family="Times,serif" font-size="24.00">baml_lsp_types</text>
</g>
<!-- baml_lsp&#45;&gt;baml_lsp_types -->
<g id="edge28" class="edge">
<title>baml_lsp&#45;&gt;baml_lsp_types</title>
<path fill="none" stroke="#555555" d="M573.84,-1032.87C608.94,-1022.53 654.11,-1009.22 692.94,-997.78"/>
<polygon fill="#555555" stroke="#555555" points="694.07,-1001.83 704.4,-994.4 691.7,-993.77 694.07,-1001.83"/>
</g>
<!-- thiserror -->
<g id="node11" class="node">
<title>thiserror</title>
<path fill="white" stroke="black" d="M561.09,-993.6C561.09,-993.6 474.99,-993.6 474.99,-993.6 468.99,-993.6 462.99,-987.6 462.99,-981.6 462.99,-981.6 462.99,-962.4 462.99,-962.4 462.99,-956.4 468.99,-950.4 474.99,-950.4 474.99,-950.4 561.09,-950.4 561.09,-950.4 567.09,-950.4 573.09,-956.4 573.09,-962.4 573.09,-962.4 573.09,-981.6 573.09,-981.6 573.09,-987.6 567.09,-993.6 561.09,-993.6"/>
<text text-anchor="middle" x="518.04" y="-964.8" font-family="Times,serif" font-size="24.00">thiserror</text>
</g>
<!-- baml_lsp&#45;&gt;thiserror -->
<g id="edge29" class="edge">
<title>baml_lsp&#45;&gt;thiserror</title>
<path fill="none" stroke="#555555" d="M515.86,-1029.1C516.12,-1022.38 516.42,-1014.76 516.7,-1007.35"/>
<polygon fill="#555555" stroke="#555555" points="520.89,-1007.74 517.16,-995.58 512.5,-1007.41 520.89,-1007.74"/>
</g>
<!-- tokio -->
<g id="node12" class="node">
<title>tokio</title>
<path fill="white" stroke="black" d="M429.11,-993.6C429.11,-993.6 374.97,-993.6 374.97,-993.6 368.97,-993.6 362.97,-987.6 362.97,-981.6 362.97,-981.6 362.97,-962.4 362.97,-962.4 362.97,-956.4 368.97,-950.4 374.97,-950.4 374.97,-950.4 429.11,-950.4 429.11,-950.4 435.11,-950.4 441.11,-956.4 441.11,-962.4 441.11,-962.4 441.11,-981.6 441.11,-981.6 441.11,-987.6 435.11,-993.6 429.11,-993.6"/>
<text text-anchor="middle" x="402.04" y="-964.8" font-family="Times,serif" font-size="24.00">tokio</text>
</g>
<!-- baml_lsp&#45;&gt;tokio -->
<g id="edge30" class="edge">
<title>baml_lsp&#45;&gt;tokio</title>
<path fill="none" stroke="#555555" d="M484.16,-1029.1C471.7,-1020.59 457.14,-1010.64 443.76,-1001.51"/>
<polygon fill="#555555" stroke="#555555" points="446.41,-998.22 434.13,-994.92 441.67,-1005.16 446.41,-998.22"/>
</g>
<!-- baml_vm_types -->
<g id="node19" class="node">
<title>baml_vm_types</title>
<path fill="#98d8c8" stroke="black" d="M990.1,-676.8C990.1,-676.8 831.98,-676.8 831.98,-676.8 825.98,-676.8 819.98,-670.8 819.98,-664.8 819.98,-664.8 819.98,-645.6 819.98,-645.6 819.98,-639.6 825.98,-633.6 831.98,-633.6 831.98,-633.6 990.1,-633.6 990.1,-633.6 996.1,-633.6 1002.1,-639.6 1002.1,-645.6 1002.1,-645.6 1002.1,-664.8 1002.1,-664.8 1002.1,-670.8 996.1,-676.8 990.1,-676.8"/>
<text text-anchor="middle" x="911.04" y="-648" font-family="Times,serif" font-size="24.00">baml_vm_types</text>
</g>
<!-- baml_vm&#45;&gt;baml_vm_types -->
<g id="edge40" class="edge">
<title>baml_vm&#45;&gt;baml_vm_types</title>
<path fill="none" stroke="#555555" d="M898.33,-1029.51C916.92,-1000.54 947.04,-945.61 947.04,-893.8 947.04,-893.8 947.04,-893.8 947.04,-812.6 947.04,-769.4 933.83,-721.15 923.42,-689.82"/>
<polygon fill="#555555" stroke="#555555" points="927.4,-688.5 919.52,-678.53 919.46,-691.24 927.4,-688.5"/>
</g>
<!-- baml_ide&#45;&gt;baml_project -->
<g id="edge25" class="edge">
<title>baml_ide&#45;&gt;baml_project</title>
<path fill="none" stroke="#555555" d="M341.54,-953.19C345.08,-952.22 348.6,-951.29 352.04,-950.4 406.04,-936.48 467,-922.87 515.78,-912.49"/>
<polygon fill="#555555" stroke="#555555" points="516.52,-916.62 527.39,-910.03 514.78,-908.41 516.52,-916.62"/>
</g>
<!-- baml_lsp_types&#45;&gt;anyhow -->
<g id="edge31" class="edge">
<title>baml_lsp_types&#45;&gt;anyhow</title>
<path fill="none" stroke="#555555" d="M799.99,-949.9C808.7,-941.91 818.79,-932.63 828.22,-923.96"/>
<polygon fill="#555555" stroke="#555555" points="831.01,-927.11 837,-915.89 825.32,-920.92 831.01,-927.11"/>
</g>
<!-- serde -->
<g id="node15" class="node">
<title>serde</title>
<path fill="white" stroke="black" d="M774.76,-914.4C774.76,-914.4 719.32,-914.4 719.32,-914.4 713.32,-914.4 707.32,-908.4 707.32,-902.4 707.32,-902.4 707.32,-883.2 707.32,-883.2 707.32,-877.2 713.32,-871.2 719.32,-871.2 719.32,-871.2 774.76,-871.2 774.76,-871.2 780.76,-871.2 786.76,-877.2 786.76,-883.2 786.76,-883.2 786.76,-902.4 786.76,-902.4 786.76,-908.4 780.76,-914.4 774.76,-914.4"/>
<text text-anchor="middle" x="747.04" y="-885.6" font-family="Times,serif" font-size="24.00">serde</text>
</g>
<!-- baml_lsp_types&#45;&gt;serde -->
<g id="edge32" class="edge">
<title>baml_lsp_types&#45;&gt;serde</title>
<path fill="none" stroke="#555555" d="M768.84,-949.9C766.13,-942.93 763.04,-934.98 760.06,-927.31"/>
<polygon fill="#555555" stroke="#555555" points="764.04,-925.94 755.77,-916.28 756.21,-928.99 764.04,-925.94"/>
</g>
<!-- baml_db -->
<g id="node16" class="node">
<title>baml_db</title>
<path fill="#f8d7da" stroke="black" d="M687.43,-835.2C687.43,-835.2 598.64,-835.2 598.64,-835.2 592.64,-835.2 586.64,-829.2 586.64,-823.2 586.64,-823.2 586.64,-804 586.64,-804 586.64,-798 592.64,-792 598.64,-792 598.64,-792 687.43,-792 687.43,-792 693.43,-792 699.43,-798 699.43,-804 699.43,-804 699.43,-823.2 699.43,-823.2 699.43,-829.2 693.43,-835.2 687.43,-835.2"/>
<text text-anchor="middle" x="643.04" y="-806.4" font-family="Times,serif" font-size="24.00">baml_db</text>
</g>
<!-- baml_project&#45;&gt;baml_db -->
<g id="edge33" class="edge">
<title>baml_project&#45;&gt;baml_db</title>
<path fill="none" stroke="#555555" d="M616.88,-870.7C620.17,-863.64 623.93,-855.59 627.54,-847.83"/>
<polygon fill="#555555" stroke="#555555" points="631.31,-849.69 632.57,-837.04 623.7,-846.14 631.31,-849.69"/>
</g>
<!-- baml_compiler_emit -->
<g id="node17" class="node">
<title>baml_compiler_emit</title>
<path fill="#82c99a" stroke="black" d="M767.41,-756C767.41,-756 562.67,-756 562.67,-756 556.67,-756 550.67,-750 550.67,-744 550.67,-744 550.67,-724.8 550.67,-724.8 550.67,-718.8 556.67,-712.8 562.67,-712.8 562.67,-712.8 767.41,-712.8 767.41,-712.8 773.41,-712.8 779.41,-718.8 779.41,-724.8 779.41,-724.8 779.41,-744 779.41,-744 779.41,-750 773.41,-756 767.41,-756"/>
<text text-anchor="middle" x="665.04" y="-727.2" font-family="Times,serif" font-size="24.00">baml_compiler_emit</text>
</g>
<!-- baml_db&#45;&gt;baml_compiler_emit -->
<g id="edge24" class="edge">
<title>baml_db&#45;&gt;baml_compiler_emit</title>
<path fill="none" stroke="#555555" d="M649.05,-791.5C651.01,-784.61 653.25,-776.77 655.41,-769.19"/>
<polygon fill="#555555" stroke="#555555" points="659.37,-770.62 658.62,-757.93 651.29,-768.31 659.37,-770.62"/>
</g>
<!-- baml_compiler_mir -->
<g id="node18" class="node">
<title>baml_compiler_mir</title>
<path fill="#82c99a" stroke="black" d="M762.75,-676.8C762.75,-676.8 567.33,-676.8 567.33,-676.8 561.33,-676.8 555.33,-670.8 555.33,-664.8 555.33,-664.8 555.33,-645.6 555.33,-645.6 555.33,-639.6 561.33,-633.6 567.33,-633.6 567.33,-633.6 762.75,-633.6 762.75,-633.6 768.75,-633.6 774.75,-639.6 774.75,-645.6 774.75,-645.6 774.75,-664.8 774.75,-664.8 774.75,-670.8 768.75,-676.8 762.75,-676.8"/>
<text text-anchor="middle" x="665.04" y="-648" font-family="Times,serif" font-size="24.00">baml_compiler_mir</text>
</g>
<!-- baml_compiler_emit&#45;&gt;baml_compiler_mir -->
<g id="edge11" class="edge">
<title>baml_compiler_emit&#45;&gt;baml_compiler_mir</title>
<path fill="none" stroke="#555555" d="M665.04,-712.3C665.04,-705.58 665.04,-697.96 665.04,-690.55"/>
<polygon fill="#555555" stroke="#555555" points="669.24,-690.78 665.04,-678.78 660.84,-690.78 669.24,-690.78"/>
</g>
<!-- baml_compiler_emit&#45;&gt;baml_vm_types -->
<g id="edge12" class="edge">
<title>baml_compiler_emit&#45;&gt;baml_vm_types</title>
<path fill="none" stroke="#555555" d="M732.26,-712.3C762.9,-702.69 799.41,-691.23 831.41,-681.19"/>
<polygon fill="#555555" stroke="#555555" points="832.26,-685.32 842.46,-677.72 829.75,-677.31 832.26,-685.32"/>
</g>
<!-- baml_compiler_vir -->
<g id="node20" class="node">
<title>baml_compiler_vir</title>
<path fill="#82c99a" stroke="black" d="M759.41,-597.6C759.41,-597.6 570.66,-597.6 570.66,-597.6 564.66,-597.6 558.66,-591.6 558.66,-585.6 558.66,-585.6 558.66,-566.4 558.66,-566.4 558.66,-560.4 564.66,-554.4 570.66,-554.4 570.66,-554.4 759.41,-554.4 759.41,-554.4 765.41,-554.4 771.41,-560.4 771.41,-566.4 771.41,-566.4 771.41,-585.6 771.41,-585.6 771.41,-591.6 765.41,-597.6 759.41,-597.6"/>
<text text-anchor="middle" x="665.04" y="-568.8" font-family="Times,serif" font-size="24.00">baml_compiler_vir</text>
</g>
<!-- baml_compiler_mir&#45;&gt;baml_compiler_vir -->
<g id="edge15" class="edge">
<title>baml_compiler_mir&#45;&gt;baml_compiler_vir</title>
<path fill="none" stroke="#555555" d="M665.04,-633.1C665.04,-626.38 665.04,-618.76 665.04,-611.35"/>
<polygon fill="#555555" stroke="#555555" points="669.24,-611.58 665.04,-599.58 660.84,-611.58 669.24,-611.58"/>
</g>
<!-- baml_builtins -->
<g id="node22" class="node">
<title>baml_builtins</title>
<path fill="#87ceeb" stroke="black" d="M835.44,-439.2C835.44,-439.2 698.64,-439.2 698.64,-439.2 692.64,-439.2 686.64,-433.2 686.64,-427.2 686.64,-427.2 686.64,-408 686.64,-408 686.64,-402 692.64,-396 698.64,-396 698.64,-396 835.44,-396 835.44,-396 841.44,-396 847.44,-402 847.44,-408 847.44,-408 847.44,-427.2 847.44,-427.2 847.44,-433.2 841.44,-439.2 835.44,-439.2"/>
<text text-anchor="middle" x="767.04" y="-410.4" font-family="Times,serif" font-size="24.00">baml_builtins</text>
</g>
<!-- baml_vm_types&#45;&gt;baml_builtins -->
<g id="edge42" class="edge">
<title>baml_vm_types&#45;&gt;baml_builtins</title>
<path fill="none" stroke="#555555" d="M898.26,-633.29C873.07,-592.08 816.84,-500.08 786.82,-450.97"/>
<polygon fill="#555555" stroke="#555555" points="790.42,-448.8 780.58,-440.75 783.25,-453.18 790.42,-448.8"/>
</g>
<!-- baml_base -->
<g id="node31" class="node">
<title>baml_base</title>
<path fill="#c3e6cb" stroke="black" d="M887.76,-122.4C887.76,-122.4 780.32,-122.4 780.32,-122.4 774.32,-122.4 768.32,-116.4 768.32,-110.4 768.32,-110.4 768.32,-91.2 768.32,-91.2 768.32,-85.2 774.32,-79.2 780.32,-79.2 780.32,-79.2 887.76,-79.2 887.76,-79.2 893.76,-79.2 899.76,-85.2 899.76,-91.2 899.76,-91.2 899.76,-110.4 899.76,-110.4 899.76,-116.4 893.76,-122.4 887.76,-122.4"/>
<text text-anchor="middle" x="834.04" y="-93.6" font-family="Times,serif" font-size="24.00">baml_base</text>
</g>
<!-- baml_vm_types&#45;&gt;baml_base -->
<g id="edge41" class="edge">
<title>baml_vm_types&#45;&gt;baml_base</title>
<path fill="none" stroke="#555555" d="M915.87,-633.33C922.34,-603.47 933.04,-546.74 933.04,-497.8 933.04,-497.8 933.04,-497.8 933.04,-258.2 933.04,-208.11 896.33,-161.03 867.62,-131.87"/>
<polygon fill="#555555" stroke="#555555" points="870.85,-129.15 859.34,-123.75 864.97,-135.15 870.85,-129.15"/>
</g>
<!-- baml_compiler_tir -->
<g id="node21" class="node">
<title>baml_compiler_tir</title>
<path fill="#82c99a" stroke="black" d="M756.75,-518.4C756.75,-518.4 573.33,-518.4 573.33,-518.4 567.33,-518.4 561.33,-512.4 561.33,-506.4 561.33,-506.4 561.33,-487.2 561.33,-487.2 561.33,-481.2 567.33,-475.2 573.33,-475.2 573.33,-475.2 756.75,-475.2 756.75,-475.2 762.75,-475.2 768.75,-481.2 768.75,-487.2 768.75,-487.2 768.75,-506.4 768.75,-506.4 768.75,-512.4 762.75,-518.4 756.75,-518.4"/>
<text text-anchor="middle" x="665.04" y="-489.6" font-family="Times,serif" font-size="24.00">baml_compiler_tir</text>
</g>
<!-- baml_compiler_vir&#45;&gt;baml_compiler_tir -->
<g id="edge23" class="edge">
<title>baml_compiler_vir&#45;&gt;baml_compiler_tir</title>
<path fill="none" stroke="#555555" d="M665.04,-553.9C665.04,-547.18 665.04,-539.56 665.04,-532.15"/>
<polygon fill="#555555" stroke="#555555" points="669.24,-532.38 665.04,-520.38 660.84,-532.38 669.24,-532.38"/>
</g>
<!-- baml_compiler_tir&#45;&gt;baml_builtins -->
<g id="edge21" class="edge">
<title>baml_compiler_tir&#45;&gt;baml_builtins</title>
<path fill="none" stroke="#555555" d="M692.91,-474.7C703.93,-466.36 716.78,-456.64 728.65,-447.65"/>
<polygon fill="#555555" stroke="#555555" points="730.96,-451.17 737.99,-440.58 725.89,-444.48 730.96,-451.17"/>
</g>
<!-- baml_compiler_hir -->
<g id="node23" class="node">
<title>baml_compiler_hir</title>
<path fill="#82c99a" stroke="black" d="M611.41,-439.2C611.41,-439.2 422.66,-439.2 422.66,-439.2 416.66,-439.2 410.66,-433.2 410.66,-427.2 410.66,-427.2 410.66,-408 410.66,-408 410.66,-402 416.66,-396 422.66,-396 422.66,-396 611.41,-396 611.41,-396 617.41,-396 623.41,-402 623.41,-408 623.41,-408 623.41,-427.2 623.41,-427.2 623.41,-433.2 617.41,-439.2 611.41,-439.2"/>
<text text-anchor="middle" x="517.04" y="-410.4" font-family="Times,serif" font-size="24.00">baml_compiler_hir</text>
</g>
<!-- baml_compiler_tir&#45;&gt;baml_compiler_hir -->
<g id="edge22" class="edge">
<title>baml_compiler_tir&#45;&gt;baml_compiler_hir</title>
<path fill="none" stroke="#555555" d="M624.6,-474.7C607.55,-465.81 587.48,-455.35 569.33,-445.88"/>
<polygon fill="#555555" stroke="#555555" points="571.36,-442.2 558.77,-440.37 567.47,-449.64 571.36,-442.2"/>
</g>
<!-- baml_builtins_macros -->
<g id="node24" class="node">
<title>baml_builtins_macros</title>
<path fill="#87ceeb" stroke="black" d="M876.09,-360C876.09,-360 657.99,-360 657.99,-360 651.99,-360 645.99,-354 645.99,-348 645.99,-348 645.99,-328.8 645.99,-328.8 645.99,-322.8 651.99,-316.8 657.99,-316.8 657.99,-316.8 876.09,-316.8 876.09,-316.8 882.09,-316.8 888.09,-322.8 888.09,-328.8 888.09,-328.8 888.09,-348 888.09,-348 888.09,-354 882.09,-360 876.09,-360"/>
<text text-anchor="middle" x="767.04" y="-331.2" font-family="Times,serif" font-size="24.00">baml_builtins_macros</text>
</g>
<!-- baml_builtins&#45;&gt;baml_builtins_macros -->
<g id="edge8" class="edge">
<title>baml_builtins&#45;&gt;baml_builtins_macros</title>
<path fill="none" stroke="#555555" d="M767.04,-395.5C767.04,-388.78 767.04,-381.16 767.04,-373.75"/>
<polygon fill="#555555" stroke="#555555" points="771.24,-373.98 767.04,-361.98 762.84,-373.98 771.24,-373.98"/>
</g>
<!-- baml_compiler_parser -->
<g id="node25" class="node">
<title>baml_compiler_parser</title>
<path fill="#82c99a" stroke="black" d="M585.4,-360C585.4,-360 364.68,-360 364.68,-360 358.68,-360 352.68,-354 352.68,-348 352.68,-348 352.68,-328.8 352.68,-328.8 352.68,-322.8 358.68,-316.8 364.68,-316.8 364.68,-316.8 585.4,-316.8 585.4,-316.8 591.4,-316.8 597.4,-322.8 597.4,-328.8 597.4,-328.8 597.4,-348 597.4,-348 597.4,-354 591.4,-360 585.4,-360"/>
<text text-anchor="middle" x="475.04" y="-331.2" font-family="Times,serif" font-size="24.00">baml_compiler_parser</text>
</g>
<!-- baml_compiler_hir&#45;&gt;baml_compiler_parser -->
<g id="edge13" class="edge">
<title>baml_compiler_hir&#45;&gt;baml_compiler_parser</title>
<path fill="none" stroke="#555555" d="M505.56,-395.5C501.63,-388.27 497.13,-380 492.81,-372.07"/>
<polygon fill="#555555" stroke="#555555" points="496.65,-370.33 487.22,-361.8 489.27,-374.35 496.65,-370.33"/>
</g>
<!-- baml_compiler_diagnostics -->
<g id="node26" class="node">
<title>baml_compiler_diagnostics</title>
<path fill="#82c99a" stroke="black" d="M887.08,-280.8C887.08,-280.8 617,-280.8 617,-280.8 611,-280.8 605,-274.8 605,-268.8 605,-268.8 605,-249.6 605,-249.6 605,-243.6 611,-237.6 617,-237.6 617,-237.6 887.08,-237.6 887.08,-237.6 893.08,-237.6 899.08,-243.6 899.08,-249.6 899.08,-249.6 899.08,-268.8 899.08,-268.8 899.08,-274.8 893.08,-280.8 887.08,-280.8"/>
<text text-anchor="middle" x="752.04" y="-252" font-family="Times,serif" font-size="24.00">baml_compiler_diagnostics</text>
</g>
<!-- baml_compiler_parser&#45;&gt;baml_compiler_diagnostics -->
<g id="edge16" class="edge">
<title>baml_compiler_parser&#45;&gt;baml_compiler_diagnostics</title>
<path fill="none" stroke="#555555" d="M550.73,-316.3C585.69,-306.56 627.43,-294.93 663.81,-284.79"/>
<polygon fill="#555555" stroke="#555555" points="664.55,-288.94 674.98,-281.68 662.29,-280.85 664.55,-288.94"/>
</g>
<!-- baml_compiler_lexer -->
<g id="node27" class="node">
<title>baml_compiler_lexer</title>
<path fill="#82c99a" stroke="black" d="M301.07,-280.8C301.07,-280.8 91.01,-280.8 91.01,-280.8 85.01,-280.8 79.01,-274.8 79.01,-268.8 79.01,-268.8 79.01,-249.6 79.01,-249.6 79.01,-243.6 85.01,-237.6 91.01,-237.6 91.01,-237.6 301.07,-237.6 301.07,-237.6 307.07,-237.6 313.07,-243.6 313.07,-249.6 313.07,-249.6 313.07,-268.8 313.07,-268.8 313.07,-274.8 307.07,-280.8 301.07,-280.8"/>
<text text-anchor="middle" x="196.04" y="-252" font-family="Times,serif" font-size="24.00">baml_compiler_lexer</text>
</g>
<!-- baml_compiler_parser&#45;&gt;baml_compiler_lexer -->
<g id="edge17" class="edge">
<title>baml_compiler_parser&#45;&gt;baml_compiler_lexer</title>
<path fill="none" stroke="#555555" d="M398.8,-316.3C363.59,-306.56 321.55,-294.93 284.9,-284.79"/>
<polygon fill="#555555" stroke="#555555" points="286.33,-280.83 273.64,-281.67 284.09,-288.92 286.33,-280.83"/>
</g>
<!-- baml_compiler_syntax -->
<g id="node28" class="node">
<title>baml_compiler_syntax</title>
<path fill="#82c99a" stroke="black" d="M571.41,-280.8C571.41,-280.8 346.66,-280.8 346.66,-280.8 340.66,-280.8 334.66,-274.8 334.66,-268.8 334.66,-268.8 334.66,-249.6 334.66,-249.6 334.66,-243.6 340.66,-237.6 346.66,-237.6 346.66,-237.6 571.41,-237.6 571.41,-237.6 577.41,-237.6 583.41,-243.6 583.41,-249.6 583.41,-249.6 583.41,-268.8 583.41,-268.8 583.41,-274.8 577.41,-280.8 571.41,-280.8"/>
<text text-anchor="middle" x="459.04" y="-252" font-family="Times,serif" font-size="24.00">baml_compiler_syntax</text>
</g>
<!-- baml_compiler_parser&#45;&gt;baml_compiler_syntax -->
<g id="edge18" class="edge">
<title>baml_compiler_parser&#45;&gt;baml_compiler_syntax</title>
<path fill="none" stroke="#555555" d="M470.67,-316.3C469.26,-309.5 467.65,-301.77 466.1,-294.27"/>
<polygon fill="#555555" stroke="#555555" points="470.26,-293.65 463.71,-282.75 462.04,-295.35 470.26,-293.65"/>
</g>
<!-- baml_workspace -->
<g id="node29" class="node">
<title>baml_workspace</title>
<path fill="#e6d5f2" stroke="black" d="M1146.74,-201.6C1146.74,-201.6 979.33,-201.6 979.33,-201.6 973.33,-201.6 967.33,-195.6 967.33,-189.6 967.33,-189.6 967.33,-170.4 967.33,-170.4 967.33,-164.4 973.33,-158.4 979.33,-158.4 979.33,-158.4 1146.74,-158.4 1146.74,-158.4 1152.74,-158.4 1158.74,-164.4 1158.74,-170.4 1158.74,-170.4 1158.74,-189.6 1158.74,-189.6 1158.74,-195.6 1152.74,-201.6 1146.74,-201.6"/>
<text text-anchor="middle" x="1063.04" y="-172.8" font-family="Times,serif" font-size="24.00">baml_workspace</text>
</g>
<!-- baml_compiler_diagnostics&#45;&gt;baml_workspace -->
<g id="edge10" class="edge">
<title>baml_compiler_diagnostics&#45;&gt;baml_workspace</title>
<path fill="none" stroke="#555555" d="M837.02,-237.1C876.62,-227.28 923.95,-215.52 965.05,-205.32"/>
<polygon fill="#555555" stroke="#555555" points="966.06,-209.4 976.69,-202.43 964.03,-201.25 966.06,-209.4"/>
</g>
<!-- baml_compiler_lexer&#45;&gt;baml_base -->
<g id="edge14" class="edge">
<title>baml_compiler_lexer&#45;&gt;baml_base</title>
<path fill="none" stroke="#555555" d="M231.09,-237.11C271.36,-213.91 340.12,-177.41 404.04,-158.4 523.02,-123.01 667.08,-109.73 754.58,-104.76"/>
<polygon fill="#555555" stroke="#555555" points="754.59,-108.96 766.35,-104.12 754.14,-100.57 754.59,-108.96"/>
</g>
<!-- rowan -->
<g id="node30" class="node">
<title>rowan</title>
<path fill="white" stroke="black" d="M491.43,-201.6C491.43,-201.6 426.65,-201.6 426.65,-201.6 420.65,-201.6 414.65,-195.6 414.65,-189.6 414.65,-189.6 414.65,-170.4 414.65,-170.4 414.65,-164.4 420.65,-158.4 426.65,-158.4 426.65,-158.4 491.43,-158.4 491.43,-158.4 497.43,-158.4 503.43,-164.4 503.43,-170.4 503.43,-170.4 503.43,-189.6 503.43,-189.6 503.43,-195.6 497.43,-201.6 491.43,-201.6"/>
<text text-anchor="middle" x="459.04" y="-172.8" font-family="Times,serif" font-size="24.00">rowan</text>
</g>
<!-- baml_compiler_syntax&#45;&gt;rowan -->
<g id="edge20" class="edge">
<title>baml_compiler_syntax&#45;&gt;rowan</title>
<path fill="none" stroke="#555555" d="M459.04,-237.1C459.04,-230.38 459.04,-222.76 459.04,-215.35"/>
<polygon fill="#555555" stroke="#555555" points="463.24,-215.58 459.04,-203.58 454.84,-215.58 463.24,-215.58"/>
</g>
<!-- baml_compiler_syntax&#45;&gt;baml_base -->
<g id="edge19" class="edge">
<title>baml_compiler_syntax&#45;&gt;baml_base</title>
<path fill="none" stroke="#555555" d="M509.61,-237.11C577.46,-208.81 697.9,-158.58 771.4,-127.92"/>
<polygon fill="#555555" stroke="#555555" points="772.81,-131.89 782.27,-123.39 769.58,-124.13 772.81,-131.89"/>
</g>
<!-- baml_workspace&#45;&gt;baml_base -->
<g id="edge43" class="edge">
<title>baml_workspace&#45;&gt;baml_base</title>
<path fill="none" stroke="#555555" d="M1000.46,-157.9C972.19,-148.37 938.56,-137.04 908.95,-127.05"/>
<polygon fill="#555555" stroke="#555555" points="910.69,-123.21 897.97,-123.35 908,-131.17 910.69,-123.21"/>
</g>
<!-- salsa -->
<g id="node32" class="node">
<title>salsa</title>
<path fill="white" stroke="black" d="M859.76,-43.2C859.76,-43.2 808.31,-43.2 808.31,-43.2 802.31,-43.2 796.31,-37.2 796.31,-31.2 796.31,-31.2 796.31,-12 796.31,-12 796.31,-6 802.31,0 808.31,0 808.31,0 859.76,0 859.76,0 865.76,0 871.76,-6 871.76,-12 871.76,-12 871.76,-31.2 871.76,-31.2 871.76,-37.2 865.76,-43.2 859.76,-43.2"/>
<text text-anchor="middle" x="834.04" y="-14.4" font-family="Times,serif" font-size="24.00">salsa</text>
</g>
<!-- baml_base&#45;&gt;salsa -->
<g id="edge7" class="edge">
<title>baml_base&#45;&gt;salsa</title>
<path fill="none" stroke="#555555" d="M834.04,-78.7C834.04,-71.98 834.04,-64.36 834.04,-56.95"/>
<polygon fill="#555555" stroke="#555555" points="838.24,-57.18 834.04,-45.18 829.84,-57.18 838.24,-57.18"/>
</g>
</g>
</svg>
