<?xml version="1.0" encoding="UTF-8" standalone="no"?>
<!DOCTYPE svg PUBLIC "-//W3C//DTD SVG 1.1//EN"
 "http://www.w3.org/Graphics/SVG/1.1/DTD/svg11.dtd">
<!-- Generated by graphviz version 12.1.2 (20240928.0832)
 -->
<!-- Title: G Pages: 1 -->
<svg xmlns="http://www.w3.org/2000/svg" viewBox="0 0 1087.73 1239.20" width="1088" height="1239">
<g id="graph0" class="graph" transform="scale(1 1) rotate(0) translate(4 1235.2)">
<title>G</title>
<!-- __project__ -->
<g id="node1" class="node">
<title>__project__</title>
<path fill="#d4edda" stroke="black" d="M629.74,-1231.2C629.74,-1231.2 510.31,-1231.2 510.31,-1231.2 504.31,-1231.2 498.31,-1225.2 498.31,-1219.2 498.31,-1219.2 498.31,-1200 498.31,-1200 498.31,-1194 504.31,-1188 510.31,-1188 510.31,-1188 629.74,-1188 629.74,-1188 635.74,-1188 641.74,-1194 641.74,-1200 641.74,-1200 641.74,-1219.2 641.74,-1219.2 641.74,-1225.2 635.74,-1231.2 629.74,-1231.2"/>
<text text-anchor="middle" x="570.03" y="-1202.4" font-family="Times,serif" font-size="24.00">__project__</text>
</g>
<!-- baml_cli -->
<g id="node2" class="node">
<title>baml_cli</title>
<path fill="#ffb6c1" stroke="black" d="M512.42,-1152C512.42,-1152 423.64,-1152 423.64,-1152 417.64,-1152 411.64,-1146 411.64,-1140 411.64,-1140 411.64,-1120.8 411.64,-1120.8 411.64,-1114.8 417.64,-1108.8 423.64,-1108.8 423.64,-1108.8 512.42,-1108.8 512.42,-1108.8 518.42,-1108.8 524.42,-1114.8 524.42,-1120.8 524.42,-1120.8 524.42,-1140 524.42,-1140 524.42,-1146 518.42,-1152 512.42,-1152"/>
<text text-anchor="middle" x="468.03" y="-1123.2" font-family="Times,serif" font-size="24.00">baml_cli</text>
</g>
<!-- __project__&#45;&gt;baml_cli -->
<g id="edge1" class="edge">
<title>__project__&#45;&gt;baml_cli</title>
<path fill="none" stroke="#555555" d="M542.16,-1187.5C531.14,-1179.16 518.29,-1169.44 506.42,-1160.45"/>
<polygon fill="#555555" stroke="#555555" points="509.18,-1157.28 497.07,-1153.38 504.11,-1163.97 509.18,-1157.28"/>
</g>
<!-- baml_ide_tests -->
<g id="node3" class="node">
<title>baml_ide_tests</title>
<path fill="#a0a0a0" fill-opacity="0.501961" stroke="black" stroke-dasharray="5,2" d="M334.42,-1152C334.42,-1152 185.64,-1152 185.64,-1152 179.64,-1152 173.64,-1146 173.64,-1140 173.64,-1140 173.64,-1120.8 173.64,-1120.8 173.64,-1114.8 179.64,-1108.8 185.64,-1108.8 185.64,-1108.8 334.42,-1108.8 334.42,-1108.8 340.42,-1108.8 346.42,-1114.8 346.42,-1120.8 346.42,-1120.8 346.42,-1140 346.42,-1140 346.42,-1146 340.42,-1152 334.42,-1152"/>
<text text-anchor="middle" x="260.03" y="-1123.2" font-family="Times,serif" font-size="24.00">baml_ide_tests</text>
</g>
<!-- __project__&#45;&gt;baml_ide_tests -->
<g id="edge2" class="edge">
<title>__project__&#45;&gt;baml_ide_tests</title>
<path fill="none" stroke="#555555" d="M498.13,-1190.69C456.36,-1180.29 403.17,-1167.05 357.66,-1155.71"/>
<polygon fill="#555555" stroke="#555555" points="358.86,-1151.69 346.2,-1152.86 356.83,-1159.84 358.86,-1151.69"/>
</g>
<!-- baml_tests -->
<g id="node4" class="node">
<title>baml_tests</title>
<path fill="#a0a0a0" fill-opacity="0.501961" stroke="black" stroke-dasharray="5,2" d="M680.76,-1152C680.76,-1152 573.3,-1152 573.3,-1152 567.3,-1152 561.3,-1146 561.3,-1140 561.3,-1140 561.3,-1120.8 561.3,-1120.8 561.3,-1114.8 567.3,-1108.8 573.3,-1108.8 573.3,-1108.8 680.76,-1108.8 680.76,-1108.8 686.76,-1108.8 692.76,-1114.8 692.76,-1120.8 692.76,-1120.8 692.76,-1140 692.76,-1140 692.76,-1146 686.76,-1152 680.76,-1152"/>
<text text-anchor="middle" x="627.03" y="-1123.2" font-family="Times,serif" font-size="24.00">baml_tests</text>
</g>
<!-- __project__&#45;&gt;baml_tests -->
<g id="edge3" class="edge">
<title>__project__&#45;&gt;baml_tests</title>
<path fill="none" stroke="#555555" d="M585.6,-1187.5C591.13,-1180.02 597.48,-1171.41 603.53,-1163.23"/>
<polygon fill="#555555" stroke="#555555" points="606.82,-1165.84 610.57,-1153.69 600.06,-1160.85 606.82,-1165.84"/>
</g>
<!-- baml_tools_onionskin -->
<g id="node5" class="node">
<title>baml_tools_onionskin</title>
<path fill="#e6d5f2" stroke="black" d="M945.1,-1152C945.1,-1152 726.96,-1152 726.96,-1152 720.96,-1152 714.96,-1146 714.96,-1140 714.96,-1140 714.96,-1120.8 714.96,-1120.8 714.96,-1114.8 720.96,-1108.8 726.96,-1108.8 726.96,-1108.8 945.1,-1108.8 945.1,-1108.8 951.1,-1108.8 957.1,-1114.8 957.1,-1120.8 957.1,-1120.8 957.1,-1140 957.1,-1140 957.1,-1146 951.1,-1152 945.1,-1152"/>
<text text-anchor="middle" x="836.03" y="-1123.2" font-family="Times,serif" font-size="24.00">baml_tools_onionskin</text>
</g>
<!-- __project__&#45;&gt;baml_tools_onionskin -->
<g id="edge4" class="edge">
<title>__project__&#45;&gt;baml_tools_onionskin</title>
<path fill="none" stroke="#555555" d="M642.01,-1187.71C675.58,-1177.96 715.78,-1166.3 750.85,-1156.12"/>
<polygon fill="#555555" stroke="#555555" points="751.72,-1160.24 762.07,-1152.86 749.38,-1152.18 751.72,-1160.24"/>
</g>
<!-- baml_lsp -->
<g id="node6" class="node">
<title>baml_lsp</title>
<path fill="#98d8c8" stroke="black" d="M484.42,-1072.8C484.42,-1072.8 391.63,-1072.8 391.63,-1072.8 385.63,-1072.8 379.63,-1066.8 379.63,-1060.8 379.63,-1060.8 379.63,-1041.6 379.63,-1041.6 379.63,-1035.6 385.63,-1029.6 391.63,-1029.6 391.63,-1029.6 484.42,-1029.6 484.42,-1029.6 490.42,-1029.6 496.42,-1035.6 496.42,-1041.6 496.42,-1041.6 496.42,-1060.8 496.42,-1060.8 496.42,-1066.8 490.42,-1072.8 484.42,-1072.8"/>
<text text-anchor="middle" x="438.03" y="-1044" font-family="Times,serif" font-size="24.00">baml_lsp</text>
</g>
<!-- baml_cli&#45;&gt;baml_lsp -->
<g id="edge7" class="edge">
<title>baml_cli&#45;&gt;baml_lsp</title>
<path fill="none" stroke="#555555" d="M459.83,-1108.3C457.12,-1101.33 454.03,-1093.38 451.05,-1085.71"/>
<polygon fill="#555555" stroke="#555555" points="455.02,-1084.34 446.76,-1074.68 447.19,-1087.39 455.02,-1084.34"/>
</g>
<!-- baml_ide -->
<g id="node7" class="node">
<title>baml_ide</title>
<path fill="#f8d7da" stroke="black" d="M233.08,-993.6C233.08,-993.6 138.97,-993.6 138.97,-993.6 132.97,-993.6 126.97,-987.6 126.97,-981.6 126.97,-981.6 126.97,-962.4 126.97,-962.4 126.97,-956.4 132.97,-950.4 138.97,-950.4 138.97,-950.4 233.08,-950.4 233.08,-950.4 239.08,-950.4 245.08,-956.4 245.08,-962.4 245.08,-962.4 245.08,-981.6 245.08,-981.6 245.08,-987.6 239.08,-993.6 233.08,-993.6"/>
<text text-anchor="middle" x="186.03" y="-964.8" font-family="Times,serif" font-size="24.00">baml_ide</text>
</g>
<!-- baml_ide_tests&#45;&gt;baml_ide -->
<g id="edge24" class="edge">
<title>baml_ide_tests&#45;&gt;baml_ide</title>
<path fill="none" stroke="#555555" d="M250.05,-1108.31C237.6,-1082 216.18,-1036.73 201.57,-1005.86"/>
<polygon fill="#555555" stroke="#555555" points="205.54,-1004.43 196.61,-995.38 197.95,-1008.02 205.54,-1004.43"/>
</g>
<!-- baml_project -->
<g id="node11" class="node">
<title>baml_project</title>
<path fill="#c3e6cb" stroke="black" d="M764.74,-914.4C764.74,-914.4 633.32,-914.4 633.32,-914.4 627.32,-914.4 621.32,-908.4 621.32,-902.4 621.32,-902.4 621.32,-883.2 621.32,-883.2 621.32,-877.2 627.32,-871.2 633.32,-871.2 633.32,-871.2 764.74,-871.2 764.74,-871.2 770.74,-871.2 776.74,-877.2 776.74,-883.2 776.74,-883.2 776.74,-902.4 776.74,-902.4 776.74,-908.4 770.74,-914.4 764.74,-914.4"/>
<text text-anchor="middle" x="699.03" y="-885.6" font-family="Times,serif" font-size="24.00">baml_project</text>
</g>
<!-- baml_tests&#45;&gt;baml_project -->
<g id="edge33" class="edge">
<title>baml_tests&#45;&gt;baml_project</title>
<path fill="none" stroke="#555555" d="M639.44,-1108.62C654.27,-1082.7 678.51,-1036.52 690.03,-993.6 695.73,-972.34 698,-947.72 698.83,-928.25"/>
<polygon fill="#555555" stroke="#555555" points="703.02,-928.44 699.17,-916.32 694.63,-928.19 703.02,-928.44"/>
</g>
<!-- anyhow -->
<g id="node12" class="node">
<title>anyhow</title>
<path fill="white" stroke="black" d="M891.42,-914.4C891.42,-914.4 810.63,-914.4 810.63,-914.4 804.63,-914.4 798.63,-908.4 798.63,-902.4 798.63,-902.4 798.63,-883.2 798.63,-883.2 798.63,-877.2 804.63,-871.2 810.63,-871.2 810.63,-871.2 891.42,-871.2 891.42,-871.2 897.42,-871.2 903.42,-877.2 903.42,-883.2 903.42,-883.2 903.42,-902.4 903.42,-902.4 903.42,-908.4 897.42,-914.4 891.42,-914.4"/>
<text text-anchor="middle" x="851.03" y="-885.6" font-family="Times,serif" font-size="24.00">anyhow</text>
</g>
<!-- baml_tests&#45;&gt;anyhow -->
<g id="edge32" class="edge">
<title>baml_tests&#45;&gt;anyhow</title>
<path fill="none" stroke="#555555" d="M649.47,-1108.48C660.62,-1097.94 674.2,-1084.86 686.03,-1072.8 735.71,-1022.12 791.21,-960.91 823.52,-924.79"/>
<polygon fill="#555555" stroke="#555555" points="826.51,-927.74 831.37,-915.99 820.25,-922.14 826.51,-927.74"/>
</g>
<!-- baml_tools_onionskin&#45;&gt;baml_project -->
<g id="edge35" class="edge">
<title>baml_tools_onionskin&#45;&gt;baml_project</title>
<path fill="none" stroke="#555555" d="M823.87,-1108.49C799.9,-1067.28 746.41,-975.28 717.85,-926.17"/>
<polygon fill="#555555" stroke="#555555" points="721.58,-924.23 711.92,-915.97 714.32,-928.45 721.58,-924.23"/>
</g>
<!-- baml_tools_onionskin&#45;&gt;anyhow -->
<g id="edge34" class="edge">
<title>baml_tools_onionskin&#45;&gt;anyhow</title>
<path fill="none" stroke="#555555" d="M837.36,-1108.49C839.95,-1067.8 845.69,-977.62 848.85,-928.06"/>
<polygon fill="#555555" stroke="#555555" points="853.03,-928.41 849.6,-916.17 844.65,-927.88 853.03,-928.41"/>
</g>
<!-- baml_lsp&#45;&gt;baml_ide -->
<g id="edge25" class="edge">
<title>baml_lsp&#45;&gt;baml_ide</title>
<path fill="none" stroke="#555555" d="M379.26,-1032.2C343.07,-1021.11 296.4,-1006.81 258,-995.05"/>
<polygon fill="#555555" stroke="#555555" points="259.47,-991.11 246.77,-991.61 257.01,-999.14 259.47,-991.11"/>
</g>
<!-- baml_lsp_types -->
<g id="node8" class="node">
<title>baml_lsp_types</title>
<path fill="#98d8c8" stroke="black" d="M666.76,-993.6C666.76,-993.6 511.3,-993.6 511.3,-993.6 505.3,-993.6 499.3,-987.6 499.3,-981.6 499.3,-981.6 499.3,-962.4 499.3,-962.4 499.3,-956.4 505.3,-950.4 511.3,-950.4 511.3,-950.4 666.76,-950.4 666.76,-950.4 672.76,-950.4 678.76,-956.4 678.76,-962.4 678.76,-962.4 678.76,-981.6 678.76,-981.6 678.76,-987.6 672.76,-993.6 666.76,-993.6"/>
<text text-anchor="middle" x="589.03" y="-964.8" font-family="Times,serif" font-size="24.00">baml_lsp_types</text>
</g>
<!-- baml_lsp&#45;&gt;baml_lsp_types -->
<g id="edge26" class="edge">
<title>baml_lsp&#45;&gt;baml_lsp_types</title>
<path fill="none" stroke="#555555" d="M479.29,-1029.1C496.77,-1020.17 517.35,-1009.65 535.94,-1000.14"/>
<polygon fill="#555555" stroke="#555555" points="537.7,-1003.96 546.47,-994.76 533.87,-996.48 537.7,-1003.96"/>
</g>
<!-- thiserror -->
<g id="node9" class="node">
<title>thiserror</title>
<path fill="white" stroke="black" d="M365.08,-993.6C365.08,-993.6 278.97,-993.6 278.97,-993.6 272.97,-993.6 266.97,-987.6 266.97,-981.6 266.97,-981.6 266.97,-962.4 266.97,-962.4 266.97,-956.4 272.97,-950.4 278.97,-950.4 278.97,-950.4 365.08,-950.4 365.08,-950.4 371.08,-950.4 377.08,-956.4 377.08,-962.4 377.08,-962.4 377.08,-981.6 377.08,-981.6 377.08,-987.6 371.08,-993.6 365.08,-993.6"/>
<text text-anchor="middle" x="322.03" y="-964.8" font-family="Times,serif" font-size="24.00">thiserror</text>
</g>
<!-- baml_lsp&#45;&gt;thiserror -->
<g id="edge27" class="edge">
<title>baml_lsp&#45;&gt;thiserror</title>
<path fill="none" stroke="#555555" d="M406.33,-1029.1C393.54,-1020.59 378.59,-1010.64 364.86,-1001.51"/>
<polygon fill="#555555" stroke="#555555" points="367.26,-998.06 354.95,-994.91 362.61,-1005.05 367.26,-998.06"/>
</g>
<!-- tokio -->
<g id="node10" class="node">
<title>tokio</title>
<path fill="white" stroke="black" d="M465.09,-993.6C465.09,-993.6 410.96,-993.6 410.96,-993.6 404.96,-993.6 398.96,-987.6 398.96,-981.6 398.96,-981.6 398.96,-962.4 398.96,-962.4 398.96,-956.4 404.96,-950.4 410.96,-950.4 410.96,-950.4 465.09,-950.4 465.09,-950.4 471.09,-950.4 477.09,-956.4 477.09,-962.4 477.09,-962.4 477.09,-981.6 477.09,-981.6 477.09,-987.6 471.09,-993.6 465.09,-993.6"/>
<text text-anchor="middle" x="438.03" y="-964.8" font-family="Times,serif" font-size="24.00">tokio</text>
</g>
<!-- baml_lsp&#45;&gt;tokio -->
<g id="edge28" class="edge">
<title>baml_lsp&#45;&gt;tokio</title>
<path fill="none" stroke="#555555" d="M438.03,-1029.1C438.03,-1022.38 438.03,-1014.76 438.03,-1007.35"/>
<polygon fill="#555555" stroke="#555555" points="442.23,-1007.58 438.03,-995.58 433.83,-1007.58 442.23,-1007.58"/>
</g>
<!-- baml_ide&#45;&gt;baml_project -->
<g id="edge23" class="edge">
<title>baml_ide&#45;&gt;baml_project</title>
<path fill="none" stroke="#555555" d="M245.41,-952.71C248.99,-951.86 252.55,-951.08 256.03,-950.4 407.55,-920.69 452.26,-939.47 608.02,-914.74"/>
<polygon fill="#555555" stroke="#555555" points="608.26,-918.96 619.43,-912.88 606.91,-910.67 608.26,-918.96"/>
</g>
<!-- baml_lsp_types&#45;&gt;anyhow -->
<g id="edge29" class="edge">
<title>baml_lsp_types&#45;&gt;anyhow</title>
<path fill="none" stroke="#555555" d="M665.78,-949.92C699.63,-940.45 740.16,-928.88 785.29,-915.18"/>
<polygon fill="#555555" stroke="#555555" points="786.44,-919.22 796.69,-911.7 783.99,-911.18 786.44,-919.22"/>
</g>
<!-- serde -->
<g id="node13" class="node">
<title>serde</title>
<path fill="white" stroke="black" d="M587.75,-914.4C587.75,-914.4 532.31,-914.4 532.31,-914.4 526.31,-914.4 520.31,-908.4 520.31,-902.4 520.31,-902.4 520.31,-883.2 520.31,-883.2 520.31,-877.2 526.31,-871.2 532.31,-871.2 532.31,-871.2 587.75,-871.2 587.75,-871.2 593.75,-871.2 599.75,-877.2 599.75,-883.2 599.75,-883.2 599.75,-902.4 599.75,-902.4 599.75,-908.4 593.75,-914.4 587.75,-914.4"/>
<text text-anchor="middle" x="560.03" y="-885.6" font-family="Times,serif" font-size="24.00">serde</text>
</g>
<!-- baml_lsp_types&#45;&gt;serde -->
<g id="edge30" class="edge">
<title>baml_lsp_types&#45;&gt;serde</title>
<path fill="none" stroke="#555555" d="M581.1,-949.9C578.48,-942.93 575.5,-934.98 572.61,-927.31"/>
<polygon fill="#555555" stroke="#555555" points="576.63,-926.04 568.47,-916.29 568.76,-929 576.63,-926.04"/>
</g>
<!-- baml_db -->
<g id="node14" class="node">
<title>baml_db</title>
<path fill="#f8d7da" stroke="black" d="M743.42,-835.2C743.42,-835.2 654.63,-835.2 654.63,-835.2 648.63,-835.2 642.63,-829.2 642.63,-823.2 642.63,-823.2 642.63,-804 642.63,-804 642.63,-798 648.63,-792 654.63,-792 654.63,-792 743.42,-792 743.42,-792 749.42,-792 755.42,-798 755.42,-804 755.42,-804 755.42,-823.2 755.42,-823.2 755.42,-829.2 749.42,-835.2 743.42,-835.2"/>
<text text-anchor="middle" x="699.03" y="-806.4" font-family="Times,serif" font-size="24.00">baml_db</text>
</g>
<!-- baml_project&#45;&gt;baml_db -->
<g id="edge31" class="edge">
<title>baml_project&#45;&gt;baml_db</title>
<path fill="none" stroke="#555555" d="M699.03,-870.7C699.03,-863.98 699.03,-856.36 699.03,-848.95"/>
<polygon fill="#555555" stroke="#555555" points="703.23,-849.18 699.03,-837.18 694.83,-849.18 703.23,-849.18"/>
</g>
<!-- baml_compiler_emit -->
<g id="node15" class="node">
<title>baml_compiler_emit</title>
<path fill="#82c99a" stroke="black" d="M801.4,-756C801.4,-756 596.65,-756 596.65,-756 590.65,-756 584.65,-750 584.65,-744 584.65,-744 584.65,-724.8 584.65,-724.8 584.65,-718.8 590.65,-712.8 596.65,-712.8 596.65,-712.8 801.4,-712.8 801.4,-712.8 807.4,-712.8 813.4,-718.8 813.4,-724.8 813.4,-724.8 813.4,-744 813.4,-744 813.4,-750 807.4,-756 801.4,-756"/>
<text text-anchor="middle" x="699.03" y="-727.2" font-family="Times,serif" font-size="24.00">baml_compiler_emit</text>
</g>
<!-- baml_db&#45;&gt;baml_compiler_emit -->
<g id="edge22" class="edge">
<title>baml_db&#45;&gt;baml_compiler_emit</title>
<path fill="none" stroke="#555555" d="M699.03,-791.5C699.03,-784.78 699.03,-777.16 699.03,-769.75"/>
<polygon fill="#555555" stroke="#555555" points="703.23,-769.98 699.03,-757.98 694.83,-769.98 703.23,-769.98"/>
</g>
<!-- baml_compiler_mir -->
<g id="node16" class="node">
<title>baml_compiler_mir</title>
<path fill="#82c99a" stroke="black" d="M701.74,-676.8C701.74,-676.8 506.32,-676.8 506.32,-676.8 500.32,-676.8 494.32,-670.8 494.32,-664.8 494.32,-664.8 494.32,-645.6 494.32,-645.6 494.32,-639.6 500.32,-633.6 506.32,-633.6 506.32,-633.6 701.74,-633.6 701.74,-633.6 707.74,-633.6 713.74,-639.6 713.74,-645.6 713.74,-645.6 713.74,-664.8 713.74,-664.8 713.74,-670.8 707.74,-676.8 701.74,-676.8"/>
<text text-anchor="middle" x="604.03" y="-648" font-family="Times,serif" font-size="24.00">baml_compiler_mir</text>
</g>
<!-- baml_compiler_emit&#45;&gt;baml_compiler_mir -->
<g id="edge9" class="edge">
<title>baml_compiler_emit&#45;&gt;baml_compiler_mir</title>
<path fill="none" stroke="#555555" d="M673.07,-712.3C662.91,-704.05 651.08,-694.44 640.12,-685.53"/>
<polygon fill="#555555" stroke="#555555" points="643.09,-682.53 631.13,-678.22 637.79,-689.05 643.09,-682.53"/>
</g>
<!-- baml_vm -->
<g id="node17" class="node">
<title>baml_vm</title>
<path fill="#98d8c8" stroke="black" d="M842.76,-676.8C842.76,-676.8 747.3,-676.8 747.3,-676.8 741.3,-676.8 735.3,-670.8 735.3,-664.8 735.3,-664.8 735.3,-645.6 735.3,-645.6 735.3,-639.6 741.3,-633.6 747.3,-633.6 747.3,-633.6 842.76,-633.6 842.76,-633.6 848.76,-633.6 854.76,-639.6 854.76,-645.6 854.76,-645.6 854.76,-664.8 854.76,-664.8 854.76,-670.8 848.76,-676.8 842.76,-676.8"/>
<text text-anchor="middle" x="795.03" y="-648" font-family="Times,serif" font-size="24.00">baml_vm</text>
</g>
<!-- baml_compiler_emit&#45;&gt;baml_vm -->
<g id="edge10" class="edge">
<title>baml_compiler_emit&#45;&gt;baml_vm</title>
<path fill="none" stroke="#555555" d="M725.26,-712.3C735.52,-704.05 747.47,-694.44 758.55,-685.53"/>
<polygon fill="#555555" stroke="#555555" points="760.93,-689.01 767.65,-678.22 755.66,-682.47 760.93,-689.01"/>
</g>
<!-- baml_compiler_vir -->
<g id="node18" class="node">
<title>baml_compiler_vir</title>
<path fill="#82c99a" stroke="black" d="M698.4,-597.6C698.4,-597.6 509.65,-597.6 509.65,-597.6 503.65,-597.6 497.65,-591.6 497.65,-585.6 497.65,-585.6 497.65,-566.4 497.65,-566.4 497.65,-560.4 503.65,-554.4 509.65,-554.4 509.65,-554.4 698.4,-554.4 698.4,-554.4 704.4,-554.4 710.4,-560.4 710.4,-566.4 710.4,-566.4 710.4,-585.6 710.4,-585.6 710.4,-591.6 704.4,-597.6 698.4,-597.6"/>
<text text-anchor="middle" x="604.03" y="-568.8" font-family="Times,serif" font-size="24.00">baml_compiler_vir</text>
</g>
<!-- baml_compiler_mir&#45;&gt;baml_compiler_vir -->
<g id="edge13" class="edge">
<title>baml_compiler_mir&#45;&gt;baml_compiler_vir</title>
<path fill="none" stroke="#555555" d="M604.03,-633.1C604.03,-626.38 604.03,-618.76 604.03,-611.35"/>
<polygon fill="#555555" stroke="#555555" points="608.23,-611.58 604.03,-599.58 599.83,-611.58 608.23,-611.58"/>
</g>
<!-- baml_builtins -->
<g id="node20" class="node">
<title>baml_builtins</title>
<path fill="#87ceeb" stroke="black" d="M754.43,-439.2C754.43,-439.2 617.63,-439.2 617.63,-439.2 611.63,-439.2 605.63,-433.2 605.63,-427.2 605.63,-427.2 605.63,-408 605.63,-408 605.63,-402 611.63,-396 617.63,-396 617.63,-396 754.43,-396 754.43,-396 760.43,-396 766.43,-402 766.43,-408 766.43,-408 766.43,-427.2 766.43,-427.2 766.43,-433.2 760.43,-439.2 754.43,-439.2"/>
<text text-anchor="middle" x="686.03" y="-410.4" font-family="Times,serif" font-size="24.00">baml_builtins</text>
</g>
<!-- baml_vm&#45;&gt;baml_builtins -->
<g id="edge37" class="edge">
<title>baml_vm&#45;&gt;baml_builtins</title>
<path fill="none" stroke="#555555" d="M787.09,-633.14C774.1,-599.28 746.94,-530.88 719.03,-475.2 715.05,-467.26 710.42,-458.9 705.92,-451.11"/>
<polygon fill="#555555" stroke="#555555" points="709.54,-448.98 699.82,-440.79 702.31,-453.25 709.54,-448.98"/>
</g>
<!-- baml_base -->
<g id="node29" class="node">
<title>baml_base</title>
<path fill="#c3e6cb" stroke="black" d="M808.74,-122.4C808.74,-122.4 701.31,-122.4 701.31,-122.4 695.31,-122.4 689.31,-116.4 689.31,-110.4 689.31,-110.4 689.31,-91.2 689.31,-91.2 689.31,-85.2 695.31,-79.2 701.31,-79.2 701.31,-79.2 808.74,-79.2 808.74,-79.2 814.74,-79.2 820.74,-85.2 820.74,-91.2 820.74,-91.2 820.74,-110.4 820.74,-110.4 820.74,-116.4 814.74,-122.4 808.74,-122.4"/>
<text text-anchor="middle" x="755.03" y="-93.6" font-family="Times,serif" font-size="24.00">baml_base</text>
</g>
<!-- baml_vm&#45;&gt;baml_base -->
<g id="edge36" class="edge">
<title>baml_vm&#45;&gt;baml_base</title>
<path fill="none" stroke="#555555" d="M808.41,-633.39C825.82,-604.27 854.03,-549.17 854.03,-497.8 854.03,-497.8 854.03,-497.8 854.03,-258.2 854.03,-208.11 817.32,-161.03 788.61,-131.87"/>
<polygon fill="#555555" stroke="#555555" points="791.84,-129.15 780.33,-123.75 785.96,-135.15 791.84,-129.15"/>
</g>
<!-- baml_compiler_tir -->
<g id="node19" class="node">
<title>baml_compiler_tir</title>
<path fill="#82c99a" stroke="black" d="M695.74,-518.4C695.74,-518.4 512.32,-518.4 512.32,-518.4 506.32,-518.4 500.32,-512.4 500.32,-506.4 500.32,-506.4 500.32,-487.2 500.32,-487.2 500.32,-481.2 506.32,-475.2 512.32,-475.2 512.32,-475.2 695.74,-475.2 695.74,-475.2 701.74,-475.2 707.74,-481.2 707.74,-487.2 707.74,-487.2 707.74,-506.4 707.74,-506.4 707.74,-512.4 701.74,-518.4 695.74,-518.4"/>
<text text-anchor="middle" x="604.03" y="-489.6" font-family="Times,serif" font-size="24.00">baml_compiler_tir</text>
</g>
<!-- baml_compiler_vir&#45;&gt;baml_compiler_tir -->
<g id="edge21" class="edge">
<title>baml_compiler_vir&#45;&gt;baml_compiler_tir</title>
<path fill="none" stroke="#555555" d="M604.03,-553.9C604.03,-547.18 604.03,-539.56 604.03,-532.15"/>
<polygon fill="#555555" stroke="#555555" points="608.23,-532.38 604.03,-520.38 599.83,-532.38 608.23,-532.38"/>
</g>
<!-- baml_compiler_tir&#45;&gt;baml_builtins -->
<g id="edge19" class="edge">
<title>baml_compiler_tir&#45;&gt;baml_builtins</title>
<path fill="none" stroke="#555555" d="M626.43,-474.7C634.93,-466.71 644.78,-457.43 653.99,-448.76"/>
<polygon fill="#555555" stroke="#555555" points="656.69,-451.99 662.55,-440.71 650.93,-445.87 656.69,-451.99"/>
</g>
<!-- baml_compiler_hir -->
<g id="node21" class="node">
<title>baml_compiler_hir</title>
<path fill="#82c99a" stroke="black" d="M543.4,-439.2C543.4,-439.2 354.65,-439.2 354.65,-439.2 348.65,-439.2 342.65,-433.2 342.65,-427.2 342.65,-427.2 342.65,-408 342.65,-408 342.65,-402 348.65,-396 354.65,-396 354.65,-396 543.4,-396 543.4,-396 549.4,-396 555.4,-402 555.4,-408 555.4,-408 555.4,-427.2 555.4,-427.2 555.4,-433.2 549.4,-439.2 543.4,-439.2"/>
<text text-anchor="middle" x="449.03" y="-410.4" font-family="Times,serif" font-size="24.00">baml_compiler_hir</text>
</g>
<!-- baml_compiler_tir&#45;&gt;baml_compiler_hir -->
<g id="edge20" class="edge">
<title>baml_compiler_tir&#45;&gt;baml_compiler_hir</title>
<path fill="none" stroke="#555555" d="M561.67,-474.7C543.65,-465.73 522.4,-455.15 503.25,-445.61"/>
<polygon fill="#555555" stroke="#555555" points="505.3,-441.93 492.68,-440.34 501.55,-449.45 505.3,-441.93"/>
</g>
<!-- baml_builtins_macros -->
<g id="node22" class="node">
<title>baml_builtins_macros</title>
<path fill="#87ceeb" stroke="black" d="M795.08,-360C795.08,-360 576.97,-360 576.97,-360 570.97,-360 564.97,-354 564.97,-348 564.97,-348 564.97,-328.8 564.97,-328.8 564.97,-322.8 570.97,-316.8 576.97,-316.8 576.97,-316.8 795.08,-316.8 795.08,-316.8 801.08,-316.8 807.08,-322.8 807.08,-328.8 807.08,-328.8 807.08,-348 807.08,-348 807.08,-354 801.08,-360 795.08,-360"/>
<text text-anchor="middle" x="686.03" y="-331.2" font-family="Times,serif" font-size="24.00">baml_builtins_macros</text>
</g>
<!-- baml_builtins&#45;&gt;baml_builtins_macros -->
<g id="edge6" class="edge">
<title>baml_builtins&#45;&gt;baml_builtins_macros</title>
<path fill="none" stroke="#555555" d="M686.03,-395.5C686.03,-388.78 686.03,-381.16 686.03,-373.75"/>
<polygon fill="#555555" stroke="#555555" points="690.23,-373.98 686.03,-361.98 681.83,-373.98 690.23,-373.98"/>
</g>
<!-- baml_compiler_parser -->
<g id="node23" class="node">
<title>baml_compiler_parser</title>
<path fill="#82c99a" stroke="black" d="M504.39,-360C504.39,-360 283.67,-360 283.67,-360 277.67,-360 271.67,-354 271.67,-348 271.67,-348 271.67,-328.8 271.67,-328.8 271.67,-322.8 277.67,-316.8 283.67,-316.8 283.67,-316.8 504.39,-316.8 504.39,-316.8 510.39,-316.8 516.39,-322.8 516.39,-328.8 516.39,-328.8 516.39,-348 516.39,-348 516.39,-354 510.39,-360 504.39,-360"/>
<text text-anchor="middle" x="394.03" y="-331.2" font-family="Times,serif" font-size="24.00">baml_compiler_parser</text>
</g>
<!-- baml_compiler_hir&#45;&gt;baml_compiler_parser -->
<g id="edge11" class="edge">
<title>baml_compiler_hir&#45;&gt;baml_compiler_parser</title>
<path fill="none" stroke="#555555" d="M434,-395.5C428.66,-388.02 422.53,-379.41 416.7,-371.23"/>
<polygon fill="#555555" stroke="#555555" points="420.3,-369.04 409.92,-361.7 413.46,-373.91 420.3,-369.04"/>
</g>
<!-- baml_compiler_diagnostics -->
<g id="node24" class="node">
<title>baml_compiler_diagnostics</title>
<path fill="#82c99a" stroke="black" d="M808.07,-280.8C808.07,-280.8 537.99,-280.8 537.99,-280.8 531.99,-280.8 525.99,-274.8 525.99,-268.8 525.99,-268.8 525.99,-249.6 525.99,-249.6 525.99,-243.6 531.99,-237.6 537.99,-237.6 537.99,-237.6 808.07,-237.6 808.07,-237.6 814.07,-237.6 820.07,-243.6 820.07,-249.6 820.07,-249.6 820.07,-268.8 820.07,-268.8 820.07,-274.8 814.07,-280.8 808.07,-280.8"/>
<text text-anchor="middle" x="673.03" y="-252" font-family="Times,serif" font-size="24.00">baml_compiler_diagnostics</text>
</g>
<!-- baml_compiler_parser&#45;&gt;baml_compiler_diagnostics -->
<g id="edge14" class="edge">
<title>baml_compiler_parser&#45;&gt;baml_compiler_diagnostics</title>
<path fill="none" stroke="#555555" d="M470.26,-316.3C505.48,-306.56 547.52,-294.93 584.16,-284.79"/>
<polygon fill="#555555" stroke="#555555" points="584.98,-288.92 595.42,-281.67 582.74,-280.83 584.98,-288.92"/>
</g>
<!-- baml_compiler_lexer -->
<g id="node25" class="node">
<title>baml_compiler_lexer</title>
<path fill="#82c99a" stroke="black" d="M222.05,-280.8C222.05,-280.8 12,-280.8 12,-280.8 6,-280.8 0,-274.8 0,-268.8 0,-268.8 0,-249.6 0,-249.6 0,-243.6 6,-237.6 12,-237.6 12,-237.6 222.05,-237.6 222.05,-237.6 228.05,-237.6 234.05,-243.6 234.05,-249.6 234.05,-249.6 234.05,-268.8 234.05,-268.8 234.05,-274.8 228.05,-280.8 222.05,-280.8"/>
<text text-anchor="middle" x="117.03" y="-252" font-family="Times,serif" font-size="24.00">baml_compiler_lexer</text>
</g>
<!-- baml_compiler_parser&#45;&gt;baml_compiler_lexer -->
<g id="edge15" class="edge">
<title>baml_compiler_parser&#45;&gt;baml_compiler_lexer</title>
<path fill="none" stroke="#555555" d="M318.34,-316.3C283.37,-306.56 241.63,-294.93 205.25,-284.79"/>
<polygon fill="#555555" stroke="#555555" points="206.77,-280.85 194.08,-281.68 204.52,-288.94 206.77,-280.85"/>
</g>
<!-- baml_compiler_syntax -->
<g id="node26" class="node">
<title>baml_compiler_syntax</title>
<path fill="#82c99a" stroke="black" d="M492.4,-280.8C492.4,-280.8 267.65,-280.8 267.65,-280.8 261.65,-280.8 255.65,-274.8 255.65,-268.8 255.65,-268.8 255.65,-249.6 255.65,-249.6 255.65,-243.6 261.65,-237.6 267.65,-237.6 267.65,-237.6 492.4,-237.6 492.4,-237.6 498.4,-237.6 504.4,-243.6 504.4,-249.6 504.4,-249.6 504.4,-268.8 504.4,-268.8 504.4,-274.8 498.4,-280.8 492.4,-280.8"/>
<text text-anchor="middle" x="380.03" y="-252" font-family="Times,serif" font-size="24.00">baml_compiler_syntax</text>
</g>
<!-- baml_compiler_parser&#45;&gt;baml_compiler_syntax -->
<g id="edge16" class="edge">
<title>baml_compiler_parser&#45;&gt;baml_compiler_syntax</title>
<path fill="none" stroke="#555555" d="M390.2,-316.3C388.98,-309.58 387.6,-301.96 386.26,-294.55"/>
<polygon fill="#555555" stroke="#555555" points="390.39,-293.82 384.12,-282.76 382.13,-295.32 390.39,-293.82"/>
</g>
<!-- baml_workspace -->
<g id="node27" class="node">
<title>baml_workspace</title>
<path fill="#e6d5f2" stroke="black" d="M1067.73,-201.6C1067.73,-201.6 900.32,-201.6 900.32,-201.6 894.32,-201.6 888.32,-195.6 888.32,-189.6 888.32,-189.6 888.32,-170.4 888.32,-170.4 888.32,-164.4 894.32,-158.4 900.32,-158.4 900.32,-158.4 1067.73,-158.4 1067.73,-158.4 1073.73,-158.4 1079.73,-164.4 1079.73,-170.4 1079.73,-170.4 1079.73,-189.6 1079.73,-189.6 1079.73,-195.6 1073.73,-201.6 1067.73,-201.6"/>
<text text-anchor="middle" x="984.03" y="-172.8" font-family="Times,serif" font-size="24.00">baml_workspace</text>
</g>
<!-- baml_compiler_diagnostics&#45;&gt;baml_workspace -->
<g id="edge8" class="edge">
<title>baml_compiler_diagnostics&#45;&gt;baml_workspace</title>
<path fill="none" stroke="#555555" d="M758.01,-237.1C797.61,-227.28 844.94,-215.52 886.04,-205.32"/>
<polygon fill="#555555" stroke="#555555" points="887.04,-209.4 897.68,-202.43 885.02,-201.25 887.04,-209.4"/>
</g>
<!-- baml_compiler_lexer&#45;&gt;baml_base -->
<g id="edge12" class="edge">
<title>baml_compiler_lexer&#45;&gt;baml_base</title>
<path fill="none" stroke="#555555" d="M152.08,-237.11C192.35,-213.91 261.11,-177.41 325.03,-158.4 444.01,-123.01 588.07,-109.73 675.57,-104.76"/>
<polygon fill="#555555" stroke="#555555" points="675.58,-108.96 687.34,-104.12 675.13,-100.57 675.58,-108.96"/>
</g>
<!-- rowan -->
<g id="node28" class="node">
<title>rowan</title>
<path fill="white" stroke="black" d="M412.42,-201.6C412.42,-201.6 347.64,-201.6 347.64,-201.6 341.64,-201.6 335.64,-195.6 335.64,-189.6 335.64,-189.6 335.64,-170.4 335.64,-170.4 335.64,-164.4 341.64,-158.4 347.64,-158.4 347.64,-158.4 412.42,-158.4 412.42,-158.4 418.42,-158.4 424.42,-164.4 424.42,-170.4 424.42,-170.4 424.42,-189.6 424.42,-189.6 424.42,-195.6 418.42,-201.6 412.42,-201.6"/>
<text text-anchor="middle" x="380.03" y="-172.8" font-family="Times,serif" font-size="24.00">rowan</text>
</g>
<!-- baml_compiler_syntax&#45;&gt;rowan -->
<g id="edge18" class="edge">
<title>baml_compiler_syntax&#45;&gt;rowan</title>
<path fill="none" stroke="#555555" d="M380.03,-237.1C380.03,-230.38 380.03,-222.76 380.03,-215.35"/>
<polygon fill="#555555" stroke="#555555" points="384.23,-215.58 380.03,-203.58 375.83,-215.58 384.23,-215.58"/>
</g>
<!-- baml_compiler_syntax&#45;&gt;baml_base -->
<g id="edge17" class="edge">
<title>baml_compiler_syntax&#45;&gt;baml_base</title>
<path fill="none" stroke="#555555" d="M430.6,-237.11C498.45,-208.81 618.89,-158.58 692.39,-127.92"/>
<polygon fill="#555555" stroke="#555555" points="693.8,-131.89 703.26,-123.39 690.57,-124.13 693.8,-131.89"/>
</g>
<!-- baml_workspace&#45;&gt;baml_base -->
<g id="edge38" class="edge">
<title>baml_workspace&#45;&gt;baml_base</title>
<path fill="none" stroke="#555555" d="M921.45,-157.9C893.18,-148.37 859.55,-137.04 829.94,-127.05"/>
<polygon fill="#555555" stroke="#555555" points="831.67,-123.21 818.96,-123.35 828.99,-131.17 831.67,-123.21"/>
</g>
<!-- salsa -->
<g id="node30" class="node">
<title>salsa</title>
<path fill="white" stroke="black" d="M780.75,-43.2C780.75,-43.2 729.3,-43.2 729.3,-43.2 723.3,-43.2 717.3,-37.2 717.3,-31.2 717.3,-31.2 717.3,-12 717.3,-12 717.3,-6 723.3,0 729.3,0 729.3,0 780.75,0 780.75,0 786.75,0 792.75,-6 792.75,-12 792.75,-12 792.75,-31.2 792.75,-31.2 792.75,-37.2 786.75,-43.2 780.75,-43.2"/>
<text text-anchor="middle" x="755.03" y="-14.4" font-family="Times,serif" font-size="24.00">salsa</text>
</g>
<!-- baml_base&#45;&gt;salsa -->
<g id="edge5" class="edge">
<title>baml_base&#45;&gt;salsa</title>
<path fill="none" stroke="#555555" d="M755.03,-78.7C755.03,-71.98 755.03,-64.36 755.03,-56.95"/>
<polygon fill="#555555" stroke="#555555" points="759.23,-57.18 755.03,-45.18 750.83,-57.18 759.23,-57.18"/>
</g>
</g>
</svg>
