<?xml version="1.0" encoding="UTF-8" standalone="no"?>
<!DOCTYPE svg PUBLIC "-//W3C//DTD SVG 1.1//EN"
 "http://www.w3.org/Graphics/SVG/1.1/DTD/svg11.dtd">
<!-- Generated by graphviz version 12.1.2 (20240928.0832)
 -->
<!-- Title: G Pages: 1 -->
<svg xmlns="http://www.w3.org/2000/svg" viewBox="0 0 1087.73 1239.20" width="1088" height="1239">
<g id="graph0" class="graph" transform="scale(1 1) rotate(0) translate(4 1235.2)">
<title>G</title>
<!-- __project__ -->
<g id="node1" class="node">
<title>__project__</title>
<path fill="#d4edda" stroke="black" d="M682.74,-1231.2C682.74,-1231.2 563.31,-1231.2 563.31,-1231.2 557.31,-1231.2 551.31,-1225.2 551.31,-1219.2 551.31,-1219.2 551.31,-1200 551.31,-1200 551.31,-1194 557.31,-1188 563.31,-1188 563.31,-1188 682.74,-1188 682.74,-1188 688.74,-1188 694.74,-1194 694.74,-1200 694.74,-1200 694.74,-1219.2 694.74,-1219.2 694.74,-1225.2 688.74,-1231.2 682.74,-1231.2"/>
<text text-anchor="middle" x="623.03" y="-1202.4" font-family="Times,serif" font-size="24.00">__project__</text>
</g>
<!-- baml_cli -->
<g id="node2" class="node">
<title>baml_cli</title>
<path fill="#ffb6c1" stroke="black" d="M575.42,-1152C575.42,-1152 486.64,-1152 486.64,-1152 480.64,-1152 474.64,-1146 474.64,-1140 474.64,-1140 474.64,-1120.8 474.64,-1120.8 474.64,-1114.8 480.64,-1108.8 486.64,-1108.8 486.64,-1108.8 575.42,-1108.8 575.42,-1108.8 581.42,-1108.8 587.42,-1114.8 587.42,-1120.8 587.42,-1120.8 587.42,-1140 587.42,-1140 587.42,-1146 581.42,-1152 575.42,-1152"/>
<text text-anchor="middle" x="531.03" y="-1123.2" font-family="Times,serif" font-size="24.00">baml_cli</text>
</g>
<!-- __project__&#45;&gt;baml_cli -->
<g id="edge1" class="edge">
<title>__project__&#45;&gt;baml_cli</title>
<path fill="none" stroke="#555555" d="M597.89,-1187.5C588.15,-1179.33 576.83,-1169.84 566.31,-1161.01"/>
<polygon fill="#555555" stroke="#555555" points="569.19,-1157.94 557.3,-1153.44 563.79,-1164.37 569.19,-1157.94"/>
</g>
<!-- baml_ide_tests -->
<g id="node3" class="node">
<title>baml_ide_tests</title>
<path fill="#a0a0a0" fill-opacity="0.501961" stroke="black" stroke-dasharray="5,2" d="M387.42,-1152C387.42,-1152 238.64,-1152 238.64,-1152 232.64,-1152 226.64,-1146 226.64,-1140 226.64,-1140 226.64,-1120.8 226.64,-1120.8 226.64,-1114.8 232.64,-1108.8 238.64,-1108.8 238.64,-1108.8 387.42,-1108.8 387.42,-1108.8 393.42,-1108.8 399.42,-1114.8 399.42,-1120.8 399.42,-1120.8 399.42,-1140 399.42,-1140 399.42,-1146 393.42,-1152 387.42,-1152"/>
<text text-anchor="middle" x="313.03" y="-1123.2" font-family="Times,serif" font-size="24.00">baml_ide_tests</text>
</g>
<!-- __project__&#45;&gt;baml_ide_tests -->
<g id="edge2" class="edge">
<title>__project__&#45;&gt;baml_ide_tests</title>
<path fill="none" stroke="#555555" d="M551.13,-1190.69C509.36,-1180.29 456.17,-1167.05 410.66,-1155.71"/>
<polygon fill="#555555" stroke="#555555" points="411.86,-1151.69 399.2,-1152.86 409.83,-1159.84 411.86,-1151.69"/>
</g>
<!-- baml_tests -->
<g id="node4" class="node">
<title>baml_tests</title>
<path fill="#a0a0a0" fill-opacity="0.501961" stroke="black" stroke-dasharray="5,2" d="M739.76,-1152C739.76,-1152 632.3,-1152 632.3,-1152 626.3,-1152 620.3,-1146 620.3,-1140 620.3,-1140 620.3,-1120.8 620.3,-1120.8 620.3,-1114.8 626.3,-1108.8 632.3,-1108.8 632.3,-1108.8 739.76,-1108.8 739.76,-1108.8 745.76,-1108.8 751.76,-1114.8 751.76,-1120.8 751.76,-1120.8 751.76,-1140 751.76,-1140 751.76,-1146 745.76,-1152 739.76,-1152"/>
<text text-anchor="middle" x="686.03" y="-1123.2" font-family="Times,serif" font-size="24.00">baml_tests</text>
</g>
<!-- __project__&#45;&gt;baml_tests -->
<g id="edge3" class="edge">
<title>__project__&#45;&gt;baml_tests</title>
<path fill="none" stroke="#555555" d="M640.24,-1187.5C646.49,-1179.85 653.69,-1171.02 660.51,-1162.67"/>
<polygon fill="#555555" stroke="#555555" points="663.54,-1165.6 667.88,-1153.64 657.03,-1160.28 663.54,-1165.6"/>
</g>
<!-- baml_tools_onionskin -->
<g id="node5" class="node">
<title>baml_tools_onionskin</title>
<path fill="#e6d5f2" stroke="black" d="M1004.1,-1152C1004.1,-1152 785.96,-1152 785.96,-1152 779.96,-1152 773.96,-1146 773.96,-1140 773.96,-1140 773.96,-1120.8 773.96,-1120.8 773.96,-1114.8 779.96,-1108.8 785.96,-1108.8 785.96,-1108.8 1004.1,-1108.8 1004.1,-1108.8 1010.1,-1108.8 1016.1,-1114.8 1016.1,-1120.8 1016.1,-1120.8 1016.1,-1140 1016.1,-1140 1016.1,-1146 1010.1,-1152 1004.1,-1152"/>
<text text-anchor="middle" x="895.03" y="-1123.2" font-family="Times,serif" font-size="24.00">baml_tools_onionskin</text>
</g>
<!-- __project__&#45;&gt;baml_tools_onionskin -->
<g id="edge4" class="edge">
<title>__project__&#45;&gt;baml_tools_onionskin</title>
<path fill="none" stroke="#555555" d="M695.2,-1188.11C729.98,-1178.24 771.95,-1166.33 808.44,-1155.98"/>
<polygon fill="#555555" stroke="#555555" points="809.24,-1160.12 819.63,-1152.8 806.94,-1152.03 809.24,-1160.12"/>
</g>
<!-- baml_lsp -->
<g id="node6" class="node">
<title>baml_lsp</title>
<path fill="#98d8c8" stroke="black" d="M557.42,-1072.8C557.42,-1072.8 464.63,-1072.8 464.63,-1072.8 458.63,-1072.8 452.63,-1066.8 452.63,-1060.8 452.63,-1060.8 452.63,-1041.6 452.63,-1041.6 452.63,-1035.6 458.63,-1029.6 464.63,-1029.6 464.63,-1029.6 557.42,-1029.6 557.42,-1029.6 563.42,-1029.6 569.42,-1035.6 569.42,-1041.6 569.42,-1041.6 569.42,-1060.8 569.42,-1060.8 569.42,-1066.8 563.42,-1072.8 557.42,-1072.8"/>
<text text-anchor="middle" x="511.03" y="-1044" font-family="Times,serif" font-size="24.00">baml_lsp</text>
</g>
<!-- baml_cli&#45;&gt;baml_lsp -->
<g id="edge6" class="edge">
<title>baml_cli&#45;&gt;baml_lsp</title>
<path fill="none" stroke="#555555" d="M525.56,-1108.3C523.8,-1101.5 521.8,-1093.77 519.85,-1086.27"/>
<polygon fill="#555555" stroke="#555555" points="523.94,-1085.3 516.87,-1074.73 515.81,-1087.4 523.94,-1085.3"/>
</g>
<!-- baml_ide -->
<g id="node7" class="node">
<title>baml_ide</title>
<path fill="#f8d7da" stroke="black" d="M287.08,-993.6C287.08,-993.6 192.97,-993.6 192.97,-993.6 186.97,-993.6 180.97,-987.6 180.97,-981.6 180.97,-981.6 180.97,-962.4 180.97,-962.4 180.97,-956.4 186.97,-950.4 192.97,-950.4 192.97,-950.4 287.08,-950.4 287.08,-950.4 293.08,-950.4 299.08,-956.4 299.08,-962.4 299.08,-962.4 299.08,-981.6 299.08,-981.6 299.08,-987.6 293.08,-993.6 287.08,-993.6"/>
<text text-anchor="middle" x="240.03" y="-964.8" font-family="Times,serif" font-size="24.00">baml_ide</text>
</g>
<!-- baml_ide_tests&#45;&gt;baml_ide -->
<g id="edge23" class="edge">
<title>baml_ide_tests&#45;&gt;baml_ide</title>
<path fill="none" stroke="#555555" d="M303.18,-1108.31C290.9,-1082 269.77,-1036.73 255.36,-1005.86"/>
<polygon fill="#555555" stroke="#555555" points="259.35,-1004.48 250.47,-995.38 251.74,-1008.03 259.35,-1004.48"/>
</g>
<!-- baml_project -->
<g id="node11" class="node">
<title>baml_project</title>
<path fill="#c3e6cb" stroke="black" d="M772.74,-914.4C772.74,-914.4 641.32,-914.4 641.32,-914.4 635.32,-914.4 629.32,-908.4 629.32,-902.4 629.32,-902.4 629.32,-883.2 629.32,-883.2 629.32,-877.2 635.32,-871.2 641.32,-871.2 641.32,-871.2 772.74,-871.2 772.74,-871.2 778.74,-871.2 784.74,-877.2 784.74,-883.2 784.74,-883.2 784.74,-902.4 784.74,-902.4 784.74,-908.4 778.74,-914.4 772.74,-914.4"/>
<text text-anchor="middle" x="707.03" y="-885.6" font-family="Times,serif" font-size="24.00">baml_project</text>
</g>
<!-- baml_tests&#45;&gt;baml_project -->
<g id="edge32" class="edge">
<title>baml_tests&#45;&gt;baml_project</title>
<path fill="none" stroke="#555555" d="M698.06,-1108.63C712.31,-1082.71 735.24,-1036.55 744.03,-993.6 747.88,-974.79 749.51,-968.8 744.03,-950.4 741.49,-941.88 737.22,-933.45 732.46,-925.8"/>
<polygon fill="#555555" stroke="#555555" points="736.1,-923.69 725.88,-916.14 729.16,-928.42 736.1,-923.69"/>
</g>
<!-- anyhow -->
<g id="node12" class="node">
<title>anyhow</title>
<path fill="white" stroke="black" d="M899.42,-914.4C899.42,-914.4 818.63,-914.4 818.63,-914.4 812.63,-914.4 806.63,-908.4 806.63,-902.4 806.63,-902.4 806.63,-883.2 806.63,-883.2 806.63,-877.2 812.63,-871.2 818.63,-871.2 818.63,-871.2 899.42,-871.2 899.42,-871.2 905.42,-871.2 911.42,-877.2 911.42,-883.2 911.42,-883.2 911.42,-902.4 911.42,-902.4 911.42,-908.4 905.42,-914.4 899.42,-914.4"/>
<text text-anchor="middle" x="859.03" y="-885.6" font-family="Times,serif" font-size="24.00">anyhow</text>
</g>
<!-- baml_tests&#45;&gt;anyhow -->
<g id="edge31" class="edge">
<title>baml_tests&#45;&gt;anyhow</title>
<path fill="none" stroke="#555555" d="M708.91,-1108.32C719.51,-1098.06 731.95,-1085.27 742.03,-1072.8 780.91,-1024.67 818.75,-963.34 840.43,-926.4"/>
<polygon fill="#555555" stroke="#555555" points="843.98,-928.65 846.38,-916.17 836.72,-924.43 843.98,-928.65"/>
</g>
<!-- baml_tools_onionskin&#45;&gt;baml_project -->
<g id="edge34" class="edge">
<title>baml_tools_onionskin&#45;&gt;baml_project</title>
<path fill="none" stroke="#555555" d="M881.1,-1108.53C857.98,-1074.36 809.59,-1004.82 763.03,-950.4 755.47,-941.57 746.83,-932.43 738.65,-924.14"/>
<polygon fill="#555555" stroke="#555555" points="741.87,-921.42 730.4,-915.94 735.94,-927.38 741.87,-921.42"/>
</g>
<!-- baml_tools_onionskin&#45;&gt;anyhow -->
<g id="edge33" class="edge">
<title>baml_tools_onionskin&#45;&gt;anyhow</title>
<path fill="none" stroke="#555555" d="M894.07,-1108.54C892.26,-1074.95 887.41,-1006.92 876.03,-950.4 874.52,-942.92 872.45,-935.01 870.28,-927.55"/>
<polygon fill="#555555" stroke="#555555" points="874.34,-926.47 866.8,-916.24 866.32,-928.95 874.34,-926.47"/>
</g>
<!-- baml_lsp&#45;&gt;baml_ide -->
<g id="edge24" class="edge">
<title>baml_lsp&#45;&gt;baml_ide</title>
<path fill="none" stroke="#555555" d="M452.49,-1033.91C415.26,-1023.51 365.72,-1009.58 311.87,-994.11"/>
<polygon fill="#555555" stroke="#555555" points="313.36,-990.17 300.66,-990.89 311.03,-998.24 313.36,-990.17"/>
</g>
<!-- baml_lsp_types -->
<g id="node8" class="node">
<title>baml_lsp_types</title>
<path fill="#98d8c8" stroke="black" d="M588.76,-993.6C588.76,-993.6 433.3,-993.6 433.3,-993.6 427.3,-993.6 421.3,-987.6 421.3,-981.6 421.3,-981.6 421.3,-962.4 421.3,-962.4 421.3,-956.4 427.3,-950.4 433.3,-950.4 433.3,-950.4 588.76,-950.4 588.76,-950.4 594.76,-950.4 600.76,-956.4 600.76,-962.4 600.76,-962.4 600.76,-981.6 600.76,-981.6 600.76,-987.6 594.76,-993.6 588.76,-993.6"/>
<text text-anchor="middle" x="511.03" y="-964.8" font-family="Times,serif" font-size="24.00">baml_lsp_types</text>
</g>
<!-- baml_lsp&#45;&gt;baml_lsp_types -->
<g id="edge25" class="edge">
<title>baml_lsp&#45;&gt;baml_lsp_types</title>
<path fill="none" stroke="#555555" d="M511.03,-1029.1C511.03,-1022.38 511.03,-1014.76 511.03,-1007.35"/>
<polygon fill="#555555" stroke="#555555" points="515.23,-1007.58 511.03,-995.58 506.83,-1007.58 515.23,-1007.58"/>
</g>
<!-- thiserror -->
<g id="node9" class="node">
<title>thiserror</title>
<path fill="white" stroke="black" d="M721.08,-993.6C721.08,-993.6 634.97,-993.6 634.97,-993.6 628.97,-993.6 622.97,-987.6 622.97,-981.6 622.97,-981.6 622.97,-962.4 622.97,-962.4 622.97,-956.4 628.97,-950.4 634.97,-950.4 634.97,-950.4 721.08,-950.4 721.08,-950.4 727.08,-950.4 733.08,-956.4 733.08,-962.4 733.08,-962.4 733.08,-981.6 733.08,-981.6 733.08,-987.6 727.08,-993.6 721.08,-993.6"/>
<text text-anchor="middle" x="678.03" y="-964.8" font-family="Times,serif" font-size="24.00">thiserror</text>
</g>
<!-- baml_lsp&#45;&gt;thiserror -->
<g id="edge26" class="edge">
<title>baml_lsp&#45;&gt;thiserror</title>
<path fill="none" stroke="#555555" d="M556.66,-1029.1C576.27,-1020.04 599.41,-1009.34 620.19,-999.73"/>
<polygon fill="#555555" stroke="#555555" points="621.94,-1003.55 631.07,-994.7 618.42,-995.93 621.94,-1003.55"/>
</g>
<!-- tokio -->
<g id="node10" class="node">
<title>tokio</title>
<path fill="white" stroke="black" d="M387.09,-993.6C387.09,-993.6 332.96,-993.6 332.96,-993.6 326.96,-993.6 320.96,-987.6 320.96,-981.6 320.96,-981.6 320.96,-962.4 320.96,-962.4 320.96,-956.4 326.96,-950.4 332.96,-950.4 332.96,-950.4 387.09,-950.4 387.09,-950.4 393.09,-950.4 399.09,-956.4 399.09,-962.4 399.09,-962.4 399.09,-981.6 399.09,-981.6 399.09,-987.6 393.09,-993.6 387.09,-993.6"/>
<text text-anchor="middle" x="360.03" y="-964.8" font-family="Times,serif" font-size="24.00">tokio</text>
</g>
<!-- baml_lsp&#45;&gt;tokio -->
<g id="edge27" class="edge">
<title>baml_lsp&#45;&gt;tokio</title>
<path fill="none" stroke="#555555" d="M469.77,-1029.1C451.7,-1019.87 430.32,-1008.94 411.25,-999.19"/>
<polygon fill="#555555" stroke="#555555" points="413.36,-995.55 400.76,-993.83 409.54,-1003.03 413.36,-995.55"/>
</g>
<!-- baml_ide&#45;&gt;baml_project -->
<g id="edge22" class="edge">
<title>baml_ide&#45;&gt;baml_project</title>
<path fill="none" stroke="#555555" d="M299.45,-952.88C303.02,-951.99 306.56,-951.15 310.03,-950.4 311.9,-949.99 499.29,-923.33 615.91,-906.75"/>
<polygon fill="#555555" stroke="#555555" points="616.28,-910.94 627.57,-905.09 615.1,-902.62 616.28,-910.94"/>
</g>
<!-- baml_lsp_types&#45;&gt;anyhow -->
<g id="edge28" class="edge">
<title>baml_lsp_types&#45;&gt;anyhow</title>
<path fill="none" stroke="#555555" d="M601.05,-952.6C604.76,-951.85 608.43,-951.12 612.03,-950.4 689.75,-934.87 713.13,-935.3 793.4,-914.9"/>
<polygon fill="#555555" stroke="#555555" points="794.2,-919.03 804.77,-911.96 792.1,-910.9 794.2,-919.03"/>
</g>
<!-- serde -->
<g id="node13" class="node">
<title>serde</title>
<path fill="white" stroke="black" d="M538.75,-914.4C538.75,-914.4 483.31,-914.4 483.31,-914.4 477.31,-914.4 471.31,-908.4 471.31,-902.4 471.31,-902.4 471.31,-883.2 471.31,-883.2 471.31,-877.2 477.31,-871.2 483.31,-871.2 483.31,-871.2 538.75,-871.2 538.75,-871.2 544.75,-871.2 550.75,-877.2 550.75,-883.2 550.75,-883.2 550.75,-902.4 550.75,-902.4 550.75,-908.4 544.75,-914.4 538.75,-914.4"/>
<text text-anchor="middle" x="511.03" y="-885.6" font-family="Times,serif" font-size="24.00">serde</text>
</g>
<!-- baml_lsp_types&#45;&gt;serde -->
<g id="edge29" class="edge">
<title>baml_lsp_types&#45;&gt;serde</title>
<path fill="none" stroke="#555555" d="M511.03,-949.9C511.03,-943.18 511.03,-935.56 511.03,-928.15"/>
<polygon fill="#555555" stroke="#555555" points="515.23,-928.38 511.03,-916.38 506.83,-928.38 515.23,-928.38"/>
</g>
<!-- baml_db -->
<g id="node14" class="node">
<title>baml_db</title>
<path fill="#f8d7da" stroke="black" d="M751.42,-835.2C751.42,-835.2 662.63,-835.2 662.63,-835.2 656.63,-835.2 650.63,-829.2 650.63,-823.2 650.63,-823.2 650.63,-804 650.63,-804 650.63,-798 656.63,-792 662.63,-792 662.63,-792 751.42,-792 751.42,-792 757.42,-792 763.42,-798 763.42,-804 763.42,-804 763.42,-823.2 763.42,-823.2 763.42,-829.2 757.42,-835.2 751.42,-835.2"/>
<text text-anchor="middle" x="707.03" y="-806.4" font-family="Times,serif" font-size="24.00">baml_db</text>
</g>
<!-- baml_project&#45;&gt;baml_db -->
<g id="edge30" class="edge">
<title>baml_project&#45;&gt;baml_db</title>
<path fill="none" stroke="#555555" d="M707.03,-870.7C707.03,-863.98 707.03,-856.36 707.03,-848.95"/>
<polygon fill="#555555" stroke="#555555" points="711.23,-849.18 707.03,-837.18 702.83,-849.18 711.23,-849.18"/>
</g>
<!-- baml_compiler_emit -->
<g id="node15" class="node">
<title>baml_compiler_emit</title>
<path fill="#82c99a" stroke="black" d="M809.4,-756C809.4,-756 604.65,-756 604.65,-756 598.65,-756 592.65,-750 592.65,-744 592.65,-744 592.65,-724.8 592.65,-724.8 592.65,-718.8 598.65,-712.8 604.65,-712.8 604.65,-712.8 809.4,-712.8 809.4,-712.8 815.4,-712.8 821.4,-718.8 821.4,-724.8 821.4,-724.8 821.4,-744 821.4,-744 821.4,-750 815.4,-756 809.4,-756"/>
<text text-anchor="middle" x="707.03" y="-727.2" font-family="Times,serif" font-size="24.00">baml_compiler_emit</text>
</g>
<!-- baml_db&#45;&gt;baml_compiler_emit -->
<g id="edge21" class="edge">
<title>baml_db&#45;&gt;baml_compiler_emit</title>
<path fill="none" stroke="#555555" d="M707.03,-791.5C707.03,-784.78 707.03,-777.16 707.03,-769.75"/>
<polygon fill="#555555" stroke="#555555" points="711.23,-769.98 707.03,-757.98 702.83,-769.98 711.23,-769.98"/>
</g>
<!-- baml_compiler_mir -->
<g id="node16" class="node">
<title>baml_compiler_mir</title>
<path fill="#82c99a" stroke="black" d="M709.74,-676.8C709.74,-676.8 514.32,-676.8 514.32,-676.8 508.32,-676.8 502.32,-670.8 502.32,-664.8 502.32,-664.8 502.32,-645.6 502.32,-645.6 502.32,-639.6 508.32,-633.6 514.32,-633.6 514.32,-633.6 709.74,-633.6 709.74,-633.6 715.74,-633.6 721.74,-639.6 721.74,-645.6 721.74,-645.6 721.74,-664.8 721.74,-664.8 721.74,-670.8 715.74,-676.8 709.74,-676.8"/>
<text text-anchor="middle" x="612.03" y="-648" font-family="Times,serif" font-size="24.00">baml_compiler_mir</text>
</g>
<!-- baml_compiler_emit&#45;&gt;baml_compiler_mir -->
<g id="edge8" class="edge">
<title>baml_compiler_emit&#45;&gt;baml_compiler_mir</title>
<path fill="none" stroke="#555555" d="M681.07,-712.3C670.91,-704.05 659.08,-694.44 648.12,-685.53"/>
<polygon fill="#555555" stroke="#555555" points="651.09,-682.53 639.13,-678.22 645.79,-689.05 651.09,-682.53"/>
</g>
<!-- baml_vm -->
<g id="node17" class="node">
<title>baml_vm</title>
<path fill="#98d8c8" stroke="black" d="M850.76,-676.8C850.76,-676.8 755.3,-676.8 755.3,-676.8 749.3,-676.8 743.3,-670.8 743.3,-664.8 743.3,-664.8 743.3,-645.6 743.3,-645.6 743.3,-639.6 749.3,-633.6 755.3,-633.6 755.3,-633.6 850.76,-633.6 850.76,-633.6 856.76,-633.6 862.76,-639.6 862.76,-645.6 862.76,-645.6 862.76,-664.8 862.76,-664.8 862.76,-670.8 856.76,-676.8 850.76,-676.8"/>
<text text-anchor="middle" x="803.03" y="-648" font-family="Times,serif" font-size="24.00">baml_vm</text>
</g>
<!-- baml_compiler_emit&#45;&gt;baml_vm -->
<g id="edge9" class="edge">
<title>baml_compiler_emit&#45;&gt;baml_vm</title>
<path fill="none" stroke="#555555" d="M733.26,-712.3C743.52,-704.05 755.47,-694.44 766.55,-685.53"/>
<polygon fill="#555555" stroke="#555555" points="768.93,-689.01 775.65,-678.22 763.66,-682.47 768.93,-689.01"/>
</g>
<!-- baml_compiler_vir -->
<g id="node18" class="node">
<title>baml_compiler_vir</title>
<path fill="#82c99a" stroke="black" d="M706.4,-597.6C706.4,-597.6 517.65,-597.6 517.65,-597.6 511.65,-597.6 505.65,-591.6 505.65,-585.6 505.65,-585.6 505.65,-566.4 505.65,-566.4 505.65,-560.4 511.65,-554.4 517.65,-554.4 517.65,-554.4 706.4,-554.4 706.4,-554.4 712.4,-554.4 718.4,-560.4 718.4,-566.4 718.4,-566.4 718.4,-585.6 718.4,-585.6 718.4,-591.6 712.4,-597.6 706.4,-597.6"/>
<text text-anchor="middle" x="612.03" y="-568.8" font-family="Times,serif" font-size="24.00">baml_compiler_vir</text>
</g>
<!-- baml_compiler_mir&#45;&gt;baml_compiler_vir -->
<g id="edge12" class="edge">
<title>baml_compiler_mir&#45;&gt;baml_compiler_vir</title>
<path fill="none" stroke="#555555" d="M612.03,-633.1C612.03,-626.38 612.03,-618.76 612.03,-611.35"/>
<polygon fill="#555555" stroke="#555555" points="616.23,-611.58 612.03,-599.58 607.83,-611.58 616.23,-611.58"/>
</g>
<!-- baml_builtins -->
<g id="node20" class="node">
<title>baml_builtins</title>
<path fill="#87ceeb" stroke="black" d="M770.43,-439.2C770.43,-439.2 633.63,-439.2 633.63,-439.2 627.63,-439.2 621.63,-433.2 621.63,-427.2 621.63,-427.2 621.63,-408 621.63,-408 621.63,-402 627.63,-396 633.63,-396 633.63,-396 770.43,-396 770.43,-396 776.43,-396 782.43,-402 782.43,-408 782.43,-408 782.43,-427.2 782.43,-427.2 782.43,-433.2 776.43,-439.2 770.43,-439.2"/>
<text text-anchor="middle" x="702.03" y="-410.4" font-family="Times,serif" font-size="24.00">baml_builtins</text>
</g>
<!-- baml_vm&#45;&gt;baml_builtins -->
<g id="edge36" class="edge">
<title>baml_vm&#45;&gt;baml_builtins</title>
<path fill="none" stroke="#555555" d="M794.23,-633.21C780.18,-599.74 751.72,-532.2 727.03,-475.2 723.74,-467.62 720.18,-459.49 716.8,-451.82"/>
<polygon fill="#555555" stroke="#555555" points="720.67,-450.19 711.97,-440.92 712.99,-453.59 720.67,-450.19"/>
</g>
<!-- baml_base -->
<g id="node28" class="node">
<title>baml_base</title>
<path fill="#c3e6cb" stroke="black" d="M808.74,-122.4C808.74,-122.4 701.31,-122.4 701.31,-122.4 695.31,-122.4 689.31,-116.4 689.31,-110.4 689.31,-110.4 689.31,-91.2 689.31,-91.2 689.31,-85.2 695.31,-79.2 701.31,-79.2 701.31,-79.2 808.74,-79.2 808.74,-79.2 814.74,-79.2 820.74,-85.2 820.74,-91.2 820.74,-91.2 820.74,-110.4 820.74,-110.4 820.74,-116.4 814.74,-122.4 808.74,-122.4"/>
<text text-anchor="middle" x="755.03" y="-93.6" font-family="Times,serif" font-size="24.00">baml_base</text>
</g>
<!-- baml_vm&#45;&gt;baml_base -->
<g id="edge35" class="edge">
<title>baml_vm&#45;&gt;baml_base</title>
<path fill="none" stroke="#555555" d="M814.6,-633.15C829.65,-603.77 854.03,-548.35 854.03,-497.8 854.03,-497.8 854.03,-497.8 854.03,-258.2 854.03,-208.11 817.32,-161.03 788.61,-131.87"/>
<polygon fill="#555555" stroke="#555555" points="791.84,-129.15 780.33,-123.75 785.96,-135.15 791.84,-129.15"/>
</g>
<!-- baml_compiler_tir -->
<g id="node19" class="node">
<title>baml_compiler_tir</title>
<path fill="#82c99a" stroke="black" d="M703.74,-518.4C703.74,-518.4 520.32,-518.4 520.32,-518.4 514.32,-518.4 508.32,-512.4 508.32,-506.4 508.32,-506.4 508.32,-487.2 508.32,-487.2 508.32,-481.2 514.32,-475.2 520.32,-475.2 520.32,-475.2 703.74,-475.2 703.74,-475.2 709.74,-475.2 715.74,-481.2 715.74,-487.2 715.74,-487.2 715.74,-506.4 715.74,-506.4 715.74,-512.4 709.74,-518.4 703.74,-518.4"/>
<text text-anchor="middle" x="612.03" y="-489.6" font-family="Times,serif" font-size="24.00">baml_compiler_tir</text>
</g>
<!-- baml_compiler_vir&#45;&gt;baml_compiler_tir -->
<g id="edge20" class="edge">
<title>baml_compiler_vir&#45;&gt;baml_compiler_tir</title>
<path fill="none" stroke="#555555" d="M612.03,-553.9C612.03,-547.18 612.03,-539.56 612.03,-532.15"/>
<polygon fill="#555555" stroke="#555555" points="616.23,-532.38 612.03,-520.38 607.83,-532.38 616.23,-532.38"/>
</g>
<!-- baml_compiler_tir&#45;&gt;baml_builtins -->
<g id="edge18" class="edge">
<title>baml_compiler_tir&#45;&gt;baml_builtins</title>
<path fill="none" stroke="#555555" d="M636.62,-474.7C646.14,-466.53 657.22,-457.04 667.51,-448.21"/>
<polygon fill="#555555" stroke="#555555" points="669.94,-451.66 676.31,-440.66 664.47,-445.28 669.94,-451.66"/>
</g>
<!-- baml_compiler_hir -->
<g id="node21" class="node">
<title>baml_compiler_hir</title>
<path fill="#82c99a" stroke="black" d="M512.4,-439.2C512.4,-439.2 323.65,-439.2 323.65,-439.2 317.65,-439.2 311.65,-433.2 311.65,-427.2 311.65,-427.2 311.65,-408 311.65,-408 311.65,-402 317.65,-396 323.65,-396 323.65,-396 512.4,-396 512.4,-396 518.4,-396 524.4,-402 524.4,-408 524.4,-408 524.4,-427.2 524.4,-427.2 524.4,-433.2 518.4,-439.2 512.4,-439.2"/>
<text text-anchor="middle" x="418.03" y="-410.4" font-family="Times,serif" font-size="24.00">baml_compiler_hir</text>
</g>
<!-- baml_compiler_tir&#45;&gt;baml_compiler_hir -->
<g id="edge19" class="edge">
<title>baml_compiler_tir&#45;&gt;baml_compiler_hir</title>
<path fill="none" stroke="#555555" d="M559.02,-474.7C535.71,-465.43 508.09,-454.44 483.51,-444.66"/>
<polygon fill="#555555" stroke="#555555" points="485.08,-440.76 472.38,-440.23 481.98,-448.57 485.08,-440.76"/>
</g>
<!-- baml_compiler_parser -->
<g id="node22" class="node">
<title>baml_compiler_parser</title>
<path fill="#82c99a" stroke="black" d="M509.39,-360C509.39,-360 288.67,-360 288.67,-360 282.67,-360 276.67,-354 276.67,-348 276.67,-348 276.67,-328.8 276.67,-328.8 276.67,-322.8 282.67,-316.8 288.67,-316.8 288.67,-316.8 509.39,-316.8 509.39,-316.8 515.39,-316.8 521.39,-322.8 521.39,-328.8 521.39,-328.8 521.39,-348 521.39,-348 521.39,-354 515.39,-360 509.39,-360"/>
<text text-anchor="middle" x="399.03" y="-331.2" font-family="Times,serif" font-size="24.00">baml_compiler_parser</text>
</g>
<!-- baml_compiler_hir&#45;&gt;baml_compiler_parser -->
<g id="edge10" class="edge">
<title>baml_compiler_hir&#45;&gt;baml_compiler_parser</title>
<path fill="none" stroke="#555555" d="M412.84,-395.5C411.16,-388.7 409.26,-380.97 407.41,-373.47"/>
<polygon fill="#555555" stroke="#555555" points="411.52,-372.59 404.57,-361.94 403.36,-374.6 411.52,-372.59"/>
</g>
<!-- baml_compiler_diagnostics -->
<g id="node23" class="node">
<title>baml_compiler_diagnostics</title>
<path fill="#82c99a" stroke="black" d="M808.07,-280.8C808.07,-280.8 537.99,-280.8 537.99,-280.8 531.99,-280.8 525.99,-274.8 525.99,-268.8 525.99,-268.8 525.99,-249.6 525.99,-249.6 525.99,-243.6 531.99,-237.6 537.99,-237.6 537.99,-237.6 808.07,-237.6 808.07,-237.6 814.07,-237.6 820.07,-243.6 820.07,-249.6 820.07,-249.6 820.07,-268.8 820.07,-268.8 820.07,-274.8 814.07,-280.8 808.07,-280.8"/>
<text text-anchor="middle" x="673.03" y="-252" font-family="Times,serif" font-size="24.00">baml_compiler_diagnostics</text>
</g>
<!-- baml_compiler_parser&#45;&gt;baml_compiler_diagnostics -->
<g id="edge13" class="edge">
<title>baml_compiler_parser&#45;&gt;baml_compiler_diagnostics</title>
<path fill="none" stroke="#555555" d="M473.9,-316.3C508.33,-306.6 549.41,-295.03 585.29,-284.92"/>
<polygon fill="#555555" stroke="#555555" points="586.38,-288.98 596.79,-281.68 584.1,-280.89 586.38,-288.98"/>
</g>
<!-- baml_compiler_lexer -->
<g id="node24" class="node">
<title>baml_compiler_lexer</title>
<path fill="#82c99a" stroke="black" d="M222.05,-280.8C222.05,-280.8 12,-280.8 12,-280.8 6,-280.8 0,-274.8 0,-268.8 0,-268.8 0,-249.6 0,-249.6 0,-243.6 6,-237.6 12,-237.6 12,-237.6 222.05,-237.6 222.05,-237.6 228.05,-237.6 234.05,-243.6 234.05,-249.6 234.05,-249.6 234.05,-268.8 234.05,-268.8 234.05,-274.8 228.05,-280.8 222.05,-280.8"/>
<text text-anchor="middle" x="117.03" y="-252" font-family="Times,serif" font-size="24.00">baml_compiler_lexer</text>
</g>
<!-- baml_compiler_parser&#45;&gt;baml_compiler_lexer -->
<g id="edge14" class="edge">
<title>baml_compiler_parser&#45;&gt;baml_compiler_lexer</title>
<path fill="none" stroke="#555555" d="M321.97,-316.3C286.38,-306.56 243.88,-294.93 206.85,-284.79"/>
<polygon fill="#555555" stroke="#555555" points="208.13,-280.79 195.45,-281.67 205.92,-288.89 208.13,-280.79"/>
</g>
<!-- baml_compiler_syntax -->
<g id="node25" class="node">
<title>baml_compiler_syntax</title>
<path fill="#82c99a" stroke="black" d="M492.4,-280.8C492.4,-280.8 267.65,-280.8 267.65,-280.8 261.65,-280.8 255.65,-274.8 255.65,-268.8 255.65,-268.8 255.65,-249.6 255.65,-249.6 255.65,-243.6 261.65,-237.6 267.65,-237.6 267.65,-237.6 492.4,-237.6 492.4,-237.6 498.4,-237.6 504.4,-243.6 504.4,-249.6 504.4,-249.6 504.4,-268.8 504.4,-268.8 504.4,-274.8 498.4,-280.8 492.4,-280.8"/>
<text text-anchor="middle" x="380.03" y="-252" font-family="Times,serif" font-size="24.00">baml_compiler_syntax</text>
</g>
<!-- baml_compiler_parser&#45;&gt;baml_compiler_syntax -->
<g id="edge15" class="edge">
<title>baml_compiler_parser&#45;&gt;baml_compiler_syntax</title>
<path fill="none" stroke="#555555" d="M393.84,-316.3C392.16,-309.5 390.26,-301.77 388.41,-294.27"/>
<polygon fill="#555555" stroke="#555555" points="392.52,-293.39 385.57,-282.74 384.36,-295.4 392.52,-293.39"/>
</g>
<!-- baml_workspace -->
<g id="node26" class="node">
<title>baml_workspace</title>
<path fill="#e6d5f2" stroke="black" d="M1067.73,-201.6C1067.73,-201.6 900.32,-201.6 900.32,-201.6 894.32,-201.6 888.32,-195.6 888.32,-189.6 888.32,-189.6 888.32,-170.4 888.32,-170.4 888.32,-164.4 894.32,-158.4 900.32,-158.4 900.32,-158.4 1067.73,-158.4 1067.73,-158.4 1073.73,-158.4 1079.73,-164.4 1079.73,-170.4 1079.73,-170.4 1079.73,-189.6 1079.73,-189.6 1079.73,-195.6 1073.73,-201.6 1067.73,-201.6"/>
<text text-anchor="middle" x="984.03" y="-172.8" font-family="Times,serif" font-size="24.00">baml_workspace</text>
</g>
<!-- baml_compiler_diagnostics&#45;&gt;baml_workspace -->
<g id="edge7" class="edge">
<title>baml_compiler_diagnostics&#45;&gt;baml_workspace</title>
<path fill="none" stroke="#555555" d="M758.01,-237.1C797.61,-227.28 844.94,-215.52 886.04,-205.32"/>
<polygon fill="#555555" stroke="#555555" points="887.04,-209.4 897.68,-202.43 885.02,-201.25 887.04,-209.4"/>
</g>
<!-- baml_compiler_lexer&#45;&gt;baml_base -->
<g id="edge11" class="edge">
<title>baml_compiler_lexer&#45;&gt;baml_base</title>
<path fill="none" stroke="#555555" d="M152.08,-237.11C192.35,-213.91 261.11,-177.41 325.03,-158.4 444.01,-123.01 588.07,-109.73 675.57,-104.76"/>
<polygon fill="#555555" stroke="#555555" points="675.58,-108.96 687.34,-104.12 675.13,-100.57 675.58,-108.96"/>
</g>
<!-- rowan -->
<g id="node27" class="node">
<title>rowan</title>
<path fill="white" stroke="black" d="M412.42,-201.6C412.42,-201.6 347.64,-201.6 347.64,-201.6 341.64,-201.6 335.64,-195.6 335.64,-189.6 335.64,-189.6 335.64,-170.4 335.64,-170.4 335.64,-164.4 341.64,-158.4 347.64,-158.4 347.64,-158.4 412.42,-158.4 412.42,-158.4 418.42,-158.4 424.42,-164.4 424.42,-170.4 424.42,-170.4 424.42,-189.6 424.42,-189.6 424.42,-195.6 418.42,-201.6 412.42,-201.6"/>
<text text-anchor="middle" x="380.03" y="-172.8" font-family="Times,serif" font-size="24.00">rowan</text>
</g>
<!-- baml_compiler_syntax&#45;&gt;rowan -->
<g id="edge17" class="edge">
<title>baml_compiler_syntax&#45;&gt;rowan</title>
<path fill="none" stroke="#555555" d="M380.03,-237.1C380.03,-230.38 380.03,-222.76 380.03,-215.35"/>
<polygon fill="#555555" stroke="#555555" points="384.23,-215.58 380.03,-203.58 375.83,-215.58 384.23,-215.58"/>
</g>
<!-- baml_compiler_syntax&#45;&gt;baml_base -->
<g id="edge16" class="edge">
<title>baml_compiler_syntax&#45;&gt;baml_base</title>
<path fill="none" stroke="#555555" d="M430.6,-237.11C498.45,-208.81 618.89,-158.58 692.39,-127.92"/>
<polygon fill="#555555" stroke="#555555" points="693.8,-131.89 703.26,-123.39 690.57,-124.13 693.8,-131.89"/>
</g>
<!-- baml_workspace&#45;&gt;baml_base -->
<g id="edge37" class="edge">
<title>baml_workspace&#45;&gt;baml_base</title>
<path fill="none" stroke="#555555" d="M921.45,-157.9C893.18,-148.37 859.55,-137.04 829.94,-127.05"/>
<polygon fill="#555555" stroke="#555555" points="831.67,-123.21 818.96,-123.35 828.99,-131.17 831.67,-123.21"/>
</g>
<!-- salsa -->
<g id="node29" class="node">
<title>salsa</title>
<path fill="white" stroke="black" d="M780.75,-43.2C780.75,-43.2 729.3,-43.2 729.3,-43.2 723.3,-43.2 717.3,-37.2 717.3,-31.2 717.3,-31.2 717.3,-12 717.3,-12 717.3,-6 723.3,0 729.3,0 729.3,0 780.75,0 780.75,0 786.75,0 792.75,-6 792.75,-12 792.75,-12 792.75,-31.2 792.75,-31.2 792.75,-37.2 786.75,-43.2 780.75,-43.2"/>
<text text-anchor="middle" x="755.03" y="-14.4" font-family="Times,serif" font-size="24.00">salsa</text>
</g>
<!-- baml_base&#45;&gt;salsa -->
<g id="edge5" class="edge">
<title>baml_base&#45;&gt;salsa</title>
<path fill="none" stroke="#555555" d="M755.03,-78.7C755.03,-71.98 755.03,-64.36 755.03,-56.95"/>
<polygon fill="#555555" stroke="#555555" points="759.23,-57.18 755.03,-45.18 750.83,-57.18 759.23,-57.18"/>
</g>
</g>
</svg>
