<?xml version="1.0" encoding="UTF-8" standalone="no"?>
<!DOCTYPE svg PUBLIC "-//W3C//DTD SVG 1.1//EN"
 "http://www.w3.org/Graphics/SVG/1.1/DTD/svg11.dtd">
<!-- Generated by graphviz version 14.1.1 (20251213.1925)
 -->
<!-- Title: dependencies Pages: 1 -->
<svg width="1623pt" height="1415pt"
 viewBox="0.00 0.00 1623.00 1415.00" xmlns="http://www.w3.org/2000/svg" xmlns:xlink="http://www.w3.org/1999/xlink">
<g id="graph0" class="graph" transform="scale(1 1) rotate(0) translate(4 1411)">
<title>dependencies</title>
<polygon fill="#f8f9fa" stroke="none" points="-4,4 -4,-1411 1619,-1411 1619,4 -4,4"/>
<g id="clust1" class="cluster">
<title>cluster_baml</title>
<path fill="#e4cdcd" stroke="#971a1a" stroke-width="2" d="M20,-8C20,-8 582,-8 582,-8 588,-8 594,-14 594,-20 594,-20 594,-1387 594,-1387 594,-1393 588,-1399 582,-1399 582,-1399 20,-1399 20,-1399 14,-1399 8,-1393 8,-1387 8,-1387 8,-20 8,-20 8,-14 14,-8 20,-8"/>
<text xml:space="preserve" text-anchor="middle" x="301" y="-1381.7" font-family="Helvetica Bold" font-size="14.00">baml</text>
</g>
<g id="clust2" class="cluster">
<title>cluster_bex</title>
<path fill="#d8e4cd" stroke="#59971a" stroke-width="2" d="M1052,-478C1052,-478 1306,-478 1306,-478 1312,-478 1318,-484 1318,-490 1318,-490 1318,-1105 1318,-1105 1318,-1111 1312,-1117 1306,-1117 1306,-1117 1052,-1117 1052,-1117 1046,-1117 1040,-1111 1040,-1105 1040,-1105 1040,-490 1040,-490 1040,-484 1046,-478 1052,-478"/>
<text xml:space="preserve" text-anchor="middle" x="1179" y="-1099.7" font-family="Helvetica Bold" font-size="14.00">bex</text>
</g>
<g id="clust3" class="cluster">
<title>cluster_sys</title>
<path fill="#cde4e4" stroke="#1a9797" stroke-width="2" d="M1349,-854C1349,-854 1595,-854 1595,-854 1601,-854 1607,-860 1607,-866 1607,-866 1607,-1105 1607,-1105 1607,-1111 1601,-1117 1595,-1117 1595,-1117 1349,-1117 1349,-1117 1343,-1117 1337,-1111 1337,-1105 1337,-1105 1337,-866 1337,-866 1337,-860 1343,-854 1349,-854"/>
<text xml:space="preserve" text-anchor="middle" x="1472" y="-1099.7" font-family="Helvetica Bold" font-size="14.00">sys</text>
</g>
<g id="clust4" class="cluster">
<title>cluster_tools</title>
<path fill="#d8cde4" stroke="#591a97" stroke-width="2" d="M614,-1042C614,-1042 1020,-1042 1020,-1042 1026,-1042 1032,-1048 1032,-1054 1032,-1054 1032,-1199 1032,-1199 1032,-1205 1026,-1211 1020,-1211 1020,-1211 614,-1211 614,-1211 608,-1211 602,-1205 602,-1199 602,-1199 602,-1054 602,-1054 602,-1048 608,-1042 614,-1042"/>
<text xml:space="preserve" text-anchor="middle" x="817" y="-1193.7" font-family="Helvetica Bold" font-size="14.00">tools</text>
</g>
<!-- baml_base -->
<g id="node1" class="node">
<title>baml_base</title>
<polygon fill="#e4cdcd" stroke="#971a1a" stroke-width="2" points="408.25,-146 339.75,-146 339.75,-110 408.25,-110 408.25,-146"/>
<text xml:space="preserve" text-anchor="middle" x="374" y="-123.55" font-family="Helvetica,sans-Serif" font-size="11.00">baml_base</text>
</g>
<!-- baml_salsa -->
<g id="node26" class="node">
<title>baml_salsa</title>
<polygon fill="#d0d0d0" stroke="#606060" stroke-width="2" points="401,-52 347,-52 347,-16 401,-16 401,-52"/>
<text xml:space="preserve" text-anchor="middle" x="374" y="-29.55" font-family="Helvetica,sans-Serif" font-size="11.00">salsa</text>
</g>
<!-- baml_base&#45;&gt;baml_salsa -->
<g id="edge1" class="edge">
<title>baml_base&#45;&gt;baml_salsa</title>
<path fill="none" stroke="#444444" d="M374,-109.43C374,-109.43 374,-61.37 374,-61.37"/>
<polygon fill="#444444" stroke="#444444" points="376.45,-61.37 374,-54.37 371.55,-61.37 376.45,-61.37"/>
</g>
<!-- baml_builtins -->
<g id="node2" class="node">
<title>baml_builtins</title>
<polygon fill="#e4cdcd" stroke="#971a1a" stroke-width="2" points="565.12,-522 486.88,-522 486.88,-486 565.12,-486 565.12,-522"/>
<text xml:space="preserve" text-anchor="middle" x="526" y="-499.55" font-family="Helvetica,sans-Serif" font-size="11.00">baml_builtins</text>
</g>
<!-- baml_builtins_macros -->
<g id="node3" class="node">
<title>baml_builtins_macros</title>
<polygon fill="#df9fd2" stroke="#971a1a" stroke-width="2" points="585.75,-428 466.25,-428 466.25,-392 585.75,-392 585.75,-428"/>
<text xml:space="preserve" text-anchor="middle" x="526" y="-405.55" font-family="Helvetica,sans-Serif" font-size="11.00">baml_builtins_macros</text>
</g>
<!-- baml_builtins&#45;&gt;baml_builtins_macros -->
<g id="edge2" class="edge">
<title>baml_builtins&#45;&gt;baml_builtins_macros</title>
<path fill="none" stroke="#444444" d="M526,-485.43C526,-485.43 526,-437.37 526,-437.37"/>
<polygon fill="#444444" stroke="#444444" points="528.45,-437.37 526,-430.37 523.55,-437.37 528.45,-437.37"/>
</g>
<!-- baml_cli -->
<g id="node4" class="node">
<title>baml_cli</title>
<polygon fill="#e4cdcd" stroke="#971a1a" stroke-width="2" points="308.5,-1368 253.5,-1368 253.5,-1332 308.5,-1332 308.5,-1368"/>
<text xml:space="preserve" text-anchor="middle" x="281" y="-1345.55" font-family="Helvetica,sans-Serif" font-size="11.00">baml_cli</text>
</g>
<!-- baml_lsp -->
<g id="node18" class="node">
<title>baml_lsp</title>
<polygon fill="#e4cdcd" stroke="#971a1a" stroke-width="2" points="261.38,-1274 202.62,-1274 202.62,-1238 261.38,-1238 261.38,-1274"/>
<text xml:space="preserve" text-anchor="middle" x="232" y="-1251.55" font-family="Helvetica,sans-Serif" font-size="11.00">baml_lsp</text>
</g>
<!-- baml_cli&#45;&gt;baml_lsp -->
<g id="edge3" class="edge">
<title>baml_cli&#45;&gt;baml_lsp</title>
<path fill="none" stroke="#444444" d="M257.44,-1331.43C257.44,-1331.43 257.44,-1283.37 257.44,-1283.37"/>
<polygon fill="#444444" stroke="#444444" points="259.89,-1283.37 257.44,-1276.37 254.99,-1283.37 259.89,-1283.37"/>
</g>
<!-- baml_clap_af4045ea -->
<g id="node24" class="node">
<title>baml_clap_af4045ea</title>
<polygon fill="#d0d0d0" stroke="#606060" stroke-width="2" points="364.88,-1274 297.12,-1274 297.12,-1238 364.88,-1238 364.88,-1274"/>
<text xml:space="preserve" text-anchor="middle" x="331" y="-1257.55" font-family="Helvetica,sans-Serif" font-size="11.00">clap</text>
<text xml:space="preserve" text-anchor="middle" x="331" y="-1245.55" font-family="Helvetica,sans-Serif" font-size="11.00">[color, env]</text>
</g>
<!-- baml_cli&#45;&gt;baml_clap_af4045ea -->
<g id="edge4" class="edge">
<title>baml_cli&#45;&gt;baml_clap_af4045ea</title>
<path fill="none" stroke="#444444" d="M302.81,-1331.43C302.81,-1331.43 302.81,-1283.37 302.81,-1283.37"/>
<polygon fill="#444444" stroke="#444444" points="305.26,-1283.37 302.81,-1276.37 300.36,-1283.37 305.26,-1283.37"/>
</g>
<!-- baml_codegen_python -->
<g id="node5" class="node">
<title>baml_codegen_python</title>
<polygon fill="#9fdfde" stroke="#971a1a" stroke-width="2" points="586.38,-334 461.62,-334 461.62,-298 586.38,-298 586.38,-334"/>
<text xml:space="preserve" text-anchor="middle" x="524" y="-311.55" font-family="Helvetica,sans-Serif" font-size="11.00">baml_codegen_python</text>
</g>
<!-- baml_codegen_types -->
<g id="node6" class="node">
<title>baml_codegen_types</title>
<polygon fill="#9fdfde" stroke="#971a1a" stroke-width="2" points="586,-240 468,-240 468,-204 586,-204 586,-240"/>
<text xml:space="preserve" text-anchor="middle" x="527" y="-217.55" font-family="Helvetica,sans-Serif" font-size="11.00">baml_codegen_types</text>
</g>
<!-- baml_codegen_python&#45;&gt;baml_codegen_types -->
<g id="edge5" class="edge">
<title>baml_codegen_python&#45;&gt;baml_codegen_types</title>
<path fill="none" stroke="#444444" d="M527,-297.43C527,-297.43 527,-249.37 527,-249.37"/>
<polygon fill="#444444" stroke="#444444" points="529.45,-249.37 527,-242.37 524.55,-249.37 529.45,-249.37"/>
</g>
<!-- baml_codegen_types&#45;&gt;baml_base -->
<g id="edge6" class="edge">
<title>baml_codegen_types&#45;&gt;baml_base</title>
<path fill="none" stroke="#444444" d="M527,-203.34C527,-177.51 527,-134 527,-134 527,-134 417.61,-134 417.61,-134"/>
<polygon fill="#444444" stroke="#444444" points="417.61,-131.55 410.61,-134 417.61,-136.45 417.61,-131.55"/>
</g>
<!-- baml_compiler_diagnostics -->
<g id="node7" class="node">
<title>baml_compiler_diagnostics</title>
<polygon fill="#9fdfa6" stroke="#971a1a" stroke-width="2" points="336.5,-334 191.5,-334 191.5,-298 336.5,-298 336.5,-334"/>
<text xml:space="preserve" text-anchor="middle" x="264" y="-311.55" font-family="Helvetica,sans-Serif" font-size="11.00">baml_compiler_diagnostics</text>
</g>
<!-- baml_workspace -->
<g id="node22" class="node">
<title>baml_workspace</title>
<polygon fill="#e4cdcd" stroke="#971a1a" stroke-width="2" points="280.5,-240 183.5,-240 183.5,-204 280.5,-204 280.5,-240"/>
<text xml:space="preserve" text-anchor="middle" x="232" y="-217.55" font-family="Helvetica,sans-Serif" font-size="11.00">baml_workspace</text>
</g>
<!-- baml_compiler_diagnostics&#45;&gt;baml_workspace -->
<g id="edge7" class="edge">
<title>baml_compiler_diagnostics&#45;&gt;baml_workspace</title>
<path fill="none" stroke="#444444" d="M236,-297.43C236,-297.43 236,-249.37 236,-249.37"/>
<polygon fill="#444444" stroke="#444444" points="238.45,-249.37 236,-242.37 233.55,-249.37 238.45,-249.37"/>
</g>
<!-- baml_compiler_emit -->
<g id="node8" class="node">
<title>baml_compiler_emit</title>
<polygon fill="#9fdfa6" stroke="#971a1a" stroke-width="2" points="586,-898 474,-898 474,-862 586,-862 586,-898"/>
<text xml:space="preserve" text-anchor="middle" x="530" y="-875.55" font-family="Helvetica,sans-Serif" font-size="11.00">baml_compiler_emit</text>
</g>
<!-- baml_compiler_mir -->
<g id="node11" class="node">
<title>baml_compiler_mir</title>
<polygon fill="#9fdfa6" stroke="#971a1a" stroke-width="2" points="582.38,-804 475.62,-804 475.62,-768 582.38,-768 582.38,-804"/>
<text xml:space="preserve" text-anchor="middle" x="529" y="-781.55" font-family="Helvetica,sans-Serif" font-size="11.00">baml_compiler_mir</text>
</g>
<!-- baml_compiler_emit&#45;&gt;baml_compiler_mir -->
<g id="edge8" class="edge">
<title>baml_compiler_emit&#45;&gt;baml_compiler_mir</title>
<path fill="none" stroke="#444444" d="M529,-861.43C529,-861.43 529,-813.37 529,-813.37"/>
<polygon fill="#444444" stroke="#444444" points="531.45,-813.37 529,-806.37 526.55,-813.37 531.45,-813.37"/>
</g>
<!-- bex_vm_types -->
<g id="node35" class="node">
<title>bex_vm_types</title>
<polygon fill="#9fdfd1" stroke="#59971a" stroke-width="2" points="1145.5,-616 1060.5,-616 1060.5,-580 1145.5,-580 1145.5,-616"/>
<text xml:space="preserve" text-anchor="middle" x="1103" y="-593.55" font-family="Helvetica,sans-Serif" font-size="11.00">bex_vm_types</text>
</g>
<!-- baml_compiler_emit&#45;&gt;bex_vm_types -->
<g id="edge9" class="edge">
<title>baml_compiler_emit&#45;&gt;bex_vm_types</title>
<path fill="none" stroke="#666666" stroke-width="1.5" stroke-dasharray="5,2" d="M586.93,-880C593.66,-880 598.19,-880 598.19,-880 598.19,-880 598.19,-607 598.19,-607 598.19,-607 1050.25,-607 1050.25,-607"/>
<polygon fill="#666666" stroke="#666666" stroke-width="1.5" points="1050.25,-609.45 1057.25,-607 1050.25,-604.55 1050.25,-609.45"/>
</g>
<!-- baml_compiler_hir -->
<g id="node9" class="node">
<title>baml_compiler_hir</title>
<polygon fill="#9fdfa6" stroke="#971a1a" stroke-width="2" points="383.88,-522 280.12,-522 280.12,-486 383.88,-486 383.88,-522"/>
<text xml:space="preserve" text-anchor="middle" x="332" y="-499.55" font-family="Helvetica,sans-Serif" font-size="11.00">baml_compiler_hir</text>
</g>
<!-- baml_compiler_parser -->
<g id="node12" class="node">
<title>baml_compiler_parser</title>
<polygon fill="#9fdfa6" stroke="#971a1a" stroke-width="2" points="359.25,-428 236.75,-428 236.75,-392 359.25,-392 359.25,-428"/>
<text xml:space="preserve" text-anchor="middle" x="298" y="-405.55" font-family="Helvetica,sans-Serif" font-size="11.00">baml_compiler_parser</text>
</g>
<!-- baml_compiler_hir&#45;&gt;baml_compiler_parser -->
<g id="edge10" class="edge">
<title>baml_compiler_hir&#45;&gt;baml_compiler_parser</title>
<path fill="none" stroke="#444444" d="M319.69,-485.43C319.69,-485.43 319.69,-437.37 319.69,-437.37"/>
<polygon fill="#444444" stroke="#444444" points="322.14,-437.37 319.69,-430.37 317.24,-437.37 322.14,-437.37"/>
</g>
<!-- baml_compiler_lexer -->
<g id="node10" class="node">
<title>baml_compiler_lexer</title>
<polygon fill="#9fdfa6" stroke="#971a1a" stroke-width="2" points="431.5,-240 316.5,-240 316.5,-204 431.5,-204 431.5,-240"/>
<text xml:space="preserve" text-anchor="middle" x="374" y="-217.55" font-family="Helvetica,sans-Serif" font-size="11.00">baml_compiler_lexer</text>
</g>
<!-- baml_compiler_lexer&#45;&gt;baml_base -->
<g id="edge11" class="edge">
<title>baml_compiler_lexer&#45;&gt;baml_base</title>
<path fill="none" stroke="#444444" d="M374,-203.43C374,-203.43 374,-155.37 374,-155.37"/>
<polygon fill="#444444" stroke="#444444" points="376.45,-155.37 374,-148.37 371.55,-155.37 376.45,-155.37"/>
</g>
<!-- baml_compiler_vir -->
<g id="node15" class="node">
<title>baml_compiler_vir</title>
<polygon fill="#9fdfa6" stroke="#971a1a" stroke-width="2" points="578.5,-710 475.5,-710 475.5,-674 578.5,-674 578.5,-710"/>
<text xml:space="preserve" text-anchor="middle" x="527" y="-687.55" font-family="Helvetica,sans-Serif" font-size="11.00">baml_compiler_vir</text>
</g>
<!-- baml_compiler_mir&#45;&gt;baml_compiler_vir -->
<g id="edge12" class="edge">
<title>baml_compiler_mir&#45;&gt;baml_compiler_vir</title>
<path fill="none" stroke="#444444" d="M527.06,-767.43C527.06,-767.43 527.06,-719.37 527.06,-719.37"/>
<polygon fill="#444444" stroke="#444444" points="529.51,-719.37 527.06,-712.37 524.61,-719.37 529.51,-719.37"/>
</g>
<!-- baml_compiler_parser&#45;&gt;baml_compiler_diagnostics -->
<g id="edge13" class="edge">
<title>baml_compiler_parser&#45;&gt;baml_compiler_diagnostics</title>
<path fill="none" stroke="#444444" d="M286.62,-391.43C286.62,-391.43 286.62,-343.37 286.62,-343.37"/>
<polygon fill="#444444" stroke="#444444" points="289.08,-343.37 286.63,-336.37 284.18,-343.37 289.08,-343.37"/>
</g>
<!-- baml_compiler_parser&#45;&gt;baml_compiler_lexer -->
<g id="edge14" class="edge">
<title>baml_compiler_parser&#45;&gt;baml_compiler_lexer</title>
<path fill="none" stroke="#444444" d="M347.88,-391.29C347.88,-391.29 347.88,-249.43 347.88,-249.43"/>
<polygon fill="#444444" stroke="#444444" points="350.33,-249.43 347.88,-242.43 345.43,-249.43 350.33,-249.43"/>
</g>
<!-- baml_compiler_syntax -->
<g id="node13" class="node">
<title>baml_compiler_syntax</title>
<polygon fill="#9fdfa6" stroke="#971a1a" stroke-width="2" points="155.25,-334 32.75,-334 32.75,-298 155.25,-298 155.25,-334"/>
<text xml:space="preserve" text-anchor="middle" x="94" y="-311.55" font-family="Helvetica,sans-Serif" font-size="11.00">baml_compiler_syntax</text>
</g>
<!-- baml_compiler_parser&#45;&gt;baml_compiler_syntax -->
<g id="edge15" class="edge">
<title>baml_compiler_parser&#45;&gt;baml_compiler_syntax</title>
<path fill="none" stroke="#444444" d="M235.96,-410C189.93,-410 135.12,-410 135.12,-410 135.12,-410 135.12,-343.08 135.12,-343.08"/>
<polygon fill="#444444" stroke="#444444" points="137.58,-343.08 135.13,-336.08 132.68,-343.08 137.58,-343.08"/>
</g>
<!-- baml_compiler_syntax&#45;&gt;baml_base -->
<g id="edge16" class="edge">
<title>baml_compiler_syntax&#45;&gt;baml_base</title>
<path fill="none" stroke="#444444" d="M151.12,-297.05C151.12,-248.23 151.12,-122 151.12,-122 151.12,-122 330.66,-122 330.66,-122"/>
<polygon fill="#444444" stroke="#444444" points="330.66,-124.45 337.66,-122 330.66,-119.55 330.66,-124.45"/>
</g>
<!-- baml_rowan -->
<g id="node25" class="node">
<title>baml_rowan</title>
<polygon fill="#d0d0d0" stroke="#606060" stroke-width="2" points="147,-240 93,-240 93,-204 147,-204 147,-240"/>
<text xml:space="preserve" text-anchor="middle" x="120" y="-217.55" font-family="Helvetica,sans-Serif" font-size="11.00">rowan</text>
</g>
<!-- baml_compiler_syntax&#45;&gt;baml_rowan -->
<g id="edge17" class="edge">
<title>baml_compiler_syntax&#45;&gt;baml_rowan</title>
<path fill="none" stroke="#444444" d="M120,-297.43C120,-297.43 120,-249.37 120,-249.37"/>
<polygon fill="#444444" stroke="#444444" points="122.45,-249.37 120,-242.37 117.55,-249.37 122.45,-249.37"/>
</g>
<!-- baml_compiler_tir -->
<g id="node14" class="node">
<title>baml_compiler_tir</title>
<polygon fill="#9fdfa6" stroke="#971a1a" stroke-width="2" points="576.38,-616 475.62,-616 475.62,-580 576.38,-580 576.38,-616"/>
<text xml:space="preserve" text-anchor="middle" x="526" y="-593.55" font-family="Helvetica,sans-Serif" font-size="11.00">baml_compiler_tir</text>
</g>
<!-- baml_compiler_tir&#45;&gt;baml_builtins -->
<g id="edge18" class="edge">
<title>baml_compiler_tir&#45;&gt;baml_builtins</title>
<path fill="none" stroke="#444444" d="M526,-579.43C526,-579.43 526,-531.37 526,-531.37"/>
<polygon fill="#444444" stroke="#444444" points="528.45,-531.37 526,-524.37 523.55,-531.37 528.45,-531.37"/>
</g>
<!-- baml_compiler_tir&#45;&gt;baml_compiler_hir -->
<g id="edge19" class="edge">
<title>baml_compiler_tir&#45;&gt;baml_compiler_hir</title>
<path fill="none" stroke="#444444" d="M481.25,-579.43C481.25,-552.03 481.25,-504 481.25,-504 481.25,-504 393.13,-504 393.13,-504"/>
<polygon fill="#444444" stroke="#444444" points="393.13,-501.55 386.13,-504 393.13,-506.45 393.13,-501.55"/>
</g>
<!-- baml_compiler_vir&#45;&gt;baml_compiler_tir -->
<g id="edge20" class="edge">
<title>baml_compiler_vir&#45;&gt;baml_compiler_tir</title>
<path fill="none" stroke="#444444" d="M526,-673.43C526,-673.43 526,-625.37 526,-625.37"/>
<polygon fill="#444444" stroke="#444444" points="528.45,-625.37 526,-618.37 523.55,-625.37 528.45,-625.37"/>
</g>
<!-- baml_db -->
<g id="node16" class="node">
<title>baml_db</title>
<polygon fill="#e4cdcd" stroke="#971a1a" stroke-width="2" points="559.62,-992 502.38,-992 502.38,-956 559.62,-956 559.62,-992"/>
<text xml:space="preserve" text-anchor="middle" x="531" y="-969.55" font-family="Helvetica,sans-Serif" font-size="11.00">baml_db</text>
</g>
<!-- baml_db&#45;&gt;baml_compiler_emit -->
<g id="edge21" class="edge">
<title>baml_db&#45;&gt;baml_compiler_emit</title>
<path fill="none" stroke="#444444" d="M531,-955.43C531,-955.43 531,-907.37 531,-907.37"/>
<polygon fill="#444444" stroke="#444444" points="533.45,-907.37 531,-900.37 528.55,-907.37 533.45,-907.37"/>
</g>
<!-- baml_ide -->
<g id="node17" class="node">
<title>baml_ide</title>
<polygon fill="#e4cdcd" stroke="#971a1a" stroke-width="2" points="585.75,-1180 526.25,-1180 526.25,-1144 585.75,-1144 585.75,-1180"/>
<text xml:space="preserve" text-anchor="middle" x="556" y="-1157.55" font-family="Helvetica,sans-Serif" font-size="11.00">baml_ide</text>
</g>
<!-- baml_project -->
<g id="node21" class="node">
<title>baml_project</title>
<polygon fill="#e4cdcd" stroke="#971a1a" stroke-width="2" points="571.75,-1086 494.25,-1086 494.25,-1050 571.75,-1050 571.75,-1086"/>
<text xml:space="preserve" text-anchor="middle" x="533" y="-1063.55" font-family="Helvetica,sans-Serif" font-size="11.00">baml_project</text>
</g>
<!-- baml_ide&#45;&gt;baml_project -->
<g id="edge22" class="edge">
<title>baml_ide&#45;&gt;baml_project</title>
<path fill="none" stroke="#444444" d="M541.42,-1143.43C541.42,-1143.43 541.42,-1095.37 541.42,-1095.37"/>
<polygon fill="#444444" stroke="#444444" points="543.87,-1095.37 541.42,-1088.37 538.97,-1095.37 543.87,-1095.37"/>
</g>
<!-- baml_lsp&#45;&gt;baml_ide -->
<g id="edge23" class="edge">
<title>baml_lsp&#45;&gt;baml_ide</title>
<path fill="none" stroke="#444444" d="M241.79,-1237.15C241.79,-1224.08 241.79,-1209 241.79,-1209 241.79,-1209 556,-1209 556,-1209 556,-1209 556,-1189.36 556,-1189.36"/>
<polygon fill="#444444" stroke="#444444" points="558.45,-1189.36 556,-1182.36 553.55,-1189.36 558.45,-1189.36"/>
</g>
<!-- baml_lsp_types -->
<g id="node19" class="node">
<title>baml_lsp_types</title>
<polygon fill="#9fd9df" stroke="#971a1a" stroke-width="2" points="106.12,-1180 15.88,-1180 15.88,-1144 106.12,-1144 106.12,-1180"/>
<text xml:space="preserve" text-anchor="middle" x="61" y="-1157.55" font-family="Helvetica,sans-Serif" font-size="11.00">baml_lsp_types</text>
</g>
<!-- baml_lsp&#45;&gt;baml_lsp_types -->
<g id="edge24" class="edge">
<title>baml_lsp&#45;&gt;baml_lsp_types</title>
<path fill="none" stroke="#444444" d="M201.82,-1256C152.73,-1256 61,-1256 61,-1256 61,-1256 61,-1189.08 61,-1189.08"/>
<polygon fill="#444444" stroke="#444444" points="63.45,-1189.08 61,-1182.08 58.55,-1189.08 63.45,-1189.08"/>
</g>
<!-- baml_tokio_e7cec3ab -->
<g id="node28" class="node">
<title>baml_tokio_e7cec3ab</title>
<polygon fill="#d0d0d0" stroke="#606060" stroke-width="2" points="321.38,-1180 142.62,-1180 142.62,-1144 321.38,-1144 321.38,-1180"/>
<text xml:space="preserve" text-anchor="middle" x="232" y="-1163.55" font-family="Helvetica,sans-Serif" font-size="11.00">tokio</text>
<text xml:space="preserve" text-anchor="middle" x="232" y="-1151.55" font-family="Helvetica,sans-Serif" font-size="11.00">[fs, net, rt&#45;multi&#45;thread, sync, time]</text>
</g>
<!-- baml_lsp&#45;&gt;baml_tokio_e7cec3ab -->
<g id="edge25" class="edge">
<title>baml_lsp&#45;&gt;baml_tokio_e7cec3ab</title>
<path fill="none" stroke="#444444" d="M222.21,-1237.43C222.21,-1237.43 222.21,-1189.37 222.21,-1189.37"/>
<polygon fill="#444444" stroke="#444444" points="224.66,-1189.37 222.21,-1182.37 219.76,-1189.37 224.66,-1189.37"/>
</g>
<!-- baml_anyhow -->
<g id="node23" class="node">
<title>baml_anyhow</title>
<polygon fill="#d0d0d0" stroke="#606060" stroke-width="2" points="79,-1086 25,-1086 25,-1050 79,-1050 79,-1086"/>
<text xml:space="preserve" text-anchor="middle" x="52" y="-1063.55" font-family="Helvetica,sans-Serif" font-size="11.00">anyhow</text>
</g>
<!-- baml_lsp_types&#45;&gt;baml_anyhow -->
<g id="edge26" class="edge">
<title>baml_lsp_types&#45;&gt;baml_anyhow</title>
<path fill="none" stroke="#444444" d="M52,-1143.43C52,-1143.43 52,-1095.37 52,-1095.37"/>
<polygon fill="#444444" stroke="#444444" points="54.45,-1095.37 52,-1088.37 49.55,-1095.37 54.45,-1095.37"/>
</g>
<!-- baml_serde -->
<g id="node27" class="node">
<title>baml_serde</title>
<polygon fill="#d0d0d0" stroke="#606060" stroke-width="2" points="169,-1086 115,-1086 115,-1050 169,-1050 169,-1086"/>
<text xml:space="preserve" text-anchor="middle" x="142" y="-1063.55" font-family="Helvetica,sans-Serif" font-size="11.00">serde</text>
</g>
<!-- baml_lsp_types&#45;&gt;baml_serde -->
<g id="edge27" class="edge">
<title>baml_lsp_types&#45;&gt;baml_serde</title>
<path fill="none" stroke="#444444" d="M106.98,-1162C119.08,-1162 128.81,-1162 128.81,-1162 128.81,-1162 128.81,-1095.08 128.81,-1095.08"/>
<polygon fill="#444444" stroke="#444444" points="131.26,-1095.08 128.81,-1088.08 126.36,-1095.08 131.26,-1095.08"/>
</g>
<!-- baml_playground_wasm -->
<g id="node20" class="node">
<title>baml_playground_wasm</title>
<polygon fill="#c6df9f" stroke="#971a1a" stroke-width="2" points="490.5,-1180 357.5,-1180 357.5,-1144 490.5,-1144 490.5,-1180"/>
<text xml:space="preserve" text-anchor="middle" x="424" y="-1157.55" font-family="Helvetica,sans-Serif" font-size="11.00">baml_playground_wasm</text>
</g>
<!-- baml_playground_wasm&#45;&gt;baml_project -->
<g id="edge28" class="edge">
<title>baml_playground_wasm&#45;&gt;baml_project</title>
<path fill="none" stroke="#444444" d="M482.25,-1143.43C482.25,-1116.03 482.25,-1068 482.25,-1068 482.25,-1068 484.75,-1068 484.75,-1068"/>
<polygon fill="#444444" stroke="#444444" points="484.75,-1070.45 491.75,-1068 484.75,-1065.55 484.75,-1070.45"/>
</g>
<!-- baml_project&#45;&gt;baml_db -->
<g id="edge29" class="edge">
<title>baml_project&#45;&gt;baml_db</title>
<path fill="none" stroke="#444444" d="M531,-1049.43C531,-1049.43 531,-1001.37 531,-1001.37"/>
<polygon fill="#444444" stroke="#444444" points="533.45,-1001.37 531,-994.37 528.55,-1001.37 533.45,-1001.37"/>
</g>
<!-- baml_workspace&#45;&gt;baml_base -->
<g id="edge30" class="edge">
<title>baml_workspace&#45;&gt;baml_base</title>
<path fill="none" stroke="#444444" d="M232,-203.34C232,-177.51 232,-134 232,-134 232,-134 330.39,-134 330.39,-134"/>
<polygon fill="#444444" stroke="#444444" points="330.39,-136.45 337.39,-134 330.39,-131.55 330.39,-136.45"/>
</g>
<!-- bex_engine -->
<g id="node29" class="node">
<title>bex_engine</title>
<polygon fill="#d8e4cd" stroke="#59971a" stroke-width="2" points="1259.75,-1086 1188.25,-1086 1188.25,-1050 1259.75,-1050 1259.75,-1086"/>
<text xml:space="preserve" text-anchor="middle" x="1224" y="-1063.55" font-family="Helvetica,sans-Serif" font-size="11.00">bex_engine</text>
</g>
<!-- bex_vm -->
<g id="node34" class="node">
<title>bex_vm</title>
<polygon fill="#d8e4cd" stroke="#59971a" stroke-width="2" points="1102,-992 1048,-992 1048,-956 1102,-956 1102,-992"/>
<text xml:space="preserve" text-anchor="middle" x="1075" y="-969.55" font-family="Helvetica,sans-Serif" font-size="11.00">bex_vm</text>
</g>
<!-- bex_engine&#45;&gt;bex_vm -->
<g id="edge31" class="edge">
<title>bex_engine&#45;&gt;bex_vm</title>
<path fill="none" stroke="#444444" d="M1187.55,-1068C1143.44,-1068 1075,-1068 1075,-1068 1075,-1068 1075,-1001.08 1075,-1001.08"/>
<polygon fill="#444444" stroke="#444444" points="1077.45,-1001.08 1075,-994.08 1072.55,-1001.08 1077.45,-1001.08"/>
</g>
<!-- bex_tokio_f0c4432d -->
<g id="node36" class="node">
<title>bex_tokio_f0c4432d</title>
<polygon fill="#d0d0d0" stroke="#606060" stroke-width="2" points="1309.62,-992 1138.38,-992 1138.38,-956 1309.62,-956 1309.62,-992"/>
<text xml:space="preserve" text-anchor="middle" x="1224" y="-975.55" font-family="Helvetica,sans-Serif" font-size="11.00">tokio</text>
<text xml:space="preserve" text-anchor="middle" x="1224" y="-963.55" font-family="Helvetica,sans-Serif" font-size="11.00">[macros, rt, rt&#45;multi&#45;thread, sync]</text>
</g>
<!-- bex_engine&#45;&gt;bex_tokio_f0c4432d -->
<g id="edge33" class="edge">
<title>bex_engine&#45;&gt;bex_tokio_f0c4432d</title>
<path fill="none" stroke="#444444" d="M1224,-1049.43C1224,-1049.43 1224,-1001.37 1224,-1001.37"/>
<polygon fill="#444444" stroke="#444444" points="1226.45,-1001.37 1224,-994.37 1221.55,-1001.37 1226.45,-1001.37"/>
</g>
<!-- sys_types -->
<g id="node38" class="node">
<title>sys_types</title>
<polygon fill="#cde4e4" stroke="#1a9797" stroke-width="2" points="1408.62,-992 1345.38,-992 1345.38,-956 1408.62,-956 1408.62,-992"/>
<text xml:space="preserve" text-anchor="middle" x="1377" y="-969.55" font-family="Helvetica,sans-Serif" font-size="11.00">sys_types</text>
</g>
<!-- bex_engine&#45;&gt;sys_types -->
<g id="edge32" class="edge">
<title>bex_engine&#45;&gt;sys_types</title>
<path fill="none" stroke="#666666" stroke-width="1.5" stroke-dasharray="5,2" d="M1260.65,-1068C1305.91,-1068 1377,-1068 1377,-1068 1377,-1068 1377,-1001.84 1377,-1001.84"/>
<polygon fill="#666666" stroke="#666666" stroke-width="1.5" points="1379.45,-1001.84 1377,-994.84 1374.55,-1001.84 1379.45,-1001.84"/>
</g>
<!-- bex_external_types -->
<g id="node30" class="node">
<title>bex_external_types</title>
<polygon fill="#df9fcf" stroke="#59971a" stroke-width="2" points="1157.5,-804 1048.5,-804 1048.5,-768 1157.5,-768 1157.5,-804"/>
<text xml:space="preserve" text-anchor="middle" x="1103" y="-781.55" font-family="Helvetica,sans-Serif" font-size="11.00">bex_external_types</text>
</g>
<!-- bex_program -->
<g id="node32" class="node">
<title>bex_program</title>
<polygon fill="#d8e4cd" stroke="#59971a" stroke-width="2" points="1142.88,-710 1063.12,-710 1063.12,-674 1142.88,-674 1142.88,-710"/>
<text xml:space="preserve" text-anchor="middle" x="1103" y="-687.55" font-family="Helvetica,sans-Serif" font-size="11.00">bex_program</text>
</g>
<!-- bex_external_types&#45;&gt;bex_program -->
<g id="edge34" class="edge">
<title>bex_external_types&#45;&gt;bex_program</title>
<path fill="none" stroke="#444444" d="M1103,-767.43C1103,-767.43 1103,-719.37 1103,-719.37"/>
<polygon fill="#444444" stroke="#444444" points="1105.45,-719.37 1103,-712.37 1100.55,-719.37 1105.45,-719.37"/>
</g>
<!-- bex_heap -->
<g id="node31" class="node">
<title>bex_heap</title>
<polygon fill="#d8e4cd" stroke="#59971a" stroke-width="2" points="1122.62,-898 1059.38,-898 1059.38,-862 1122.62,-862 1122.62,-898"/>
<text xml:space="preserve" text-anchor="middle" x="1091" y="-875.55" font-family="Helvetica,sans-Serif" font-size="11.00">bex_heap</text>
</g>
<!-- bex_heap&#45;&gt;bex_external_types -->
<g id="edge35" class="edge">
<title>bex_heap&#45;&gt;bex_external_types</title>
<path fill="none" stroke="#444444" d="M1091,-861.43C1091,-861.43 1091,-813.37 1091,-813.37"/>
<polygon fill="#444444" stroke="#444444" points="1093.45,-813.37 1091,-806.37 1088.55,-813.37 1093.45,-813.37"/>
</g>
<!-- bex_program&#45;&gt;bex_vm_types -->
<g id="edge36" class="edge">
<title>bex_program&#45;&gt;bex_vm_types</title>
<path fill="none" stroke="#444444" d="M1103,-673.43C1103,-673.43 1103,-625.37 1103,-625.37"/>
<polygon fill="#444444" stroke="#444444" points="1105.45,-625.37 1103,-618.37 1100.55,-625.37 1105.45,-625.37"/>
</g>
<!-- bex_resource_types -->
<g id="node33" class="node">
<title>bex_resource_types</title>
<polygon fill="#d09fdf" stroke="#59971a" stroke-width="2" points="1160.38,-522 1047.62,-522 1047.62,-486 1160.38,-486 1160.38,-522"/>
<text xml:space="preserve" text-anchor="middle" x="1104" y="-499.55" font-family="Helvetica,sans-Serif" font-size="11.00">bex_resource_types</text>
</g>
<!-- bex_vm&#45;&gt;bex_heap -->
<g id="edge37" class="edge">
<title>bex_vm&#45;&gt;bex_heap</title>
<path fill="none" stroke="#444444" d="M1080.69,-955.43C1080.69,-955.43 1080.69,-907.37 1080.69,-907.37"/>
<polygon fill="#444444" stroke="#444444" points="1083.14,-907.37 1080.69,-900.37 1078.24,-907.37 1083.14,-907.37"/>
</g>
<!-- bex_vm_types&#45;&gt;baml_base -->
<g id="edge38" class="edge">
<title>bex_vm_types&#45;&gt;baml_base</title>
<path fill="none" stroke="#666666" stroke-width="1.5" stroke-dasharray="5,2" d="M1059.76,-589C1048.64,-589 1039.75,-589 1039.75,-589 1039.75,-589 1039.75,-122 1039.75,-122 1039.75,-122 418.13,-122 418.13,-122"/>
<polygon fill="#666666" stroke="#666666" stroke-width="1.5" points="418.13,-119.55 411.13,-122 418.13,-124.45 418.13,-119.55"/>
</g>
<!-- bex_vm_types&#45;&gt;baml_builtins -->
<g id="edge39" class="edge">
<title>bex_vm_types&#45;&gt;baml_builtins</title>
<path fill="none" stroke="#666666" stroke-width="1.5" stroke-dasharray="5,2" d="M1059.58,-598C1044.77,-598 1031.88,-598 1031.88,-598 1031.88,-598 1031.88,-504 1031.88,-504 1031.88,-504 575.39,-504 575.39,-504"/>
<polygon fill="#666666" stroke="#666666" stroke-width="1.5" points="575.39,-501.55 568.39,-504 575.39,-506.45 575.39,-501.55"/>
</g>
<!-- bex_vm_types&#45;&gt;bex_resource_types -->
<g id="edge40" class="edge">
<title>bex_vm_types&#45;&gt;bex_resource_types</title>
<path fill="none" stroke="#444444" d="M1103,-579.43C1103,-579.43 1103,-531.37 1103,-531.37"/>
<polygon fill="#444444" stroke="#444444" points="1105.45,-531.37 1103,-524.37 1100.55,-531.37 1105.45,-531.37"/>
</g>
<!-- sys_native -->
<g id="node37" class="node">
<title>sys_native</title>
<polygon fill="#cde4e4" stroke="#1a9797" stroke-width="2" points="1483.12,-1086 1416.88,-1086 1416.88,-1050 1483.12,-1050 1483.12,-1086"/>
<text xml:space="preserve" text-anchor="middle" x="1450" y="-1063.55" font-family="Helvetica,sans-Serif" font-size="11.00">sys_native</text>
</g>
<!-- sys_native&#45;&gt;sys_types -->
<g id="edge43" class="edge">
<title>sys_native&#45;&gt;sys_types</title>
<path fill="none" stroke="#444444" d="M1429.88,-1049.43C1429.88,-1022.03 1429.88,-974 1429.88,-974 1429.88,-974 1418.1,-974 1418.1,-974"/>
<polygon fill="#444444" stroke="#444444" points="1418.1,-971.55 1411.1,-974 1418.1,-976.45 1418.1,-971.55"/>
</g>
<!-- sys_tokio_3671c1cd -->
<g id="node39" class="node">
<title>sys_tokio_3671c1cd</title>
<polygon fill="#d0d0d0" stroke="#606060" stroke-width="2" points="1599,-992 1445,-992 1445,-956 1599,-956 1599,-992"/>
<text xml:space="preserve" text-anchor="middle" x="1522" y="-975.55" font-family="Helvetica,sans-Serif" font-size="11.00">tokio</text>
<text xml:space="preserve" text-anchor="middle" x="1522" y="-963.55" font-family="Helvetica,sans-Serif" font-size="11.00">[fs, io&#45;util, net, process, sync]</text>
</g>
<!-- sys_native&#45;&gt;sys_tokio_3671c1cd -->
<g id="edge44" class="edge">
<title>sys_native&#45;&gt;sys_tokio_3671c1cd</title>
<path fill="none" stroke="#444444" d="M1464.06,-1049.43C1464.06,-1049.43 1464.06,-1001.37 1464.06,-1001.37"/>
<polygon fill="#444444" stroke="#444444" points="1466.51,-1001.37 1464.06,-994.37 1461.61,-1001.37 1466.51,-1001.37"/>
</g>
<!-- sys_types&#45;&gt;bex_external_types -->
<g id="edge45" class="edge">
<title>sys_types&#45;&gt;bex_external_types</title>
<path fill="none" stroke="#666666" stroke-width="1.5" stroke-dasharray="5,2" d="M1344.45,-974C1335.1,-974 1327.38,-974 1327.38,-974 1327.38,-974 1327.38,-786 1327.38,-786 1327.38,-786 1167.73,-786 1167.73,-786"/>
<polygon fill="#666666" stroke="#666666" stroke-width="1.5" points="1167.73,-783.55 1160.73,-786 1167.73,-788.45 1167.73,-783.55"/>
</g>
<!-- sys_tokio_f5bec500 -->
<g id="node40" class="node">
<title>sys_tokio_f5bec500</title>
<polygon fill="#d0d0d0" stroke="#606060" stroke-width="2" points="1442.88,-898 1345.12,-898 1345.12,-862 1442.88,-862 1442.88,-898"/>
<text xml:space="preserve" text-anchor="middle" x="1394" y="-881.55" font-family="Helvetica,sans-Serif" font-size="11.00">tokio</text>
<text xml:space="preserve" text-anchor="middle" x="1394" y="-869.55" font-family="Helvetica,sans-Serif" font-size="11.00">[macros, rt, sync]</text>
</g>
<!-- sys_types&#45;&gt;sys_tokio_f5bec500 -->
<g id="edge46" class="edge">
<title>sys_types&#45;&gt;sys_tokio_f5bec500</title>
<path fill="none" stroke="#444444" d="M1377,-955.43C1377,-955.43 1377,-907.37 1377,-907.37"/>
<polygon fill="#444444" stroke="#444444" points="1379.45,-907.37 1377,-900.37 1374.55,-907.37 1379.45,-907.37"/>
</g>
<!-- cargo_stow -->
<g id="node41" class="node">
<title>cargo_stow</title>
<polygon fill="#d8cde4" stroke="#591a97" stroke-width="2" points="730.62,-1180 661.38,-1180 661.38,-1144 730.62,-1144 730.62,-1180"/>
<text xml:space="preserve" text-anchor="middle" x="696" y="-1157.55" font-family="Helvetica,sans-Serif" font-size="11.00">cargo&#45;stow</text>
</g>
<!-- tools_clap -->
<g id="node45" class="node">
<title>tools_clap</title>
<polygon fill="#d0d0d0" stroke="#606060" stroke-width="2" points="754,-1086 700,-1086 700,-1050 754,-1050 754,-1086"/>
<text xml:space="preserve" text-anchor="middle" x="727" y="-1063.55" font-family="Helvetica,sans-Serif" font-size="11.00">clap</text>
</g>
<!-- cargo_stow&#45;&gt;tools_clap -->
<g id="edge41" class="edge">
<title>cargo_stow&#45;&gt;tools_clap</title>
<path fill="none" stroke="#444444" d="M715.31,-1143.43C715.31,-1143.43 715.31,-1095.37 715.31,-1095.37"/>
<polygon fill="#444444" stroke="#444444" points="717.76,-1095.37 715.31,-1088.37 712.86,-1095.37 717.76,-1095.37"/>
</g>
<!-- tools_serde -->
<g id="node48" class="node">
<title>tools_serde</title>
<polygon fill="#d0d0d0" stroke="#606060" stroke-width="2" points="664,-1086 610,-1086 610,-1050 664,-1050 664,-1086"/>
<text xml:space="preserve" text-anchor="middle" x="637" y="-1063.55" font-family="Helvetica,sans-Serif" font-size="11.00">serde</text>
</g>
<!-- cargo_stow&#45;&gt;tools_serde -->
<g id="edge42" class="edge">
<title>cargo_stow&#45;&gt;tools_serde</title>
<path fill="none" stroke="#444444" d="M682,-1143.43C682,-1116.03 682,-1068 682,-1068 682,-1068 673.5,-1068 673.5,-1068"/>
<polygon fill="#444444" stroke="#444444" points="673.5,-1065.55 666.5,-1068 673.5,-1070.45 673.5,-1065.55"/>
</g>
<!-- tools_onionskin -->
<g id="node42" class="node">
<title>tools_onionskin</title>
<polygon fill="#d8cde4" stroke="#591a97" stroke-width="2" points="878.75,-1180 789.25,-1180 789.25,-1144 878.75,-1144 878.75,-1180"/>
<text xml:space="preserve" text-anchor="middle" x="834" y="-1157.55" font-family="Helvetica,sans-Serif" font-size="11.00">tools_onionskin</text>
</g>
<!-- tools_onionskin&#45;&gt;baml_project -->
<g id="edge48" class="edge">
<title>tools_onionskin&#45;&gt;baml_project</title>
<path fill="none" stroke="#666666" stroke-width="1.5" stroke-dasharray="5,2" d="M808,-1143.15C808,-1130.08 808,-1115 808,-1115 808,-1115 556.58,-1115 556.58,-1115 556.58,-1115 556.58,-1096.12 556.58,-1096.12"/>
<polygon fill="#666666" stroke="#666666" stroke-width="1.5" points="559.03,-1096.12 556.58,-1089.12 554.13,-1096.12 559.03,-1096.12"/>
</g>
<!-- tools_onionskin&#45;&gt;bex_vm -->
<g id="edge49" class="edge">
<title>tools_onionskin&#45;&gt;bex_vm</title>
<path fill="none" stroke="#666666" stroke-width="1.5" stroke-dasharray="5,2" d="M855.58,-1143.29C855.58,-1095.73 855.58,-974 855.58,-974 855.58,-974 1037.94,-974 1037.94,-974"/>
<polygon fill="#666666" stroke="#666666" stroke-width="1.5" points="1037.94,-976.45 1044.94,-974 1037.94,-971.55 1037.94,-976.45"/>
</g>
<!-- tools_anyhow -->
<g id="node44" class="node">
<title>tools_anyhow</title>
<polygon fill="#d0d0d0" stroke="#606060" stroke-width="2" points="1024,-1086 970,-1086 970,-1050 1024,-1050 1024,-1086"/>
<text xml:space="preserve" text-anchor="middle" x="997" y="-1063.55" font-family="Helvetica,sans-Serif" font-size="11.00">anyhow</text>
</g>
<!-- tools_onionskin&#45;&gt;tools_anyhow -->
<g id="edge47" class="edge">
<title>tools_onionskin&#45;&gt;tools_anyhow</title>
<path fill="none" stroke="#444444" d="M879.75,-1162C909.15,-1162 941.88,-1162 941.88,-1162 941.88,-1162 941.88,-1068 941.88,-1068 941.88,-1068 960.6,-1068 960.6,-1068"/>
<polygon fill="#444444" stroke="#444444" points="960.6,-1070.45 967.6,-1068 960.6,-1065.55 960.6,-1070.45"/>
</g>
<!-- tools_onionskin&#45;&gt;tools_clap -->
<g id="edge50" class="edge">
<title>tools_onionskin&#45;&gt;tools_clap</title>
<path fill="none" stroke="#444444" d="M788.42,-1162C765.41,-1162 742.31,-1162 742.31,-1162 742.31,-1162 742.31,-1095.08 742.31,-1095.08"/>
<polygon fill="#444444" stroke="#444444" points="744.76,-1095.08 742.31,-1088.08 739.86,-1095.08 744.76,-1095.08"/>
</g>
<!-- tools_rowan -->
<g id="node46" class="node">
<title>tools_rowan</title>
<polygon fill="#d0d0d0" stroke="#606060" stroke-width="2" points="844,-1086 790,-1086 790,-1050 844,-1050 844,-1086"/>
<text xml:space="preserve" text-anchor="middle" x="817" y="-1063.55" font-family="Helvetica,sans-Serif" font-size="11.00">rowan</text>
</g>
<!-- tools_onionskin&#45;&gt;tools_rowan -->
<g id="edge51" class="edge">
<title>tools_onionskin&#45;&gt;tools_rowan</title>
<path fill="none" stroke="#444444" d="M826,-1143.43C826,-1143.43 826,-1095.37 826,-1095.37"/>
<polygon fill="#444444" stroke="#444444" points="828.45,-1095.37 826,-1088.37 823.55,-1095.37 828.45,-1095.37"/>
</g>
<!-- tools_salsa -->
<g id="node47" class="node">
<title>tools_salsa</title>
<polygon fill="#d0d0d0" stroke="#606060" stroke-width="2" points="934,-1086 880,-1086 880,-1050 934,-1050 934,-1086"/>
<text xml:space="preserve" text-anchor="middle" x="907" y="-1063.55" font-family="Helvetica,sans-Serif" font-size="11.00">salsa</text>
</g>
<!-- tools_onionskin&#45;&gt;tools_salsa -->
<g id="edge52" class="edge">
<title>tools_onionskin&#45;&gt;tools_salsa</title>
<path fill="none" stroke="#444444" d="M867.17,-1143.43C867.17,-1116.03 867.17,-1068 867.17,-1068 867.17,-1068 870.82,-1068 870.82,-1068"/>
<polygon fill="#444444" stroke="#444444" points="870.82,-1070.45 877.82,-1068 870.82,-1065.55 870.82,-1070.45"/>
</g>
<!-- tools_rig -->
<g id="node43" class="node">
<title>tools_rig</title>
<polygon fill="#d8cde4" stroke="#591a97" stroke-width="2" points="1006.25,-1180 949.75,-1180 949.75,-1144 1006.25,-1144 1006.25,-1180"/>
<text xml:space="preserve" text-anchor="middle" x="978" y="-1157.55" font-family="Helvetica,sans-Serif" font-size="11.00">tools_rig</text>
</g>

<polygon fill="#666666" stroke="#666666" points="598.19,-822.90 601.69,-827.90 594.69,-827.90"/>
<polygon fill="#666666" stroke="#666666" points="598.19,-741.00 601.69,-746.00 594.69,-746.00"/>
<polygon fill="#666666" stroke="#666666" points="691.10,-607.00 686.10,-610.50 686.10,-603.50"/>
<polygon fill="#666666" stroke="#666666" points="826.72,-607.00 821.72,-610.50 821.72,-603.50"/>
<polygon fill="#666666" stroke="#666666" points="1321.33,-1068.00 1316.33,-1071.50 1316.33,-1064.50"/>
<polygon fill="#666666" stroke="#666666" points="1039.75,-493.10 1043.25,-498.10 1036.25,-498.10"/>
<polygon fill="#666666" stroke="#666666" points="1039.75,-353.00 1043.25,-358.00 1036.25,-358.00"/>
<polygon fill="#666666" stroke="#666666" points="912.93,-122.00 917.93,-118.50 917.93,-125.50"/>
<polygon fill="#666666" stroke="#666666" points="726.44,-122.00 731.44,-118.50 731.44,-125.50"/>
<polygon fill="#666666" stroke="#666666" points="1031.88,-548.50 1035.38,-553.50 1028.38,-553.50"/>
<polygon fill="#666666" stroke="#666666" points="938.08,-504.00 943.08,-500.50 943.08,-507.50"/>
<polygon fill="#666666" stroke="#666666" points="801.13,-504.00 806.13,-500.50 806.13,-507.50"/>
<polygon fill="#666666" stroke="#666666" points="1327.38,-877.50 1330.88,-882.50 1323.88,-882.50"/>
<polygon fill="#666666" stroke="#666666" points="1245.06,-786.00 1250.06,-782.50 1250.06,-789.50"/>
<polygon fill="#666666" stroke="#666666" points="755.22,-1115.00 760.22,-1111.50 760.22,-1118.50"/>
<polygon fill="#666666" stroke="#666666" points="679.79,-1115.00 684.79,-1111.50 684.79,-1118.50"/>
<polygon fill="#666666" stroke="#666666" points="855.58,-1056.14 859.08,-1061.14 852.08,-1061.14"/>
<polygon fill="#666666" stroke="#666666" points="949.26,-974.00 944.26,-977.50 944.26,-970.50"/>
</g>
</svg>
