<?xml version="1.0" encoding="UTF-8" standalone="no"?>
<!DOCTYPE svg PUBLIC "-//W3C//DTD SVG 1.1//EN"
 "http://www.w3.org/Graphics/SVG/1.1/DTD/svg11.dtd">
<!-- Generated by graphviz version 12.1.2 (20240928.0832)
 -->
<!-- Title: G Pages: 1 -->
<svg xmlns="http://www.w3.org/2000/svg" viewBox="0 0 3779.76 1239.20" width="3780" height="1239">
<g id="graph0" class="graph" transform="scale(1 1) rotate(0) translate(4 1235.2)">
<title>G</title>
<!-- __project__ -->
<g id="node1" class="node">
<title>__project__</title>
<path fill="#d4edda" stroke="black" d="M1873.42,-1231.2C1873.42,-1231.2 1753.99,-1231.2 1753.99,-1231.2 1747.99,-1231.2 1741.99,-1225.2 1741.99,-1219.2 1741.99,-1219.2 1741.99,-1200 1741.99,-1200 1741.99,-1194 1747.99,-1188 1753.99,-1188 1753.99,-1188 1873.42,-1188 1873.42,-1188 1879.42,-1188 1885.42,-1194 1885.42,-1200 1885.42,-1200 1885.42,-1219.2 1885.42,-1219.2 1885.42,-1225.2 1879.42,-1231.2 1873.42,-1231.2"/>
<text text-anchor="middle" x="1813.71" y="-1202.4" font-family="Times,serif" font-size="24.00">__project__</text>
</g>
<!-- baml_tools_stow -->
<g id="node2" class="node">
<title>baml_tools_stow</title>
<path fill="#e6d5f2" stroke="black" d="M1647.11,-1152C1647.11,-1152 1478.3,-1152 1478.3,-1152 1472.3,-1152 1466.3,-1146 1466.3,-1140 1466.3,-1140 1466.3,-1120.8 1466.3,-1120.8 1466.3,-1114.8 1472.3,-1108.8 1478.3,-1108.8 1478.3,-1108.8 1647.11,-1108.8 1647.11,-1108.8 1653.11,-1108.8 1659.11,-1114.8 1659.11,-1120.8 1659.11,-1120.8 1659.11,-1140 1659.11,-1140 1659.11,-1146 1653.11,-1152 1647.11,-1152"/>
<text text-anchor="middle" x="1562.71" y="-1123.2" font-family="Times,serif" font-size="24.00">baml_tools_stow</text>
</g>
<!-- __project__&#45;&gt;baml_tools_stow -->
<g id="edge8" class="edge">
<title>__project__&#45;&gt;baml_tools_stow</title>
<path fill="none" stroke="#555555" d="M1745.12,-1187.5C1713.85,-1177.89 1676.61,-1166.43 1643.95,-1156.39"/>
<polygon fill="#555555" stroke="#555555" points="1645.36,-1152.43 1632.66,-1152.91 1642.89,-1160.46 1645.36,-1152.43"/>
</g>
<!-- rig_python_union_types_extended -->
<g id="node3" class="node">
<title>rig_python_union_types_extended</title>
<path fill="#c3e6cb" stroke="black" d="M619.75,-1152C619.75,-1152 281.67,-1152 281.67,-1152 275.67,-1152 269.67,-1146 269.67,-1140 269.67,-1140 269.67,-1120.8 269.67,-1120.8 269.67,-1114.8 275.67,-1108.8 281.67,-1108.8 281.67,-1108.8 619.75,-1108.8 619.75,-1108.8 625.75,-1108.8 631.75,-1114.8 631.75,-1120.8 631.75,-1120.8 631.75,-1140 631.75,-1140 631.75,-1146 625.75,-1152 619.75,-1152"/>
<text text-anchor="middle" x="450.71" y="-1123.2" font-family="Times,serif" font-size="24.00">rig_python_union_types_extended</text>
</g>
<!-- __project__&#45;&gt;rig_python_union_types_extended -->
<g id="edge15" class="edge">
<title>__project__&#45;&gt;rig_python_union_types_extended</title>
<path fill="none" stroke="#555555" d="M1741.66,-1206.59C1560.06,-1201.2 1068.65,-1184.65 645.53,-1152.18"/>
<polygon fill="#555555" stroke="#555555" points="645.88,-1148 633.59,-1151.26 645.23,-1156.37 645.88,-1148"/>
</g>
<!-- baml_codegen_python -->
<g id="node4" class="node">
<title>baml_codegen_python</title>
<path fill="#d4edda" stroke="black" d="M235.41,-1152C235.41,-1152 12,-1152 12,-1152 6,-1152 0,-1146 0,-1140 0,-1140 0,-1120.8 0,-1120.8 0,-1114.8 6,-1108.8 12,-1108.8 12,-1108.8 235.41,-1108.8 235.41,-1108.8 241.41,-1108.8 247.41,-1114.8 247.41,-1120.8 247.41,-1120.8 247.41,-1140 247.41,-1140 247.41,-1146 241.41,-1152 235.41,-1152"/>
<text text-anchor="middle" x="123.71" y="-1123.2" font-family="Times,serif" font-size="24.00">baml_codegen_python</text>
</g>
<!-- __project__&#45;&gt;baml_codegen_python -->
<g id="edge2" class="edge">
<title>__project__&#45;&gt;baml_codegen_python</title>
<path fill="none" stroke="#555555" d="M1741.83,-1208.92C1521.97,-1209.27 839,-1205.72 260.8,-1152.11"/>
<polygon fill="#555555" stroke="#555555" points="261.44,-1147.95 249.1,-1151.01 260.66,-1156.31 261.44,-1147.95"/>
</g>
<!-- baml_tools_onionskin -->
<g id="node5" class="node">
<title>baml_tools_onionskin</title>
<path fill="#e6d5f2" stroke="black" d="M3325.78,-1152C3325.78,-1152 3107.64,-1152 3107.64,-1152 3101.64,-1152 3095.64,-1146 3095.64,-1140 3095.64,-1140 3095.64,-1120.8 3095.64,-1120.8 3095.64,-1114.8 3101.64,-1108.8 3107.64,-1108.8 3107.64,-1108.8 3325.78,-1108.8 3325.78,-1108.8 3331.78,-1108.8 3337.78,-1114.8 3337.78,-1120.8 3337.78,-1120.8 3337.78,-1140 3337.78,-1140 3337.78,-1146 3331.78,-1152 3325.78,-1152"/>
<text text-anchor="middle" x="3216.71" y="-1123.2" font-family="Times,serif" font-size="24.00">baml_tools_onionskin</text>
</g>
<!-- __project__&#45;&gt;baml_tools_onionskin -->
<g id="edge6" class="edge">
<title>__project__&#45;&gt;baml_tools_onionskin</title>
<path fill="none" stroke="#555555" d="M1885.57,-1208.17C2077.69,-1206.44 2619.31,-1197.66 3081.9,-1152.2"/>
<polygon fill="#555555" stroke="#555555" points="3082.18,-1156.39 3093.71,-1151.03 3081.36,-1148.03 3082.18,-1156.39"/>
</g>
<!-- baml_tests -->
<g id="node6" class="node">
<title>baml_tests</title>
<path fill="#a0a0a0" fill-opacity="0.501961" stroke="black" stroke-dasharray="5,2" d="M2701.43,-1152C2701.43,-1152 2593.98,-1152 2593.98,-1152 2587.98,-1152 2581.98,-1146 2581.98,-1140 2581.98,-1140 2581.98,-1120.8 2581.98,-1120.8 2581.98,-1114.8 2587.98,-1108.8 2593.98,-1108.8 2593.98,-1108.8 2701.43,-1108.8 2701.43,-1108.8 2707.43,-1108.8 2713.43,-1114.8 2713.43,-1120.8 2713.43,-1120.8 2713.43,-1140 2713.43,-1140 2713.43,-1146 2707.43,-1152 2701.43,-1152"/>
<text text-anchor="middle" x="2647.71" y="-1123.2" font-family="Times,serif" font-size="24.00">baml_tests</text>
</g>
<!-- __project__&#45;&gt;baml_tests -->
<g id="edge5" class="edge">
<title>__project__&#45;&gt;baml_tests</title>
<path fill="none" stroke="#555555" d="M1885.74,-1207.68C2018.7,-1205.01 2311.62,-1194.61 2568.54,-1152.13"/>
<polygon fill="#555555" stroke="#555555" points="2568.89,-1156.33 2580.03,-1150.2 2567.5,-1148.04 2568.89,-1156.33"/>
</g>
<!-- bex_engine -->
<g id="node7" class="node">
<title>bex_engine</title>
<path fill="#7eb5e3" stroke="black" d="M3487.42,-1152C3487.42,-1152 3371.99,-1152 3371.99,-1152 3365.99,-1152 3359.99,-1146 3359.99,-1140 3359.99,-1140 3359.99,-1120.8 3359.99,-1120.8 3359.99,-1114.8 3365.99,-1108.8 3371.99,-1108.8 3371.99,-1108.8 3487.42,-1108.8 3487.42,-1108.8 3493.42,-1108.8 3499.42,-1114.8 3499.42,-1120.8 3499.42,-1120.8 3499.42,-1140 3499.42,-1140 3499.42,-1146 3493.42,-1152 3487.42,-1152"/>
<text text-anchor="middle" x="3429.71" y="-1123.2" font-family="Times,serif" font-size="24.00">bex_engine</text>
</g>
<!-- __project__&#45;&gt;bex_engine -->
<g id="edge9" class="edge">
<title>__project__&#45;&gt;bex_engine</title>
<path fill="none" stroke="#555555" d="M1885.66,-1207.97C2145.4,-1205.39 3035.14,-1193.77 3346.58,-1152.01"/>
<polygon fill="#555555" stroke="#555555" points="3346.84,-1156.21 3358.14,-1150.4 3345.68,-1147.89 3346.84,-1156.21"/>
</g>
<!-- baml_cli -->
<g id="node8" class="node">
<title>baml_cli</title>
<path fill="#ffb6c1" stroke="black" d="M1432.09,-1152C1432.09,-1152 1343.32,-1152 1343.32,-1152 1337.32,-1152 1331.32,-1146 1331.32,-1140 1331.32,-1140 1331.32,-1120.8 1331.32,-1120.8 1331.32,-1114.8 1337.32,-1108.8 1343.32,-1108.8 1343.32,-1108.8 1432.09,-1108.8 1432.09,-1108.8 1438.09,-1108.8 1444.09,-1114.8 1444.09,-1120.8 1444.09,-1120.8 1444.09,-1140 1444.09,-1140 1444.09,-1146 1438.09,-1152 1432.09,-1152"/>
<text text-anchor="middle" x="1387.71" y="-1123.2" font-family="Times,serif" font-size="24.00">baml_cli</text>
</g>
<!-- __project__&#45;&gt;baml_cli -->
<g id="edge1" class="edge">
<title>__project__&#45;&gt;baml_cli</title>
<path fill="none" stroke="#555555" d="M1741.49,-1200.14C1671.7,-1191.31 1562.83,-1175.78 1457.48,-1152.18"/>
<polygon fill="#555555" stroke="#555555" points="1458.43,-1148.09 1445.8,-1149.52 1456.56,-1156.28 1458.43,-1148.09"/>
</g>
<!-- rig_python_literal_types -->
<g id="node9" class="node">
<title>rig_python_literal_types</title>
<path fill="#bee5eb" stroke="black" d="M1934.09,-1152C1934.09,-1152 1693.33,-1152 1693.33,-1152 1687.33,-1152 1681.33,-1146 1681.33,-1140 1681.33,-1140 1681.33,-1120.8 1681.33,-1120.8 1681.33,-1114.8 1687.33,-1108.8 1693.33,-1108.8 1693.33,-1108.8 1934.09,-1108.8 1934.09,-1108.8 1940.09,-1108.8 1946.09,-1114.8 1946.09,-1120.8 1946.09,-1120.8 1946.09,-1140 1946.09,-1140 1946.09,-1146 1940.09,-1152 1934.09,-1152"/>
<text text-anchor="middle" x="1813.71" y="-1123.2" font-family="Times,serif" font-size="24.00">rig_python_literal_types</text>
</g>
<!-- __project__&#45;&gt;rig_python_literal_types -->
<g id="edge11" class="edge">
<title>__project__&#45;&gt;rig_python_literal_types</title>
<path fill="none" stroke="#555555" d="M1813.71,-1187.5C1813.71,-1180.78 1813.71,-1173.16 1813.71,-1165.75"/>
<polygon fill="#555555" stroke="#555555" points="1817.91,-1165.98 1813.71,-1153.98 1809.51,-1165.98 1817.91,-1165.98"/>
</g>
<!-- rig_python_mixed_complex_types -->
<g id="node10" class="node">
<title>rig_python_mixed_complex_types</title>
<path fill="#7eb5e3" stroke="black" d="M2319.42,-1152C2319.42,-1152 1980,-1152 1980,-1152 1974,-1152 1968,-1146 1968,-1140 1968,-1140 1968,-1120.8 1968,-1120.8 1968,-1114.8 1974,-1108.8 1980,-1108.8 1980,-1108.8 2319.42,-1108.8 2319.42,-1108.8 2325.42,-1108.8 2331.42,-1114.8 2331.42,-1120.8 2331.42,-1120.8 2331.42,-1140 2331.42,-1140 2331.42,-1146 2325.42,-1152 2319.42,-1152"/>
<text text-anchor="middle" x="2149.71" y="-1123.2" font-family="Times,serif" font-size="24.00">rig_python_mixed_complex_types</text>
</g>
<!-- __project__&#45;&gt;rig_python_mixed_complex_types -->
<g id="edge13" class="edge">
<title>__project__&#45;&gt;rig_python_mixed_complex_types</title>
<path fill="none" stroke="#555555" d="M1885.79,-1192.04C1932.18,-1181.38 1993.26,-1167.35 2044.97,-1155.46"/>
<polygon fill="#555555" stroke="#555555" points="2045.67,-1159.61 2056.42,-1152.83 2043.79,-1151.43 2045.67,-1159.61"/>
</g>
<!-- rig_python_empty -->
<g id="node11" class="node">
<title>rig_python_empty</title>
<path fill="#bee5eb" stroke="black" d="M2547.76,-1152C2547.76,-1152 2365.65,-1152 2365.65,-1152 2359.65,-1152 2353.65,-1146 2353.65,-1140 2353.65,-1140 2353.65,-1120.8 2353.65,-1120.8 2353.65,-1114.8 2359.65,-1108.8 2365.65,-1108.8 2365.65,-1108.8 2547.76,-1108.8 2547.76,-1108.8 2553.76,-1108.8 2559.76,-1114.8 2559.76,-1120.8 2559.76,-1120.8 2559.76,-1140 2559.76,-1140 2559.76,-1146 2553.76,-1152 2547.76,-1152"/>
<text text-anchor="middle" x="2456.71" y="-1123.2" font-family="Times,serif" font-size="24.00">rig_python_empty</text>
</g>
<!-- __project__&#45;&gt;rig_python_empty -->
<g id="edge10" class="edge">
<title>__project__&#45;&gt;rig_python_empty</title>
<path fill="none" stroke="#555555" d="M1885.79,-1202.55C1985.2,-1193.84 2170.27,-1176.3 2340.07,-1152.31"/>
<polygon fill="#555555" stroke="#555555" points="2340.52,-1156.49 2351.81,-1150.63 2339.33,-1148.17 2340.52,-1156.49"/>
</g>
<!-- baml_ide_tests -->
<g id="node12" class="node">
<title>baml_ide_tests</title>
<path fill="#a0a0a0" fill-opacity="0.501961" stroke="black" stroke-dasharray="5,2" d="M1010.09,-1152C1010.09,-1152 861.32,-1152 861.32,-1152 855.32,-1152 849.32,-1146 849.32,-1140 849.32,-1140 849.32,-1120.8 849.32,-1120.8 849.32,-1114.8 855.32,-1108.8 861.32,-1108.8 861.32,-1108.8 1010.09,-1108.8 1010.09,-1108.8 1016.09,-1108.8 1022.09,-1114.8 1022.09,-1120.8 1022.09,-1120.8 1022.09,-1140 1022.09,-1140 1022.09,-1146 1016.09,-1152 1010.09,-1152"/>
<text text-anchor="middle" x="935.71" y="-1123.2" font-family="Times,serif" font-size="24.00">baml_ide_tests</text>
</g>
<!-- __project__&#45;&gt;baml_ide_tests -->
<g id="edge3" class="edge">
<title>__project__&#45;&gt;baml_ide_tests</title>
<path fill="none" stroke="#555555" d="M1741.75,-1206.68C1605.88,-1202.33 1302.14,-1189.21 1035.66,-1152.29"/>
<polygon fill="#555555" stroke="#555555" points="1036.56,-1148.17 1024.09,-1150.66 1035.39,-1156.49 1036.56,-1148.17"/>
</g>
<!-- rig_python_semantic_streaming -->
<g id="node13" class="node">
<title>rig_python_semantic_streaming</title>
<path fill="#bee5eb" stroke="black" d="M3061.74,-1152C3061.74,-1152 2747.67,-1152 2747.67,-1152 2741.67,-1152 2735.67,-1146 2735.67,-1140 2735.67,-1140 2735.67,-1120.8 2735.67,-1120.8 2735.67,-1114.8 2741.67,-1108.8 2747.67,-1108.8 2747.67,-1108.8 3061.74,-1108.8 3061.74,-1108.8 3067.74,-1108.8 3073.74,-1114.8 3073.74,-1120.8 3073.74,-1120.8 3073.74,-1140 3073.74,-1140 3073.74,-1146 3067.74,-1152 3061.74,-1152"/>
<text text-anchor="middle" x="2904.71" y="-1123.2" font-family="Times,serif" font-size="24.00">rig_python_semantic_streaming</text>
</g>
<!-- __project__&#45;&gt;rig_python_semantic_streaming -->
<g id="edge14" class="edge">
<title>__project__&#45;&gt;rig_python_semantic_streaming</title>
<path fill="none" stroke="#555555" d="M1885.84,-1205.39C2037.9,-1198.36 2402.79,-1180.02 2722.36,-1152.17"/>
<polygon fill="#555555" stroke="#555555" points="2722.53,-1156.37 2734.12,-1151.14 2721.8,-1148.01 2722.53,-1156.37"/>
</g>
<!-- baml_playground_wasm -->
<g id="node14" class="node">
<title>baml_playground_wasm</title>
<path fill="#82c99a" stroke="black" d="M1297.75,-1152C1297.75,-1152 1055.66,-1152 1055.66,-1152 1049.66,-1152 1043.66,-1146 1043.66,-1140 1043.66,-1140 1043.66,-1120.8 1043.66,-1120.8 1043.66,-1114.8 1049.66,-1108.8 1055.66,-1108.8 1055.66,-1108.8 1297.75,-1108.8 1297.75,-1108.8 1303.75,-1108.8 1309.75,-1114.8 1309.75,-1120.8 1309.75,-1120.8 1309.75,-1140 1309.75,-1140 1309.75,-1146 1303.75,-1152 1297.75,-1152"/>
<text text-anchor="middle" x="1176.71" y="-1123.2" font-family="Times,serif" font-size="24.00">baml_playground_wasm</text>
</g>
<!-- __project__&#45;&gt;baml_playground_wasm -->
<g id="edge4" class="edge">
<title>__project__&#45;&gt;baml_playground_wasm</title>
<path fill="none" stroke="#555555" d="M1741.78,-1200.98C1648.34,-1190.93 1479.77,-1172.33 1323.23,-1152.3"/>
<polygon fill="#555555" stroke="#555555" points="1324,-1148.17 1311.56,-1150.8 1322.93,-1156.5 1324,-1148.17"/>
</g>
<!-- baml_tools_rig -->
<g id="node15" class="node">
<title>baml_tools_rig</title>
<path fill="#e6d5f2" stroke="black" d="M815.77,-1152C815.77,-1152 665.64,-1152 665.64,-1152 659.64,-1152 653.64,-1146 653.64,-1140 653.64,-1140 653.64,-1120.8 653.64,-1120.8 653.64,-1114.8 659.64,-1108.8 665.64,-1108.8 665.64,-1108.8 815.77,-1108.8 815.77,-1108.8 821.77,-1108.8 827.77,-1114.8 827.77,-1120.8 827.77,-1120.8 827.77,-1140 827.77,-1140 827.77,-1146 821.77,-1152 815.77,-1152"/>
<text text-anchor="middle" x="740.71" y="-1123.2" font-family="Times,serif" font-size="24.00">baml_tools_rig</text>
</g>
<!-- __project__&#45;&gt;baml_tools_rig -->
<g id="edge7" class="edge">
<title>__project__&#45;&gt;baml_tools_rig</title>
<path fill="none" stroke="#555555" d="M1741.5,-1208.08C1581.39,-1206.15 1184.46,-1196.98 841.42,-1152.22"/>
<polygon fill="#555555" stroke="#555555" points="842.17,-1148.08 829.72,-1150.67 841.07,-1156.4 842.17,-1148.08"/>
</g>
<!-- rig_python_map_types -->
<g id="node16" class="node">
<title>rig_python_map_types</title>
<path fill="#fff3cd" stroke="black" d="M3759.76,-1152C3759.76,-1152 3533.65,-1152 3533.65,-1152 3527.65,-1152 3521.65,-1146 3521.65,-1140 3521.65,-1140 3521.65,-1120.8 3521.65,-1120.8 3521.65,-1114.8 3527.65,-1108.8 3533.65,-1108.8 3533.65,-1108.8 3759.76,-1108.8 3759.76,-1108.8 3765.76,-1108.8 3771.76,-1114.8 3771.76,-1120.8 3771.76,-1120.8 3771.76,-1140 3771.76,-1140 3771.76,-1146 3765.76,-1152 3759.76,-1152"/>
<text text-anchor="middle" x="3646.71" y="-1123.2" font-family="Times,serif" font-size="24.00">rig_python_map_types</text>
</g>
<!-- __project__&#45;&gt;rig_python_map_types -->
<g id="edge12" class="edge">
<title>__project__&#45;&gt;rig_python_map_types</title>
<path fill="none" stroke="#555555" d="M1885.85,-1209.21C2118.92,-1210.52 2872.86,-1209.79 3508.07,-1152.16"/>
<polygon fill="#555555" stroke="#555555" points="3508.1,-1156.38 3519.66,-1151.1 3507.33,-1148.01 3508.1,-1156.38"/>
</g>
<!-- thiserror -->
<g id="node22" class="node">
<title>thiserror</title>
<path fill="white" stroke="black" d="M2518.76,-993.6C2518.76,-993.6 2432.65,-993.6 2432.65,-993.6 2426.65,-993.6 2420.65,-987.6 2420.65,-981.6 2420.65,-981.6 2420.65,-962.4 2420.65,-962.4 2420.65,-956.4 2426.65,-950.4 2432.65,-950.4 2432.65,-950.4 2518.76,-950.4 2518.76,-950.4 2524.76,-950.4 2530.76,-956.4 2530.76,-962.4 2530.76,-962.4 2530.76,-981.6 2530.76,-981.6 2530.76,-987.6 2524.76,-993.6 2518.76,-993.6"/>
<text text-anchor="middle" x="2475.71" y="-964.8" font-family="Times,serif" font-size="24.00">thiserror</text>
</g>
<!-- baml_tools_stow&#45;&gt;thiserror -->
<g id="edge57" class="edge">
<title>baml_tools_stow&#45;&gt;thiserror</title>
<path fill="none" stroke="#555555" d="M1659.46,-1110.31C1663.25,-1109.76 1667.01,-1109.26 1670.71,-1108.8 1810.54,-1091.56 2168.75,-1113.26 2303.71,-1072.8 2353.92,-1057.75 2405.07,-1025.44 2438.39,-1001.65"/>
<polygon fill="#555555" stroke="#555555" points="2440.52,-1005.29 2447.75,-994.83 2435.58,-998.5 2440.52,-1005.29"/>
</g>
<!-- serde -->
<g id="node28" class="node">
<title>serde</title>
<path fill="white" stroke="black" d="M2252.43,-914.4C2252.43,-914.4 2196.99,-914.4 2196.99,-914.4 2190.99,-914.4 2184.99,-908.4 2184.99,-902.4 2184.99,-902.4 2184.99,-883.2 2184.99,-883.2 2184.99,-877.2 2190.99,-871.2 2196.99,-871.2 2196.99,-871.2 2252.43,-871.2 2252.43,-871.2 2258.43,-871.2 2264.43,-877.2 2264.43,-883.2 2264.43,-883.2 2264.43,-902.4 2264.43,-902.4 2264.43,-908.4 2258.43,-914.4 2252.43,-914.4"/>
<text text-anchor="middle" x="2224.71" y="-885.6" font-family="Times,serif" font-size="24.00">serde</text>
</g>
<!-- baml_tools_stow&#45;&gt;serde -->
<g id="edge56" class="edge">
<title>baml_tools_stow&#45;&gt;serde</title>
<path fill="none" stroke="#555555" d="M1659.47,-1110.34C1663.26,-1109.79 1667.01,-1109.27 1670.71,-1108.8 1732.67,-1100.93 2181.07,-1109.37 2231.71,-1072.8 2277.29,-1039.88 2280.41,-1004.09 2263.71,-950.4 2261.02,-941.77 2256.52,-933.3 2251.5,-925.64"/>
<polygon fill="#555555" stroke="#555555" points="2254.96,-923.26 2244.55,-915.96 2248.14,-928.16 2254.96,-923.26"/>
</g>
<!-- baml_codegen_types -->
<g id="node26" class="node">
<title>baml_codegen_types</title>
<path fill="#d4edda" stroke="black" d="M844.41,-993.6C844.41,-993.6 637,-993.6 637,-993.6 631,-993.6 625,-987.6 625,-981.6 625,-981.6 625,-962.4 625,-962.4 625,-956.4 631,-950.4 637,-950.4 637,-950.4 844.41,-950.4 844.41,-950.4 850.41,-950.4 856.41,-956.4 856.41,-962.4 856.41,-962.4 856.41,-981.6 856.41,-981.6 856.41,-987.6 850.41,-993.6 844.41,-993.6"/>
<text text-anchor="middle" x="740.71" y="-964.8" font-family="Times,serif" font-size="24.00">baml_codegen_types</text>
</g>
<!-- baml_codegen_python&#45;&gt;baml_codegen_types -->
<g id="edge19" class="edge">
<title>baml_codegen_python&#45;&gt;baml_codegen_types</title>
<path fill="none" stroke="#555555" d="M206.92,-1108.31C320.85,-1079.43 524.93,-1027.69 645.04,-997.25"/>
<polygon fill="#555555" stroke="#555555" points="645.76,-1001.4 656.36,-994.38 643.7,-993.26 645.76,-1001.4"/>
</g>
<!-- bex_vm -->
<g id="node17" class="node">
<title>bex_vm</title>
<path fill="#bee5eb" stroke="black" d="M2932.77,-1072.8C2932.77,-1072.8 2850.65,-1072.8 2850.65,-1072.8 2844.65,-1072.8 2838.65,-1066.8 2838.65,-1060.8 2838.65,-1060.8 2838.65,-1041.6 2838.65,-1041.6 2838.65,-1035.6 2844.65,-1029.6 2850.65,-1029.6 2850.65,-1029.6 2932.77,-1029.6 2932.77,-1029.6 2938.77,-1029.6 2944.77,-1035.6 2944.77,-1041.6 2944.77,-1041.6 2944.77,-1060.8 2944.77,-1060.8 2944.77,-1066.8 2938.77,-1072.8 2932.77,-1072.8"/>
<text text-anchor="middle" x="2891.71" y="-1044" font-family="Times,serif" font-size="24.00">bex_vm</text>
</g>
<!-- baml_tools_onionskin&#45;&gt;bex_vm -->
<g id="edge54" class="edge">
<title>baml_tools_onionskin&#45;&gt;bex_vm</title>
<path fill="none" stroke="#555555" d="M3127.9,-1108.3C3074.19,-1095.55 3006.84,-1079.55 2957.82,-1067.91"/>
<polygon fill="#555555" stroke="#555555" points="2958.95,-1063.86 2946.3,-1065.17 2957.01,-1072.03 2958.95,-1063.86"/>
</g>
<!-- anyhow -->
<g id="node27" class="node">
<title>anyhow</title>
<path fill="white" stroke="black" d="M2605.1,-914.4C2605.1,-914.4 2524.31,-914.4 2524.31,-914.4 2518.31,-914.4 2512.31,-908.4 2512.31,-902.4 2512.31,-902.4 2512.31,-883.2 2512.31,-883.2 2512.31,-877.2 2518.31,-871.2 2524.31,-871.2 2524.31,-871.2 2605.1,-871.2 2605.1,-871.2 2611.1,-871.2 2617.1,-877.2 2617.1,-883.2 2617.1,-883.2 2617.1,-902.4 2617.1,-902.4 2617.1,-908.4 2611.1,-914.4 2605.1,-914.4"/>
<text text-anchor="middle" x="2564.71" y="-885.6" font-family="Times,serif" font-size="24.00">anyhow</text>
</g>
<!-- baml_tools_onionskin&#45;&gt;anyhow -->
<g id="edge52" class="edge">
<title>baml_tools_onionskin&#45;&gt;anyhow</title>
<path fill="none" stroke="#555555" d="M3095.2,-1110.09C3091.67,-1109.64 3088.16,-1109.21 3084.71,-1108.8 3034.78,-1102.92 2673.99,-1102.87 2633.71,-1072.8 2627.57,-1068.22 2594.59,-977.7 2576.54,-927.18"/>
<polygon fill="#555555" stroke="#555555" points="2580.58,-926.01 2572.59,-916.11 2572.67,-928.83 2580.58,-926.01"/>
</g>
<!-- baml_project -->
<g id="node29" class="node">
<title>baml_project</title>
<path fill="#c3e6cb" stroke="black" d="M2058.42,-914.4C2058.42,-914.4 1927,-914.4 1927,-914.4 1921,-914.4 1915,-908.4 1915,-902.4 1915,-902.4 1915,-883.2 1915,-883.2 1915,-877.2 1921,-871.2 1927,-871.2 1927,-871.2 2058.42,-871.2 2058.42,-871.2 2064.42,-871.2 2070.42,-877.2 2070.42,-883.2 2070.42,-883.2 2070.42,-902.4 2070.42,-902.4 2070.42,-908.4 2064.42,-914.4 2058.42,-914.4"/>
<text text-anchor="middle" x="1992.71" y="-885.6" font-family="Times,serif" font-size="24.00">baml_project</text>
</g>
<!-- baml_tools_onionskin&#45;&gt;baml_project -->
<g id="edge53" class="edge">
<title>baml_tools_onionskin&#45;&gt;baml_project</title>
<path fill="none" stroke="#555555" d="M3095.22,-1109.89C3091.68,-1109.5 3088.17,-1109.13 3084.71,-1108.8 2975.03,-1098.29 2187.83,-1130.08 2093.71,-1072.8 2040.87,-1040.65 2013.28,-969.98 2000.97,-927.69"/>
<polygon fill="#555555" stroke="#555555" points="2005.06,-926.71 1997.84,-916.24 1996.96,-928.93 2005.06,-926.71"/>
</g>
<!-- baml_tests&#45;&gt;bex_vm -->
<g id="edge51" class="edge">
<title>baml_tests&#45;&gt;bex_vm</title>
<path fill="none" stroke="#555555" d="M2713.57,-1108.81C2744.66,-1099.06 2782.57,-1087.14 2825.68,-1073.43"/>
<polygon fill="#555555" stroke="#555555" points="2826.68,-1077.52 2836.84,-1069.88 2824.13,-1069.52 2826.68,-1077.52"/>
</g>
<!-- baml_snapshot -->
<g id="node18" class="node">
<title>baml_snapshot</title>
<path fill="#87ceeb" stroke="black" d="M2805.1,-1072.8C2805.1,-1072.8 2656.31,-1072.8 2656.31,-1072.8 2650.31,-1072.8 2644.31,-1066.8 2644.31,-1060.8 2644.31,-1060.8 2644.31,-1041.6 2644.31,-1041.6 2644.31,-1035.6 2650.31,-1029.6 2656.31,-1029.6 2656.31,-1029.6 2805.1,-1029.6 2805.1,-1029.6 2811.1,-1029.6 2817.1,-1035.6 2817.1,-1041.6 2817.1,-1041.6 2817.1,-1060.8 2817.1,-1060.8 2817.1,-1066.8 2811.1,-1072.8 2805.1,-1072.8"/>
<text text-anchor="middle" x="2730.71" y="-1044" font-family="Times,serif" font-size="24.00">baml_snapshot</text>
</g>
<!-- baml_tests&#45;&gt;baml_snapshot -->
<g id="edge50" class="edge">
<title>baml_tests&#45;&gt;baml_snapshot</title>
<path fill="none" stroke="#555555" d="M2670.39,-1108.3C2678.99,-1100.31 2688.96,-1091.03 2698.28,-1082.36"/>
<polygon fill="#555555" stroke="#555555" points="2701.02,-1085.55 2706.95,-1074.3 2695.3,-1079.4 2701.02,-1085.55"/>
</g>
<!-- baml_tests&#45;&gt;anyhow -->
<g id="edge48" class="edge">
<title>baml_tests&#45;&gt;anyhow</title>
<path fill="none" stroke="#555555" d="M2621.82,-1108.49C2611.46,-1098.73 2600.42,-1086.3 2593.71,-1072.8 2570.6,-1026.3 2565.23,-965.42 2564.33,-927.99"/>
<polygon fill="#555555" stroke="#555555" points="2568.54,-928.33 2564.2,-916.38 2560.14,-928.43 2568.54,-928.33"/>
</g>
<!-- baml_tests&#45;&gt;baml_project -->
<g id="edge49" class="edge">
<title>baml_tests&#45;&gt;baml_project</title>
<path fill="none" stroke="#555555" d="M2581.52,-1110.81C2577.88,-1110.06 2574.26,-1109.39 2570.71,-1108.8 2510.39,-1098.85 2066.94,-1113.92 2021.71,-1072.8 1981.91,-1036.62 1982.32,-969 1986.99,-928.02"/>
<polygon fill="#555555" stroke="#555555" points="1991.14,-928.69 1988.56,-916.24 1982.81,-927.58 1991.14,-928.69"/>
</g>
<!-- bex_engine&#45;&gt;bex_vm -->
<g id="edge61" class="edge">
<title>bex_engine&#45;&gt;bex_vm</title>
<path fill="none" stroke="#555555" d="M3359.58,-1110.99C3355.91,-1110.21 3352.27,-1109.47 3348.71,-1108.8 3211.16,-1082.9 3048.01,-1065.95 2958.6,-1057.83"/>
<polygon fill="#555555" stroke="#555555" points="2959,-1053.65 2946.67,-1056.76 2958.25,-1062.01 2959,-1053.65"/>
</g>
<!-- bex_engine&#45;&gt;baml_snapshot -->
<g id="edge59" class="edge">
<title>bex_engine&#45;&gt;baml_snapshot</title>
<path fill="none" stroke="#555555" d="M3359.62,-1110.75C3355.94,-1110.03 3352.29,-1109.37 3348.71,-1108.8 3123.78,-1072.73 3059.93,-1103.79 2830.77,-1073.08"/>
<polygon fill="#555555" stroke="#555555" points="2831.55,-1068.94 2819.09,-1071.47 2830.41,-1077.27 2831.55,-1068.94"/>
</g>
<!-- bex_sys -->
<g id="node19" class="node">
<title>bex_sys</title>
<path fill="#dda0dd" stroke="black" d="M2516.77,-1072.8C2516.77,-1072.8 2434.64,-1072.8 2434.64,-1072.8 2428.64,-1072.8 2422.64,-1066.8 2422.64,-1060.8 2422.64,-1060.8 2422.64,-1041.6 2422.64,-1041.6 2422.64,-1035.6 2428.64,-1029.6 2434.64,-1029.6 2434.64,-1029.6 2516.77,-1029.6 2516.77,-1029.6 2522.77,-1029.6 2528.77,-1035.6 2528.77,-1041.6 2528.77,-1041.6 2528.77,-1060.8 2528.77,-1060.8 2528.77,-1066.8 2522.77,-1072.8 2516.77,-1072.8"/>
<text text-anchor="middle" x="2475.71" y="-1044" font-family="Times,serif" font-size="24.00">bex_sys</text>
</g>
<!-- bex_engine&#45;&gt;bex_sys -->
<g id="edge60" class="edge">
<title>bex_engine&#45;&gt;bex_sys</title>
<path fill="none" stroke="#555555" d="M3359.64,-1110.67C3355.95,-1109.97 3352.29,-1109.34 3348.71,-1108.8 3034.08,-1061.35 2950.6,-1101.39 2633.71,-1072.8 2603.64,-1070.09 2570.49,-1065.94 2542.35,-1062.08"/>
<polygon fill="#555555" stroke="#555555" points="2542.94,-1057.92 2530.48,-1060.43 2541.78,-1066.24 2542.94,-1057.92"/>
</g>
<!-- baml_lsp -->
<g id="node20" class="node">
<title>baml_lsp</title>
<path fill="#98d8c8" stroke="black" d="M2209.1,-1072.8C2209.1,-1072.8 2116.31,-1072.8 2116.31,-1072.8 2110.31,-1072.8 2104.31,-1066.8 2104.31,-1060.8 2104.31,-1060.8 2104.31,-1041.6 2104.31,-1041.6 2104.31,-1035.6 2110.31,-1029.6 2116.31,-1029.6 2116.31,-1029.6 2209.1,-1029.6 2209.1,-1029.6 2215.1,-1029.6 2221.1,-1035.6 2221.1,-1041.6 2221.1,-1041.6 2221.1,-1060.8 2221.1,-1060.8 2221.1,-1066.8 2215.1,-1072.8 2209.1,-1072.8"/>
<text text-anchor="middle" x="2162.71" y="-1044" font-family="Times,serif" font-size="24.00">baml_lsp</text>
</g>
<!-- baml_cli&#45;&gt;baml_lsp -->
<g id="edge18" class="edge">
<title>baml_cli&#45;&gt;baml_lsp</title>
<path fill="none" stroke="#555555" d="M1444.24,-1111.24C1448.1,-1110.32 1451.95,-1109.49 1455.71,-1108.8 1678.29,-1067.73 1738.22,-1092.46 1963.71,-1072.8 2005.96,-1069.12 2053.18,-1064.26 2091.01,-1060.19"/>
<polygon fill="#555555" stroke="#555555" points="2091,-1064.41 2102.47,-1058.95 2090.09,-1056.06 2091,-1064.41"/>
</g>
<!-- baml_ide -->
<g id="node25" class="node">
<title>baml_ide</title>
<path fill="#f8d7da" stroke="black" d="M1900.76,-993.6C1900.76,-993.6 1806.65,-993.6 1806.65,-993.6 1800.65,-993.6 1794.65,-987.6 1794.65,-981.6 1794.65,-981.6 1794.65,-962.4 1794.65,-962.4 1794.65,-956.4 1800.65,-950.4 1806.65,-950.4 1806.65,-950.4 1900.76,-950.4 1900.76,-950.4 1906.76,-950.4 1912.76,-956.4 1912.76,-962.4 1912.76,-962.4 1912.76,-981.6 1912.76,-981.6 1912.76,-987.6 1906.76,-993.6 1900.76,-993.6"/>
<text text-anchor="middle" x="1853.71" y="-964.8" font-family="Times,serif" font-size="24.00">baml_ide</text>
</g>
<!-- baml_ide_tests&#45;&gt;baml_ide -->
<g id="edge38" class="edge">
<title>baml_ide_tests&#45;&gt;baml_ide</title>
<path fill="none" stroke="#555555" d="M1022.4,-1110.79C1025.88,-1110.1 1029.32,-1109.44 1032.71,-1108.8 1308.11,-1056.81 1637.57,-1005.63 1781.01,-983.89"/>
<polygon fill="#555555" stroke="#555555" points="1781.57,-988.05 1792.81,-982.11 1780.31,-979.75 1781.57,-988.05"/>
</g>
<!-- baml_playground_wasm&#45;&gt;baml_project -->
<g id="edge45" class="edge">
<title>baml_playground_wasm&#45;&gt;baml_project</title>
<path fill="none" stroke="#555555" d="M1307.11,-1108.35C1514.26,-1074.54 1897.92,-1010.23 1923.71,-993.6 1948.53,-977.59 1966.87,-949.16 1978.37,-926.74"/>
<polygon fill="#555555" stroke="#555555" points="1982.1,-928.68 1983.55,-916.05 1974.54,-925.02 1982.1,-928.68"/>
</g>
<!-- baml_codegen_tests -->
<g id="node21" class="node">
<title>baml_codegen_tests</title>
<path fill="#a0a0a0" fill-opacity="0.501961" stroke="black" stroke-dasharray="5,2" d="M840.41,-1072.8C840.41,-1072.8 641,-1072.8 641,-1072.8 635,-1072.8 629,-1066.8 629,-1060.8 629,-1060.8 629,-1041.6 629,-1041.6 629,-1035.6 635,-1029.6 641,-1029.6 641,-1029.6 840.41,-1029.6 840.41,-1029.6 846.41,-1029.6 852.41,-1035.6 852.41,-1041.6 852.41,-1041.6 852.41,-1060.8 852.41,-1060.8 852.41,-1066.8 846.41,-1072.8 840.41,-1072.8"/>
<text text-anchor="middle" x="740.71" y="-1044" font-family="Times,serif" font-size="24.00">baml_codegen_tests</text>
</g>
<!-- baml_tools_rig&#45;&gt;baml_codegen_tests -->
<g id="edge55" class="edge">
<title>baml_tools_rig&#45;&gt;baml_codegen_tests</title>
<path fill="none" stroke="#555555" d="M740.71,-1108.3C740.71,-1101.58 740.71,-1093.96 740.71,-1086.55"/>
<polygon fill="#555555" stroke="#555555" points="744.91,-1086.78 740.71,-1074.78 736.51,-1086.78 744.91,-1086.78"/>
</g>
<!-- bex_vm&#45;&gt;thiserror -->
<g id="edge65" class="edge">
<title>bex_vm&#45;&gt;thiserror</title>
<path fill="none" stroke="#555555" d="M2838.45,-1032.39C2834.83,-1031.39 2831.23,-1030.44 2827.71,-1029.6 2730.45,-1006.27 2615.73,-989.84 2544.34,-980.9"/>
<polygon fill="#555555" stroke="#555555" points="2545.02,-976.75 2532.59,-979.45 2543.99,-985.09 2545.02,-976.75"/>
</g>
<!-- bex_vm_types -->
<g id="node32" class="node">
<title>bex_vm_types</title>
<path fill="#98d8c8" stroke="black" d="M2668.1,-676.8C2668.1,-676.8 2523.32,-676.8 2523.32,-676.8 2517.32,-676.8 2511.32,-670.8 2511.32,-664.8 2511.32,-664.8 2511.32,-645.6 2511.32,-645.6 2511.32,-639.6 2517.32,-633.6 2523.32,-633.6 2523.32,-633.6 2668.1,-633.6 2668.1,-633.6 2674.1,-633.6 2680.1,-639.6 2680.1,-645.6 2680.1,-645.6 2680.1,-664.8 2680.1,-664.8 2680.1,-670.8 2674.1,-676.8 2668.1,-676.8"/>
<text text-anchor="middle" x="2595.71" y="-648" font-family="Times,serif" font-size="24.00">bex_vm_types</text>
</g>
<!-- bex_vm&#45;&gt;bex_vm_types -->
<g id="edge64" class="edge">
<title>bex_vm&#45;&gt;bex_vm_types</title>
<path fill="none" stroke="#555555" d="M2874.08,-1029.49C2851.63,-1000.93 2815.71,-946.93 2815.71,-893.8 2815.71,-893.8 2815.71,-893.8 2815.71,-812.6 2815.71,-745.85 2747.6,-704.96 2687.18,-681.82"/>
<polygon fill="#555555" stroke="#555555" points="2688.95,-678 2676.24,-677.81 2686.06,-685.88 2688.95,-678"/>
</g>
<!-- baml_snapshot&#45;&gt;bex_vm_types -->
<g id="edge47" class="edge">
<title>baml_snapshot&#45;&gt;bex_vm_types</title>
<path fill="none" stroke="#555555" d="M2722.5,-1029.32C2711.59,-999.68 2693.71,-943.47 2693.71,-893.8 2693.71,-893.8 2693.71,-893.8 2693.71,-812.6 2693.71,-762.65 2657.37,-715.54 2628.95,-686.34"/>
<polygon fill="#555555" stroke="#555555" points="2632.23,-683.67 2620.75,-678.2 2626.32,-689.64 2632.23,-683.67"/>
</g>
<!-- bex_sys&#45;&gt;thiserror -->
<g id="edge62" class="edge">
<title>bex_sys&#45;&gt;thiserror</title>
<path fill="none" stroke="#555555" d="M2475.71,-1029.1C2475.71,-1022.38 2475.71,-1014.76 2475.71,-1007.35"/>
<polygon fill="#555555" stroke="#555555" points="2479.91,-1007.58 2475.71,-995.58 2471.51,-1007.58 2479.91,-1007.58"/>
</g>
<!-- tokio -->
<g id="node23" class="node">
<title>tokio</title>
<path fill="white" stroke="black" d="M2386.77,-993.6C2386.77,-993.6 2332.64,-993.6 2332.64,-993.6 2326.64,-993.6 2320.64,-987.6 2320.64,-981.6 2320.64,-981.6 2320.64,-962.4 2320.64,-962.4 2320.64,-956.4 2326.64,-950.4 2332.64,-950.4 2332.64,-950.4 2386.77,-950.4 2386.77,-950.4 2392.77,-950.4 2398.77,-956.4 2398.77,-962.4 2398.77,-962.4 2398.77,-981.6 2398.77,-981.6 2398.77,-987.6 2392.77,-993.6 2386.77,-993.6"/>
<text text-anchor="middle" x="2359.71" y="-964.8" font-family="Times,serif" font-size="24.00">tokio</text>
</g>
<!-- bex_sys&#45;&gt;tokio -->
<g id="edge63" class="edge">
<title>bex_sys&#45;&gt;tokio</title>
<path fill="none" stroke="#555555" d="M2444.01,-1029.1C2431.22,-1020.59 2416.27,-1010.64 2402.54,-1001.51"/>
<polygon fill="#555555" stroke="#555555" points="2404.94,-998.06 2392.63,-994.91 2400.29,-1005.05 2404.94,-998.06"/>
</g>
<!-- baml_lsp&#45;&gt;thiserror -->
<g id="edge41" class="edge">
<title>baml_lsp&#45;&gt;thiserror</title>
<path fill="none" stroke="#555555" d="M2221.41,-1038.08C2268.81,-1028 2337.47,-1012.72 2407.68,-994.03"/>
<polygon fill="#555555" stroke="#555555" points="2408.38,-998.19 2418.88,-991.01 2406.2,-990.08 2408.38,-998.19"/>
</g>
<!-- baml_lsp&#45;&gt;tokio -->
<g id="edge42" class="edge">
<title>baml_lsp&#45;&gt;tokio</title>
<path fill="none" stroke="#555555" d="M2216.54,-1029.1C2244.99,-1017.96 2279.75,-1004.33 2307.89,-993.3"/>
<polygon fill="#555555" stroke="#555555" points="2309.26,-997.28 2318.91,-988.99 2306.2,-989.46 2309.26,-997.28"/>
</g>
<!-- baml_lsp_types -->
<g id="node24" class="node">
<title>baml_lsp_types</title>
<path fill="#98d8c8" stroke="black" d="M2240.43,-993.6C2240.43,-993.6 2084.98,-993.6 2084.98,-993.6 2078.98,-993.6 2072.98,-987.6 2072.98,-981.6 2072.98,-981.6 2072.98,-962.4 2072.98,-962.4 2072.98,-956.4 2078.98,-950.4 2084.98,-950.4 2084.98,-950.4 2240.43,-950.4 2240.43,-950.4 2246.43,-950.4 2252.43,-956.4 2252.43,-962.4 2252.43,-962.4 2252.43,-981.6 2252.43,-981.6 2252.43,-987.6 2246.43,-993.6 2240.43,-993.6"/>
<text text-anchor="middle" x="2162.71" y="-964.8" font-family="Times,serif" font-size="24.00">baml_lsp_types</text>
</g>
<!-- baml_lsp&#45;&gt;baml_lsp_types -->
<g id="edge40" class="edge">
<title>baml_lsp&#45;&gt;baml_lsp_types</title>
<path fill="none" stroke="#555555" d="M2162.71,-1029.1C2162.71,-1022.38 2162.71,-1014.76 2162.71,-1007.35"/>
<polygon fill="#555555" stroke="#555555" points="2166.91,-1007.58 2162.71,-995.58 2158.51,-1007.58 2166.91,-1007.58"/>
</g>
<!-- baml_lsp&#45;&gt;baml_ide -->
<g id="edge39" class="edge">
<title>baml_lsp&#45;&gt;baml_ide</title>
<path fill="none" stroke="#555555" d="M2103.86,-1035.5C2053.31,-1022.87 1980.23,-1004.61 1926.1,-991.09"/>
<polygon fill="#555555" stroke="#555555" points="1927.25,-987.05 1914.59,-988.21 1925.22,-995.2 1927.25,-987.05"/>
</g>
<!-- baml_codegen_tests&#45;&gt;baml_codegen_types -->
<g id="edge20" class="edge">
<title>baml_codegen_tests&#45;&gt;baml_codegen_types</title>
<path fill="none" stroke="#555555" d="M740.71,-1029.1C740.71,-1022.38 740.71,-1014.76 740.71,-1007.35"/>
<polygon fill="#555555" stroke="#555555" points="744.91,-1007.58 740.71,-995.58 736.51,-1007.58 744.91,-1007.58"/>
</g>
<!-- baml_lsp_types&#45;&gt;anyhow -->
<g id="edge43" class="edge">
<title>baml_lsp_types&#45;&gt;anyhow</title>
<path fill="none" stroke="#555555" d="M2252.92,-953.67C2327.69,-939.32 2432.19,-919.25 2499.16,-906.39"/>
<polygon fill="#555555" stroke="#555555" points="2499.56,-910.59 2510.55,-904.2 2497.98,-902.34 2499.56,-910.59"/>
</g>
<!-- baml_lsp_types&#45;&gt;serde -->
<g id="edge44" class="edge">
<title>baml_lsp_types&#45;&gt;serde</title>
<path fill="none" stroke="#555555" d="M2179.65,-949.9C2185.73,-942.33 2192.73,-933.62 2199.37,-925.35"/>
<polygon fill="#555555" stroke="#555555" points="2202.6,-928.04 2206.84,-916.05 2196.05,-922.78 2202.6,-928.04"/>
</g>
<!-- baml_ide&#45;&gt;baml_project -->
<g id="edge37" class="edge">
<title>baml_ide&#45;&gt;baml_project</title>
<path fill="none" stroke="#555555" d="M1891.69,-949.9C1907.62,-941.05 1926.36,-930.65 1943.35,-921.21"/>
<polygon fill="#555555" stroke="#555555" points="1945,-925.1 1953.45,-915.6 1940.92,-917.76 1945,-925.1"/>
</g>
<!-- baml_base -->
<g id="node45" class="node">
<title>baml_base</title>
<path fill="#c3e6cb" stroke="black" d="M2130.42,-122.4C2130.42,-122.4 2022.99,-122.4 2022.99,-122.4 2016.99,-122.4 2010.99,-116.4 2010.99,-110.4 2010.99,-110.4 2010.99,-91.2 2010.99,-91.2 2010.99,-85.2 2016.99,-79.2 2022.99,-79.2 2022.99,-79.2 2130.42,-79.2 2130.42,-79.2 2136.42,-79.2 2142.42,-85.2 2142.42,-91.2 2142.42,-91.2 2142.42,-110.4 2142.42,-110.4 2142.42,-116.4 2136.42,-122.4 2130.42,-122.4"/>
<text text-anchor="middle" x="2076.71" y="-93.6" font-family="Times,serif" font-size="24.00">baml_base</text>
</g>
<!-- baml_codegen_types&#45;&gt;baml_base -->
<g id="edge21" class="edge">
<title>baml_codegen_types&#45;&gt;baml_base</title>
<path fill="none" stroke="#555555" d="M856.84,-956.3C997.75,-935.14 1216.71,-890.11 1216.71,-814.6 1216.71,-814.6 1216.71,-814.6 1216.71,-258.2 1216.71,-179.27 1784.65,-125.34 1997.46,-107.9"/>
<polygon fill="#555555" stroke="#555555" points="1997.52,-112.11 2009.14,-106.95 1996.84,-103.74 1997.52,-112.11"/>
</g>
<!-- baml_db -->
<g id="node30" class="node">
<title>baml_db</title>
<path fill="#f8d7da" stroke="black" d="M2232.1,-835.2C2232.1,-835.2 2143.31,-835.2 2143.31,-835.2 2137.31,-835.2 2131.31,-829.2 2131.31,-823.2 2131.31,-823.2 2131.31,-804 2131.31,-804 2131.31,-798 2137.31,-792 2143.31,-792 2143.31,-792 2232.1,-792 2232.1,-792 2238.1,-792 2244.1,-798 2244.1,-804 2244.1,-804 2244.1,-823.2 2244.1,-823.2 2244.1,-829.2 2238.1,-835.2 2232.1,-835.2"/>
<text text-anchor="middle" x="2187.71" y="-806.4" font-family="Times,serif" font-size="24.00">baml_db</text>
</g>
<!-- baml_project&#45;&gt;baml_db -->
<g id="edge46" class="edge">
<title>baml_project&#45;&gt;baml_db</title>
<path fill="none" stroke="#555555" d="M2045.99,-870.7C2069.53,-861.39 2097.43,-850.34 2122.22,-840.53"/>
<polygon fill="#555555" stroke="#555555" points="2123.47,-844.55 2133.08,-836.23 2120.38,-836.74 2123.47,-844.55"/>
</g>
<!-- baml_compiler_emit -->
<g id="node31" class="node">
<title>baml_compiler_emit</title>
<path fill="#82c99a" stroke="black" d="M2388.08,-756C2388.08,-756 2183.33,-756 2183.33,-756 2177.33,-756 2171.33,-750 2171.33,-744 2171.33,-744 2171.33,-724.8 2171.33,-724.8 2171.33,-718.8 2177.33,-712.8 2183.33,-712.8 2183.33,-712.8 2388.08,-712.8 2388.08,-712.8 2394.08,-712.8 2400.08,-718.8 2400.08,-724.8 2400.08,-724.8 2400.08,-744 2400.08,-744 2400.08,-750 2394.08,-756 2388.08,-756"/>
<text text-anchor="middle" x="2285.71" y="-727.2" font-family="Times,serif" font-size="24.00">baml_compiler_emit</text>
</g>
<!-- baml_db&#45;&gt;baml_compiler_emit -->
<g id="edge36" class="edge">
<title>baml_db&#45;&gt;baml_compiler_emit</title>
<path fill="none" stroke="#555555" d="M2214.49,-791.5C2224.96,-783.25 2237.16,-773.64 2248.47,-764.73"/>
<polygon fill="#555555" stroke="#555555" points="2250.94,-768.13 2257.77,-757.41 2245.75,-761.53 2250.94,-768.13"/>
</g>
<!-- baml_compiler_emit&#45;&gt;bex_vm_types -->
<g id="edge24" class="edge">
<title>baml_compiler_emit&#45;&gt;bex_vm_types</title>
<path fill="none" stroke="#555555" d="M2370.42,-712.3C2409.89,-702.48 2457.07,-690.72 2498.04,-680.52"/>
<polygon fill="#555555" stroke="#555555" points="2499,-684.61 2509.63,-677.64 2496.97,-676.46 2499,-684.61"/>
</g>
<!-- baml_compiler_mir -->
<g id="node33" class="node">
<title>baml_compiler_mir</title>
<path fill="#82c99a" stroke="black" d="M2383.42,-676.8C2383.42,-676.8 2188,-676.8 2188,-676.8 2182,-676.8 2176,-670.8 2176,-664.8 2176,-664.8 2176,-645.6 2176,-645.6 2176,-639.6 2182,-633.6 2188,-633.6 2188,-633.6 2383.42,-633.6 2383.42,-633.6 2389.42,-633.6 2395.42,-639.6 2395.42,-645.6 2395.42,-645.6 2395.42,-664.8 2395.42,-664.8 2395.42,-670.8 2389.42,-676.8 2383.42,-676.8"/>
<text text-anchor="middle" x="2285.71" y="-648" font-family="Times,serif" font-size="24.00">baml_compiler_mir</text>
</g>
<!-- baml_compiler_emit&#45;&gt;baml_compiler_mir -->
<g id="edge23" class="edge">
<title>baml_compiler_emit&#45;&gt;baml_compiler_mir</title>
<path fill="none" stroke="#555555" d="M2285.71,-712.3C2285.71,-705.58 2285.71,-697.96 2285.71,-690.55"/>
<polygon fill="#555555" stroke="#555555" points="2289.91,-690.78 2285.71,-678.78 2281.51,-690.78 2289.91,-690.78"/>
</g>
<!-- baml_builtins -->
<g id="node37" class="node">
<title>baml_builtins</title>
<path fill="#87ceeb" stroke="black" d="M2482.11,-439.2C2482.11,-439.2 2345.31,-439.2 2345.31,-439.2 2339.31,-439.2 2333.31,-433.2 2333.31,-427.2 2333.31,-427.2 2333.31,-408 2333.31,-408 2333.31,-402 2339.31,-396 2345.31,-396 2345.31,-396 2482.11,-396 2482.11,-396 2488.11,-396 2494.11,-402 2494.11,-408 2494.11,-408 2494.11,-427.2 2494.11,-427.2 2494.11,-433.2 2488.11,-439.2 2482.11,-439.2"/>
<text text-anchor="middle" x="2413.71" y="-410.4" font-family="Times,serif" font-size="24.00">baml_builtins</text>
</g>
<!-- bex_vm_types&#45;&gt;baml_builtins -->
<g id="edge67" class="edge">
<title>bex_vm_types&#45;&gt;baml_builtins</title>
<path fill="none" stroke="#555555" d="M2579.56,-633.29C2547.51,-591.81 2475.75,-498.91 2437.99,-450.04"/>
<polygon fill="#555555" stroke="#555555" points="2441.41,-447.59 2430.75,-440.66 2434.76,-452.72 2441.41,-447.59"/>
</g>
<!-- bex_vm_types&#45;&gt;baml_base -->
<g id="edge66" class="edge">
<title>bex_vm_types&#45;&gt;baml_base</title>
<path fill="none" stroke="#555555" d="M2595.71,-633.2C2595.71,-603.18 2595.71,-546.27 2595.71,-497.8 2595.71,-497.8 2595.71,-497.8 2595.71,-258.2 2595.71,-229.94 2641.75,-230.91 2456.71,-158.4 2357.79,-119.64 2234.85,-107.2 2156.08,-103.33"/>
<polygon fill="#555555" stroke="#555555" points="2156.55,-99.15 2144.38,-102.81 2156.18,-107.54 2156.55,-99.15"/>
</g>
<!-- baml_compiler_vir -->
<g id="node34" class="node">
<title>baml_compiler_vir</title>
<path fill="#82c99a" stroke="black" d="M2380.08,-597.6C2380.08,-597.6 2191.33,-597.6 2191.33,-597.6 2185.33,-597.6 2179.33,-591.6 2179.33,-585.6 2179.33,-585.6 2179.33,-566.4 2179.33,-566.4 2179.33,-560.4 2185.33,-554.4 2191.33,-554.4 2191.33,-554.4 2380.08,-554.4 2380.08,-554.4 2386.08,-554.4 2392.08,-560.4 2392.08,-566.4 2392.08,-566.4 2392.08,-585.6 2392.08,-585.6 2392.08,-591.6 2386.08,-597.6 2380.08,-597.6"/>
<text text-anchor="middle" x="2285.71" y="-568.8" font-family="Times,serif" font-size="24.00">baml_compiler_vir</text>
</g>
<!-- baml_compiler_mir&#45;&gt;baml_compiler_vir -->
<g id="edge27" class="edge">
<title>baml_compiler_mir&#45;&gt;baml_compiler_vir</title>
<path fill="none" stroke="#555555" d="M2285.71,-633.1C2285.71,-626.38 2285.71,-618.76 2285.71,-611.35"/>
<polygon fill="#555555" stroke="#555555" points="2289.91,-611.58 2285.71,-599.58 2281.51,-611.58 2289.91,-611.58"/>
</g>
<!-- baml_compiler_tir -->
<g id="node35" class="node">
<title>baml_compiler_tir</title>
<path fill="#82c99a" stroke="black" d="M2377.42,-518.4C2377.42,-518.4 2194,-518.4 2194,-518.4 2188,-518.4 2182,-512.4 2182,-506.4 2182,-506.4 2182,-487.2 2182,-487.2 2182,-481.2 2188,-475.2 2194,-475.2 2194,-475.2 2377.42,-475.2 2377.42,-475.2 2383.42,-475.2 2389.42,-481.2 2389.42,-487.2 2389.42,-487.2 2389.42,-506.4 2389.42,-506.4 2389.42,-512.4 2383.42,-518.4 2377.42,-518.4"/>
<text text-anchor="middle" x="2285.71" y="-489.6" font-family="Times,serif" font-size="24.00">baml_compiler_tir</text>
</g>
<!-- baml_compiler_vir&#45;&gt;baml_compiler_tir -->
<g id="edge35" class="edge">
<title>baml_compiler_vir&#45;&gt;baml_compiler_tir</title>
<path fill="none" stroke="#555555" d="M2285.71,-553.9C2285.71,-547.18 2285.71,-539.56 2285.71,-532.15"/>
<polygon fill="#555555" stroke="#555555" points="2289.91,-532.38 2285.71,-520.38 2281.51,-532.38 2289.91,-532.38"/>
</g>
<!-- baml_compiler_hir -->
<g id="node36" class="node">
<title>baml_compiler_hir</title>
<path fill="#82c99a" stroke="black" d="M2270.08,-439.2C2270.08,-439.2 2081.33,-439.2 2081.33,-439.2 2075.33,-439.2 2069.33,-433.2 2069.33,-427.2 2069.33,-427.2 2069.33,-408 2069.33,-408 2069.33,-402 2075.33,-396 2081.33,-396 2081.33,-396 2270.08,-396 2270.08,-396 2276.08,-396 2282.08,-402 2282.08,-408 2282.08,-408 2282.08,-427.2 2282.08,-427.2 2282.08,-433.2 2276.08,-439.2 2270.08,-439.2"/>
<text text-anchor="middle" x="2175.71" y="-410.4" font-family="Times,serif" font-size="24.00">baml_compiler_hir</text>
</g>
<!-- baml_compiler_tir&#45;&gt;baml_compiler_hir -->
<g id="edge34" class="edge">
<title>baml_compiler_tir&#45;&gt;baml_compiler_hir</title>
<path fill="none" stroke="#555555" d="M2255.65,-474.7C2243.64,-466.28 2229.63,-456.44 2216.71,-447.38"/>
<polygon fill="#555555" stroke="#555555" points="2219.2,-443.99 2206.97,-440.54 2214.38,-450.87 2219.2,-443.99"/>
</g>
<!-- baml_compiler_tir&#45;&gt;baml_builtins -->
<g id="edge33" class="edge">
<title>baml_compiler_tir&#45;&gt;baml_builtins</title>
<path fill="none" stroke="#555555" d="M2320.68,-474.7C2335.08,-466.02 2351.95,-455.85 2367.35,-446.56"/>
<polygon fill="#555555" stroke="#555555" points="2369.37,-450.25 2377.48,-440.45 2365.03,-443.05 2369.37,-450.25"/>
</g>
<!-- baml_compiler_parser -->
<g id="node38" class="node">
<title>baml_compiler_parser</title>
<path fill="#82c99a" stroke="black" d="M2245.07,-360C2245.07,-360 2024.35,-360 2024.35,-360 2018.35,-360 2012.35,-354 2012.35,-348 2012.35,-348 2012.35,-328.8 2012.35,-328.8 2012.35,-322.8 2018.35,-316.8 2024.35,-316.8 2024.35,-316.8 2245.07,-316.8 2245.07,-316.8 2251.07,-316.8 2257.07,-322.8 2257.07,-328.8 2257.07,-328.8 2257.07,-348 2257.07,-348 2257.07,-354 2251.07,-360 2245.07,-360"/>
<text text-anchor="middle" x="2134.71" y="-331.2" font-family="Times,serif" font-size="24.00">baml_compiler_parser</text>
</g>
<!-- baml_compiler_hir&#45;&gt;baml_compiler_parser -->
<g id="edge25" class="edge">
<title>baml_compiler_hir&#45;&gt;baml_compiler_parser</title>
<path fill="none" stroke="#555555" d="M2164.5,-395.5C2160.71,-388.36 2156.37,-380.19 2152.2,-372.35"/>
<polygon fill="#555555" stroke="#555555" points="2155.94,-370.43 2146.61,-361.81 2148.53,-374.37 2155.94,-370.43"/>
</g>
<!-- baml_builtins_macros -->
<g id="node39" class="node">
<title>baml_builtins_macros</title>
<path fill="#87ceeb" stroke="black" d="M2522.76,-360C2522.76,-360 2304.65,-360 2304.65,-360 2298.65,-360 2292.65,-354 2292.65,-348 2292.65,-348 2292.65,-328.8 2292.65,-328.8 2292.65,-322.8 2298.65,-316.8 2304.65,-316.8 2304.65,-316.8 2522.76,-316.8 2522.76,-316.8 2528.76,-316.8 2534.76,-322.8 2534.76,-328.8 2534.76,-328.8 2534.76,-348 2534.76,-348 2534.76,-354 2528.76,-360 2522.76,-360"/>
<text text-anchor="middle" x="2413.71" y="-331.2" font-family="Times,serif" font-size="24.00">baml_builtins_macros</text>
</g>
<!-- baml_builtins&#45;&gt;baml_builtins_macros -->
<g id="edge17" class="edge">
<title>baml_builtins&#45;&gt;baml_builtins_macros</title>
<path fill="none" stroke="#555555" d="M2413.71,-395.5C2413.71,-388.78 2413.71,-381.16 2413.71,-373.75"/>
<polygon fill="#555555" stroke="#555555" points="2417.91,-373.98 2413.71,-361.98 2409.51,-373.98 2417.91,-373.98"/>
</g>
<!-- baml_compiler_lexer -->
<g id="node40" class="node">
<title>baml_compiler_lexer</title>
<path fill="#82c99a" stroke="black" d="M1963.73,-280.8C1963.73,-280.8 1753.68,-280.8 1753.68,-280.8 1747.68,-280.8 1741.68,-274.8 1741.68,-268.8 1741.68,-268.8 1741.68,-249.6 1741.68,-249.6 1741.68,-243.6 1747.68,-237.6 1753.68,-237.6 1753.68,-237.6 1963.73,-237.6 1963.73,-237.6 1969.73,-237.6 1975.73,-243.6 1975.73,-249.6 1975.73,-249.6 1975.73,-268.8 1975.73,-268.8 1975.73,-274.8 1969.73,-280.8 1963.73,-280.8"/>
<text text-anchor="middle" x="1858.71" y="-252" font-family="Times,serif" font-size="24.00">baml_compiler_lexer</text>
</g>
<!-- baml_compiler_parser&#45;&gt;baml_compiler_lexer -->
<g id="edge29" class="edge">
<title>baml_compiler_parser&#45;&gt;baml_compiler_lexer</title>
<path fill="none" stroke="#555555" d="M2059.29,-316.3C2024.45,-306.56 1982.86,-294.93 1946.61,-284.79"/>
<polygon fill="#555555" stroke="#555555" points="1948.18,-280.87 1935.49,-281.68 1945.92,-288.95 1948.18,-280.87"/>
</g>
<!-- baml_compiler_diagnostics -->
<g id="node41" class="node">
<title>baml_compiler_diagnostics</title>
<path fill="#82c99a" stroke="black" d="M2549.75,-280.8C2549.75,-280.8 2279.67,-280.8 2279.67,-280.8 2273.67,-280.8 2267.67,-274.8 2267.67,-268.8 2267.67,-268.8 2267.67,-249.6 2267.67,-249.6 2267.67,-243.6 2273.67,-237.6 2279.67,-237.6 2279.67,-237.6 2549.75,-237.6 2549.75,-237.6 2555.75,-237.6 2561.75,-243.6 2561.75,-249.6 2561.75,-249.6 2561.75,-268.8 2561.75,-268.8 2561.75,-274.8 2555.75,-280.8 2549.75,-280.8"/>
<text text-anchor="middle" x="2414.71" y="-252" font-family="Times,serif" font-size="24.00">baml_compiler_diagnostics</text>
</g>
<!-- baml_compiler_parser&#45;&gt;baml_compiler_diagnostics -->
<g id="edge28" class="edge">
<title>baml_compiler_parser&#45;&gt;baml_compiler_diagnostics</title>
<path fill="none" stroke="#555555" d="M2211.22,-316.3C2246.56,-306.56 2288.75,-294.93 2325.53,-284.79"/>
<polygon fill="#555555" stroke="#555555" points="2326.38,-288.91 2336.83,-281.67 2324.14,-280.81 2326.38,-288.91"/>
</g>
<!-- baml_compiler_syntax -->
<g id="node42" class="node">
<title>baml_compiler_syntax</title>
<path fill="#82c99a" stroke="black" d="M2234.08,-280.8C2234.08,-280.8 2009.33,-280.8 2009.33,-280.8 2003.33,-280.8 1997.33,-274.8 1997.33,-268.8 1997.33,-268.8 1997.33,-249.6 1997.33,-249.6 1997.33,-243.6 2003.33,-237.6 2009.33,-237.6 2009.33,-237.6 2234.08,-237.6 2234.08,-237.6 2240.08,-237.6 2246.08,-243.6 2246.08,-249.6 2246.08,-249.6 2246.08,-268.8 2246.08,-268.8 2246.08,-274.8 2240.08,-280.8 2234.08,-280.8"/>
<text text-anchor="middle" x="2121.71" y="-252" font-family="Times,serif" font-size="24.00">baml_compiler_syntax</text>
</g>
<!-- baml_compiler_parser&#45;&gt;baml_compiler_syntax -->
<g id="edge30" class="edge">
<title>baml_compiler_parser&#45;&gt;baml_compiler_syntax</title>
<path fill="none" stroke="#555555" d="M2131.15,-316.3C2130.02,-309.58 2128.74,-301.96 2127.49,-294.55"/>
<polygon fill="#555555" stroke="#555555" points="2131.64,-293.9 2125.51,-282.76 2123.36,-295.29 2131.64,-293.9"/>
</g>
<!-- baml_compiler_lexer&#45;&gt;baml_base -->
<g id="edge26" class="edge">
<title>baml_compiler_lexer&#45;&gt;baml_base</title>
<path fill="none" stroke="#555555" d="M1888.11,-237.11C1926.41,-209.63 1993.54,-161.47 2036.52,-130.63"/>
<polygon fill="#555555" stroke="#555555" points="2038.89,-134.1 2046.19,-123.69 2034,-127.27 2038.89,-134.1"/>
</g>
<!-- baml_workspace -->
<g id="node43" class="node">
<title>baml_workspace</title>
<path fill="#e6d5f2" stroke="black" d="M2433.41,-201.6C2433.41,-201.6 2266,-201.6 2266,-201.6 2260,-201.6 2254,-195.6 2254,-189.6 2254,-189.6 2254,-170.4 2254,-170.4 2254,-164.4 2260,-158.4 2266,-158.4 2266,-158.4 2433.41,-158.4 2433.41,-158.4 2439.41,-158.4 2445.41,-164.4 2445.41,-170.4 2445.41,-170.4 2445.41,-189.6 2445.41,-189.6 2445.41,-195.6 2439.41,-201.6 2433.41,-201.6"/>
<text text-anchor="middle" x="2349.71" y="-172.8" font-family="Times,serif" font-size="24.00">baml_workspace</text>
</g>
<!-- baml_compiler_diagnostics&#45;&gt;baml_workspace -->
<g id="edge22" class="edge">
<title>baml_compiler_diagnostics&#45;&gt;baml_workspace</title>
<path fill="none" stroke="#555555" d="M2396.95,-237.1C2390.5,-229.45 2383.07,-220.62 2376.03,-212.27"/>
<polygon fill="#555555" stroke="#555555" points="2379.36,-209.7 2368.42,-203.23 2372.94,-215.11 2379.36,-209.7"/>
</g>
<!-- rowan -->
<g id="node44" class="node">
<title>rowan</title>
<path fill="white" stroke="black" d="M2187.09,-201.6C2187.09,-201.6 2122.32,-201.6 2122.32,-201.6 2116.32,-201.6 2110.32,-195.6 2110.32,-189.6 2110.32,-189.6 2110.32,-170.4 2110.32,-170.4 2110.32,-164.4 2116.32,-158.4 2122.32,-158.4 2122.32,-158.4 2187.09,-158.4 2187.09,-158.4 2193.09,-158.4 2199.09,-164.4 2199.09,-170.4 2199.09,-170.4 2199.09,-189.6 2199.09,-189.6 2199.09,-195.6 2193.09,-201.6 2187.09,-201.6"/>
<text text-anchor="middle" x="2154.71" y="-172.8" font-family="Times,serif" font-size="24.00">rowan</text>
</g>
<!-- baml_compiler_syntax&#45;&gt;rowan -->
<g id="edge32" class="edge">
<title>baml_compiler_syntax&#45;&gt;rowan</title>
<path fill="none" stroke="#555555" d="M2130.72,-237.1C2133.74,-230.04 2137.19,-221.99 2140.5,-214.23"/>
<polygon fill="#555555" stroke="#555555" points="2144.25,-216.15 2145.11,-203.46 2136.53,-212.84 2144.25,-216.15"/>
</g>
<!-- baml_compiler_syntax&#45;&gt;baml_base -->
<g id="edge31" class="edge">
<title>baml_compiler_syntax&#45;&gt;baml_base</title>
<path fill="none" stroke="#555555" d="M2112.72,-237.22C2108.41,-226.66 2103.4,-213.59 2099.71,-201.6 2093.06,-179.99 2087.34,-155.23 2083.27,-135.78"/>
<polygon fill="#555555" stroke="#555555" points="2087.41,-135.08 2080.91,-124.16 2079.18,-136.75 2087.41,-135.08"/>
</g>
<!-- baml_workspace&#45;&gt;baml_base -->
<g id="edge58" class="edge">
<title>baml_workspace&#45;&gt;baml_base</title>
<path fill="none" stroke="#555555" d="M2275.11,-157.9C2238.11,-147.44 2193.41,-134.8 2155.81,-124.17"/>
<polygon fill="#555555" stroke="#555555" points="2156.98,-120.14 2144.29,-120.91 2154.7,-128.22 2156.98,-120.14"/>
</g>
<!-- salsa -->
<g id="node46" class="node">
<title>salsa</title>
<path fill="white" stroke="black" d="M2102.43,-43.2C2102.43,-43.2 2050.98,-43.2 2050.98,-43.2 2044.98,-43.2 2038.98,-37.2 2038.98,-31.2 2038.98,-31.2 2038.98,-12 2038.98,-12 2038.98,-6 2044.98,0 2050.98,0 2050.98,0 2102.43,0 2102.43,0 2108.43,0 2114.43,-6 2114.43,-12 2114.43,-12 2114.43,-31.2 2114.43,-31.2 2114.43,-37.2 2108.43,-43.2 2102.43,-43.2"/>
<text text-anchor="middle" x="2076.71" y="-14.4" font-family="Times,serif" font-size="24.00">salsa</text>
</g>
<!-- baml_base&#45;&gt;salsa -->
<g id="edge16" class="edge">
<title>baml_base&#45;&gt;salsa</title>
<path fill="none" stroke="#555555" d="M2076.71,-78.7C2076.71,-71.98 2076.71,-64.36 2076.71,-56.95"/>
<polygon fill="#555555" stroke="#555555" points="2080.91,-57.18 2076.71,-45.18 2072.51,-57.18 2080.91,-57.18"/>
</g>
</g>
</svg>
