<?xml version="1.0" encoding="UTF-8" standalone="no"?>
<!DOCTYPE svg PUBLIC "-//W3C//DTD SVG 1.1//EN"
 "http://www.w3.org/Graphics/SVG/1.1/DTD/svg11.dtd">
<!-- Generated by graphviz version 12.1.2 (20240928.0832)
 -->
<!-- Title: G Pages: 1 -->
<svg xmlns="http://www.w3.org/2000/svg" viewBox="0 0 3779.44 1239.20" width="3779" height="1239">
<g id="graph0" class="graph" transform="scale(1 1) rotate(0) translate(4 1235.2)">
<title>G</title>
<!-- __project__ -->
<g id="node1" class="node">
<title>__project__</title>
<path fill="#d4edda" stroke="black" d="M1709.09,-1231.2C1709.09,-1231.2 1589.66,-1231.2 1589.66,-1231.2 1583.66,-1231.2 1577.66,-1225.2 1577.66,-1219.2 1577.66,-1219.2 1577.66,-1200 1577.66,-1200 1577.66,-1194 1583.66,-1188 1589.66,-1188 1589.66,-1188 1709.09,-1188 1709.09,-1188 1715.09,-1188 1721.09,-1194 1721.09,-1200 1721.09,-1200 1721.09,-1219.2 1721.09,-1219.2 1721.09,-1225.2 1715.09,-1231.2 1709.09,-1231.2"/>
<text text-anchor="middle" x="1649.38" y="-1202.4" font-family="Times,serif" font-size="24.00">__project__</text>
</g>
<!-- rig_python_literal_types -->
<g id="node2" class="node">
<title>rig_python_literal_types</title>
<path fill="#bee5eb" stroke="black" d="M252.76,-1152C252.76,-1152 12,-1152 12,-1152 6,-1152 0,-1146 0,-1140 0,-1140 0,-1120.8 0,-1120.8 0,-1114.8 6,-1108.8 12,-1108.8 12,-1108.8 252.76,-1108.8 252.76,-1108.8 258.76,-1108.8 264.76,-1114.8 264.76,-1120.8 264.76,-1120.8 264.76,-1140 264.76,-1140 264.76,-1146 258.76,-1152 252.76,-1152"/>
<text text-anchor="middle" x="132.38" y="-1123.2" font-family="Times,serif" font-size="24.00">rig_python_literal_types</text>
</g>
<!-- __project__&#45;&gt;rig_python_literal_types -->
<g id="edge11" class="edge">
<title>__project__&#45;&gt;rig_python_literal_types</title>
<path fill="none" stroke="#555555" d="M1577.32,-1208.22C1374.69,-1206.58 782.47,-1198.03 278.53,-1152.22"/>
<polygon fill="#555555" stroke="#555555" points="278.99,-1148.05 266.66,-1151.13 278.22,-1156.41 278.99,-1148.05"/>
</g>
<!-- baml_tests -->
<g id="node3" class="node">
<title>baml_tests</title>
<path fill="#a0a0a0" fill-opacity="0.501961" stroke="black" stroke-dasharray="5,2" d="M1703.11,-1152C1703.11,-1152 1595.65,-1152 1595.65,-1152 1589.65,-1152 1583.65,-1146 1583.65,-1140 1583.65,-1140 1583.65,-1120.8 1583.65,-1120.8 1583.65,-1114.8 1589.65,-1108.8 1595.65,-1108.8 1595.65,-1108.8 1703.11,-1108.8 1703.11,-1108.8 1709.11,-1108.8 1715.11,-1114.8 1715.11,-1120.8 1715.11,-1120.8 1715.11,-1140 1715.11,-1140 1715.11,-1146 1709.11,-1152 1703.11,-1152"/>
<text text-anchor="middle" x="1649.38" y="-1123.2" font-family="Times,serif" font-size="24.00">baml_tests</text>
</g>
<!-- __project__&#45;&gt;baml_tests -->
<g id="edge5" class="edge">
<title>__project__&#45;&gt;baml_tests</title>
<path fill="none" stroke="#555555" d="M1649.38,-1187.5C1649.38,-1180.78 1649.38,-1173.16 1649.38,-1165.75"/>
<polygon fill="#555555" stroke="#555555" points="1653.58,-1165.98 1649.38,-1153.98 1645.18,-1165.98 1653.58,-1165.98"/>
</g>
<!-- baml_tools_onionskin -->
<g id="node4" class="node">
<title>baml_tools_onionskin</title>
<path fill="#e6d5f2" stroke="black" d="M1967.45,-1152C1967.45,-1152 1749.31,-1152 1749.31,-1152 1743.31,-1152 1737.31,-1146 1737.31,-1140 1737.31,-1140 1737.31,-1120.8 1737.31,-1120.8 1737.31,-1114.8 1743.31,-1108.8 1749.31,-1108.8 1749.31,-1108.8 1967.45,-1108.8 1967.45,-1108.8 1973.45,-1108.8 1979.45,-1114.8 1979.45,-1120.8 1979.45,-1120.8 1979.45,-1140 1979.45,-1140 1979.45,-1146 1973.45,-1152 1967.45,-1152"/>
<text text-anchor="middle" x="1858.38" y="-1123.2" font-family="Times,serif" font-size="24.00">baml_tools_onionskin</text>
</g>
<!-- __project__&#45;&gt;baml_tools_onionskin -->
<g id="edge6" class="edge">
<title>__project__&#45;&gt;baml_tools_onionskin</title>
<path fill="none" stroke="#555555" d="M1706.49,-1187.5C1731.95,-1178.1 1762.17,-1166.94 1788.92,-1157.06"/>
<polygon fill="#555555" stroke="#555555" points="1790.12,-1161.09 1799.92,-1152.99 1787.21,-1153.21 1790.12,-1161.09"/>
</g>
<!-- bex_engine -->
<g id="node5" class="node">
<title>bex_engine</title>
<path fill="#7eb5e3" stroke="black" d="M2129.09,-1152C2129.09,-1152 2013.67,-1152 2013.67,-1152 2007.67,-1152 2001.67,-1146 2001.67,-1140 2001.67,-1140 2001.67,-1120.8 2001.67,-1120.8 2001.67,-1114.8 2007.67,-1108.8 2013.67,-1108.8 2013.67,-1108.8 2129.09,-1108.8 2129.09,-1108.8 2135.09,-1108.8 2141.09,-1114.8 2141.09,-1120.8 2141.09,-1120.8 2141.09,-1140 2141.09,-1140 2141.09,-1146 2135.09,-1152 2129.09,-1152"/>
<text text-anchor="middle" x="2071.38" y="-1123.2" font-family="Times,serif" font-size="24.00">bex_engine</text>
</g>
<!-- __project__&#45;&gt;bex_engine -->
<g id="edge9" class="edge">
<title>__project__&#45;&gt;bex_engine</title>
<path fill="none" stroke="#555555" d="M1721.56,-1198.43C1787.9,-1188.68 1889.22,-1172.75 1988.22,-1152.34"/>
<polygon fill="#555555" stroke="#555555" points="1988.84,-1156.5 1999.74,-1149.94 1987.13,-1148.28 1988.84,-1156.5"/>
</g>
<!-- rig_python_union_types_extended -->
<g id="node6" class="node">
<title>rig_python_union_types_extended</title>
<path fill="#c3e6cb" stroke="black" d="M2513.42,-1152C2513.42,-1152 2175.34,-1152 2175.34,-1152 2169.34,-1152 2163.34,-1146 2163.34,-1140 2163.34,-1140 2163.34,-1120.8 2163.34,-1120.8 2163.34,-1114.8 2169.34,-1108.8 2175.34,-1108.8 2175.34,-1108.8 2513.42,-1108.8 2513.42,-1108.8 2519.42,-1108.8 2525.42,-1114.8 2525.42,-1120.8 2525.42,-1120.8 2525.42,-1140 2525.42,-1140 2525.42,-1146 2519.42,-1152 2513.42,-1152"/>
<text text-anchor="middle" x="2344.38" y="-1123.2" font-family="Times,serif" font-size="24.00">rig_python_union_types_extended</text>
</g>
<!-- __project__&#45;&gt;rig_python_union_types_extended -->
<g id="edge15" class="edge">
<title>__project__&#45;&gt;rig_python_union_types_extended</title>
<path fill="none" stroke="#555555" d="M1721.46,-1200.59C1821.81,-1189.45 2007.32,-1168.84 2149.89,-1153"/>
<polygon fill="#555555" stroke="#555555" points="2150.15,-1157.2 2161.61,-1151.7 2149.22,-1148.85 2150.15,-1157.2"/>
</g>
<!-- rig_python_mixed_complex_types -->
<g id="node7" class="node">
<title>rig_python_mixed_complex_types</title>
<path fill="#7eb5e3" stroke="black" d="M2899.09,-1152C2899.09,-1152 2559.67,-1152 2559.67,-1152 2553.67,-1152 2547.67,-1146 2547.67,-1140 2547.67,-1140 2547.67,-1120.8 2547.67,-1120.8 2547.67,-1114.8 2553.67,-1108.8 2559.67,-1108.8 2559.67,-1108.8 2899.09,-1108.8 2899.09,-1108.8 2905.09,-1108.8 2911.09,-1114.8 2911.09,-1120.8 2911.09,-1120.8 2911.09,-1140 2911.09,-1140 2911.09,-1146 2905.09,-1152 2899.09,-1152"/>
<text text-anchor="middle" x="2729.38" y="-1123.2" font-family="Times,serif" font-size="24.00">rig_python_mixed_complex_types</text>
</g>
<!-- __project__&#45;&gt;rig_python_mixed_complex_types -->
<g id="edge13" class="edge">
<title>__project__&#45;&gt;rig_python_mixed_complex_types</title>
<path fill="none" stroke="#555555" d="M1721.31,-1205.05C1870.28,-1197.48 2223.68,-1178.34 2533.97,-1152.18"/>
<polygon fill="#555555" stroke="#555555" points="2534.2,-1156.37 2545.8,-1151.17 2533.49,-1148 2534.2,-1156.37"/>
</g>
<!-- baml_codegen_python -->
<g id="node8" class="node">
<title>baml_codegen_python</title>
<path fill="#d4edda" stroke="black" d="M522.09,-1152C522.09,-1152 298.67,-1152 298.67,-1152 292.67,-1152 286.67,-1146 286.67,-1140 286.67,-1140 286.67,-1120.8 286.67,-1120.8 286.67,-1114.8 292.67,-1108.8 298.67,-1108.8 298.67,-1108.8 522.09,-1108.8 522.09,-1108.8 528.09,-1108.8 534.09,-1114.8 534.09,-1120.8 534.09,-1120.8 534.09,-1140 534.09,-1140 534.09,-1146 528.09,-1152 522.09,-1152"/>
<text text-anchor="middle" x="410.38" y="-1123.2" font-family="Times,serif" font-size="24.00">baml_codegen_python</text>
</g>
<!-- __project__&#45;&gt;baml_codegen_python -->
<g id="edge2" class="edge">
<title>__project__&#45;&gt;baml_codegen_python</title>
<path fill="none" stroke="#555555" d="M1577.18,-1207.4C1402.58,-1203.96 943.45,-1191.71 547.45,-1152.13"/>
<polygon fill="#555555" stroke="#555555" points="548.14,-1147.98 535.78,-1150.95 547.3,-1156.33 548.14,-1147.98"/>
</g>
<!-- baml_cli -->
<g id="node9" class="node">
<title>baml_cli</title>
<path fill="#ffb6c1" stroke="black" d="M1334.77,-1152C1334.77,-1152 1245.99,-1152 1245.99,-1152 1239.99,-1152 1233.99,-1146 1233.99,-1140 1233.99,-1140 1233.99,-1120.8 1233.99,-1120.8 1233.99,-1114.8 1239.99,-1108.8 1245.99,-1108.8 1245.99,-1108.8 1334.77,-1108.8 1334.77,-1108.8 1340.77,-1108.8 1346.77,-1114.8 1346.77,-1120.8 1346.77,-1120.8 1346.77,-1140 1346.77,-1140 1346.77,-1146 1340.77,-1152 1334.77,-1152"/>
<text text-anchor="middle" x="1290.38" y="-1123.2" font-family="Times,serif" font-size="24.00">baml_cli</text>
</g>
<!-- __project__&#45;&gt;baml_cli -->
<g id="edge1" class="edge">
<title>__project__&#45;&gt;baml_cli</title>
<path fill="none" stroke="#555555" d="M1577.18,-1196.67C1521.02,-1186.91 1440.95,-1171.95 1360.02,-1152.24"/>
<polygon fill="#555555" stroke="#555555" points="1361.15,-1148.19 1348.5,-1149.4 1359.14,-1156.35 1361.15,-1148.19"/>
</g>
<!-- rig_python_map_types -->
<g id="node10" class="node">
<title>rig_python_map_types</title>
<path fill="#fff3cd" stroke="black" d="M3171.43,-1152C3171.43,-1152 2945.32,-1152 2945.32,-1152 2939.32,-1152 2933.32,-1146 2933.32,-1140 2933.32,-1140 2933.32,-1120.8 2933.32,-1120.8 2933.32,-1114.8 2939.32,-1108.8 2945.32,-1108.8 2945.32,-1108.8 3171.43,-1108.8 3171.43,-1108.8 3177.43,-1108.8 3183.43,-1114.8 3183.43,-1120.8 3183.43,-1120.8 3183.43,-1140 3183.43,-1140 3183.43,-1146 3177.43,-1152 3171.43,-1152"/>
<text text-anchor="middle" x="3058.38" y="-1123.2" font-family="Times,serif" font-size="24.00">rig_python_map_types</text>
</g>
<!-- __project__&#45;&gt;rig_python_map_types -->
<g id="edge12" class="edge">
<title>__project__&#45;&gt;rig_python_map_types</title>
<path fill="none" stroke="#555555" d="M1721.35,-1208.07C1913.74,-1206.07 2456.15,-1196.7 2919.5,-1152.2"/>
<polygon fill="#555555" stroke="#555555" points="2919.79,-1156.39 2931.33,-1151.06 2918.98,-1148.03 2919.79,-1156.39"/>
</g>
<!-- baml_ide_tests -->
<g id="node11" class="node">
<title>baml_ide_tests</title>
<path fill="#a0a0a0" fill-opacity="0.501961" stroke="black" stroke-dasharray="5,2" d="M912.77,-1152C912.77,-1152 763.99,-1152 763.99,-1152 757.99,-1152 751.99,-1146 751.99,-1140 751.99,-1140 751.99,-1120.8 751.99,-1120.8 751.99,-1114.8 757.99,-1108.8 763.99,-1108.8 763.99,-1108.8 912.77,-1108.8 912.77,-1108.8 918.77,-1108.8 924.77,-1114.8 924.77,-1120.8 924.77,-1120.8 924.77,-1140 924.77,-1140 924.77,-1146 918.77,-1152 912.77,-1152"/>
<text text-anchor="middle" x="838.38" y="-1123.2" font-family="Times,serif" font-size="24.00">baml_ide_tests</text>
</g>
<!-- __project__&#45;&gt;baml_ide_tests -->
<g id="edge3" class="edge">
<title>__project__&#45;&gt;baml_ide_tests</title>
<path fill="none" stroke="#555555" d="M1577.33,-1205.99C1450.47,-1200.72 1178.77,-1186.41 938.25,-1152.28"/>
<polygon fill="#555555" stroke="#555555" points="938.98,-1148.15 926.51,-1150.6 937.79,-1156.46 938.98,-1148.15"/>
</g>
<!-- baml_tools_rig -->
<g id="node12" class="node">
<title>baml_tools_rig</title>
<path fill="#e6d5f2" stroke="black" d="M718.44,-1152C718.44,-1152 568.32,-1152 568.32,-1152 562.32,-1152 556.32,-1146 556.32,-1140 556.32,-1140 556.32,-1120.8 556.32,-1120.8 556.32,-1114.8 562.32,-1108.8 568.32,-1108.8 568.32,-1108.8 718.44,-1108.8 718.44,-1108.8 724.44,-1108.8 730.44,-1114.8 730.44,-1120.8 730.44,-1120.8 730.44,-1140 730.44,-1140 730.44,-1146 724.44,-1152 718.44,-1152"/>
<text text-anchor="middle" x="643.38" y="-1123.2" font-family="Times,serif" font-size="24.00">baml_tools_rig</text>
</g>
<!-- __project__&#45;&gt;baml_tools_rig -->
<g id="edge7" class="edge">
<title>__project__&#45;&gt;baml_tools_rig</title>
<path fill="none" stroke="#555555" d="M1577.23,-1207.65C1425.19,-1204.87 1060.64,-1194.2 744.03,-1152.22"/>
<polygon fill="#555555" stroke="#555555" points="744.84,-1148.09 732.39,-1150.65 743.73,-1156.41 744.84,-1148.09"/>
</g>
<!-- baml_playground_wasm -->
<g id="node13" class="node">
<title>baml_playground_wasm</title>
<path fill="#82c99a" stroke="black" d="M1200.43,-1152C1200.43,-1152 958.33,-1152 958.33,-1152 952.33,-1152 946.33,-1146 946.33,-1140 946.33,-1140 946.33,-1120.8 946.33,-1120.8 946.33,-1114.8 952.33,-1108.8 958.33,-1108.8 958.33,-1108.8 1200.43,-1108.8 1200.43,-1108.8 1206.43,-1108.8 1212.43,-1114.8 1212.43,-1120.8 1212.43,-1120.8 1212.43,-1140 1212.43,-1140 1212.43,-1146 1206.43,-1152 1200.43,-1152"/>
<text text-anchor="middle" x="1079.38" y="-1123.2" font-family="Times,serif" font-size="24.00">baml_playground_wasm</text>
</g>
<!-- __project__&#45;&gt;baml_playground_wasm -->
<g id="edge4" class="edge">
<title>__project__&#45;&gt;baml_playground_wasm</title>
<path fill="none" stroke="#555555" d="M1577.37,-1199.26C1495.37,-1188.56 1357.01,-1170.37 1225.82,-1152.33"/>
<polygon fill="#555555" stroke="#555555" points="1226.7,-1148.21 1214.24,-1150.73 1225.56,-1156.53 1226.7,-1148.21"/>
</g>
<!-- baml_tools_stow -->
<g id="node14" class="node">
<title>baml_tools_stow</title>
<path fill="#e6d5f2" stroke="black" d="M1549.78,-1152C1549.78,-1152 1380.98,-1152 1380.98,-1152 1374.98,-1152 1368.98,-1146 1368.98,-1140 1368.98,-1140 1368.98,-1120.8 1368.98,-1120.8 1368.98,-1114.8 1374.98,-1108.8 1380.98,-1108.8 1380.98,-1108.8 1549.78,-1108.8 1549.78,-1108.8 1555.78,-1108.8 1561.78,-1114.8 1561.78,-1120.8 1561.78,-1120.8 1561.78,-1140 1561.78,-1140 1561.78,-1146 1555.78,-1152 1549.78,-1152"/>
<text text-anchor="middle" x="1465.38" y="-1123.2" font-family="Times,serif" font-size="24.00">baml_tools_stow</text>
</g>
<!-- __project__&#45;&gt;baml_tools_stow -->
<g id="edge8" class="edge">
<title>__project__&#45;&gt;baml_tools_stow</title>
<path fill="none" stroke="#555555" d="M1599.1,-1187.5C1577.09,-1178.27 1551.04,-1167.34 1527.81,-1157.59"/>
<polygon fill="#555555" stroke="#555555" points="1529.68,-1153.83 1516.99,-1153.06 1526.43,-1161.57 1529.68,-1153.83"/>
</g>
<!-- rig_python_semantic_streaming -->
<g id="node15" class="node">
<title>rig_python_semantic_streaming</title>
<path fill="#bee5eb" stroke="black" d="M3531.41,-1152C3531.41,-1152 3217.34,-1152 3217.34,-1152 3211.34,-1152 3205.34,-1146 3205.34,-1140 3205.34,-1140 3205.34,-1120.8 3205.34,-1120.8 3205.34,-1114.8 3211.34,-1108.8 3217.34,-1108.8 3217.34,-1108.8 3531.41,-1108.8 3531.41,-1108.8 3537.41,-1108.8 3543.41,-1114.8 3543.41,-1120.8 3543.41,-1120.8 3543.41,-1140 3543.41,-1140 3543.41,-1146 3537.41,-1152 3531.41,-1152"/>
<text text-anchor="middle" x="3374.38" y="-1123.2" font-family="Times,serif" font-size="24.00">rig_python_semantic_streaming</text>
</g>
<!-- __project__&#45;&gt;rig_python_semantic_streaming -->
<g id="edge14" class="edge">
<title>__project__&#45;&gt;rig_python_semantic_streaming</title>
<path fill="none" stroke="#555555" d="M1721.49,-1207.94C1940.54,-1205.51 2617.61,-1194.88 3192.18,-1152.12"/>
<polygon fill="#555555" stroke="#555555" points="3192.14,-1156.33 3203.8,-1151.25 3191.52,-1147.96 3192.14,-1156.33"/>
</g>
<!-- rig_python_empty -->
<g id="node16" class="node">
<title>rig_python_empty</title>
<path fill="#bee5eb" stroke="black" d="M3759.44,-1152C3759.44,-1152 3577.32,-1152 3577.32,-1152 3571.32,-1152 3565.32,-1146 3565.32,-1140 3565.32,-1140 3565.32,-1120.8 3565.32,-1120.8 3565.32,-1114.8 3571.32,-1108.8 3577.32,-1108.8 3577.32,-1108.8 3759.44,-1108.8 3759.44,-1108.8 3765.44,-1108.8 3771.44,-1114.8 3771.44,-1120.8 3771.44,-1120.8 3771.44,-1140 3771.44,-1140 3771.44,-1146 3765.44,-1152 3759.44,-1152"/>
<text text-anchor="middle" x="3668.38" y="-1123.2" font-family="Times,serif" font-size="24.00">rig_python_empty</text>
</g>
<!-- __project__&#45;&gt;rig_python_empty -->
<g id="edge10" class="edge">
<title>__project__&#45;&gt;rig_python_empty</title>
<path fill="none" stroke="#555555" d="M1721.42,-1207.9C2019.99,-1204.77 3162.26,-1190.57 3551.76,-1152.12"/>
<polygon fill="#555555" stroke="#555555" points="3552,-1156.32 3563.51,-1150.92 3551.15,-1147.96 3552,-1156.32"/>
</g>
<!-- bex_vm -->
<g id="node17" class="node">
<title>bex_vm</title>
<path fill="#bee5eb" stroke="black" d="M1823.44,-1072.8C1823.44,-1072.8 1741.32,-1072.8 1741.32,-1072.8 1735.32,-1072.8 1729.32,-1066.8 1729.32,-1060.8 1729.32,-1060.8 1729.32,-1041.6 1729.32,-1041.6 1729.32,-1035.6 1735.32,-1029.6 1741.32,-1029.6 1741.32,-1029.6 1823.44,-1029.6 1823.44,-1029.6 1829.44,-1029.6 1835.44,-1035.6 1835.44,-1041.6 1835.44,-1041.6 1835.44,-1060.8 1835.44,-1060.8 1835.44,-1066.8 1829.44,-1072.8 1823.44,-1072.8"/>
<text text-anchor="middle" x="1782.38" y="-1044" font-family="Times,serif" font-size="24.00">bex_vm</text>
</g>
<!-- baml_tests&#45;&gt;bex_vm -->
<g id="edge50" class="edge">
<title>baml_tests&#45;&gt;bex_vm</title>
<path fill="none" stroke="#555555" d="M1685.72,-1108.3C1700.82,-1099.54 1718.56,-1089.25 1734.68,-1079.89"/>
<polygon fill="#555555" stroke="#555555" points="1736.5,-1083.69 1744.77,-1074.03 1732.28,-1076.42 1736.5,-1083.69"/>
</g>
<!-- anyhow -->
<g id="node28" class="node">
<title>anyhow</title>
<path fill="white" stroke="black" d="M1640.77,-914.4C1640.77,-914.4 1559.99,-914.4 1559.99,-914.4 1553.99,-914.4 1547.99,-908.4 1547.99,-902.4 1547.99,-902.4 1547.99,-883.2 1547.99,-883.2 1547.99,-877.2 1553.99,-871.2 1559.99,-871.2 1559.99,-871.2 1640.77,-871.2 1640.77,-871.2 1646.77,-871.2 1652.77,-877.2 1652.77,-883.2 1652.77,-883.2 1652.77,-902.4 1652.77,-902.4 1652.77,-908.4 1646.77,-914.4 1640.77,-914.4"/>
<text text-anchor="middle" x="1600.38" y="-885.6" font-family="Times,serif" font-size="24.00">anyhow</text>
</g>
<!-- baml_tests&#45;&gt;anyhow -->
<g id="edge48" class="edge">
<title>baml_tests&#45;&gt;anyhow</title>
<path fill="none" stroke="#555555" d="M1657.71,-1108.42C1670.08,-1073.78 1689.42,-1003.22 1665.38,-950.4 1660.7,-940.12 1653.13,-930.99 1644.78,-923.21"/>
<polygon fill="#555555" stroke="#555555" points="1647.78,-920.24 1635.91,-915.7 1642.35,-926.66 1647.78,-920.24"/>
</g>
<!-- baml_project -->
<g id="node30" class="node">
<title>baml_project</title>
<path fill="#c3e6cb" stroke="black" d="M1182.09,-914.4C1182.09,-914.4 1050.67,-914.4 1050.67,-914.4 1044.67,-914.4 1038.67,-908.4 1038.67,-902.4 1038.67,-902.4 1038.67,-883.2 1038.67,-883.2 1038.67,-877.2 1044.67,-871.2 1050.67,-871.2 1050.67,-871.2 1182.09,-871.2 1182.09,-871.2 1188.09,-871.2 1194.09,-877.2 1194.09,-883.2 1194.09,-883.2 1194.09,-902.4 1194.09,-902.4 1194.09,-908.4 1188.09,-914.4 1182.09,-914.4"/>
<text text-anchor="middle" x="1116.38" y="-885.6" font-family="Times,serif" font-size="24.00">baml_project</text>
</g>
<!-- baml_tests&#45;&gt;baml_project -->
<g id="edge49" class="edge">
<title>baml_tests&#45;&gt;baml_project</title>
<path fill="none" stroke="#555555" d="M1583.18,-1110.89C1579.54,-1110.12 1575.92,-1109.42 1572.38,-1108.8 1525.47,-1100.62 1180.31,-1105.16 1145.38,-1072.8 1105.92,-1036.25 1106.21,-968.75 1110.77,-927.9"/>
<polygon fill="#555555" stroke="#555555" points="1114.92,-928.6 1112.31,-916.16 1106.59,-927.51 1114.92,-928.6"/>
</g>
<!-- baml_tools_onionskin&#45;&gt;bex_vm -->
<g id="edge53" class="edge">
<title>baml_tools_onionskin&#45;&gt;bex_vm</title>
<path fill="none" stroke="#555555" d="M1837.61,-1108.3C1829.82,-1100.39 1820.8,-1091.23 1812.34,-1082.64"/>
<polygon fill="#555555" stroke="#555555" points="1815.59,-1079.95 1804.18,-1074.35 1809.61,-1085.85 1815.59,-1079.95"/>
</g>
<!-- baml_tools_onionskin&#45;&gt;anyhow -->
<g id="edge51" class="edge">
<title>baml_tools_onionskin&#45;&gt;anyhow</title>
<path fill="none" stroke="#555555" d="M1865.28,-1108.52C1875.97,-1071.78 1891.59,-995.24 1853.38,-950.4 1800.3,-888.11 1751.51,-931.2 1666.3,-914.59"/>
<polygon fill="#555555" stroke="#555555" points="1667.28,-910.5 1654.64,-911.94 1665.42,-918.69 1667.28,-910.5"/>
</g>
<!-- baml_tools_onionskin&#45;&gt;baml_project -->
<g id="edge52" class="edge">
<title>baml_tools_onionskin&#45;&gt;baml_project</title>
<path fill="none" stroke="#555555" d="M1736.88,-1110.05C1733.34,-1109.61 1729.84,-1109.19 1726.38,-1108.8 1614.59,-1096.11 1316.95,-1132.15 1221.38,-1072.8 1168.33,-1039.86 1138.98,-969.47 1125.56,-927.44"/>
<polygon fill="#555555" stroke="#555555" points="1129.62,-926.34 1122.12,-916.07 1121.58,-928.77 1129.62,-926.34"/>
</g>
<!-- bex_engine&#45;&gt;bex_vm -->
<g id="edge59" class="edge">
<title>bex_engine&#45;&gt;bex_vm</title>
<path fill="none" stroke="#555555" d="M2001.42,-1110.71C1954.95,-1098.3 1894.31,-1082.1 1848.62,-1069.89"/>
<polygon fill="#555555" stroke="#555555" points="1849.99,-1065.91 1837.32,-1066.88 1847.83,-1074.03 1849.99,-1065.91"/>
</g>
<!-- bex_sys -->
<g id="node18" class="node">
<title>bex_sys</title>
<path fill="#dda0dd" stroke="black" d="M1642.44,-1072.8C1642.44,-1072.8 1560.31,-1072.8 1560.31,-1072.8 1554.31,-1072.8 1548.31,-1066.8 1548.31,-1060.8 1548.31,-1060.8 1548.31,-1041.6 1548.31,-1041.6 1548.31,-1035.6 1554.31,-1029.6 1560.31,-1029.6 1560.31,-1029.6 1642.44,-1029.6 1642.44,-1029.6 1648.44,-1029.6 1654.44,-1035.6 1654.44,-1041.6 1654.44,-1041.6 1654.44,-1060.8 1654.44,-1060.8 1654.44,-1066.8 1648.44,-1072.8 1642.44,-1072.8"/>
<text text-anchor="middle" x="1601.38" y="-1044" font-family="Times,serif" font-size="24.00">bex_sys</text>
</g>
<!-- bex_engine&#45;&gt;bex_sys -->
<g id="edge58" class="edge">
<title>bex_engine&#45;&gt;bex_sys</title>
<path fill="none" stroke="#555555" d="M2001.25,-1111.03C1997.58,-1110.23 1993.94,-1109.49 1990.38,-1108.8 1870.64,-1085.73 1838.9,-1091.38 1718.38,-1072.8 1701.97,-1070.27 1684.32,-1067.3 1667.82,-1064.41"/>
<polygon fill="#555555" stroke="#555555" points="1668.92,-1060.34 1656.38,-1062.38 1667.46,-1068.61 1668.92,-1060.34"/>
</g>
<!-- baml_codegen_types -->
<g id="node26" class="node">
<title>baml_codegen_types</title>
<path fill="#d4edda" stroke="black" d="M690.08,-993.6C690.08,-993.6 482.68,-993.6 482.68,-993.6 476.68,-993.6 470.68,-987.6 470.68,-981.6 470.68,-981.6 470.68,-962.4 470.68,-962.4 470.68,-956.4 476.68,-950.4 482.68,-950.4 482.68,-950.4 690.08,-950.4 690.08,-950.4 696.08,-950.4 702.08,-956.4 702.08,-962.4 702.08,-962.4 702.08,-981.6 702.08,-981.6 702.08,-987.6 696.08,-993.6 690.08,-993.6"/>
<text text-anchor="middle" x="586.38" y="-964.8" font-family="Times,serif" font-size="24.00">baml_codegen_types</text>
</g>
<!-- baml_codegen_python&#45;&gt;baml_codegen_types -->
<g id="edge19" class="edge">
<title>baml_codegen_python&#45;&gt;baml_codegen_types</title>
<path fill="none" stroke="#555555" d="M420.44,-1108.43C431.79,-1086.53 452.01,-1052.27 477.38,-1029.6 490.3,-1018.05 506.01,-1008.13 521.42,-999.97"/>
<polygon fill="#555555" stroke="#555555" points="522.94,-1003.91 531.76,-994.75 519.15,-996.41 522.94,-1003.91"/>
</g>
<!-- baml_lsp -->
<g id="node19" class="node">
<title>baml_lsp</title>
<path fill="#98d8c8" stroke="black" d="M1336.78,-1072.8C1336.78,-1072.8 1243.98,-1072.8 1243.98,-1072.8 1237.98,-1072.8 1231.98,-1066.8 1231.98,-1060.8 1231.98,-1060.8 1231.98,-1041.6 1231.98,-1041.6 1231.98,-1035.6 1237.98,-1029.6 1243.98,-1029.6 1243.98,-1029.6 1336.78,-1029.6 1336.78,-1029.6 1342.78,-1029.6 1348.78,-1035.6 1348.78,-1041.6 1348.78,-1041.6 1348.78,-1060.8 1348.78,-1060.8 1348.78,-1066.8 1342.78,-1072.8 1336.78,-1072.8"/>
<text text-anchor="middle" x="1290.38" y="-1044" font-family="Times,serif" font-size="24.00">baml_lsp</text>
</g>
<!-- baml_cli&#45;&gt;baml_lsp -->
<g id="edge18" class="edge">
<title>baml_cli&#45;&gt;baml_lsp</title>
<path fill="none" stroke="#555555" d="M1290.38,-1108.3C1290.38,-1101.58 1290.38,-1093.96 1290.38,-1086.55"/>
<polygon fill="#555555" stroke="#555555" points="1294.58,-1086.78 1290.38,-1074.78 1286.18,-1086.78 1294.58,-1086.78"/>
</g>
<!-- baml_ide -->
<g id="node25" class="node">
<title>baml_ide</title>
<path fill="#f8d7da" stroke="black" d="M1024.43,-993.6C1024.43,-993.6 930.32,-993.6 930.32,-993.6 924.32,-993.6 918.32,-987.6 918.32,-981.6 918.32,-981.6 918.32,-962.4 918.32,-962.4 918.32,-956.4 924.32,-950.4 930.32,-950.4 930.32,-950.4 1024.43,-950.4 1024.43,-950.4 1030.43,-950.4 1036.43,-956.4 1036.43,-962.4 1036.43,-962.4 1036.43,-981.6 1036.43,-981.6 1036.43,-987.6 1030.43,-993.6 1024.43,-993.6"/>
<text text-anchor="middle" x="977.38" y="-964.8" font-family="Times,serif" font-size="24.00">baml_ide</text>
</g>
<!-- baml_ide_tests&#45;&gt;baml_ide -->
<g id="edge38" class="edge">
<title>baml_ide_tests&#45;&gt;baml_ide</title>
<path fill="none" stroke="#555555" d="M857.12,-1108.31C881.03,-1081.41 922.54,-1034.71 949.98,-1003.82"/>
<polygon fill="#555555" stroke="#555555" points="952.87,-1006.9 957.7,-995.14 946.59,-1001.32 952.87,-1006.9"/>
</g>
<!-- baml_codegen_tests -->
<g id="node20" class="node">
<title>baml_codegen_tests</title>
<path fill="#a0a0a0" fill-opacity="0.501961" stroke="black" stroke-dasharray="5,2" d="M700.09,-1072.8C700.09,-1072.8 500.67,-1072.8 500.67,-1072.8 494.67,-1072.8 488.67,-1066.8 488.67,-1060.8 488.67,-1060.8 488.67,-1041.6 488.67,-1041.6 488.67,-1035.6 494.67,-1029.6 500.67,-1029.6 500.67,-1029.6 700.09,-1029.6 700.09,-1029.6 706.09,-1029.6 712.09,-1035.6 712.09,-1041.6 712.09,-1041.6 712.09,-1060.8 712.09,-1060.8 712.09,-1066.8 706.09,-1072.8 700.09,-1072.8"/>
<text text-anchor="middle" x="600.38" y="-1044" font-family="Times,serif" font-size="24.00">baml_codegen_tests</text>
</g>
<!-- baml_tools_rig&#45;&gt;baml_codegen_tests -->
<g id="edge54" class="edge">
<title>baml_tools_rig&#45;&gt;baml_codegen_tests</title>
<path fill="none" stroke="#555555" d="M631.63,-1108.3C627.6,-1101.07 622.99,-1092.8 618.57,-1084.87"/>
<polygon fill="#555555" stroke="#555555" points="622.36,-1083.03 612.85,-1074.59 615.02,-1087.12 622.36,-1083.03"/>
</g>
<!-- baml_playground_wasm&#45;&gt;baml_project -->
<g id="edge45" class="edge">
<title>baml_playground_wasm&#45;&gt;baml_project</title>
<path fill="none" stroke="#555555" d="M1080.48,-1108.54C1082.54,-1074.95 1087.83,-1006.93 1099.38,-950.4 1100.91,-942.92 1102.98,-935.01 1105.16,-927.55"/>
<polygon fill="#555555" stroke="#555555" points="1109.12,-928.95 1108.64,-916.25 1101.09,-926.48 1109.12,-928.95"/>
</g>
<!-- thiserror -->
<g id="node22" class="node">
<title>thiserror</title>
<path fill="white" stroke="black" d="M1642.43,-993.6C1642.43,-993.6 1556.33,-993.6 1556.33,-993.6 1550.33,-993.6 1544.33,-987.6 1544.33,-981.6 1544.33,-981.6 1544.33,-962.4 1544.33,-962.4 1544.33,-956.4 1550.33,-950.4 1556.33,-950.4 1556.33,-950.4 1642.43,-950.4 1642.43,-950.4 1648.43,-950.4 1654.43,-956.4 1654.43,-962.4 1654.43,-962.4 1654.43,-981.6 1654.43,-981.6 1654.43,-987.6 1648.43,-993.6 1642.43,-993.6"/>
<text text-anchor="middle" x="1599.38" y="-964.8" font-family="Times,serif" font-size="24.00">thiserror</text>
</g>
<!-- baml_tools_stow&#45;&gt;thiserror -->
<g id="edge56" class="edge">
<title>baml_tools_stow&#45;&gt;thiserror</title>
<path fill="none" stroke="#555555" d="M1478.56,-1108.59C1492.2,-1087.72 1514.64,-1055.12 1537.38,-1029.6 1545.55,-1020.43 1555.06,-1011.16 1564.15,-1002.86"/>
<polygon fill="#555555" stroke="#555555" points="1566.84,-1006.08 1573,-994.95 1561.25,-999.81 1566.84,-1006.08"/>
</g>
<!-- serde -->
<g id="node29" class="node">
<title>serde</title>
<path fill="white" stroke="black" d="M1414.1,-914.4C1414.1,-914.4 1358.66,-914.4 1358.66,-914.4 1352.66,-914.4 1346.66,-908.4 1346.66,-902.4 1346.66,-902.4 1346.66,-883.2 1346.66,-883.2 1346.66,-877.2 1352.66,-871.2 1358.66,-871.2 1358.66,-871.2 1414.1,-871.2 1414.1,-871.2 1420.1,-871.2 1426.1,-877.2 1426.1,-883.2 1426.1,-883.2 1426.1,-902.4 1426.1,-902.4 1426.1,-908.4 1420.1,-914.4 1414.1,-914.4"/>
<text text-anchor="middle" x="1386.38" y="-885.6" font-family="Times,serif" font-size="24.00">serde</text>
</g>
<!-- baml_tools_stow&#45;&gt;serde -->
<g id="edge55" class="edge">
<title>baml_tools_stow&#45;&gt;serde</title>
<path fill="none" stroke="#555555" d="M1471.08,-1108.56C1481.86,-1067.27 1502.85,-976.81 1487.38,-950.4 1476.58,-931.98 1457.36,-919.1 1438.55,-910.33"/>
<polygon fill="#555555" stroke="#555555" points="1440.43,-906.57 1427.74,-905.74 1437.15,-914.3 1440.43,-906.57"/>
</g>
<!-- bex_heap -->
<g id="node21" class="node">
<title>bex_heap</title>
<path fill="#7eb5e3" stroke="black" d="M1830.76,-993.6C1830.76,-993.6 1734,-993.6 1734,-993.6 1728,-993.6 1722,-987.6 1722,-981.6 1722,-981.6 1722,-962.4 1722,-962.4 1722,-956.4 1728,-950.4 1734,-950.4 1734,-950.4 1830.76,-950.4 1830.76,-950.4 1836.76,-950.4 1842.76,-956.4 1842.76,-962.4 1842.76,-962.4 1842.76,-981.6 1842.76,-981.6 1842.76,-987.6 1836.76,-993.6 1830.76,-993.6"/>
<text text-anchor="middle" x="1782.38" y="-964.8" font-family="Times,serif" font-size="24.00">bex_heap</text>
</g>
<!-- bex_vm&#45;&gt;bex_heap -->
<g id="edge64" class="edge">
<title>bex_vm&#45;&gt;bex_heap</title>
<path fill="none" stroke="#555555" d="M1782.38,-1029.1C1782.38,-1022.38 1782.38,-1014.76 1782.38,-1007.35"/>
<polygon fill="#555555" stroke="#555555" points="1786.58,-1007.58 1782.38,-995.58 1778.18,-1007.58 1786.58,-1007.58"/>
</g>
<!-- bex_vm&#45;&gt;thiserror -->
<g id="edge65" class="edge">
<title>bex_vm&#45;&gt;thiserror</title>
<path fill="none" stroke="#555555" d="M1732.37,-1029.1C1710.49,-1019.87 1684.58,-1008.94 1661.47,-999.19"/>
<polygon fill="#555555" stroke="#555555" points="1663.41,-995.45 1650.72,-994.66 1660.14,-1003.19 1663.41,-995.45"/>
</g>
<!-- bex_sys&#45;&gt;thiserror -->
<g id="edge62" class="edge">
<title>bex_sys&#45;&gt;thiserror</title>
<path fill="none" stroke="#555555" d="M1600.83,-1029.1C1600.66,-1022.38 1600.46,-1014.76 1600.27,-1007.35"/>
<polygon fill="#555555" stroke="#555555" points="1604.47,-1007.47 1599.96,-995.58 1596.08,-1007.69 1604.47,-1007.47"/>
</g>
<!-- tokio -->
<g id="node23" class="node">
<title>tokio</title>
<path fill="white" stroke="black" d="M1464.45,-993.6C1464.45,-993.6 1410.31,-993.6 1410.31,-993.6 1404.31,-993.6 1398.31,-987.6 1398.31,-981.6 1398.31,-981.6 1398.31,-962.4 1398.31,-962.4 1398.31,-956.4 1404.31,-950.4 1410.31,-950.4 1410.31,-950.4 1464.45,-950.4 1464.45,-950.4 1470.45,-950.4 1476.45,-956.4 1476.45,-962.4 1476.45,-962.4 1476.45,-981.6 1476.45,-981.6 1476.45,-987.6 1470.45,-993.6 1464.45,-993.6"/>
<text text-anchor="middle" x="1437.38" y="-964.8" font-family="Times,serif" font-size="24.00">tokio</text>
</g>
<!-- bex_sys&#45;&gt;tokio -->
<g id="edge63" class="edge">
<title>bex_sys&#45;&gt;tokio</title>
<path fill="none" stroke="#555555" d="M1556.56,-1029.1C1535.62,-1019.24 1510.56,-1007.45 1488.84,-997.22"/>
<polygon fill="#555555" stroke="#555555" points="1490.85,-993.53 1478.2,-992.22 1487.27,-1001.13 1490.85,-993.53"/>
</g>
<!-- baml_lsp&#45;&gt;thiserror -->
<g id="edge41" class="edge">
<title>baml_lsp&#45;&gt;thiserror</title>
<path fill="none" stroke="#555555" d="M1349.23,-1035.5C1400.99,-1022.56 1476.38,-1003.73 1530.85,-990.12"/>
<polygon fill="#555555" stroke="#555555" points="1531.78,-994.22 1542.4,-987.24 1529.74,-986.07 1531.78,-994.22"/>
</g>
<!-- baml_lsp&#45;&gt;tokio -->
<g id="edge42" class="edge">
<title>baml_lsp&#45;&gt;tokio</title>
<path fill="none" stroke="#555555" d="M1330.55,-1029.1C1347.69,-1020.1 1367.9,-1009.49 1386.1,-999.93"/>
<polygon fill="#555555" stroke="#555555" points="1388.01,-1003.67 1396.68,-994.37 1384.1,-996.23 1388.01,-1003.67"/>
</g>
<!-- baml_lsp_types -->
<g id="node24" class="node">
<title>baml_lsp_types</title>
<path fill="#98d8c8" stroke="black" d="M1364.11,-993.6C1364.11,-993.6 1208.65,-993.6 1208.65,-993.6 1202.65,-993.6 1196.65,-987.6 1196.65,-981.6 1196.65,-981.6 1196.65,-962.4 1196.65,-962.4 1196.65,-956.4 1202.65,-950.4 1208.65,-950.4 1208.65,-950.4 1364.11,-950.4 1364.11,-950.4 1370.11,-950.4 1376.11,-956.4 1376.11,-962.4 1376.11,-962.4 1376.11,-981.6 1376.11,-981.6 1376.11,-987.6 1370.11,-993.6 1364.11,-993.6"/>
<text text-anchor="middle" x="1286.38" y="-964.8" font-family="Times,serif" font-size="24.00">baml_lsp_types</text>
</g>
<!-- baml_lsp&#45;&gt;baml_lsp_types -->
<g id="edge40" class="edge">
<title>baml_lsp&#45;&gt;baml_lsp_types</title>
<path fill="none" stroke="#555555" d="M1289.29,-1029.1C1288.94,-1022.38 1288.54,-1014.76 1288.16,-1007.35"/>
<polygon fill="#555555" stroke="#555555" points="1292.36,-1007.35 1287.55,-995.58 1283.98,-1007.78 1292.36,-1007.35"/>
</g>
<!-- baml_lsp&#45;&gt;baml_ide -->
<g id="edge39" class="edge">
<title>baml_lsp&#45;&gt;baml_ide</title>
<path fill="none" stroke="#555555" d="M1231.51,-1035.68C1179.95,-1022.96 1104.85,-1004.44 1049.65,-990.83"/>
<polygon fill="#555555" stroke="#555555" points="1050.91,-986.81 1038.25,-988.01 1048.9,-994.97 1050.91,-986.81"/>
</g>
<!-- baml_codegen_tests&#45;&gt;baml_codegen_types -->
<g id="edge20" class="edge">
<title>baml_codegen_tests&#45;&gt;baml_codegen_types</title>
<path fill="none" stroke="#555555" d="M596.55,-1029.1C595.33,-1022.38 593.95,-1014.76 592.61,-1007.35"/>
<polygon fill="#555555" stroke="#555555" points="596.74,-1006.62 590.47,-995.56 588.48,-1008.12 596.74,-1006.62"/>
</g>
<!-- bex_external_types -->
<g id="node27" class="node">
<title>bex_external_types</title>
<path fill="#d4edda" stroke="black" d="M1878.08,-914.4C1878.08,-914.4 1686.68,-914.4 1686.68,-914.4 1680.68,-914.4 1674.68,-908.4 1674.68,-902.4 1674.68,-902.4 1674.68,-883.2 1674.68,-883.2 1674.68,-877.2 1680.68,-871.2 1686.68,-871.2 1686.68,-871.2 1878.08,-871.2 1878.08,-871.2 1884.08,-871.2 1890.08,-877.2 1890.08,-883.2 1890.08,-883.2 1890.08,-902.4 1890.08,-902.4 1890.08,-908.4 1884.08,-914.4 1878.08,-914.4"/>
<text text-anchor="middle" x="1782.38" y="-885.6" font-family="Times,serif" font-size="24.00">bex_external_types</text>
</g>
<!-- bex_heap&#45;&gt;bex_external_types -->
<g id="edge61" class="edge">
<title>bex_heap&#45;&gt;bex_external_types</title>
<path fill="none" stroke="#555555" d="M1782.38,-949.9C1782.38,-943.18 1782.38,-935.56 1782.38,-928.15"/>
<polygon fill="#555555" stroke="#555555" points="1786.58,-928.38 1782.38,-916.38 1778.18,-928.38 1786.58,-928.38"/>
</g>
<!-- baml_lsp_types&#45;&gt;anyhow -->
<g id="edge43" class="edge">
<title>baml_lsp_types&#45;&gt;anyhow</title>
<path fill="none" stroke="#555555" d="M1372.18,-949.9C1423.47,-937.3 1487.61,-921.52 1534.83,-909.92"/>
<polygon fill="#555555" stroke="#555555" points="1535.55,-914.06 1546.2,-907.12 1533.54,-905.91 1535.55,-914.06"/>
</g>
<!-- baml_lsp_types&#45;&gt;serde -->
<g id="edge44" class="edge">
<title>baml_lsp_types&#45;&gt;serde</title>
<path fill="none" stroke="#555555" d="M1313.7,-949.9C1324.51,-941.56 1337.1,-931.84 1348.74,-922.85"/>
<polygon fill="#555555" stroke="#555555" points="1350.96,-926.45 1357.89,-915.79 1345.82,-919.8 1350.96,-926.45"/>
</g>
<!-- baml_ide&#45;&gt;baml_project -->
<g id="edge37" class="edge">
<title>baml_ide&#45;&gt;baml_project</title>
<path fill="none" stroke="#555555" d="M1015.36,-949.9C1031.3,-941.05 1050.04,-930.65 1067.02,-921.21"/>
<polygon fill="#555555" stroke="#555555" points="1068.67,-925.1 1077.12,-915.6 1064.59,-917.76 1068.67,-925.1"/>
</g>
<!-- baml_base -->
<g id="node47" class="node">
<title>baml_base</title>
<path fill="#c3e6cb" stroke="black" d="M1009.09,-122.4C1009.09,-122.4 901.66,-122.4 901.66,-122.4 895.66,-122.4 889.66,-116.4 889.66,-110.4 889.66,-110.4 889.66,-91.2 889.66,-91.2 889.66,-85.2 895.66,-79.2 901.66,-79.2 901.66,-79.2 1009.09,-79.2 1009.09,-79.2 1015.09,-79.2 1021.09,-85.2 1021.09,-91.2 1021.09,-91.2 1021.09,-110.4 1021.09,-110.4 1021.09,-116.4 1015.09,-122.4 1009.09,-122.4"/>
<text text-anchor="middle" x="955.38" y="-93.6" font-family="Times,serif" font-size="24.00">baml_base</text>
</g>
<!-- baml_codegen_types&#45;&gt;baml_base -->
<g id="edge21" class="edge">
<title>baml_codegen_types&#45;&gt;baml_base</title>
<path fill="none" stroke="#555555" d="M586.38,-950C586.38,-919.98 586.38,-863.07 586.38,-814.6 586.38,-814.6 586.38,-814.6 586.38,-258.2 586.38,-133.42 767.45,-106.71 875.91,-101.91"/>
<polygon fill="#555555" stroke="#555555" points="876.06,-106.1 887.9,-101.46 875.75,-97.71 876.06,-106.1"/>
</g>
<!-- baml_snapshot -->
<g id="node31" class="node">
<title>baml_snapshot</title>
<path fill="#87ceeb" stroke="black" d="M1784.77,-835.2C1784.77,-835.2 1635.98,-835.2 1635.98,-835.2 1629.98,-835.2 1623.98,-829.2 1623.98,-823.2 1623.98,-823.2 1623.98,-804 1623.98,-804 1623.98,-798 1629.98,-792 1635.98,-792 1635.98,-792 1784.77,-792 1784.77,-792 1790.77,-792 1796.77,-798 1796.77,-804 1796.77,-804 1796.77,-823.2 1796.77,-823.2 1796.77,-829.2 1790.77,-835.2 1784.77,-835.2"/>
<text text-anchor="middle" x="1710.38" y="-806.4" font-family="Times,serif" font-size="24.00">baml_snapshot</text>
</g>
<!-- bex_external_types&#45;&gt;baml_snapshot -->
<g id="edge60" class="edge">
<title>bex_external_types&#45;&gt;baml_snapshot</title>
<path fill="none" stroke="#555555" d="M1762.7,-870.7C1755.4,-862.88 1746.96,-853.83 1739.02,-845.31"/>
<polygon fill="#555555" stroke="#555555" points="1742.32,-842.69 1731.06,-836.78 1736.17,-848.42 1742.32,-842.69"/>
</g>
<!-- baml_db -->
<g id="node32" class="node">
<title>baml_db</title>
<path fill="#f8d7da" stroke="black" d="M1186.77,-835.2C1186.77,-835.2 1097.98,-835.2 1097.98,-835.2 1091.98,-835.2 1085.98,-829.2 1085.98,-823.2 1085.98,-823.2 1085.98,-804 1085.98,-804 1085.98,-798 1091.98,-792 1097.98,-792 1097.98,-792 1186.77,-792 1186.77,-792 1192.77,-792 1198.77,-798 1198.77,-804 1198.77,-804 1198.77,-823.2 1198.77,-823.2 1198.77,-829.2 1192.77,-835.2 1186.77,-835.2"/>
<text text-anchor="middle" x="1142.38" y="-806.4" font-family="Times,serif" font-size="24.00">baml_db</text>
</g>
<!-- baml_project&#45;&gt;baml_db -->
<g id="edge46" class="edge">
<title>baml_project&#45;&gt;baml_db</title>
<path fill="none" stroke="#555555" d="M1123.48,-870.7C1125.8,-863.81 1128.44,-855.97 1131,-848.39"/>
<polygon fill="#555555" stroke="#555555" points="1134.95,-849.82 1134.8,-837.1 1126.99,-847.14 1134.95,-849.82"/>
</g>
<!-- bex_vm_types -->
<g id="node35" class="node">
<title>bex_vm_types</title>
<path fill="#98d8c8" stroke="black" d="M1509.77,-676.8C1509.77,-676.8 1364.99,-676.8 1364.99,-676.8 1358.99,-676.8 1352.99,-670.8 1352.99,-664.8 1352.99,-664.8 1352.99,-645.6 1352.99,-645.6 1352.99,-639.6 1358.99,-633.6 1364.99,-633.6 1364.99,-633.6 1509.77,-633.6 1509.77,-633.6 1515.77,-633.6 1521.77,-639.6 1521.77,-645.6 1521.77,-645.6 1521.77,-664.8 1521.77,-664.8 1521.77,-670.8 1515.77,-676.8 1509.77,-676.8"/>
<text text-anchor="middle" x="1437.38" y="-648" font-family="Times,serif" font-size="24.00">bex_vm_types</text>
</g>
<!-- baml_snapshot&#45;&gt;bex_vm_types -->
<g id="edge47" class="edge">
<title>baml_snapshot&#45;&gt;bex_vm_types</title>
<path fill="none" stroke="#555555" d="M1673.56,-791.51C1624.98,-763.68 1539.38,-714.63 1485.66,-683.86"/>
<polygon fill="#555555" stroke="#555555" points="1487.86,-680.28 1475.36,-677.96 1483.69,-687.57 1487.86,-680.28"/>
</g>
<!-- baml_compiler_emit -->
<g id="node33" class="node">
<title>baml_compiler_emit</title>
<path fill="#82c99a" stroke="black" d="M1267.75,-756C1267.75,-756 1063.01,-756 1063.01,-756 1057.01,-756 1051.01,-750 1051.01,-744 1051.01,-744 1051.01,-724.8 1051.01,-724.8 1051.01,-718.8 1057.01,-712.8 1063.01,-712.8 1063.01,-712.8 1267.75,-712.8 1267.75,-712.8 1273.75,-712.8 1279.75,-718.8 1279.75,-724.8 1279.75,-724.8 1279.75,-744 1279.75,-744 1279.75,-750 1273.75,-756 1267.75,-756"/>
<text text-anchor="middle" x="1165.38" y="-727.2" font-family="Times,serif" font-size="24.00">baml_compiler_emit</text>
</g>
<!-- baml_db&#45;&gt;baml_compiler_emit -->
<g id="edge36" class="edge">
<title>baml_db&#45;&gt;baml_compiler_emit</title>
<path fill="none" stroke="#555555" d="M1148.66,-791.5C1150.72,-784.61 1153.05,-776.77 1155.31,-769.19"/>
<polygon fill="#555555" stroke="#555555" points="1159.27,-770.62 1158.67,-757.92 1151.22,-768.22 1159.27,-770.62"/>
</g>
<!-- baml_compiler_mir -->
<g id="node34" class="node">
<title>baml_compiler_mir</title>
<path fill="#82c99a" stroke="black" d="M1263.09,-676.8C1263.09,-676.8 1067.67,-676.8 1067.67,-676.8 1061.67,-676.8 1055.67,-670.8 1055.67,-664.8 1055.67,-664.8 1055.67,-645.6 1055.67,-645.6 1055.67,-639.6 1061.67,-633.6 1067.67,-633.6 1067.67,-633.6 1263.09,-633.6 1263.09,-633.6 1269.09,-633.6 1275.09,-639.6 1275.09,-645.6 1275.09,-645.6 1275.09,-664.8 1275.09,-664.8 1275.09,-670.8 1269.09,-676.8 1263.09,-676.8"/>
<text text-anchor="middle" x="1165.38" y="-648" font-family="Times,serif" font-size="24.00">baml_compiler_mir</text>
</g>
<!-- baml_compiler_emit&#45;&gt;baml_compiler_mir -->
<g id="edge23" class="edge">
<title>baml_compiler_emit&#45;&gt;baml_compiler_mir</title>
<path fill="none" stroke="#555555" d="M1165.38,-712.3C1165.38,-705.58 1165.38,-697.96 1165.38,-690.55"/>
<polygon fill="#555555" stroke="#555555" points="1169.58,-690.78 1165.38,-678.78 1161.18,-690.78 1169.58,-690.78"/>
</g>
<!-- baml_compiler_emit&#45;&gt;bex_vm_types -->
<g id="edge24" class="edge">
<title>baml_compiler_emit&#45;&gt;bex_vm_types</title>
<path fill="none" stroke="#555555" d="M1239.7,-712.3C1273.89,-702.6 1314.66,-691.03 1350.28,-680.92"/>
<polygon fill="#555555" stroke="#555555" points="1351.29,-685 1361.69,-677.68 1349,-676.92 1351.29,-685"/>
</g>
<!-- baml_compiler_vir -->
<g id="node36" class="node">
<title>baml_compiler_vir</title>
<path fill="#82c99a" stroke="black" d="M1259.75,-597.6C1259.75,-597.6 1071,-597.6 1071,-597.6 1065,-597.6 1059,-591.6 1059,-585.6 1059,-585.6 1059,-566.4 1059,-566.4 1059,-560.4 1065,-554.4 1071,-554.4 1071,-554.4 1259.75,-554.4 1259.75,-554.4 1265.75,-554.4 1271.75,-560.4 1271.75,-566.4 1271.75,-566.4 1271.75,-585.6 1271.75,-585.6 1271.75,-591.6 1265.75,-597.6 1259.75,-597.6"/>
<text text-anchor="middle" x="1165.38" y="-568.8" font-family="Times,serif" font-size="24.00">baml_compiler_vir</text>
</g>
<!-- baml_compiler_mir&#45;&gt;baml_compiler_vir -->
<g id="edge27" class="edge">
<title>baml_compiler_mir&#45;&gt;baml_compiler_vir</title>
<path fill="none" stroke="#555555" d="M1165.38,-633.1C1165.38,-626.38 1165.38,-618.76 1165.38,-611.35"/>
<polygon fill="#555555" stroke="#555555" points="1169.58,-611.58 1165.38,-599.58 1161.18,-611.58 1169.58,-611.58"/>
</g>
<!-- baml_builtins -->
<g id="node39" class="node">
<title>baml_builtins</title>
<path fill="#87ceeb" stroke="black" d="M1360.78,-439.2C1360.78,-439.2 1223.98,-439.2 1223.98,-439.2 1217.98,-439.2 1211.98,-433.2 1211.98,-427.2 1211.98,-427.2 1211.98,-408 1211.98,-408 1211.98,-402 1217.98,-396 1223.98,-396 1223.98,-396 1360.78,-396 1360.78,-396 1366.78,-396 1372.78,-402 1372.78,-408 1372.78,-408 1372.78,-427.2 1372.78,-427.2 1372.78,-433.2 1366.78,-439.2 1360.78,-439.2"/>
<text text-anchor="middle" x="1292.38" y="-410.4" font-family="Times,serif" font-size="24.00">baml_builtins</text>
</g>
<!-- bex_vm_types&#45;&gt;baml_builtins -->
<g id="edge67" class="edge">
<title>bex_vm_types&#45;&gt;baml_builtins</title>
<path fill="none" stroke="#555555" d="M1424.51,-633.29C1399.14,-592.08 1342.53,-500.08 1312.3,-450.97"/>
<polygon fill="#555555" stroke="#555555" points="1315.88,-448.77 1306.01,-440.75 1308.72,-453.17 1315.88,-448.77"/>
</g>
<!-- bex_vm_types&#45;&gt;baml_base -->
<g id="edge66" class="edge">
<title>bex_vm_types&#45;&gt;baml_base</title>
<path fill="none" stroke="#555555" d="M1445.59,-633.32C1456.49,-603.68 1474.38,-547.47 1474.38,-497.8 1474.38,-497.8 1474.38,-497.8 1474.38,-258.2 1474.38,-229.94 1520.42,-230.91 1335.38,-158.4 1236.46,-119.64 1113.52,-107.2 1034.75,-103.33"/>
<polygon fill="#555555" stroke="#555555" points="1035.22,-99.15 1023.05,-102.81 1034.85,-107.54 1035.22,-99.15"/>
</g>
<!-- baml_compiler_tir -->
<g id="node37" class="node">
<title>baml_compiler_tir</title>
<path fill="#82c99a" stroke="black" d="M1257.09,-518.4C1257.09,-518.4 1073.67,-518.4 1073.67,-518.4 1067.67,-518.4 1061.67,-512.4 1061.67,-506.4 1061.67,-506.4 1061.67,-487.2 1061.67,-487.2 1061.67,-481.2 1067.67,-475.2 1073.67,-475.2 1073.67,-475.2 1257.09,-475.2 1257.09,-475.2 1263.09,-475.2 1269.09,-481.2 1269.09,-487.2 1269.09,-487.2 1269.09,-506.4 1269.09,-506.4 1269.09,-512.4 1263.09,-518.4 1257.09,-518.4"/>
<text text-anchor="middle" x="1165.38" y="-489.6" font-family="Times,serif" font-size="24.00">baml_compiler_tir</text>
</g>
<!-- baml_compiler_vir&#45;&gt;baml_compiler_tir -->
<g id="edge35" class="edge">
<title>baml_compiler_vir&#45;&gt;baml_compiler_tir</title>
<path fill="none" stroke="#555555" d="M1165.38,-553.9C1165.38,-547.18 1165.38,-539.56 1165.38,-532.15"/>
<polygon fill="#555555" stroke="#555555" points="1169.58,-532.38 1165.38,-520.38 1161.18,-532.38 1169.58,-532.38"/>
</g>
<!-- baml_compiler_hir -->
<g id="node38" class="node">
<title>baml_compiler_hir</title>
<path fill="#82c99a" stroke="black" d="M1148.75,-439.2C1148.75,-439.2 960,-439.2 960,-439.2 954,-439.2 948,-433.2 948,-427.2 948,-427.2 948,-408 948,-408 948,-402 954,-396 960,-396 960,-396 1148.75,-396 1148.75,-396 1154.75,-396 1160.75,-402 1160.75,-408 1160.75,-408 1160.75,-427.2 1160.75,-427.2 1160.75,-433.2 1154.75,-439.2 1148.75,-439.2"/>
<text text-anchor="middle" x="1054.38" y="-410.4" font-family="Times,serif" font-size="24.00">baml_compiler_hir</text>
</g>
<!-- baml_compiler_tir&#45;&gt;baml_compiler_hir -->
<g id="edge34" class="edge">
<title>baml_compiler_tir&#45;&gt;baml_compiler_hir</title>
<path fill="none" stroke="#555555" d="M1135.05,-474.7C1122.93,-466.28 1108.79,-456.44 1095.76,-447.38"/>
<polygon fill="#555555" stroke="#555555" points="1098.17,-443.94 1085.92,-440.53 1093.37,-450.83 1098.17,-443.94"/>
</g>
<!-- baml_compiler_tir&#45;&gt;baml_builtins -->
<g id="edge33" class="edge">
<title>baml_compiler_tir&#45;&gt;baml_builtins</title>
<path fill="none" stroke="#555555" d="M1200.08,-474.7C1214.36,-466.02 1231.11,-455.85 1246.38,-446.56"/>
<polygon fill="#555555" stroke="#555555" points="1248.35,-450.28 1256.42,-440.46 1243.99,-443.1 1248.35,-450.28"/>
</g>
<!-- baml_compiler_parser -->
<g id="node40" class="node">
<title>baml_compiler_parser</title>
<path fill="#82c99a" stroke="black" d="M1123.74,-360C1123.74,-360 903.02,-360 903.02,-360 897.02,-360 891.02,-354 891.02,-348 891.02,-348 891.02,-328.8 891.02,-328.8 891.02,-322.8 897.02,-316.8 903.02,-316.8 903.02,-316.8 1123.74,-316.8 1123.74,-316.8 1129.74,-316.8 1135.74,-322.8 1135.74,-328.8 1135.74,-328.8 1135.74,-348 1135.74,-348 1135.74,-354 1129.74,-360 1123.74,-360"/>
<text text-anchor="middle" x="1013.38" y="-331.2" font-family="Times,serif" font-size="24.00">baml_compiler_parser</text>
</g>
<!-- baml_compiler_hir&#45;&gt;baml_compiler_parser -->
<g id="edge25" class="edge">
<title>baml_compiler_hir&#45;&gt;baml_compiler_parser</title>
<path fill="none" stroke="#555555" d="M1043.18,-395.5C1039.38,-388.36 1035.04,-380.19 1030.88,-372.35"/>
<polygon fill="#555555" stroke="#555555" points="1034.62,-370.43 1025.28,-361.81 1027.2,-374.37 1034.62,-370.43"/>
</g>
<!-- baml_builtins_macros -->
<g id="node41" class="node">
<title>baml_builtins_macros</title>
<path fill="#87ceeb" stroke="black" d="M1401.43,-360C1401.43,-360 1183.33,-360 1183.33,-360 1177.33,-360 1171.33,-354 1171.33,-348 1171.33,-348 1171.33,-328.8 1171.33,-328.8 1171.33,-322.8 1177.33,-316.8 1183.33,-316.8 1183.33,-316.8 1401.43,-316.8 1401.43,-316.8 1407.43,-316.8 1413.43,-322.8 1413.43,-328.8 1413.43,-328.8 1413.43,-348 1413.43,-348 1413.43,-354 1407.43,-360 1401.43,-360"/>
<text text-anchor="middle" x="1292.38" y="-331.2" font-family="Times,serif" font-size="24.00">baml_builtins_macros</text>
</g>
<!-- baml_builtins&#45;&gt;baml_builtins_macros -->
<g id="edge17" class="edge">
<title>baml_builtins&#45;&gt;baml_builtins_macros</title>
<path fill="none" stroke="#555555" d="M1292.38,-395.5C1292.38,-388.78 1292.38,-381.16 1292.38,-373.75"/>
<polygon fill="#555555" stroke="#555555" points="1296.58,-373.98 1292.38,-361.98 1288.18,-373.98 1296.58,-373.98"/>
</g>
<!-- baml_compiler_lexer -->
<g id="node42" class="node">
<title>baml_compiler_lexer</title>
<path fill="#82c99a" stroke="black" d="M842.41,-280.8C842.41,-280.8 632.35,-280.8 632.35,-280.8 626.35,-280.8 620.35,-274.8 620.35,-268.8 620.35,-268.8 620.35,-249.6 620.35,-249.6 620.35,-243.6 626.35,-237.6 632.35,-237.6 632.35,-237.6 842.41,-237.6 842.41,-237.6 848.41,-237.6 854.41,-243.6 854.41,-249.6 854.41,-249.6 854.41,-268.8 854.41,-268.8 854.41,-274.8 848.41,-280.8 842.41,-280.8"/>
<text text-anchor="middle" x="737.38" y="-252" font-family="Times,serif" font-size="24.00">baml_compiler_lexer</text>
</g>
<!-- baml_compiler_parser&#45;&gt;baml_compiler_lexer -->
<g id="edge29" class="edge">
<title>baml_compiler_parser&#45;&gt;baml_compiler_lexer</title>
<path fill="none" stroke="#555555" d="M937.96,-316.3C903.12,-306.56 861.54,-294.93 825.29,-284.79"/>
<polygon fill="#555555" stroke="#555555" points="826.85,-280.87 814.16,-281.68 824.59,-288.95 826.85,-280.87"/>
</g>
<!-- baml_compiler_syntax -->
<g id="node43" class="node">
<title>baml_compiler_syntax</title>
<path fill="#82c99a" stroke="black" d="M1112.75,-280.8C1112.75,-280.8 888,-280.8 888,-280.8 882,-280.8 876,-274.8 876,-268.8 876,-268.8 876,-249.6 876,-249.6 876,-243.6 882,-237.6 888,-237.6 888,-237.6 1112.75,-237.6 1112.75,-237.6 1118.75,-237.6 1124.75,-243.6 1124.75,-249.6 1124.75,-249.6 1124.75,-268.8 1124.75,-268.8 1124.75,-274.8 1118.75,-280.8 1112.75,-280.8"/>
<text text-anchor="middle" x="1000.38" y="-252" font-family="Times,serif" font-size="24.00">baml_compiler_syntax</text>
</g>
<!-- baml_compiler_parser&#45;&gt;baml_compiler_syntax -->
<g id="edge30" class="edge">
<title>baml_compiler_parser&#45;&gt;baml_compiler_syntax</title>
<path fill="none" stroke="#555555" d="M1009.83,-316.3C1008.69,-309.58 1007.41,-301.96 1006.16,-294.55"/>
<polygon fill="#555555" stroke="#555555" points="1010.31,-293.9 1004.18,-282.76 1002.03,-295.29 1010.31,-293.9"/>
</g>
<!-- baml_compiler_diagnostics -->
<g id="node44" class="node">
<title>baml_compiler_diagnostics</title>
<path fill="#82c99a" stroke="black" d="M1428.42,-280.8C1428.42,-280.8 1158.34,-280.8 1158.34,-280.8 1152.34,-280.8 1146.34,-274.8 1146.34,-268.8 1146.34,-268.8 1146.34,-249.6 1146.34,-249.6 1146.34,-243.6 1152.34,-237.6 1158.34,-237.6 1158.34,-237.6 1428.42,-237.6 1428.42,-237.6 1434.42,-237.6 1440.42,-243.6 1440.42,-249.6 1440.42,-249.6 1440.42,-268.8 1440.42,-268.8 1440.42,-274.8 1434.42,-280.8 1428.42,-280.8"/>
<text text-anchor="middle" x="1293.38" y="-252" font-family="Times,serif" font-size="24.00">baml_compiler_diagnostics</text>
</g>
<!-- baml_compiler_parser&#45;&gt;baml_compiler_diagnostics -->
<g id="edge28" class="edge">
<title>baml_compiler_parser&#45;&gt;baml_compiler_diagnostics</title>
<path fill="none" stroke="#555555" d="M1089.89,-316.3C1125.23,-306.56 1167.42,-294.93 1204.2,-284.79"/>
<polygon fill="#555555" stroke="#555555" points="1205.05,-288.91 1215.5,-281.67 1202.82,-280.81 1205.05,-288.91"/>
</g>
<!-- baml_compiler_lexer&#45;&gt;baml_base -->
<g id="edge26" class="edge">
<title>baml_compiler_lexer&#45;&gt;baml_base</title>
<path fill="none" stroke="#555555" d="M766.78,-237.11C805.08,-209.63 872.21,-161.47 915.19,-130.63"/>
<polygon fill="#555555" stroke="#555555" points="917.56,-134.1 924.87,-123.69 912.67,-127.27 917.56,-134.1"/>
</g>
<!-- rowan -->
<g id="node45" class="node">
<title>rowan</title>
<path fill="white" stroke="black" d="M1065.77,-201.6C1065.77,-201.6 1000.99,-201.6 1000.99,-201.6 994.99,-201.6 988.99,-195.6 988.99,-189.6 988.99,-189.6 988.99,-170.4 988.99,-170.4 988.99,-164.4 994.99,-158.4 1000.99,-158.4 1000.99,-158.4 1065.77,-158.4 1065.77,-158.4 1071.77,-158.4 1077.77,-164.4 1077.77,-170.4 1077.77,-170.4 1077.77,-189.6 1077.77,-189.6 1077.77,-195.6 1071.77,-201.6 1065.77,-201.6"/>
<text text-anchor="middle" x="1033.38" y="-172.8" font-family="Times,serif" font-size="24.00">rowan</text>
</g>
<!-- baml_compiler_syntax&#45;&gt;rowan -->
<g id="edge32" class="edge">
<title>baml_compiler_syntax&#45;&gt;rowan</title>
<path fill="none" stroke="#555555" d="M1009.4,-237.1C1012.42,-230.04 1015.86,-221.99 1019.18,-214.23"/>
<polygon fill="#555555" stroke="#555555" points="1022.92,-216.15 1023.78,-203.46 1015.2,-212.84 1022.92,-216.15"/>
</g>
<!-- baml_compiler_syntax&#45;&gt;baml_base -->
<g id="edge31" class="edge">
<title>baml_compiler_syntax&#45;&gt;baml_base</title>
<path fill="none" stroke="#555555" d="M991.39,-237.22C987.08,-226.66 982.07,-213.59 978.38,-201.6 971.73,-179.99 966.01,-155.23 961.94,-135.78"/>
<polygon fill="#555555" stroke="#555555" points="966.08,-135.08 959.58,-124.16 957.85,-136.75 966.08,-135.08"/>
</g>
<!-- baml_workspace -->
<g id="node46" class="node">
<title>baml_workspace</title>
<path fill="#e6d5f2" stroke="black" d="M1312.08,-201.6C1312.08,-201.6 1144.67,-201.6 1144.67,-201.6 1138.67,-201.6 1132.67,-195.6 1132.67,-189.6 1132.67,-189.6 1132.67,-170.4 1132.67,-170.4 1132.67,-164.4 1138.67,-158.4 1144.67,-158.4 1144.67,-158.4 1312.08,-158.4 1312.08,-158.4 1318.08,-158.4 1324.08,-164.4 1324.08,-170.4 1324.08,-170.4 1324.08,-189.6 1324.08,-189.6 1324.08,-195.6 1318.08,-201.6 1312.08,-201.6"/>
<text text-anchor="middle" x="1228.38" y="-172.8" font-family="Times,serif" font-size="24.00">baml_workspace</text>
</g>
<!-- baml_compiler_diagnostics&#45;&gt;baml_workspace -->
<g id="edge22" class="edge">
<title>baml_compiler_diagnostics&#45;&gt;baml_workspace</title>
<path fill="none" stroke="#555555" d="M1275.62,-237.1C1269.17,-229.45 1261.74,-220.62 1254.71,-212.27"/>
<polygon fill="#555555" stroke="#555555" points="1258.04,-209.7 1247.09,-203.23 1251.61,-215.11 1258.04,-209.7"/>
</g>
<!-- baml_workspace&#45;&gt;baml_base -->
<g id="edge57" class="edge">
<title>baml_workspace&#45;&gt;baml_base</title>
<path fill="none" stroke="#555555" d="M1153.78,-157.9C1116.78,-147.44 1072.08,-134.8 1034.49,-124.17"/>
<polygon fill="#555555" stroke="#555555" points="1035.65,-120.14 1022.96,-120.91 1033.37,-128.22 1035.65,-120.14"/>
</g>
<!-- salsa -->
<g id="node48" class="node">
<title>salsa</title>
<path fill="white" stroke="black" d="M981.1,-43.2C981.1,-43.2 929.65,-43.2 929.65,-43.2 923.65,-43.2 917.65,-37.2 917.65,-31.2 917.65,-31.2 917.65,-12 917.65,-12 917.65,-6 923.65,0 929.65,0 929.65,0 981.1,0 981.1,0 987.1,0 993.1,-6 993.1,-12 993.1,-12 993.1,-31.2 993.1,-31.2 993.1,-37.2 987.1,-43.2 981.1,-43.2"/>
<text text-anchor="middle" x="955.38" y="-14.4" font-family="Times,serif" font-size="24.00">salsa</text>
</g>
<!-- baml_base&#45;&gt;salsa -->
<g id="edge16" class="edge">
<title>baml_base&#45;&gt;salsa</title>
<path fill="none" stroke="#555555" d="M955.38,-78.7C955.38,-71.98 955.38,-64.36 955.38,-56.95"/>
<polygon fill="#555555" stroke="#555555" points="959.58,-57.18 955.38,-45.18 951.18,-57.18 959.58,-57.18"/>
</g>
</g>
</svg>
