<?xml version="1.0" encoding="UTF-8" standalone="no"?>
<!DOCTYPE svg PUBLIC "-//W3C//DTD SVG 1.1//EN"
 "http://www.w3.org/Graphics/SVG/1.1/DTD/svg11.dtd">
<!-- Generated by graphviz version 12.1.2 (20240928.0832)
 -->
<!-- Title: G Pages: 1 -->
<svg xmlns="http://www.w3.org/2000/svg" viewBox="0 0 1428.43 1239.20" width="1428" height="1239">
<g id="graph0" class="graph" transform="scale(1 1) rotate(0) translate(4 1235.2)">
<title>G</title>
<!-- __project__ -->
<g id="node1" class="node">
<title>__project__</title>
<path fill="#d4edda" stroke="black" d="M685.1,-1231.2C685.1,-1231.2 565.67,-1231.2 565.67,-1231.2 559.67,-1231.2 553.67,-1225.2 553.67,-1219.2 553.67,-1219.2 553.67,-1200 553.67,-1200 553.67,-1194 559.67,-1188 565.67,-1188 565.67,-1188 685.1,-1188 685.1,-1188 691.1,-1188 697.1,-1194 697.1,-1200 697.1,-1200 697.1,-1219.2 697.1,-1219.2 697.1,-1225.2 691.1,-1231.2 685.1,-1231.2"/>
<text text-anchor="middle" x="625.39" y="-1202.4" font-family="Times,serif" font-size="24.00">__project__</text>
</g>
<!-- baml_cli -->
<g id="node2" class="node">
<title>baml_cli</title>
<path fill="#ffb6c1" stroke="black" d="M582.78,-1152C582.78,-1152 494,-1152 494,-1152 488,-1152 482,-1146 482,-1140 482,-1140 482,-1120.8 482,-1120.8 482,-1114.8 488,-1108.8 494,-1108.8 494,-1108.8 582.78,-1108.8 582.78,-1108.8 588.78,-1108.8 594.78,-1114.8 594.78,-1120.8 594.78,-1120.8 594.78,-1140 594.78,-1140 594.78,-1146 588.78,-1152 582.78,-1152"/>
<text text-anchor="middle" x="538.39" y="-1123.2" font-family="Times,serif" font-size="24.00">baml_cli</text>
</g>
<!-- __project__&#45;&gt;baml_cli -->
<g id="edge1" class="edge">
<title>__project__&#45;&gt;baml_cli</title>
<path fill="none" stroke="#555555" d="M601.62,-1187.5C592.5,-1179.42 581.93,-1170.04 572.06,-1161.28"/>
<polygon fill="#555555" stroke="#555555" points="575.03,-1158.3 563.26,-1153.47 569.45,-1164.58 575.03,-1158.3"/>
</g>
<!-- baml_ide_tests -->
<g id="node3" class="node">
<title>baml_ide_tests</title>
<path fill="#a0a0a0" fill-opacity="0.501961" stroke="black" stroke-dasharray="5,2" d="M160.78,-1152C160.78,-1152 12,-1152 12,-1152 6,-1152 0,-1146 0,-1140 0,-1140 0,-1120.8 0,-1120.8 0,-1114.8 6,-1108.8 12,-1108.8 12,-1108.8 160.78,-1108.8 160.78,-1108.8 166.78,-1108.8 172.78,-1114.8 172.78,-1120.8 172.78,-1120.8 172.78,-1140 172.78,-1140 172.78,-1146 166.78,-1152 160.78,-1152"/>
<text text-anchor="middle" x="86.39" y="-1123.2" font-family="Times,serif" font-size="24.00">baml_ide_tests</text>
</g>
<!-- __project__&#45;&gt;baml_ide_tests -->
<g id="edge2" class="edge">
<title>__project__&#45;&gt;baml_ide_tests</title>
<path fill="none" stroke="#555555" d="M553.54,-1201.23C468.6,-1192.11 322.71,-1175.17 186.23,-1152.39"/>
<polygon fill="#555555" stroke="#555555" points="187.07,-1148.28 174.54,-1150.42 185.68,-1156.56 187.07,-1148.28"/>
</g>
<!-- baml_playground_wasm -->
<g id="node4" class="node">
<title>baml_playground_wasm</title>
<path fill="#82c99a" stroke="black" d="M448.43,-1152C448.43,-1152 206.34,-1152 206.34,-1152 200.34,-1152 194.34,-1146 194.34,-1140 194.34,-1140 194.34,-1120.8 194.34,-1120.8 194.34,-1114.8 200.34,-1108.8 206.34,-1108.8 206.34,-1108.8 448.43,-1108.8 448.43,-1108.8 454.43,-1108.8 460.43,-1114.8 460.43,-1120.8 460.43,-1120.8 460.43,-1140 460.43,-1140 460.43,-1146 454.43,-1152 448.43,-1152"/>
<text text-anchor="middle" x="327.39" y="-1123.2" font-family="Times,serif" font-size="24.00">baml_playground_wasm</text>
</g>
<!-- __project__&#45;&gt;baml_playground_wasm -->
<g id="edge3" class="edge">
<title>__project__&#45;&gt;baml_playground_wasm</title>
<path fill="none" stroke="#555555" d="M553.25,-1189.91C513.68,-1179.66 464.14,-1166.83 421.56,-1155.8"/>
<polygon fill="#555555" stroke="#555555" points="422.72,-1151.76 410.05,-1152.81 420.61,-1159.89 422.72,-1151.76"/>
</g>
<!-- baml_tests -->
<g id="node5" class="node">
<title>baml_tests</title>
<path fill="#a0a0a0" fill-opacity="0.501961" stroke="black" stroke-dasharray="5,2" d="M951.12,-1152C951.12,-1152 843.66,-1152 843.66,-1152 837.66,-1152 831.66,-1146 831.66,-1140 831.66,-1140 831.66,-1120.8 831.66,-1120.8 831.66,-1114.8 837.66,-1108.8 843.66,-1108.8 843.66,-1108.8 951.12,-1108.8 951.12,-1108.8 957.12,-1108.8 963.12,-1114.8 963.12,-1120.8 963.12,-1120.8 963.12,-1140 963.12,-1140 963.12,-1146 957.12,-1152 951.12,-1152"/>
<text text-anchor="middle" x="897.39" y="-1123.2" font-family="Times,serif" font-size="24.00">baml_tests</text>
</g>
<!-- __project__&#45;&gt;baml_tests -->
<g id="edge4" class="edge">
<title>__project__&#45;&gt;baml_tests</title>
<path fill="none" stroke="#555555" d="M697.57,-1188.11C734.9,-1177.52 780.52,-1164.57 818.75,-1153.72"/>
<polygon fill="#555555" stroke="#555555" points="819.55,-1157.86 829.95,-1150.54 817.26,-1149.78 819.55,-1157.86"/>
</g>
<!-- baml_tools_onionskin -->
<g id="node6" class="node">
<title>baml_tools_onionskin</title>
<path fill="#e6d5f2" stroke="black" d="M1215.46,-1152C1215.46,-1152 997.32,-1152 997.32,-1152 991.32,-1152 985.32,-1146 985.32,-1140 985.32,-1140 985.32,-1120.8 985.32,-1120.8 985.32,-1114.8 991.32,-1108.8 997.32,-1108.8 997.32,-1108.8 1215.46,-1108.8 1215.46,-1108.8 1221.46,-1108.8 1227.46,-1114.8 1227.46,-1120.8 1227.46,-1120.8 1227.46,-1140 1227.46,-1140 1227.46,-1146 1221.46,-1152 1215.46,-1152"/>
<text text-anchor="middle" x="1106.39" y="-1123.2" font-family="Times,serif" font-size="24.00">baml_tools_onionskin</text>
</g>
<!-- __project__&#45;&gt;baml_tools_onionskin -->
<g id="edge5" class="edge">
<title>__project__&#45;&gt;baml_tools_onionskin</title>
<path fill="none" stroke="#555555" d="M697.4,-1197.04C769.76,-1185.43 883.03,-1167.25 972.03,-1152.96"/>
<polygon fill="#555555" stroke="#555555" points="972.58,-1157.13 983.76,-1151.08 971.25,-1148.84 972.58,-1157.13"/>
</g>
<!-- baml_tools_stow -->
<g id="node7" class="node">
<title>baml_tools_stow</title>
<path fill="#e6d5f2" stroke="black" d="M797.79,-1152C797.79,-1152 628.99,-1152 628.99,-1152 622.99,-1152 616.99,-1146 616.99,-1140 616.99,-1140 616.99,-1120.8 616.99,-1120.8 616.99,-1114.8 622.99,-1108.8 628.99,-1108.8 628.99,-1108.8 797.79,-1108.8 797.79,-1108.8 803.79,-1108.8 809.79,-1114.8 809.79,-1120.8 809.79,-1120.8 809.79,-1140 809.79,-1140 809.79,-1146 803.79,-1152 797.79,-1152"/>
<text text-anchor="middle" x="713.39" y="-1123.2" font-family="Times,serif" font-size="24.00">baml_tools_stow</text>
</g>
<!-- __project__&#45;&gt;baml_tools_stow -->
<g id="edge6" class="edge">
<title>__project__&#45;&gt;baml_tools_stow</title>
<path fill="none" stroke="#555555" d="M649.43,-1187.5C658.65,-1179.42 669.35,-1170.04 679.33,-1161.28"/>
<polygon fill="#555555" stroke="#555555" points="681.98,-1164.54 688.23,-1153.47 676.44,-1158.22 681.98,-1164.54"/>
</g>
<!-- baml_lsp -->
<g id="node8" class="node">
<title>baml_lsp</title>
<path fill="#98d8c8" stroke="black" d="M584.79,-1072.8C584.79,-1072.8 491.99,-1072.8 491.99,-1072.8 485.99,-1072.8 479.99,-1066.8 479.99,-1060.8 479.99,-1060.8 479.99,-1041.6 479.99,-1041.6 479.99,-1035.6 485.99,-1029.6 491.99,-1029.6 491.99,-1029.6 584.79,-1029.6 584.79,-1029.6 590.79,-1029.6 596.79,-1035.6 596.79,-1041.6 596.79,-1041.6 596.79,-1060.8 596.79,-1060.8 596.79,-1066.8 590.79,-1072.8 584.79,-1072.8"/>
<text text-anchor="middle" x="538.39" y="-1044" font-family="Times,serif" font-size="24.00">baml_lsp</text>
</g>
<!-- baml_cli&#45;&gt;baml_lsp -->
<g id="edge9" class="edge">
<title>baml_cli&#45;&gt;baml_lsp</title>
<path fill="none" stroke="#555555" d="M538.39,-1108.3C538.39,-1101.58 538.39,-1093.96 538.39,-1086.55"/>
<polygon fill="#555555" stroke="#555555" points="542.59,-1086.78 538.39,-1074.78 534.19,-1086.78 542.59,-1086.78"/>
</g>
<!-- baml_ide -->
<g id="node10" class="node">
<title>baml_ide</title>
<path fill="#f8d7da" stroke="black" d="M395.44,-993.6C395.44,-993.6 301.33,-993.6 301.33,-993.6 295.33,-993.6 289.33,-987.6 289.33,-981.6 289.33,-981.6 289.33,-962.4 289.33,-962.4 289.33,-956.4 295.33,-950.4 301.33,-950.4 301.33,-950.4 395.44,-950.4 395.44,-950.4 401.44,-950.4 407.44,-956.4 407.44,-962.4 407.44,-962.4 407.44,-981.6 407.44,-981.6 407.44,-987.6 401.44,-993.6 395.44,-993.6"/>
<text text-anchor="middle" x="348.39" y="-964.8" font-family="Times,serif" font-size="24.00">baml_ide</text>
</g>
<!-- baml_ide_tests&#45;&gt;baml_ide -->
<g id="edge26" class="edge">
<title>baml_ide_tests&#45;&gt;baml_ide</title>
<path fill="none" stroke="#555555" d="M121.72,-1108.31C168.24,-1080.54 250.15,-1031.64 301.73,-1000.85"/>
<polygon fill="#555555" stroke="#555555" points="303.75,-1004.54 311.9,-994.78 299.44,-997.33 303.75,-1004.54"/>
</g>
<!-- baml_project -->
<g id="node14" class="node">
<title>baml_project</title>
<path fill="#c3e6cb" stroke="black" d="M785.1,-914.4C785.1,-914.4 653.68,-914.4 653.68,-914.4 647.68,-914.4 641.68,-908.4 641.68,-902.4 641.68,-902.4 641.68,-883.2 641.68,-883.2 641.68,-877.2 647.68,-871.2 653.68,-871.2 653.68,-871.2 785.1,-871.2 785.1,-871.2 791.1,-871.2 797.1,-877.2 797.1,-883.2 797.1,-883.2 797.1,-902.4 797.1,-902.4 797.1,-908.4 791.1,-914.4 785.1,-914.4"/>
<text text-anchor="middle" x="719.39" y="-885.6" font-family="Times,serif" font-size="24.00">baml_project</text>
</g>
<!-- baml_playground_wasm&#45;&gt;baml_project -->
<g id="edge33" class="edge">
<title>baml_playground_wasm&#45;&gt;baml_project</title>
<path fill="none" stroke="#555555" d="M340.69,-1108.56C368.28,-1065.96 431.89,-971.14 464.39,-950.4 513.18,-919.26 576.71,-905.11 628.15,-898.74"/>
<polygon fill="#555555" stroke="#555555" points="628.34,-902.94 639.79,-897.41 627.39,-894.59 628.34,-902.94"/>
</g>
<!-- baml_vm -->
<g id="node9" class="node">
<title>baml_vm</title>
<path fill="#98d8c8" stroke="black" d="M1107.12,-1072.8C1107.12,-1072.8 1011.66,-1072.8 1011.66,-1072.8 1005.66,-1072.8 999.66,-1066.8 999.66,-1060.8 999.66,-1060.8 999.66,-1041.6 999.66,-1041.6 999.66,-1035.6 1005.66,-1029.6 1011.66,-1029.6 1011.66,-1029.6 1107.12,-1029.6 1107.12,-1029.6 1113.12,-1029.6 1119.12,-1035.6 1119.12,-1041.6 1119.12,-1041.6 1119.12,-1060.8 1119.12,-1060.8 1119.12,-1066.8 1113.12,-1072.8 1107.12,-1072.8"/>
<text text-anchor="middle" x="1059.39" y="-1044" font-family="Times,serif" font-size="24.00">baml_vm</text>
</g>
<!-- baml_tests&#45;&gt;baml_vm -->
<g id="edge37" class="edge">
<title>baml_tests&#45;&gt;baml_vm</title>
<path fill="none" stroke="#555555" d="M941.66,-1108.3C960.59,-1099.28 982.91,-1088.64 1003,-1079.07"/>
<polygon fill="#555555" stroke="#555555" points="1004.78,-1082.87 1013.81,-1073.92 1001.17,-1075.29 1004.78,-1082.87"/>
</g>
<!-- baml_tests&#45;&gt;baml_project -->
<g id="edge36" class="edge">
<title>baml_tests&#45;&gt;baml_project</title>
<path fill="none" stroke="#555555" d="M831.5,-1110.79C798.1,-1100.05 762.32,-1086.07 751.39,-1072.8 717.61,-1031.78 714.41,-967.31 716.19,-927.97"/>
<polygon fill="#555555" stroke="#555555" points="720.37,-928.45 716.93,-916.21 711.99,-927.92 720.37,-928.45"/>
</g>
<!-- anyhow -->
<g id="node15" class="node">
<title>anyhow</title>
<path fill="white" stroke="black" d="M1099.78,-914.4C1099.78,-914.4 1019,-914.4 1019,-914.4 1013,-914.4 1007,-908.4 1007,-902.4 1007,-902.4 1007,-883.2 1007,-883.2 1007,-877.2 1013,-871.2 1019,-871.2 1019,-871.2 1099.78,-871.2 1099.78,-871.2 1105.78,-871.2 1111.78,-877.2 1111.78,-883.2 1111.78,-883.2 1111.78,-902.4 1111.78,-902.4 1111.78,-908.4 1105.78,-914.4 1099.78,-914.4"/>
<text text-anchor="middle" x="1059.39" y="-885.6" font-family="Times,serif" font-size="24.00">anyhow</text>
</g>
<!-- baml_tests&#45;&gt;anyhow -->
<g id="edge35" class="edge">
<title>baml_tests&#45;&gt;anyhow</title>
<path fill="none" stroke="#555555" d="M915.15,-1108.45C933,-1087.77 961.62,-1055.55 988.39,-1029.6 1006.04,-1012.48 1017.07,-1014.27 1030.39,-993.6 1043.17,-973.76 1050.47,-948.14 1054.54,-927.82"/>
<polygon fill="#555555" stroke="#555555" points="1058.63,-928.78 1056.61,-916.23 1050.36,-927.31 1058.63,-928.78"/>
</g>
<!-- baml_tools_onionskin&#45;&gt;baml_vm -->
<g id="edge40" class="edge">
<title>baml_tools_onionskin&#45;&gt;baml_vm</title>
<path fill="none" stroke="#555555" d="M1093.55,-1108.3C1089.09,-1100.99 1083.99,-1092.6 1079.1,-1084.59"/>
<polygon fill="#555555" stroke="#555555" points="1082.83,-1082.63 1073,-1074.56 1075.66,-1087 1082.83,-1082.63"/>
</g>
<!-- baml_tools_onionskin&#45;&gt;baml_project -->
<g id="edge39" class="edge">
<title>baml_tools_onionskin&#45;&gt;baml_project</title>
<path fill="none" stroke="#555555" d="M1024.54,-1108.33C955.97,-1087.63 858.37,-1050.74 788.39,-993.6 766.02,-975.34 747.82,-948.01 735.74,-926.57"/>
<polygon fill="#555555" stroke="#555555" points="739.47,-924.63 730.07,-916.07 732.08,-928.62 739.47,-924.63"/>
</g>
<!-- baml_tools_onionskin&#45;&gt;anyhow -->
<g id="edge38" class="edge">
<title>baml_tools_onionskin&#45;&gt;anyhow</title>
<path fill="none" stroke="#555555" d="M1117.6,-1108.55C1122.58,-1098.13 1127.88,-1085.14 1130.39,-1072.8 1134.21,-1053.98 1134.97,-1048.25 1130.39,-1029.6 1121.03,-991.51 1098.91,-952.26 1081.82,-925.81"/>
<polygon fill="#555555" stroke="#555555" points="1085.36,-923.55 1075.23,-915.87 1078.36,-928.19 1085.36,-923.55"/>
</g>
<!-- thiserror -->
<g id="node12" class="node">
<title>thiserror</title>
<path fill="white" stroke="black" d="M673.44,-993.6C673.44,-993.6 587.34,-993.6 587.34,-993.6 581.34,-993.6 575.34,-987.6 575.34,-981.6 575.34,-981.6 575.34,-962.4 575.34,-962.4 575.34,-956.4 581.34,-950.4 587.34,-950.4 587.34,-950.4 673.44,-950.4 673.44,-950.4 679.44,-950.4 685.44,-956.4 685.44,-962.4 685.44,-962.4 685.44,-981.6 685.44,-981.6 685.44,-987.6 679.44,-993.6 673.44,-993.6"/>
<text text-anchor="middle" x="630.39" y="-964.8" font-family="Times,serif" font-size="24.00">thiserror</text>
</g>
<!-- baml_tools_stow&#45;&gt;thiserror -->
<g id="edge42" class="edge">
<title>baml_tools_stow&#45;&gt;thiserror</title>
<path fill="none" stroke="#555555" d="M688.56,-1108.33C678.26,-1098.46 666.98,-1085.98 659.39,-1072.8 647.74,-1052.57 640.46,-1027.3 636.11,-1007.25"/>
<polygon fill="#555555" stroke="#555555" points="640.23,-1006.46 633.78,-995.51 631.99,-1008.09 640.23,-1006.46"/>
</g>
<!-- serde -->
<g id="node16" class="node">
<title>serde</title>
<path fill="white" stroke="black" d="M945.11,-914.4C945.11,-914.4 889.67,-914.4 889.67,-914.4 883.67,-914.4 877.67,-908.4 877.67,-902.4 877.67,-902.4 877.67,-883.2 877.67,-883.2 877.67,-877.2 883.67,-871.2 889.67,-871.2 889.67,-871.2 945.11,-871.2 945.11,-871.2 951.11,-871.2 957.11,-877.2 957.11,-883.2 957.11,-883.2 957.11,-902.4 957.11,-902.4 957.11,-908.4 951.11,-914.4 945.11,-914.4"/>
<text text-anchor="middle" x="917.39" y="-885.6" font-family="Times,serif" font-size="24.00">serde</text>
</g>
<!-- baml_tools_stow&#45;&gt;serde -->
<g id="edge41" class="edge">
<title>baml_tools_stow&#45;&gt;serde</title>
<path fill="none" stroke="#555555" d="M763.39,-1108.31C839.58,-1075.68 977.34,-1014.53 990.39,-993.6 1000.55,-977.31 998.84,-967.64 990.39,-950.4 985.16,-939.73 976.84,-930.49 967.66,-922.75"/>
<polygon fill="#555555" stroke="#555555" points="970.33,-919.51 958.25,-915.58 965.24,-926.19 970.33,-919.51"/>
</g>
<!-- baml_lsp&#45;&gt;baml_ide -->
<g id="edge27" class="edge">
<title>baml_lsp&#45;&gt;baml_ide</title>
<path fill="none" stroke="#555555" d="M486.47,-1029.1C463.64,-1019.83 436.6,-1008.84 412.52,-999.06"/>
<polygon fill="#555555" stroke="#555555" points="414.34,-995.27 401.65,-994.64 411.18,-1003.05 414.34,-995.27"/>
</g>
<!-- baml_lsp_types -->
<g id="node11" class="node">
<title>baml_lsp_types</title>
<path fill="#98d8c8" stroke="black" d="M967.12,-993.6C967.12,-993.6 811.66,-993.6 811.66,-993.6 805.66,-993.6 799.66,-987.6 799.66,-981.6 799.66,-981.6 799.66,-962.4 799.66,-962.4 799.66,-956.4 805.66,-950.4 811.66,-950.4 811.66,-950.4 967.12,-950.4 967.12,-950.4 973.12,-950.4 979.12,-956.4 979.12,-962.4 979.12,-962.4 979.12,-981.6 979.12,-981.6 979.12,-987.6 973.12,-993.6 967.12,-993.6"/>
<text text-anchor="middle" x="889.39" y="-964.8" font-family="Times,serif" font-size="24.00">baml_lsp_types</text>
</g>
<!-- baml_lsp&#45;&gt;baml_lsp_types -->
<g id="edge28" class="edge">
<title>baml_lsp&#45;&gt;baml_lsp_types</title>
<path fill="none" stroke="#555555" d="M597.14,-1037.28C648.7,-1025.94 724.87,-1009.18 786.52,-995.63"/>
<polygon fill="#555555" stroke="#555555" points="787.14,-999.79 797.96,-993.11 785.34,-991.58 787.14,-999.79"/>
</g>
<!-- baml_lsp&#45;&gt;thiserror -->
<g id="edge29" class="edge">
<title>baml_lsp&#45;&gt;thiserror</title>
<path fill="none" stroke="#555555" d="M563.53,-1029.1C573.26,-1020.93 584.58,-1011.44 595.11,-1002.61"/>
<polygon fill="#555555" stroke="#555555" points="597.63,-1005.97 604.12,-995.04 592.23,-999.54 597.63,-1005.97"/>
</g>
<!-- tokio -->
<g id="node13" class="node">
<title>tokio</title>
<path fill="white" stroke="black" d="M541.46,-993.6C541.46,-993.6 487.32,-993.6 487.32,-993.6 481.32,-993.6 475.32,-987.6 475.32,-981.6 475.32,-981.6 475.32,-962.4 475.32,-962.4 475.32,-956.4 481.32,-950.4 487.32,-950.4 487.32,-950.4 541.46,-950.4 541.46,-950.4 547.46,-950.4 553.46,-956.4 553.46,-962.4 553.46,-962.4 553.46,-981.6 553.46,-981.6 553.46,-987.6 547.46,-993.6 541.46,-993.6"/>
<text text-anchor="middle" x="514.39" y="-964.8" font-family="Times,serif" font-size="24.00">tokio</text>
</g>
<!-- baml_lsp&#45;&gt;tokio -->
<g id="edge30" class="edge">
<title>baml_lsp&#45;&gt;tokio</title>
<path fill="none" stroke="#555555" d="M531.83,-1029.1C529.69,-1022.21 527.25,-1014.37 524.89,-1006.79"/>
<polygon fill="#555555" stroke="#555555" points="528.96,-1005.73 521.39,-995.52 520.94,-1008.22 528.96,-1005.73"/>
</g>
<!-- baml_vm_types -->
<g id="node20" class="node">
<title>baml_vm_types</title>
<path fill="#98d8c8" stroke="black" d="M1122.45,-676.8C1122.45,-676.8 964.33,-676.8 964.33,-676.8 958.33,-676.8 952.33,-670.8 952.33,-664.8 952.33,-664.8 952.33,-645.6 952.33,-645.6 952.33,-639.6 958.33,-633.6 964.33,-633.6 964.33,-633.6 1122.45,-633.6 1122.45,-633.6 1128.45,-633.6 1134.45,-639.6 1134.45,-645.6 1134.45,-645.6 1134.45,-664.8 1134.45,-664.8 1134.45,-670.8 1128.45,-676.8 1122.45,-676.8"/>
<text text-anchor="middle" x="1043.39" y="-648" font-family="Times,serif" font-size="24.00">baml_vm_types</text>
</g>
<!-- baml_vm&#45;&gt;baml_vm_types -->
<g id="edge43" class="edge">
<title>baml_vm&#45;&gt;baml_vm_types</title>
<path fill="none" stroke="#555555" d="M1097.64,-1029.17C1139.1,-1003.25 1199.39,-955.02 1199.39,-893.8 1199.39,-893.8 1199.39,-893.8 1199.39,-812.6 1199.39,-754.34 1144.45,-710.14 1099.78,-683.84"/>
<polygon fill="#555555" stroke="#555555" points="1101.92,-680.23 1089.41,-677.97 1097.78,-687.54 1101.92,-680.23"/>
</g>
<!-- baml_ide&#45;&gt;baml_project -->
<g id="edge25" class="edge">
<title>baml_ide&#45;&gt;baml_project</title>
<path fill="none" stroke="#555555" d="M407.61,-954.49C413.27,-953.05 418.93,-951.66 424.39,-950.4 492.41,-934.68 569.96,-919.92 628.48,-909.42"/>
<polygon fill="#555555" stroke="#555555" points="628.85,-913.62 639.92,-907.38 627.37,-905.35 628.85,-913.62"/>
</g>
<!-- baml_lsp_types&#45;&gt;anyhow -->
<g id="edge31" class="edge">
<title>baml_lsp_types&#45;&gt;anyhow</title>
<path fill="none" stroke="#555555" d="M935.84,-949.9C955.89,-940.8 979.58,-930.04 1000.81,-920.4"/>
<polygon fill="#555555" stroke="#555555" points="1002.42,-924.28 1011.61,-915.5 998.95,-916.63 1002.42,-924.28"/>
</g>
<!-- baml_lsp_types&#45;&gt;serde -->
<g id="edge32" class="edge">
<title>baml_lsp_types&#45;&gt;serde</title>
<path fill="none" stroke="#555555" d="M897.04,-949.9C899.57,-942.93 902.45,-934.98 905.24,-927.31"/>
<polygon fill="#555555" stroke="#555555" points="909.09,-929.01 909.23,-916.29 901.19,-926.14 909.09,-929.01"/>
</g>
<!-- baml_db -->
<g id="node17" class="node">
<title>baml_db</title>
<path fill="#f8d7da" stroke="black" d="M797.78,-835.2C797.78,-835.2 708.99,-835.2 708.99,-835.2 702.99,-835.2 696.99,-829.2 696.99,-823.2 696.99,-823.2 696.99,-804 696.99,-804 696.99,-798 702.99,-792 708.99,-792 708.99,-792 797.78,-792 797.78,-792 803.78,-792 809.78,-798 809.78,-804 809.78,-804 809.78,-823.2 809.78,-823.2 809.78,-829.2 803.78,-835.2 797.78,-835.2"/>
<text text-anchor="middle" x="753.39" y="-806.4" font-family="Times,serif" font-size="24.00">baml_db</text>
</g>
<!-- baml_project&#45;&gt;baml_db -->
<g id="edge34" class="edge">
<title>baml_project&#45;&gt;baml_db</title>
<path fill="none" stroke="#555555" d="M728.68,-870.7C731.79,-863.64 735.34,-855.59 738.76,-847.83"/>
<polygon fill="#555555" stroke="#555555" points="742.51,-849.73 743.5,-837.05 734.82,-846.34 742.51,-849.73"/>
</g>
<!-- baml_compiler_emit -->
<g id="node18" class="node">
<title>baml_compiler_emit</title>
<path fill="#82c99a" stroke="black" d="M872.76,-756C872.76,-756 668.02,-756 668.02,-756 662.02,-756 656.02,-750 656.02,-744 656.02,-744 656.02,-724.8 656.02,-724.8 656.02,-718.8 662.02,-712.8 668.02,-712.8 668.02,-712.8 872.76,-712.8 872.76,-712.8 878.76,-712.8 884.76,-718.8 884.76,-724.8 884.76,-724.8 884.76,-744 884.76,-744 884.76,-750 878.76,-756 872.76,-756"/>
<text text-anchor="middle" x="770.39" y="-727.2" font-family="Times,serif" font-size="24.00">baml_compiler_emit</text>
</g>
<!-- baml_db&#45;&gt;baml_compiler_emit -->
<g id="edge24" class="edge">
<title>baml_db&#45;&gt;baml_compiler_emit</title>
<path fill="none" stroke="#555555" d="M758.03,-791.5C759.53,-784.7 761.23,-776.97 762.89,-769.47"/>
<polygon fill="#555555" stroke="#555555" points="766.94,-770.57 765.42,-757.95 758.74,-768.76 766.94,-770.57"/>
</g>
<!-- baml_compiler_mir -->
<g id="node19" class="node">
<title>baml_compiler_mir</title>
<path fill="#82c99a" stroke="black" d="M868.1,-676.8C868.1,-676.8 672.68,-676.8 672.68,-676.8 666.68,-676.8 660.68,-670.8 660.68,-664.8 660.68,-664.8 660.68,-645.6 660.68,-645.6 660.68,-639.6 666.68,-633.6 672.68,-633.6 672.68,-633.6 868.1,-633.6 868.1,-633.6 874.1,-633.6 880.1,-639.6 880.1,-645.6 880.1,-645.6 880.1,-664.8 880.1,-664.8 880.1,-670.8 874.1,-676.8 868.1,-676.8"/>
<text text-anchor="middle" x="770.39" y="-648" font-family="Times,serif" font-size="24.00">baml_compiler_mir</text>
</g>
<!-- baml_compiler_emit&#45;&gt;baml_compiler_mir -->
<g id="edge11" class="edge">
<title>baml_compiler_emit&#45;&gt;baml_compiler_mir</title>
<path fill="none" stroke="#555555" d="M770.39,-712.3C770.39,-705.58 770.39,-697.96 770.39,-690.55"/>
<polygon fill="#555555" stroke="#555555" points="774.59,-690.78 770.39,-678.78 766.19,-690.78 774.59,-690.78"/>
</g>
<!-- baml_compiler_emit&#45;&gt;baml_vm_types -->
<g id="edge12" class="edge">
<title>baml_compiler_emit&#45;&gt;baml_vm_types</title>
<path fill="none" stroke="#555555" d="M844.99,-712.3C879.29,-702.6 920.22,-691.03 955.97,-680.92"/>
<polygon fill="#555555" stroke="#555555" points="957.02,-684.99 967.42,-677.68 954.73,-676.91 957.02,-684.99"/>
</g>
<!-- baml_compiler_vir -->
<g id="node21" class="node">
<title>baml_compiler_vir</title>
<path fill="#82c99a" stroke="black" d="M864.76,-597.6C864.76,-597.6 676.01,-597.6 676.01,-597.6 670.01,-597.6 664.01,-591.6 664.01,-585.6 664.01,-585.6 664.01,-566.4 664.01,-566.4 664.01,-560.4 670.01,-554.4 676.01,-554.4 676.01,-554.4 864.76,-554.4 864.76,-554.4 870.76,-554.4 876.76,-560.4 876.76,-566.4 876.76,-566.4 876.76,-585.6 876.76,-585.6 876.76,-591.6 870.76,-597.6 864.76,-597.6"/>
<text text-anchor="middle" x="770.39" y="-568.8" font-family="Times,serif" font-size="24.00">baml_compiler_vir</text>
</g>
<!-- baml_compiler_mir&#45;&gt;baml_compiler_vir -->
<g id="edge15" class="edge">
<title>baml_compiler_mir&#45;&gt;baml_compiler_vir</title>
<path fill="none" stroke="#555555" d="M770.39,-633.1C770.39,-626.38 770.39,-618.76 770.39,-611.35"/>
<polygon fill="#555555" stroke="#555555" points="774.59,-611.58 770.39,-599.58 766.19,-611.58 774.59,-611.58"/>
</g>
<!-- baml_builtins -->
<g id="node23" class="node">
<title>baml_builtins</title>
<path fill="#87ceeb" stroke="black" d="M1005.79,-439.2C1005.79,-439.2 868.99,-439.2 868.99,-439.2 862.99,-439.2 856.99,-433.2 856.99,-427.2 856.99,-427.2 856.99,-408 856.99,-408 856.99,-402 862.99,-396 868.99,-396 868.99,-396 1005.79,-396 1005.79,-396 1011.79,-396 1017.79,-402 1017.79,-408 1017.79,-408 1017.79,-427.2 1017.79,-427.2 1017.79,-433.2 1011.79,-439.2 1005.79,-439.2"/>
<text text-anchor="middle" x="937.39" y="-410.4" font-family="Times,serif" font-size="24.00">baml_builtins</text>
</g>
<!-- baml_vm_types&#45;&gt;baml_builtins -->
<g id="edge45" class="edge">
<title>baml_vm_types&#45;&gt;baml_builtins</title>
<path fill="none" stroke="#555555" d="M1033.98,-633.29C1015.52,-592.25 974.4,-500.86 952.23,-451.59"/>
<polygon fill="#555555" stroke="#555555" points="956.15,-450.06 947.4,-440.84 948.49,-453.51 956.15,-450.06"/>
</g>
<!-- baml_base -->
<g id="node32" class="node">
<title>baml_base</title>
<path fill="#c3e6cb" stroke="black" d="M1123.1,-122.4C1123.1,-122.4 1015.67,-122.4 1015.67,-122.4 1009.67,-122.4 1003.67,-116.4 1003.67,-110.4 1003.67,-110.4 1003.67,-91.2 1003.67,-91.2 1003.67,-85.2 1009.67,-79.2 1015.67,-79.2 1015.67,-79.2 1123.1,-79.2 1123.1,-79.2 1129.1,-79.2 1135.1,-85.2 1135.1,-91.2 1135.1,-91.2 1135.1,-110.4 1135.1,-110.4 1135.1,-116.4 1129.1,-122.4 1123.1,-122.4"/>
<text text-anchor="middle" x="1069.39" y="-93.6" font-family="Times,serif" font-size="24.00">baml_base</text>
</g>
<!-- baml_vm_types&#45;&gt;baml_base -->
<g id="edge44" class="edge">
<title>baml_vm_types&#45;&gt;baml_base</title>
<path fill="none" stroke="#555555" d="M1054.26,-633.6C1068.7,-604.28 1092.39,-548.45 1092.39,-497.8 1092.39,-497.8 1092.39,-497.8 1092.39,-258.2 1092.39,-215.53 1083.9,-166.99 1077.24,-135.46"/>
<polygon fill="#555555" stroke="#555555" points="1081.43,-134.96 1074.76,-124.13 1073.22,-136.75 1081.43,-134.96"/>
</g>
<!-- baml_compiler_tir -->
<g id="node22" class="node">
<title>baml_compiler_tir</title>
<path fill="#82c99a" stroke="black" d="M862.1,-518.4C862.1,-518.4 678.68,-518.4 678.68,-518.4 672.68,-518.4 666.68,-512.4 666.68,-506.4 666.68,-506.4 666.68,-487.2 666.68,-487.2 666.68,-481.2 672.68,-475.2 678.68,-475.2 678.68,-475.2 862.1,-475.2 862.1,-475.2 868.1,-475.2 874.1,-481.2 874.1,-487.2 874.1,-487.2 874.1,-506.4 874.1,-506.4 874.1,-512.4 868.1,-518.4 862.1,-518.4"/>
<text text-anchor="middle" x="770.39" y="-489.6" font-family="Times,serif" font-size="24.00">baml_compiler_tir</text>
</g>
<!-- baml_compiler_vir&#45;&gt;baml_compiler_tir -->
<g id="edge23" class="edge">
<title>baml_compiler_vir&#45;&gt;baml_compiler_tir</title>
<path fill="none" stroke="#555555" d="M770.39,-553.9C770.39,-547.18 770.39,-539.56 770.39,-532.15"/>
<polygon fill="#555555" stroke="#555555" points="774.59,-532.38 770.39,-520.38 766.19,-532.38 774.59,-532.38"/>
</g>
<!-- baml_compiler_tir&#45;&gt;baml_builtins -->
<g id="edge21" class="edge">
<title>baml_compiler_tir&#45;&gt;baml_builtins</title>
<path fill="none" stroke="#555555" d="M816.02,-474.7C835.63,-465.64 858.77,-454.94 879.56,-445.33"/>
<polygon fill="#555555" stroke="#555555" points="881.31,-449.15 890.44,-440.3 877.78,-441.53 881.31,-449.15"/>
</g>
<!-- baml_compiler_hir -->
<g id="node24" class="node">
<title>baml_compiler_hir</title>
<path fill="#82c99a" stroke="black" d="M794.76,-439.2C794.76,-439.2 606.01,-439.2 606.01,-439.2 600.01,-439.2 594.01,-433.2 594.01,-427.2 594.01,-427.2 594.01,-408 594.01,-408 594.01,-402 600.01,-396 606.01,-396 606.01,-396 794.76,-396 794.76,-396 800.76,-396 806.76,-402 806.76,-408 806.76,-408 806.76,-427.2 806.76,-427.2 806.76,-433.2 800.76,-439.2 794.76,-439.2"/>
<text text-anchor="middle" x="700.39" y="-410.4" font-family="Times,serif" font-size="24.00">baml_compiler_hir</text>
</g>
<!-- baml_compiler_tir&#45;&gt;baml_compiler_hir -->
<g id="edge22" class="edge">
<title>baml_compiler_tir&#45;&gt;baml_compiler_hir</title>
<path fill="none" stroke="#555555" d="M751.26,-474.7C744.24,-466.96 736.14,-458.02 728.49,-449.59"/>
<polygon fill="#555555" stroke="#555555" points="731.68,-446.86 720.51,-440.79 725.46,-452.5 731.68,-446.86"/>
</g>
<!-- baml_builtins_macros -->
<g id="node25" class="node">
<title>baml_builtins_macros</title>
<path fill="#87ceeb" stroke="black" d="M1046.44,-360C1046.44,-360 828.34,-360 828.34,-360 822.34,-360 816.34,-354 816.34,-348 816.34,-348 816.34,-328.8 816.34,-328.8 816.34,-322.8 822.34,-316.8 828.34,-316.8 828.34,-316.8 1046.44,-316.8 1046.44,-316.8 1052.44,-316.8 1058.44,-322.8 1058.44,-328.8 1058.44,-328.8 1058.44,-348 1058.44,-348 1058.44,-354 1052.44,-360 1046.44,-360"/>
<text text-anchor="middle" x="937.39" y="-331.2" font-family="Times,serif" font-size="24.00">baml_builtins_macros</text>
</g>
<!-- baml_builtins&#45;&gt;baml_builtins_macros -->
<g id="edge8" class="edge">
<title>baml_builtins&#45;&gt;baml_builtins_macros</title>
<path fill="none" stroke="#555555" d="M937.39,-395.5C937.39,-388.78 937.39,-381.16 937.39,-373.75"/>
<polygon fill="#555555" stroke="#555555" points="941.59,-373.98 937.39,-361.98 933.19,-373.98 941.59,-373.98"/>
</g>
<!-- baml_compiler_parser -->
<g id="node26" class="node">
<title>baml_compiler_parser</title>
<path fill="#82c99a" stroke="black" d="M782.75,-360C782.75,-360 562.03,-360 562.03,-360 556.03,-360 550.03,-354 550.03,-348 550.03,-348 550.03,-328.8 550.03,-328.8 550.03,-322.8 556.03,-316.8 562.03,-316.8 562.03,-316.8 782.75,-316.8 782.75,-316.8 788.75,-316.8 794.75,-322.8 794.75,-328.8 794.75,-328.8 794.75,-348 794.75,-348 794.75,-354 788.75,-360 782.75,-360"/>
<text text-anchor="middle" x="672.39" y="-331.2" font-family="Times,serif" font-size="24.00">baml_compiler_parser</text>
</g>
<!-- baml_compiler_hir&#45;&gt;baml_compiler_parser -->
<g id="edge13" class="edge">
<title>baml_compiler_hir&#45;&gt;baml_compiler_parser</title>
<path fill="none" stroke="#555555" d="M692.74,-395.5C690.21,-388.53 687.32,-380.58 684.54,-372.91"/>
<polygon fill="#555555" stroke="#555555" points="688.59,-371.74 680.55,-361.89 680.69,-374.61 688.59,-371.74"/>
</g>
<!-- baml_compiler_diagnostics -->
<g id="node27" class="node">
<title>baml_compiler_diagnostics</title>
<path fill="#82c99a" stroke="black" d="M1408.43,-280.8C1408.43,-280.8 1138.35,-280.8 1138.35,-280.8 1132.35,-280.8 1126.35,-274.8 1126.35,-268.8 1126.35,-268.8 1126.35,-249.6 1126.35,-249.6 1126.35,-243.6 1132.35,-237.6 1138.35,-237.6 1138.35,-237.6 1408.43,-237.6 1408.43,-237.6 1414.43,-237.6 1420.43,-243.6 1420.43,-249.6 1420.43,-249.6 1420.43,-268.8 1420.43,-268.8 1420.43,-274.8 1414.43,-280.8 1408.43,-280.8"/>
<text text-anchor="middle" x="1273.39" y="-252" font-family="Times,serif" font-size="24.00">baml_compiler_diagnostics</text>
</g>
<!-- baml_compiler_parser&#45;&gt;baml_compiler_diagnostics -->
<g id="edge16" class="edge">
<title>baml_compiler_parser&#45;&gt;baml_compiler_diagnostics</title>
<path fill="none" stroke="#555555" d="M795.2,-318.23C798.63,-317.74 802.03,-317.26 805.39,-316.8 907.49,-302.72 1022.39,-288.8 1112.79,-278.28"/>
<polygon fill="#555555" stroke="#555555" points="1113,-282.49 1124.44,-276.93 1112.03,-274.14 1113,-282.49"/>
</g>
<!-- baml_compiler_lexer -->
<g id="node28" class="node">
<title>baml_compiler_lexer</title>
<path fill="#82c99a" stroke="black" d="M776.42,-280.8C776.42,-280.8 566.36,-280.8 566.36,-280.8 560.36,-280.8 554.36,-274.8 554.36,-268.8 554.36,-268.8 554.36,-249.6 554.36,-249.6 554.36,-243.6 560.36,-237.6 566.36,-237.6 566.36,-237.6 776.42,-237.6 776.42,-237.6 782.42,-237.6 788.42,-243.6 788.42,-249.6 788.42,-249.6 788.42,-268.8 788.42,-268.8 788.42,-274.8 782.42,-280.8 776.42,-280.8"/>
<text text-anchor="middle" x="671.39" y="-252" font-family="Times,serif" font-size="24.00">baml_compiler_lexer</text>
</g>
<!-- baml_compiler_parser&#45;&gt;baml_compiler_lexer -->
<g id="edge17" class="edge">
<title>baml_compiler_parser&#45;&gt;baml_compiler_lexer</title>
<path fill="none" stroke="#555555" d="M672.12,-316.3C672.03,-309.58 671.93,-301.96 671.83,-294.55"/>
<polygon fill="#555555" stroke="#555555" points="676.04,-294.73 671.68,-282.78 667.64,-294.84 676.04,-294.73"/>
</g>
<!-- baml_compiler_syntax -->
<g id="node29" class="node">
<title>baml_compiler_syntax</title>
<path fill="#82c99a" stroke="black" d="M1046.76,-280.8C1046.76,-280.8 822.01,-280.8 822.01,-280.8 816.01,-280.8 810.01,-274.8 810.01,-268.8 810.01,-268.8 810.01,-249.6 810.01,-249.6 810.01,-243.6 816.01,-237.6 822.01,-237.6 822.01,-237.6 1046.76,-237.6 1046.76,-237.6 1052.76,-237.6 1058.76,-243.6 1058.76,-249.6 1058.76,-249.6 1058.76,-268.8 1058.76,-268.8 1058.76,-274.8 1052.76,-280.8 1046.76,-280.8"/>
<text text-anchor="middle" x="934.39" y="-252" font-family="Times,serif" font-size="24.00">baml_compiler_syntax</text>
</g>
<!-- baml_compiler_parser&#45;&gt;baml_compiler_syntax -->
<g id="edge18" class="edge">
<title>baml_compiler_parser&#45;&gt;baml_compiler_syntax</title>
<path fill="none" stroke="#555555" d="M743.98,-316.3C776.76,-306.65 815.84,-295.13 850.04,-285.05"/>
<polygon fill="#555555" stroke="#555555" points="851.11,-289.12 861.43,-281.7 848.73,-281.06 851.11,-289.12"/>
</g>
<!-- baml_workspace -->
<g id="node30" class="node">
<title>baml_workspace</title>
<path fill="#e6d5f2" stroke="black" d="M1331.09,-201.6C1331.09,-201.6 1163.68,-201.6 1163.68,-201.6 1157.68,-201.6 1151.68,-195.6 1151.68,-189.6 1151.68,-189.6 1151.68,-170.4 1151.68,-170.4 1151.68,-164.4 1157.68,-158.4 1163.68,-158.4 1163.68,-158.4 1331.09,-158.4 1331.09,-158.4 1337.09,-158.4 1343.09,-164.4 1343.09,-170.4 1343.09,-170.4 1343.09,-189.6 1343.09,-189.6 1343.09,-195.6 1337.09,-201.6 1331.09,-201.6"/>
<text text-anchor="middle" x="1247.39" y="-172.8" font-family="Times,serif" font-size="24.00">baml_workspace</text>
</g>
<!-- baml_compiler_diagnostics&#45;&gt;baml_workspace -->
<g id="edge10" class="edge">
<title>baml_compiler_diagnostics&#45;&gt;baml_workspace</title>
<path fill="none" stroke="#555555" d="M1266.28,-237.1C1263.96,-230.21 1261.32,-222.37 1258.77,-214.79"/>
<polygon fill="#555555" stroke="#555555" points="1262.78,-213.54 1254.97,-203.5 1254.82,-216.22 1262.78,-213.54"/>
</g>
<!-- baml_compiler_lexer&#45;&gt;baml_base -->
<g id="edge14" class="edge">
<title>baml_compiler_lexer&#45;&gt;baml_base</title>
<path fill="none" stroke="#555555" d="M710.44,-237.17C751.64,-215.53 818.86,-181.77 879.39,-158.4 915.26,-144.55 956.01,-132.01 990.55,-122.27"/>
<polygon fill="#555555" stroke="#555555" points="991.57,-126.35 1002,-119.09 989.32,-118.26 991.57,-126.35"/>
</g>
<!-- rowan -->
<g id="node31" class="node">
<title>rowan</title>
<path fill="white" stroke="black" d="M966.78,-201.6C966.78,-201.6 902,-201.6 902,-201.6 896,-201.6 890,-195.6 890,-189.6 890,-189.6 890,-170.4 890,-170.4 890,-164.4 896,-158.4 902,-158.4 902,-158.4 966.78,-158.4 966.78,-158.4 972.78,-158.4 978.78,-164.4 978.78,-170.4 978.78,-170.4 978.78,-189.6 978.78,-189.6 978.78,-195.6 972.78,-201.6 966.78,-201.6"/>
<text text-anchor="middle" x="934.39" y="-172.8" font-family="Times,serif" font-size="24.00">rowan</text>
</g>
<!-- baml_compiler_syntax&#45;&gt;rowan -->
<g id="edge20" class="edge">
<title>baml_compiler_syntax&#45;&gt;rowan</title>
<path fill="none" stroke="#555555" d="M934.39,-237.1C934.39,-230.38 934.39,-222.76 934.39,-215.35"/>
<polygon fill="#555555" stroke="#555555" points="938.59,-215.58 934.39,-203.58 930.19,-215.58 938.59,-215.58"/>
</g>
<!-- baml_compiler_syntax&#45;&gt;baml_base -->
<g id="edge19" class="edge">
<title>baml_compiler_syntax&#45;&gt;baml_base</title>
<path fill="none" stroke="#555555" d="M955.77,-237.16C966.16,-226.69 978.69,-213.72 989.39,-201.6 1009.02,-179.37 1029.93,-153.18 1045.46,-133.21"/>
<polygon fill="#555555" stroke="#555555" points="1048.77,-135.79 1052.78,-123.73 1042.12,-130.66 1048.77,-135.79"/>
</g>
<!-- baml_workspace&#45;&gt;baml_base -->
<g id="edge46" class="edge">
<title>baml_workspace&#45;&gt;baml_base</title>
<path fill="none" stroke="#555555" d="M1198.75,-157.9C1177.56,-148.71 1152.49,-137.84 1130.1,-128.13"/>
<polygon fill="#555555" stroke="#555555" points="1132.04,-124.39 1119.36,-123.47 1128.7,-132.1 1132.04,-124.39"/>
</g>
<!-- salsa -->
<g id="node33" class="node">
<title>salsa</title>
<path fill="white" stroke="black" d="M1095.11,-43.2C1095.11,-43.2 1043.66,-43.2 1043.66,-43.2 1037.66,-43.2 1031.66,-37.2 1031.66,-31.2 1031.66,-31.2 1031.66,-12 1031.66,-12 1031.66,-6 1037.66,0 1043.66,0 1043.66,0 1095.11,0 1095.11,0 1101.11,0 1107.11,-6 1107.11,-12 1107.11,-12 1107.11,-31.2 1107.11,-31.2 1107.11,-37.2 1101.11,-43.2 1095.11,-43.2"/>
<text text-anchor="middle" x="1069.39" y="-14.4" font-family="Times,serif" font-size="24.00">salsa</text>
</g>
<!-- baml_base&#45;&gt;salsa -->
<g id="edge7" class="edge">
<title>baml_base&#45;&gt;salsa</title>
<path fill="none" stroke="#555555" d="M1069.39,-78.7C1069.39,-71.98 1069.39,-64.36 1069.39,-56.95"/>
<polygon fill="#555555" stroke="#555555" points="1073.59,-57.18 1069.39,-45.18 1065.19,-57.18 1073.59,-57.18"/>
</g>
</g>
</svg>
