<?xml version="1.0" encoding="UTF-8" standalone="no"?>
<!DOCTYPE svg PUBLIC "-//W3C//DTD SVG 1.1//EN"
 "http://www.w3.org/Graphics/SVG/1.1/DTD/svg11.dtd">
<!-- Generated by graphviz version 14.1.1 (20251213.1925)
 -->
<!-- Title: dependencies Pages: 1 -->
<svg width="881pt" height="1415pt"
 viewBox="0.00 0.00 881.00 1415.00" xmlns="http://www.w3.org/2000/svg" xmlns:xlink="http://www.w3.org/1999/xlink">
<g id="graph0" class="graph" transform="scale(1 1) rotate(0) translate(4 1411)">
<title>dependencies</title>
<polygon fill="#f8f9fa" stroke="none" points="-4,4 -4,-1411 877,-1411 877,4 -4,4"/>
<g id="clust1" class="cluster">
<title>cluster_baml</title>
<path fill="#e4cdcd" stroke="#971a1a" stroke-width="2" d="M330,-8C330,-8 853,-8 853,-8 859,-8 865,-14 865,-20 865,-20 865,-1387 865,-1387 865,-1393 859,-1399 853,-1399 853,-1399 330,-1399 330,-1399 324,-1399 318,-1393 318,-1387 318,-1387 318,-20 318,-20 318,-14 324,-8 330,-8"/>
<text xml:space="preserve" text-anchor="middle" x="591.5" y="-1381.7" font-family="Helvetica Bold" font-size="14.00">baml</text>
</g>
<g id="clust2" class="cluster">
<title>cluster_bex</title>
<path fill="#cde4cd" stroke="#1a971a" stroke-width="2" d="M66,-478C66,-478 251,-478 251,-478 257,-478 263,-484 263,-490 263,-490 263,-823 263,-823 263,-829 257,-835 251,-835 251,-835 66,-835 66,-835 60,-835 54,-829 54,-823 54,-823 54,-490 54,-490 54,-484 60,-478 66,-478"/>
<text xml:space="preserve" text-anchor="middle" x="158.5" y="-817.7" font-family="Helvetica Bold" font-size="14.00">bex</text>
</g>
<g id="clust3" class="cluster">
<title>cluster_tools</title>
<path fill="#cdcde4" stroke="#1a1a97" stroke-width="2" d="M20,-1042C20,-1042 298,-1042 298,-1042 304,-1042 310,-1048 310,-1054 310,-1054 310,-1199 310,-1199 310,-1205 304,-1211 298,-1211 298,-1211 20,-1211 20,-1211 14,-1211 8,-1205 8,-1199 8,-1199 8,-1054 8,-1054 8,-1048 14,-1042 20,-1042"/>
<text xml:space="preserve" text-anchor="middle" x="159" y="-1193.7" font-family="Helvetica Bold" font-size="14.00">tools</text>
</g>
<!-- baml_base -->
<g id="node1" class="node">
<title>baml_base</title>
<polygon fill="#e4cdcd" stroke="#971a1a" stroke-width="2" points="605.25,-146 536.75,-146 536.75,-110 605.25,-110 605.25,-146"/>
<text xml:space="preserve" text-anchor="middle" x="571" y="-123.55" font-family="Helvetica,sans-Serif" font-size="11.00">baml_base</text>
</g>
<!-- baml_salsa -->
<g id="node27" class="node">
<title>baml_salsa</title>
<polygon fill="#d0d0d0" stroke="#606060" stroke-width="2" points="598,-52 544,-52 544,-16 598,-16 598,-52"/>
<text xml:space="preserve" text-anchor="middle" x="571" y="-29.55" font-family="Helvetica,sans-Serif" font-size="11.00">salsa</text>
</g>
<!-- baml_base&#45;&gt;baml_salsa -->
<g id="edge1" class="edge">
<title>baml_base&#45;&gt;baml_salsa</title>
<path fill="none" stroke="#444444" d="M571,-109.43C571,-109.43 571,-61.37 571,-61.37"/>
<polygon fill="#444444" stroke="#444444" points="573.45,-61.37 571,-54.37 568.55,-61.37 573.45,-61.37"/>
</g>
<!-- baml_builtins -->
<g id="node2" class="node">
<title>baml_builtins</title>
<polygon fill="#e4cdcd" stroke="#971a1a" stroke-width="2" points="437.12,-522 358.88,-522 358.88,-486 437.12,-486 437.12,-522"/>
<text xml:space="preserve" text-anchor="middle" x="398" y="-499.55" font-family="Helvetica,sans-Serif" font-size="11.00">baml_builtins</text>
</g>
<!-- baml_builtins_macros -->
<g id="node3" class="node">
<title>baml_builtins_macros</title>
<polygon fill="#df9fd2" stroke="#971a1a" stroke-width="2" points="457.75,-428 338.25,-428 338.25,-392 457.75,-392 457.75,-428"/>
<text xml:space="preserve" text-anchor="middle" x="398" y="-405.55" font-family="Helvetica,sans-Serif" font-size="11.00">baml_builtins_macros</text>
</g>
<!-- baml_builtins&#45;&gt;baml_builtins_macros -->
<g id="edge2" class="edge">
<title>baml_builtins&#45;&gt;baml_builtins_macros</title>
<path fill="none" stroke="#444444" d="M398,-485.43C398,-485.43 398,-437.37 398,-437.37"/>
<polygon fill="#444444" stroke="#444444" points="400.45,-437.37 398,-430.37 395.55,-437.37 400.45,-437.37"/>
</g>
<!-- baml_cli -->
<g id="node4" class="node">
<title>baml_cli</title>
<polygon fill="#e4cdcd" stroke="#971a1a" stroke-width="2" points="722.5,-1368 667.5,-1368 667.5,-1332 722.5,-1332 722.5,-1368"/>
<text xml:space="preserve" text-anchor="middle" x="695" y="-1345.55" font-family="Helvetica,sans-Serif" font-size="11.00">baml_cli</text>
</g>
<!-- baml_lsp -->
<g id="node18" class="node">
<title>baml_lsp</title>
<polygon fill="#e4cdcd" stroke="#971a1a" stroke-width="2" points="678.38,-1274 619.62,-1274 619.62,-1238 678.38,-1238 678.38,-1274"/>
<text xml:space="preserve" text-anchor="middle" x="649" y="-1251.55" font-family="Helvetica,sans-Serif" font-size="11.00">baml_lsp</text>
</g>
<!-- baml_cli&#45;&gt;baml_lsp -->
<g id="edge3" class="edge">
<title>baml_cli&#45;&gt;baml_lsp</title>
<path fill="none" stroke="#444444" d="M672.94,-1331.43C672.94,-1331.43 672.94,-1283.37 672.94,-1283.37"/>
<polygon fill="#444444" stroke="#444444" points="675.39,-1283.37 672.94,-1276.37 670.49,-1283.37 675.39,-1283.37"/>
</g>
<!-- baml_clap -->
<g id="node25" class="node">
<title>baml_clap</title>
<polygon fill="#d0d0d0" stroke="#606060" stroke-width="2" points="768,-1274 714,-1274 714,-1238 768,-1238 768,-1274"/>
<text xml:space="preserve" text-anchor="middle" x="741" y="-1251.55" font-family="Helvetica,sans-Serif" font-size="11.00">clap</text>
</g>
<!-- baml_cli&#45;&gt;baml_clap -->
<g id="edge4" class="edge">
<title>baml_cli&#45;&gt;baml_clap</title>
<path fill="none" stroke="#444444" d="M718.25,-1331.43C718.25,-1331.43 718.25,-1283.37 718.25,-1283.37"/>
<polygon fill="#444444" stroke="#444444" points="720.7,-1283.37 718.25,-1276.37 715.8,-1283.37 720.7,-1283.37"/>
</g>
<!-- baml_codegen_python -->
<g id="node5" class="node">
<title>baml_codegen_python</title>
<polygon fill="#9fdfde" stroke="#971a1a" stroke-width="2" points="450.38,-334 325.62,-334 325.62,-298 450.38,-298 450.38,-334"/>
<text xml:space="preserve" text-anchor="middle" x="388" y="-311.55" font-family="Helvetica,sans-Serif" font-size="11.00">baml_codegen_python</text>
</g>
<!-- baml_codegen_types -->
<g id="node6" class="node">
<title>baml_codegen_types</title>
<polygon fill="#9fdfde" stroke="#971a1a" stroke-width="2" points="444,-240 326,-240 326,-204 444,-204 444,-240"/>
<text xml:space="preserve" text-anchor="middle" x="385" y="-217.55" font-family="Helvetica,sans-Serif" font-size="11.00">baml_codegen_types</text>
</g>
<!-- baml_codegen_python&#45;&gt;baml_codegen_types -->
<g id="edge5" class="edge">
<title>baml_codegen_python&#45;&gt;baml_codegen_types</title>
<path fill="none" stroke="#444444" d="M385,-297.43C385,-297.43 385,-249.37 385,-249.37"/>
<polygon fill="#444444" stroke="#444444" points="387.45,-249.37 385,-242.37 382.55,-249.37 387.45,-249.37"/>
</g>
<!-- baml_codegen_types&#45;&gt;baml_base -->
<g id="edge6" class="edge">
<title>baml_codegen_types&#45;&gt;baml_base</title>
<path fill="none" stroke="#444444" d="M385,-203.34C385,-177.51 385,-134 385,-134 385,-134 527.5,-134 527.5,-134"/>
<polygon fill="#444444" stroke="#444444" points="527.5,-136.45 534.5,-134 527.5,-131.55 527.5,-136.45"/>
</g>
<!-- baml_compiler_diagnostics -->
<g id="node7" class="node">
<title>baml_compiler_diagnostics</title>
<polygon fill="#9fdfa6" stroke="#971a1a" stroke-width="2" points="852.5,-334 707.5,-334 707.5,-298 852.5,-298 852.5,-334"/>
<text xml:space="preserve" text-anchor="middle" x="780" y="-311.55" font-family="Helvetica,sans-Serif" font-size="11.00">baml_compiler_diagnostics</text>
</g>
<!-- baml_workspace -->
<g id="node23" class="node">
<title>baml_workspace</title>
<polygon fill="#e4cdcd" stroke="#971a1a" stroke-width="2" points="856.5,-240 759.5,-240 759.5,-204 856.5,-204 856.5,-240"/>
<text xml:space="preserve" text-anchor="middle" x="808" y="-217.55" font-family="Helvetica,sans-Serif" font-size="11.00">baml_workspace</text>
</g>
<!-- baml_compiler_diagnostics&#45;&gt;baml_workspace -->
<g id="edge7" class="edge">
<title>baml_compiler_diagnostics&#45;&gt;baml_workspace</title>
<path fill="none" stroke="#444444" d="M806,-297.43C806,-297.43 806,-249.37 806,-249.37"/>
<polygon fill="#444444" stroke="#444444" points="808.45,-249.37 806,-242.37 803.55,-249.37 808.45,-249.37"/>
</g>
<!-- baml_compiler_emit -->
<g id="node8" class="node">
<title>baml_compiler_emit</title>
<polygon fill="#9fdfa6" stroke="#971a1a" stroke-width="2" points="438,-898 326,-898 326,-862 438,-862 438,-898"/>
<text xml:space="preserve" text-anchor="middle" x="382" y="-875.55" font-family="Helvetica,sans-Serif" font-size="11.00">baml_compiler_emit</text>
</g>
<!-- baml_compiler_mir -->
<g id="node11" class="node">
<title>baml_compiler_mir</title>
<polygon fill="#9fdfa6" stroke="#971a1a" stroke-width="2" points="470.38,-804 363.62,-804 363.62,-768 470.38,-768 470.38,-804"/>
<text xml:space="preserve" text-anchor="middle" x="417" y="-781.55" font-family="Helvetica,sans-Serif" font-size="11.00">baml_compiler_mir</text>
</g>
<!-- baml_compiler_emit&#45;&gt;baml_compiler_mir -->
<g id="edge8" class="edge">
<title>baml_compiler_emit&#45;&gt;baml_compiler_mir</title>
<path fill="none" stroke="#444444" d="M400.81,-861.43C400.81,-861.43 400.81,-813.37 400.81,-813.37"/>
<polygon fill="#444444" stroke="#444444" points="403.26,-813.37 400.81,-806.37 398.36,-813.37 403.26,-813.37"/>
</g>
<!-- bex_vm_types -->
<g id="node35" class="node">
<title>bex_vm_types</title>
<polygon fill="#9fdfd1" stroke="#1a971a" stroke-width="2" points="254.5,-804 169.5,-804 169.5,-768 254.5,-768 254.5,-804"/>
<text xml:space="preserve" text-anchor="middle" x="212" y="-781.55" font-family="Helvetica,sans-Serif" font-size="11.00">bex_vm_types</text>
</g>
<!-- baml_compiler_emit&#45;&gt;bex_vm_types -->
<g id="edge9" class="edge">
<title>baml_compiler_emit&#45;&gt;bex_vm_types</title>
<path fill="none" stroke="#666666" stroke-width="1.5" stroke-dasharray="5,2" d="M332.12,-861.43C332.12,-834.03 332.12,-786 332.12,-786 332.12,-786 264.64,-786 264.64,-786"/>
<polygon fill="#666666" stroke="#666666" stroke-width="1.5" points="264.64,-783.55 257.64,-786 264.64,-788.45 264.64,-783.55"/>
</g>
<!-- baml_compiler_hir -->
<g id="node9" class="node">
<title>baml_compiler_hir</title>
<polygon fill="#9fdfa6" stroke="#971a1a" stroke-width="2" points="597.88,-522 494.12,-522 494.12,-486 597.88,-486 597.88,-522"/>
<text xml:space="preserve" text-anchor="middle" x="546" y="-499.55" font-family="Helvetica,sans-Serif" font-size="11.00">baml_compiler_hir</text>
</g>
<!-- baml_compiler_parser -->
<g id="node12" class="node">
<title>baml_compiler_parser</title>
<polygon fill="#9fdfa6" stroke="#971a1a" stroke-width="2" points="678.25,-428 555.75,-428 555.75,-392 678.25,-392 678.25,-428"/>
<text xml:space="preserve" text-anchor="middle" x="617" y="-405.55" font-family="Helvetica,sans-Serif" font-size="11.00">baml_compiler_parser</text>
</g>
<!-- baml_compiler_hir&#45;&gt;baml_compiler_parser -->
<g id="edge10" class="edge">
<title>baml_compiler_hir&#45;&gt;baml_compiler_parser</title>
<path fill="none" stroke="#444444" d="M576.81,-485.43C576.81,-485.43 576.81,-437.37 576.81,-437.37"/>
<polygon fill="#444444" stroke="#444444" points="579.26,-437.37 576.81,-430.37 574.36,-437.37 579.26,-437.37"/>
</g>
<!-- baml_compiler_lexer -->
<g id="node10" class="node">
<title>baml_compiler_lexer</title>
<polygon fill="#9fdfa6" stroke="#971a1a" stroke-width="2" points="723.5,-240 608.5,-240 608.5,-204 723.5,-204 723.5,-240"/>
<text xml:space="preserve" text-anchor="middle" x="666" y="-217.55" font-family="Helvetica,sans-Serif" font-size="11.00">baml_compiler_lexer</text>
</g>
<!-- baml_compiler_lexer&#45;&gt;baml_base -->
<g id="edge11" class="edge">
<title>baml_compiler_lexer&#45;&gt;baml_base</title>
<path fill="none" stroke="#444444" d="M607.95,-222C593.69,-222 582.42,-222 582.42,-222 582.42,-222 582.42,-155.08 582.42,-155.08"/>
<polygon fill="#444444" stroke="#444444" points="584.87,-155.08 582.42,-148.08 579.97,-155.08 584.87,-155.08"/>
</g>
<!-- baml_compiler_vir -->
<g id="node15" class="node">
<title>baml_compiler_vir</title>
<polygon fill="#9fdfa6" stroke="#971a1a" stroke-width="2" points="503.5,-710 400.5,-710 400.5,-674 503.5,-674 503.5,-710"/>
<text xml:space="preserve" text-anchor="middle" x="452" y="-687.55" font-family="Helvetica,sans-Serif" font-size="11.00">baml_compiler_vir</text>
</g>
<!-- baml_compiler_mir&#45;&gt;baml_compiler_vir -->
<g id="edge12" class="edge">
<title>baml_compiler_mir&#45;&gt;baml_compiler_vir</title>
<path fill="none" stroke="#444444" d="M435.44,-767.43C435.44,-767.43 435.44,-719.37 435.44,-719.37"/>
<polygon fill="#444444" stroke="#444444" points="437.89,-719.37 435.44,-712.37 432.99,-719.37 437.89,-719.37"/>
</g>
<!-- baml_compiler_parser&#45;&gt;baml_compiler_diagnostics -->
<g id="edge13" class="edge">
<title>baml_compiler_parser&#45;&gt;baml_compiler_diagnostics</title>
<path fill="none" stroke="#444444" d="M679.14,-410C698.2,-410 714.25,-410 714.25,-410 714.25,-410 714.25,-343.08 714.25,-343.08"/>
<polygon fill="#444444" stroke="#444444" points="716.7,-343.08 714.25,-336.08 711.8,-343.08 716.7,-343.08"/>
</g>
<!-- baml_compiler_parser&#45;&gt;baml_compiler_lexer -->
<g id="edge14" class="edge">
<title>baml_compiler_parser&#45;&gt;baml_compiler_lexer</title>
<path fill="none" stroke="#444444" d="M653.75,-391.29C653.75,-391.29 653.75,-249.43 653.75,-249.43"/>
<polygon fill="#444444" stroke="#444444" points="656.2,-249.43 653.75,-242.43 651.3,-249.43 656.2,-249.43"/>
</g>
<!-- baml_compiler_syntax -->
<g id="node13" class="node">
<title>baml_compiler_syntax</title>
<polygon fill="#9fdfa6" stroke="#971a1a" stroke-width="2" points="629.25,-334 506.75,-334 506.75,-298 629.25,-298 629.25,-334"/>
<text xml:space="preserve" text-anchor="middle" x="568" y="-311.55" font-family="Helvetica,sans-Serif" font-size="11.00">baml_compiler_syntax</text>
</g>
<!-- baml_compiler_parser&#45;&gt;baml_compiler_syntax -->
<g id="edge15" class="edge">
<title>baml_compiler_parser&#45;&gt;baml_compiler_syntax</title>
<path fill="none" stroke="#444444" d="M592.5,-391.43C592.5,-391.43 592.5,-343.37 592.5,-343.37"/>
<polygon fill="#444444" stroke="#444444" points="594.95,-343.37 592.5,-336.37 590.05,-343.37 594.95,-343.37"/>
</g>
<!-- baml_compiler_syntax&#45;&gt;baml_base -->
<g id="edge16" class="edge">
<title>baml_compiler_syntax&#45;&gt;baml_base</title>
<path fill="none" stroke="#444444" d="M559.58,-297.29C559.58,-297.29 559.58,-155.43 559.58,-155.43"/>
<polygon fill="#444444" stroke="#444444" points="562.03,-155.43 559.58,-148.43 557.13,-155.43 562.03,-155.43"/>
</g>
<!-- baml_rowan -->
<g id="node26" class="node">
<title>baml_rowan</title>
<polygon fill="#d0d0d0" stroke="#606060" stroke-width="2" points="534,-240 480,-240 480,-204 534,-204 534,-240"/>
<text xml:space="preserve" text-anchor="middle" x="507" y="-217.55" font-family="Helvetica,sans-Serif" font-size="11.00">rowan</text>
</g>
<!-- baml_compiler_syntax&#45;&gt;baml_rowan -->
<g id="edge17" class="edge">
<title>baml_compiler_syntax&#45;&gt;baml_rowan</title>
<path fill="none" stroke="#444444" d="M520.38,-297.43C520.38,-297.43 520.38,-249.37 520.38,-249.37"/>
<polygon fill="#444444" stroke="#444444" points="522.83,-249.37 520.38,-242.37 517.93,-249.37 522.83,-249.37"/>
</g>
<!-- baml_compiler_tir -->
<g id="node14" class="node">
<title>baml_compiler_tir</title>
<polygon fill="#9fdfa6" stroke="#971a1a" stroke-width="2" points="502.38,-616 401.62,-616 401.62,-580 502.38,-580 502.38,-616"/>
<text xml:space="preserve" text-anchor="middle" x="452" y="-593.55" font-family="Helvetica,sans-Serif" font-size="11.00">baml_compiler_tir</text>
</g>
<!-- baml_compiler_tir&#45;&gt;baml_builtins -->
<g id="edge18" class="edge">
<title>baml_compiler_tir&#45;&gt;baml_builtins</title>
<path fill="none" stroke="#444444" d="M419.38,-579.43C419.38,-579.43 419.38,-531.37 419.38,-531.37"/>
<polygon fill="#444444" stroke="#444444" points="421.83,-531.37 419.38,-524.37 416.93,-531.37 421.83,-531.37"/>
</g>
<!-- baml_compiler_tir&#45;&gt;baml_compiler_hir -->
<g id="edge19" class="edge">
<title>baml_compiler_tir&#45;&gt;baml_compiler_hir</title>
<path fill="none" stroke="#444444" d="M498.25,-579.43C498.25,-579.43 498.25,-531.37 498.25,-531.37"/>
<polygon fill="#444444" stroke="#444444" points="500.7,-531.37 498.25,-524.37 495.8,-531.37 500.7,-531.37"/>
</g>
<!-- baml_compiler_vir&#45;&gt;baml_compiler_tir -->
<g id="edge20" class="edge">
<title>baml_compiler_vir&#45;&gt;baml_compiler_tir</title>
<path fill="none" stroke="#444444" d="M452,-673.43C452,-673.43 452,-625.37 452,-625.37"/>
<polygon fill="#444444" stroke="#444444" points="454.45,-625.37 452,-618.37 449.55,-625.37 454.45,-625.37"/>
</g>
<!-- baml_db -->
<g id="node16" class="node">
<title>baml_db</title>
<polygon fill="#e4cdcd" stroke="#971a1a" stroke-width="2" points="407.62,-992 350.38,-992 350.38,-956 407.62,-956 407.62,-992"/>
<text xml:space="preserve" text-anchor="middle" x="379" y="-969.55" font-family="Helvetica,sans-Serif" font-size="11.00">baml_db</text>
</g>
<!-- baml_db&#45;&gt;baml_compiler_emit -->
<g id="edge21" class="edge">
<title>baml_db&#45;&gt;baml_compiler_emit</title>
<path fill="none" stroke="#444444" d="M379,-955.43C379,-955.43 379,-907.37 379,-907.37"/>
<polygon fill="#444444" stroke="#444444" points="381.45,-907.37 379,-900.37 376.55,-907.37 381.45,-907.37"/>
</g>
<!-- baml_ide -->
<g id="node17" class="node">
<title>baml_ide</title>
<polygon fill="#e4cdcd" stroke="#971a1a" stroke-width="2" points="398.75,-1180 339.25,-1180 339.25,-1144 398.75,-1144 398.75,-1180"/>
<text xml:space="preserve" text-anchor="middle" x="369" y="-1157.55" font-family="Helvetica,sans-Serif" font-size="11.00">baml_ide</text>
</g>
<!-- baml_project -->
<g id="node21" class="node">
<title>baml_project</title>
<polygon fill="#e4cdcd" stroke="#971a1a" stroke-width="2" points="414.75,-1086 337.25,-1086 337.25,-1050 414.75,-1050 414.75,-1086"/>
<text xml:space="preserve" text-anchor="middle" x="376" y="-1063.55" font-family="Helvetica,sans-Serif" font-size="11.00">baml_project</text>
</g>
<!-- baml_ide&#45;&gt;baml_project -->
<g id="edge22" class="edge">
<title>baml_ide&#45;&gt;baml_project</title>
<path fill="none" stroke="#444444" d="M378.92,-1143.43C378.92,-1143.43 378.92,-1095.37 378.92,-1095.37"/>
<polygon fill="#444444" stroke="#444444" points="381.37,-1095.37 378.92,-1088.37 376.47,-1095.37 381.37,-1095.37"/>
</g>
<!-- baml_lsp&#45;&gt;baml_ide -->
<g id="edge23" class="edge">
<title>baml_lsp&#45;&gt;baml_ide</title>
<path fill="none" stroke="#444444" d="M618.77,-1256C546.37,-1256 369,-1256 369,-1256 369,-1256 369,-1189.08 369,-1189.08"/>
<polygon fill="#444444" stroke="#444444" points="371.45,-1189.08 369,-1182.08 366.55,-1189.08 371.45,-1189.08"/>
</g>
<!-- baml_lsp_types -->
<g id="node19" class="node">
<title>baml_lsp_types</title>
<polygon fill="#9fd9df" stroke="#971a1a" stroke-width="2" points="694.12,-1180 603.88,-1180 603.88,-1144 694.12,-1144 694.12,-1180"/>
<text xml:space="preserve" text-anchor="middle" x="649" y="-1157.55" font-family="Helvetica,sans-Serif" font-size="11.00">baml_lsp_types</text>
</g>
<!-- baml_lsp&#45;&gt;baml_lsp_types -->
<g id="edge24" class="edge">
<title>baml_lsp&#45;&gt;baml_lsp_types</title>
<path fill="none" stroke="#444444" d="M649,-1237.43C649,-1237.43 649,-1189.37 649,-1189.37"/>
<polygon fill="#444444" stroke="#444444" points="651.45,-1189.37 649,-1182.37 646.55,-1189.37 651.45,-1189.37"/>
</g>
<!-- baml_tokio -->
<g id="node29" class="node">
<title>baml_tokio</title>
<polygon fill="#d0d0d0" stroke="#606060" stroke-width="2" points="784,-1180 730,-1180 730,-1144 784,-1144 784,-1180"/>
<text xml:space="preserve" text-anchor="middle" x="757" y="-1157.55" font-family="Helvetica,sans-Serif" font-size="11.00">tokio</text>
</g>
<!-- baml_lsp&#45;&gt;baml_tokio -->
<g id="edge25" class="edge">
<title>baml_lsp&#45;&gt;baml_tokio</title>
<path fill="none" stroke="#444444" d="M679.11,-1256C691.96,-1256 704.06,-1256 704.06,-1256 704.06,-1256 704.06,-1162 704.06,-1162 704.06,-1162 720.78,-1162 720.78,-1162"/>
<polygon fill="#444444" stroke="#444444" points="720.78,-1164.45 727.78,-1162 720.78,-1159.55 720.78,-1164.45"/>
</g>
<!-- baml_anyhow -->
<g id="node24" class="node">
<title>baml_anyhow</title>
<polygon fill="#d0d0d0" stroke="#606060" stroke-width="2" points="631,-1086 577,-1086 577,-1050 631,-1050 631,-1086"/>
<text xml:space="preserve" text-anchor="middle" x="604" y="-1063.55" font-family="Helvetica,sans-Serif" font-size="11.00">anyhow</text>
</g>
<!-- baml_lsp_types&#45;&gt;baml_anyhow -->
<g id="edge26" class="edge">
<title>baml_lsp_types&#45;&gt;baml_anyhow</title>
<path fill="none" stroke="#444444" d="M617.44,-1143.43C617.44,-1143.43 617.44,-1095.37 617.44,-1095.37"/>
<polygon fill="#444444" stroke="#444444" points="619.89,-1095.37 617.44,-1088.37 614.99,-1095.37 619.89,-1095.37"/>
</g>
<!-- baml_serde -->
<g id="node28" class="node">
<title>baml_serde</title>
<polygon fill="#d0d0d0" stroke="#606060" stroke-width="2" points="721,-1086 667,-1086 667,-1050 721,-1050 721,-1086"/>
<text xml:space="preserve" text-anchor="middle" x="694" y="-1063.55" font-family="Helvetica,sans-Serif" font-size="11.00">serde</text>
</g>
<!-- baml_lsp_types&#45;&gt;baml_serde -->
<g id="edge27" class="edge">
<title>baml_lsp_types&#45;&gt;baml_serde</title>
<path fill="none" stroke="#444444" d="M680.56,-1143.43C680.56,-1143.43 680.56,-1095.37 680.56,-1095.37"/>
<polygon fill="#444444" stroke="#444444" points="683.01,-1095.37 680.56,-1088.37 678.11,-1095.37 683.01,-1095.37"/>
</g>
<!-- baml_playground_wasm -->
<g id="node20" class="node">
<title>baml_playground_wasm</title>
<polygon fill="#c6df9f" stroke="#971a1a" stroke-width="2" points="567.5,-1180 434.5,-1180 434.5,-1144 567.5,-1144 567.5,-1180"/>
<text xml:space="preserve" text-anchor="middle" x="501" y="-1157.55" font-family="Helvetica,sans-Serif" font-size="11.00">baml_playground_wasm</text>
</g>
<!-- baml_playground_wasm&#45;&gt;baml_project -->
<g id="edge28" class="edge">
<title>baml_playground_wasm&#45;&gt;baml_project</title>
<path fill="none" stroke="#444444" d="M433.62,-1162C418.36,-1162 406.56,-1162 406.56,-1162 406.56,-1162 406.56,-1095.08 406.56,-1095.08"/>
<polygon fill="#444444" stroke="#444444" points="409.01,-1095.08 406.56,-1088.08 404.11,-1095.08 409.01,-1095.08"/>
</g>
<!-- baml_project&#45;&gt;baml_db -->
<g id="edge29" class="edge">
<title>baml_project&#45;&gt;baml_db</title>
<path fill="none" stroke="#444444" d="M379,-1049.43C379,-1049.43 379,-1001.37 379,-1001.37"/>
<polygon fill="#444444" stroke="#444444" points="381.45,-1001.37 379,-994.37 376.55,-1001.37 381.45,-1001.37"/>
</g>
<!-- baml_snapshot -->
<g id="node22" class="node">
<title>baml_snapshot</title>
<polygon fill="#e4cdcd" stroke="#971a1a" stroke-width="2" points="414.38,-1368 325.62,-1368 325.62,-1332 414.38,-1332 414.38,-1368"/>
<text xml:space="preserve" text-anchor="middle" x="370" y="-1345.55" font-family="Helvetica,sans-Serif" font-size="11.00">baml_snapshot</text>
</g>
<!-- baml_snapshot&#45;&gt;bex_vm_types -->
<g id="edge30" class="edge">
<title>baml_snapshot&#45;&gt;bex_vm_types</title>
<path fill="none" stroke="#666666" stroke-width="1.5" stroke-dasharray="5,2" d="M324.66,-1344C280.59,-1344 220.25,-1344 220.25,-1344 220.25,-1344 220.25,-814.16 220.25,-814.16"/>
<polygon fill="#666666" stroke="#666666" stroke-width="1.5" points="222.7,-814.16 220.25,-807.16 217.8,-814.16 222.7,-814.16"/>
</g>
<!-- baml_workspace&#45;&gt;baml_base -->
<g id="edge31" class="edge">
<title>baml_workspace&#45;&gt;baml_base</title>
<path fill="none" stroke="#444444" d="M808,-203.43C808,-176.03 808,-128 808,-128 808,-128 614.74,-128 614.74,-128"/>
<polygon fill="#444444" stroke="#444444" points="614.74,-125.55 607.74,-128 614.74,-130.45 614.74,-125.55"/>
</g>
<!-- bex_engine -->
<g id="node30" class="node">
<title>bex_engine</title>
<polygon fill="#cde4cd" stroke="#1a971a" stroke-width="2" points="133.75,-804 62.25,-804 62.25,-768 133.75,-768 133.75,-804"/>
<text xml:space="preserve" text-anchor="middle" x="98" y="-781.55" font-family="Helvetica,sans-Serif" font-size="11.00">bex_engine</text>
</g>
<!-- bex_sys -->
<g id="node33" class="node">
<title>bex_sys</title>
<polygon fill="#cde4cd" stroke="#1a971a" stroke-width="2" points="214.5,-710 159.5,-710 159.5,-674 214.5,-674 214.5,-710"/>
<text xml:space="preserve" text-anchor="middle" x="187" y="-687.55" font-family="Helvetica,sans-Serif" font-size="11.00">bex_sys</text>
</g>
<!-- bex_engine&#45;&gt;bex_sys -->
<g id="edge32" class="edge">
<title>bex_engine&#45;&gt;bex_sys</title>
<path fill="none" stroke="#444444" d="M129.69,-767.43C129.69,-740.03 129.69,-692 129.69,-692 129.69,-692 150.17,-692 150.17,-692"/>
<polygon fill="#444444" stroke="#444444" points="150.17,-694.45 157.17,-692 150.17,-689.55 150.17,-694.45"/>
</g>
<!-- bex_vm -->
<g id="node34" class="node">
<title>bex_vm</title>
<polygon fill="#cde4cd" stroke="#1a971a" stroke-width="2" points="121,-710 67,-710 67,-674 121,-674 121,-710"/>
<text xml:space="preserve" text-anchor="middle" x="94" y="-687.55" font-family="Helvetica,sans-Serif" font-size="11.00">bex_vm</text>
</g>
<!-- bex_engine&#45;&gt;bex_vm -->
<g id="edge33" class="edge">
<title>bex_engine&#45;&gt;bex_vm</title>
<path fill="none" stroke="#444444" d="M94,-767.43C94,-767.43 94,-719.37 94,-719.37"/>
<polygon fill="#444444" stroke="#444444" points="96.45,-719.37 94,-712.37 91.55,-719.37 96.45,-719.37"/>
</g>
<!-- bex_external_types -->
<g id="node31" class="node">
<title>bex_external_types</title>
<polygon fill="#df9fcf" stroke="#1a971a" stroke-width="2" points="171.5,-522 62.5,-522 62.5,-486 171.5,-486 171.5,-522"/>
<text xml:space="preserve" text-anchor="middle" x="117" y="-499.55" font-family="Helvetica,sans-Serif" font-size="11.00">bex_external_types</text>
</g>
<!-- bex_external_types&#45;&gt;baml_snapshot -->
<g id="edge34" class="edge">
<title>bex_external_types&#45;&gt;baml_snapshot</title>
<path fill="none" stroke="#666666" stroke-width="1.5" stroke-dasharray="5,2" d="M137.75,-522.99C137.75,-648.7 137.75,-1356 137.75,-1356 137.75,-1356 315.4,-1356 315.4,-1356"/>
<polygon fill="#666666" stroke="#666666" stroke-width="1.5" points="315.4,-1358.45 322.4,-1356 315.4,-1353.55 315.4,-1358.45"/>
</g>
<!-- bex_heap -->
<g id="node32" class="node">
<title>bex_heap</title>
<polygon fill="#cde4cd" stroke="#1a971a" stroke-width="2" points="125.62,-616 62.38,-616 62.38,-580 125.62,-580 125.62,-616"/>
<text xml:space="preserve" text-anchor="middle" x="94" y="-593.55" font-family="Helvetica,sans-Serif" font-size="11.00">bex_heap</text>
</g>
<!-- bex_heap&#45;&gt;bex_external_types -->
<g id="edge35" class="edge">
<title>bex_heap&#45;&gt;bex_external_types</title>
<path fill="none" stroke="#444444" d="M94.06,-579.43C94.06,-579.43 94.06,-531.37 94.06,-531.37"/>
<polygon fill="#444444" stroke="#444444" points="96.51,-531.37 94.06,-524.37 91.61,-531.37 96.51,-531.37"/>
</g>
<!-- bex_tokio -->
<g id="node36" class="node">
<title>bex_tokio</title>
<polygon fill="#d0d0d0" stroke="#606060" stroke-width="2" points="216,-616 162,-616 162,-580 216,-580 216,-616"/>
<text xml:space="preserve" text-anchor="middle" x="189" y="-593.55" font-family="Helvetica,sans-Serif" font-size="11.00">tokio</text>
</g>
<!-- bex_sys&#45;&gt;bex_tokio -->
<g id="edge36" class="edge">
<title>bex_sys&#45;&gt;bex_tokio</title>
<path fill="none" stroke="#444444" d="M188.25,-673.43C188.25,-673.43 188.25,-625.37 188.25,-625.37"/>
<polygon fill="#444444" stroke="#444444" points="190.7,-625.37 188.25,-618.37 185.8,-625.37 190.7,-625.37"/>
</g>
<!-- bex_vm&#45;&gt;bex_heap -->
<g id="edge37" class="edge">
<title>bex_vm&#45;&gt;bex_heap</title>
<path fill="none" stroke="#444444" d="M94,-673.43C94,-673.43 94,-625.37 94,-625.37"/>
<polygon fill="#444444" stroke="#444444" points="96.45,-625.37 94,-618.37 91.55,-625.37 96.45,-625.37"/>
</g>
<!-- bex_vm_types&#45;&gt;baml_base -->
<g id="edge38" class="edge">
<title>bex_vm_types&#45;&gt;baml_base</title>
<path fill="none" stroke="#666666" stroke-width="1.5" stroke-dasharray="5,2" d="M228.83,-767.2C228.83,-659.14 228.83,-122 228.83,-122 228.83,-122 526.72,-122 526.72,-122"/>
<polygon fill="#666666" stroke="#666666" stroke-width="1.5" points="526.72,-124.45 533.72,-122 526.72,-119.55 526.72,-124.45"/>
</g>
<!-- bex_vm_types&#45;&gt;baml_builtins -->
<g id="edge39" class="edge">
<title>bex_vm_types&#45;&gt;baml_builtins</title>
<path fill="none" stroke="#666666" stroke-width="1.5" stroke-dasharray="5,2" d="M241.67,-767.06C241.67,-703.83 241.67,-504 241.67,-504 241.67,-504 348.88,-504 348.88,-504"/>
<polygon fill="#666666" stroke="#666666" stroke-width="1.5" points="348.88,-506.45 355.88,-504 348.88,-501.55 348.88,-506.45"/>
</g>
<!-- tools_onionskin -->
<g id="node37" class="node">
<title>tools_onionskin</title>
<polygon fill="#cdcde4" stroke="#1a1a97" stroke-width="2" points="105.75,-1180 16.25,-1180 16.25,-1144 105.75,-1144 105.75,-1180"/>
<text xml:space="preserve" text-anchor="middle" x="61" y="-1157.55" font-family="Helvetica,sans-Serif" font-size="11.00">tools_onionskin</text>
</g>
<!-- tools_onionskin&#45;&gt;baml_project -->
<g id="edge41" class="edge">
<title>tools_onionskin&#45;&gt;baml_project</title>
<path fill="none" stroke="#666666" stroke-width="1.5" stroke-dasharray="5,2" d="M91.17,-1143.15C91.17,-1130.08 91.17,-1115 91.17,-1115 91.17,-1115 359.08,-1115 359.08,-1115 359.08,-1115 359.08,-1096.12 359.08,-1096.12"/>
<polygon fill="#666666" stroke="#666666" stroke-width="1.5" points="361.53,-1096.12 359.08,-1089.12 356.63,-1096.12 361.53,-1096.12"/>
</g>
<!-- tools_onionskin&#45;&gt;bex_vm -->
<g id="edge42" class="edge">
<title>tools_onionskin&#45;&gt;bex_vm</title>
<path fill="none" stroke="#666666" stroke-width="1.5" stroke-dasharray="5,2" d="M39.12,-1143.29C39.12,-1055.87 39.12,-692 39.12,-692 39.12,-692 56.97,-692 56.97,-692"/>
<polygon fill="#666666" stroke="#666666" stroke-width="1.5" points="56.97,-694.45 63.97,-692 56.97,-689.55 56.97,-694.45"/>
</g>
<!-- tools_anyhow -->
<g id="node40" class="node">
<title>tools_anyhow</title>
<polygon fill="#d0d0d0" stroke="#606060" stroke-width="2" points="116,-1086 62,-1086 62,-1050 116,-1050 116,-1086"/>
<text xml:space="preserve" text-anchor="middle" x="89" y="-1063.55" font-family="Helvetica,sans-Serif" font-size="11.00">anyhow</text>
</g>
<!-- tools_onionskin&#45;&gt;tools_anyhow -->
<g id="edge40" class="edge">
<title>tools_onionskin&#45;&gt;tools_anyhow</title>
<path fill="none" stroke="#444444" d="M76.58,-1143.43C76.58,-1143.43 76.58,-1095.37 76.58,-1095.37"/>
<polygon fill="#444444" stroke="#444444" points="79.03,-1095.37 76.58,-1088.37 74.13,-1095.37 79.03,-1095.37"/>
</g>
<!-- tools_clap -->
<g id="node41" class="node">
<title>tools_clap</title>
<polygon fill="#d0d0d0" stroke="#606060" stroke-width="2" points="206,-1086 152,-1086 152,-1050 206,-1050 206,-1086"/>
<text xml:space="preserve" text-anchor="middle" x="179" y="-1063.55" font-family="Helvetica,sans-Serif" font-size="11.00">clap</text>
</g>
<!-- tools_onionskin&#45;&gt;tools_clap -->
<g id="edge43" class="edge">
<title>tools_onionskin&#45;&gt;tools_clap</title>
<path fill="none" stroke="#444444" d="M106.74,-1162C116.98,-1162 124.88,-1162 124.88,-1162 124.88,-1162 124.88,-1068 124.88,-1068 124.88,-1068 142.79,-1068 142.79,-1068"/>
<polygon fill="#444444" stroke="#444444" points="142.79,-1070.45 149.79,-1068 142.79,-1065.55 142.79,-1070.45"/>
</g>
<!-- tools_rig -->
<g id="node38" class="node">
<title>tools_rig</title>
<polygon fill="#cdcde4" stroke="#1a1a97" stroke-width="2" points="198.25,-1180 141.75,-1180 141.75,-1144 198.25,-1144 198.25,-1180"/>
<text xml:space="preserve" text-anchor="middle" x="170" y="-1157.55" font-family="Helvetica,sans-Serif" font-size="11.00">tools_rig</text>
</g>
<!-- tools_stow -->
<g id="node39" class="node">
<title>tools_stow</title>
<polygon fill="#cdcde4" stroke="#1a1a97" stroke-width="2" points="301.5,-1180 234.5,-1180 234.5,-1144 301.5,-1144 301.5,-1180"/>
<text xml:space="preserve" text-anchor="middle" x="268" y="-1157.55" font-family="Helvetica,sans-Serif" font-size="11.00">tools_stow</text>
</g>
<!-- tools_stow&#45;&gt;tools_clap -->
<g id="edge44" class="edge">
<title>tools_stow&#45;&gt;tools_clap</title>
<path fill="none" stroke="#444444" d="M233.52,-1162C217.58,-1162 202.12,-1162 202.12,-1162 202.12,-1162 202.12,-1095.08 202.12,-1095.08"/>
<polygon fill="#444444" stroke="#444444" points="204.58,-1095.08 202.13,-1088.08 199.68,-1095.08 204.58,-1095.08"/>
</g>
<!-- tools_serde -->
<g id="node42" class="node">
<title>tools_serde</title>
<polygon fill="#d0d0d0" stroke="#606060" stroke-width="2" points="296,-1086 242,-1086 242,-1050 296,-1050 296,-1086"/>
<text xml:space="preserve" text-anchor="middle" x="269" y="-1063.55" font-family="Helvetica,sans-Serif" font-size="11.00">serde</text>
</g>
<!-- tools_stow&#45;&gt;tools_serde -->
<g id="edge45" class="edge">
<title>tools_stow&#45;&gt;tools_serde</title>
<path fill="none" stroke="#444444" d="M269,-1143.43C269,-1143.43 269,-1095.37 269,-1095.37"/>
<polygon fill="#444444" stroke="#444444" points="271.45,-1095.37 269,-1088.37 266.55,-1095.37 271.45,-1095.37"/>
</g>

<polygon fill="#666666" stroke="#666666" points="269.96,-1344.00 274.96,-1340.50 274.96,-1347.50"/>
<polygon fill="#666666" stroke="#666666" points="220.25,-1235.53 223.75,-1240.53 216.75,-1240.53"/>
<polygon fill="#666666" stroke="#666666" points="220.25,-1076.58 223.75,-1081.58 216.75,-1081.58"/>
<polygon fill="#666666" stroke="#666666" points="137.75,-692.09 134.25,-687.09 141.25,-687.09"/>
<polygon fill="#666666" stroke="#666666" points="137.75,-942.00 134.25,-937.00 141.25,-937.00"/>
<polygon fill="#666666" stroke="#666666" points="229.07,-1356.00 224.07,-1359.50 224.07,-1352.50"/>
<polygon fill="#666666" stroke="#666666" points="228.83,-635.66 232.33,-640.66 225.33,-640.66"/>
<polygon fill="#666666" stroke="#666666" points="228.83,-442.10 232.33,-447.10 225.33,-447.10"/>
<polygon fill="#666666" stroke="#666666" points="290.91,-122.00 285.91,-125.50 285.91,-118.50"/>
<polygon fill="#666666" stroke="#666666" points="380.28,-122.00 375.28,-125.50 375.28,-118.50"/>
<polygon fill="#666666" stroke="#666666" points="241.67,-711.95 245.17,-716.95 238.17,-716.95"/>
<polygon fill="#666666" stroke="#666666" points="241.67,-633.03 245.17,-638.03 238.17,-638.03"/>
<polygon fill="#666666" stroke="#666666" points="297.77,-504.00 292.77,-507.50 292.77,-500.50"/>
<polygon fill="#666666" stroke="#666666" points="147.25,-1115.00 142.25,-1118.50 142.25,-1111.50"/>
<polygon fill="#666666" stroke="#666666" points="227.62,-1115.00 222.62,-1118.50 222.62,-1111.50"/>
<polygon fill="#666666" stroke="#666666" points="39.12,-1050.53 42.62,-1055.53 35.62,-1055.53"/>
<polygon fill="#666666" stroke="#666666" points="39.12,-915.14 42.62,-920.14 35.62,-920.14"/>
</g>
</svg>
