<?xml version="1.0" encoding="UTF-8" standalone="no"?>
<!DOCTYPE svg PUBLIC "-//W3C//DTD SVG 1.1//EN"
 "http://www.w3.org/Graphics/SVG/1.1/DTD/svg11.dtd">
<!-- Generated by graphviz version 12.1.2 (20240928.0832)
 -->
<!-- Title: G Pages: 1 -->
<svg xmlns="http://www.w3.org/2000/svg" viewBox="0 0 978.12 1239.20" width="978" height="1239">
<g id="graph0" class="graph" transform="scale(1 1) rotate(0) translate(4 1235.2)">
<title>G</title>
<!-- __project__ -->
<g id="node1" class="node">
<title>__project__</title>
<path fill="#d4edda" stroke="black" d="M649.77,-1231.2C649.77,-1231.2 530.34,-1231.2 530.34,-1231.2 524.34,-1231.2 518.34,-1225.2 518.34,-1219.2 518.34,-1219.2 518.34,-1200 518.34,-1200 518.34,-1194 524.34,-1188 530.34,-1188 530.34,-1188 649.77,-1188 649.77,-1188 655.77,-1188 661.77,-1194 661.77,-1200 661.77,-1200 661.77,-1219.2 661.77,-1219.2 661.77,-1225.2 655.77,-1231.2 649.77,-1231.2"/>
<text text-anchor="middle" x="590.05" y="-1202.4" font-family="Times,serif" font-size="24.00">__project__</text>
</g>
<!-- baml_cli -->
<g id="node4" class="node">
<title>baml_cli</title>
<path fill="#ffb6c1" stroke="black" d="M494.44,-1152C494.44,-1152 405.67,-1152 405.67,-1152 399.67,-1152 393.67,-1146 393.67,-1140 393.67,-1140 393.67,-1120.8 393.67,-1120.8 393.67,-1114.8 399.67,-1108.8 405.67,-1108.8 405.67,-1108.8 494.44,-1108.8 494.44,-1108.8 500.44,-1108.8 506.44,-1114.8 506.44,-1120.8 506.44,-1120.8 506.44,-1140 506.44,-1140 506.44,-1146 500.44,-1152 494.44,-1152"/>
<text text-anchor="middle" x="450.05" y="-1123.2" font-family="Times,serif" font-size="24.00">baml_cli</text>
</g>
<!-- __project__&#45;&gt;baml_cli -->
<g id="edge1" class="edge">
<title>__project__&#45;&gt;baml_cli</title>
<path fill="none" stroke="#555555" d="M551.8,-1187.5C535.75,-1178.65 516.87,-1168.25 499.77,-1158.81"/>
<polygon fill="#555555" stroke="#555555" points="502.13,-1155.32 489.59,-1153.2 498.07,-1162.67 502.13,-1155.32"/>
</g>
<!-- baml_ide_tests -->
<g id="node16" class="node">
<title>baml_ide_tests</title>
<path fill="#a0a0a0" fill-opacity="0.501961" stroke="black" stroke-dasharray="5,2" d="M219.44,-1072.8C219.44,-1072.8 70.67,-1072.8 70.67,-1072.8 64.67,-1072.8 58.67,-1066.8 58.67,-1060.8 58.67,-1060.8 58.67,-1041.6 58.67,-1041.6 58.67,-1035.6 64.67,-1029.6 70.67,-1029.6 70.67,-1029.6 219.44,-1029.6 219.44,-1029.6 225.44,-1029.6 231.44,-1035.6 231.44,-1041.6 231.44,-1041.6 231.44,-1060.8 231.44,-1060.8 231.44,-1066.8 225.44,-1072.8 219.44,-1072.8"/>
<text text-anchor="middle" x="145.05" y="-1044" font-family="Times,serif" font-size="24.00">baml_ide_tests</text>
</g>
<!-- __project__&#45;&gt;baml_ide_tests -->
<g id="edge2" class="edge">
<title>__project__&#45;&gt;baml_ide_tests</title>
<path fill="none" stroke="#555555" d="M580.83,-1187.54C569.43,-1164.2 547.71,-1127.39 517.05,-1108.8 494.08,-1094.87 346.96,-1075.46 244.78,-1063.38"/>
<polygon fill="#555555" stroke="#555555" points="245.52,-1059.23 233.12,-1062.01 244.54,-1067.58 245.52,-1059.23"/>
</g>
<!-- baml_tests -->
<g id="node20" class="node">
<title>baml_tests</title>
<path fill="#a0a0a0" fill-opacity="0.501961" stroke="black" stroke-dasharray="5,2" d="M693.78,-993.6C693.78,-993.6 586.33,-993.6 586.33,-993.6 580.33,-993.6 574.33,-987.6 574.33,-981.6 574.33,-981.6 574.33,-962.4 574.33,-962.4 574.33,-956.4 580.33,-950.4 586.33,-950.4 586.33,-950.4 693.78,-950.4 693.78,-950.4 699.78,-950.4 705.78,-956.4 705.78,-962.4 705.78,-962.4 705.78,-981.6 705.78,-981.6 705.78,-987.6 699.78,-993.6 693.78,-993.6"/>
<text text-anchor="middle" x="640.05" y="-964.8" font-family="Times,serif" font-size="24.00">baml_tests</text>
</g>
<!-- __project__&#45;&gt;baml_tests -->
<g id="edge3" class="edge">
<title>__project__&#45;&gt;baml_tests</title>
<path fill="none" stroke="#555555" d="M594.49,-1187.69C603.15,-1146.91 622.35,-1056.43 632.85,-1006.94"/>
<polygon fill="#555555" stroke="#555555" points="636.93,-1007.95 635.31,-995.34 628.71,-1006.21 636.93,-1007.95"/>
</g>
<!-- baml_tools_onionskin -->
<g id="node21" class="node">
<title>baml_tools_onionskin</title>
<path fill="#e6d5f2" stroke="black" d="M958.12,-993.6C958.12,-993.6 739.98,-993.6 739.98,-993.6 733.98,-993.6 727.98,-987.6 727.98,-981.6 727.98,-981.6 727.98,-962.4 727.98,-962.4 727.98,-956.4 733.98,-950.4 739.98,-950.4 739.98,-950.4 958.12,-950.4 958.12,-950.4 964.12,-950.4 970.12,-956.4 970.12,-962.4 970.12,-962.4 970.12,-981.6 970.12,-981.6 970.12,-987.6 964.12,-993.6 958.12,-993.6"/>
<text text-anchor="middle" x="849.05" y="-964.8" font-family="Times,serif" font-size="24.00">baml_tools_onionskin</text>
</g>
<!-- __project__&#45;&gt;baml_tools_onionskin -->
<g id="edge4" class="edge">
<title>__project__&#45;&gt;baml_tools_onionskin</title>
<path fill="none" stroke="#555555" d="M613.04,-1187.69C659.12,-1145.78 762.92,-1051.35 816.18,-1002.91"/>
<polygon fill="#555555" stroke="#555555" points="818.95,-1006.06 825,-994.88 813.3,-999.85 818.95,-1006.06"/>
</g>
<!-- anyhow -->
<g id="node2" class="node">
<title>anyhow</title>
<path fill="white" stroke="black" d="M349.45,-914.4C349.45,-914.4 268.66,-914.4 268.66,-914.4 262.66,-914.4 256.66,-908.4 256.66,-902.4 256.66,-902.4 256.66,-883.2 256.66,-883.2 256.66,-877.2 262.66,-871.2 268.66,-871.2 268.66,-871.2 349.45,-871.2 349.45,-871.2 355.45,-871.2 361.45,-877.2 361.45,-883.2 361.45,-883.2 361.45,-902.4 361.45,-902.4 361.45,-908.4 355.45,-914.4 349.45,-914.4"/>
<text text-anchor="middle" x="309.05" y="-885.6" font-family="Times,serif" font-size="24.00">anyhow</text>
</g>
<!-- baml_base -->
<g id="node3" class="node">
<title>baml_base</title>
<path fill="#c3e6cb" stroke="black" d="M617.77,-122.4C617.77,-122.4 510.34,-122.4 510.34,-122.4 504.34,-122.4 498.34,-116.4 498.34,-110.4 498.34,-110.4 498.34,-91.2 498.34,-91.2 498.34,-85.2 504.34,-79.2 510.34,-79.2 510.34,-79.2 617.77,-79.2 617.77,-79.2 623.77,-79.2 629.77,-85.2 629.77,-91.2 629.77,-91.2 629.77,-110.4 629.77,-110.4 629.77,-116.4 623.77,-122.4 617.77,-122.4"/>
<text text-anchor="middle" x="564.05" y="-93.6" font-family="Times,serif" font-size="24.00">baml_base</text>
</g>
<!-- salsa -->
<g id="node25" class="node">
<title>salsa</title>
<path fill="white" stroke="black" d="M589.78,-43.2C589.78,-43.2 538.33,-43.2 538.33,-43.2 532.33,-43.2 526.33,-37.2 526.33,-31.2 526.33,-31.2 526.33,-12 526.33,-12 526.33,-6 532.33,0 538.33,0 538.33,0 589.78,0 589.78,0 595.78,0 601.78,-6 601.78,-12 601.78,-12 601.78,-31.2 601.78,-31.2 601.78,-37.2 595.78,-43.2 589.78,-43.2"/>
<text text-anchor="middle" x="564.05" y="-14.4" font-family="Times,serif" font-size="24.00">salsa</text>
</g>
<!-- baml_base&#45;&gt;salsa -->
<g id="edge5" class="edge">
<title>baml_base&#45;&gt;salsa</title>
<path fill="none" stroke="#555555" d="M564.05,-78.7C564.05,-71.98 564.05,-64.36 564.05,-56.95"/>
<polygon fill="#555555" stroke="#555555" points="568.25,-57.18 564.05,-45.18 559.85,-57.18 568.25,-57.18"/>
</g>
<!-- baml_lsp -->
<g id="node17" class="node">
<title>baml_lsp</title>
<path fill="#98d8c8" stroke="black" d="M443.45,-1072.8C443.45,-1072.8 350.66,-1072.8 350.66,-1072.8 344.66,-1072.8 338.66,-1066.8 338.66,-1060.8 338.66,-1060.8 338.66,-1041.6 338.66,-1041.6 338.66,-1035.6 344.66,-1029.6 350.66,-1029.6 350.66,-1029.6 443.45,-1029.6 443.45,-1029.6 449.45,-1029.6 455.45,-1035.6 455.45,-1041.6 455.45,-1041.6 455.45,-1060.8 455.45,-1060.8 455.45,-1066.8 449.45,-1072.8 443.45,-1072.8"/>
<text text-anchor="middle" x="397.05" y="-1044" font-family="Times,serif" font-size="24.00">baml_lsp</text>
</g>
<!-- baml_cli&#45;&gt;baml_lsp -->
<g id="edge6" class="edge">
<title>baml_cli&#45;&gt;baml_lsp</title>
<path fill="none" stroke="#555555" d="M435.57,-1108.3C430.49,-1100.9 424.66,-1092.41 419.1,-1084.31"/>
<polygon fill="#555555" stroke="#555555" points="422.63,-1082.03 412.38,-1074.52 415.71,-1086.79 422.63,-1082.03"/>
</g>
<!-- baml_compiler_diagnostics -->
<g id="node5" class="node">
<title>baml_compiler_diagnostics</title>
<path fill="#82c99a" stroke="black" d="M413.09,-280.8C413.09,-280.8 143.02,-280.8 143.02,-280.8 137.02,-280.8 131.02,-274.8 131.02,-268.8 131.02,-268.8 131.02,-249.6 131.02,-249.6 131.02,-243.6 137.02,-237.6 143.02,-237.6 143.02,-237.6 413.09,-237.6 413.09,-237.6 419.09,-237.6 425.09,-243.6 425.09,-249.6 425.09,-249.6 425.09,-268.8 425.09,-268.8 425.09,-274.8 419.09,-280.8 413.09,-280.8"/>
<text text-anchor="middle" x="278.05" y="-252" font-family="Times,serif" font-size="24.00">baml_compiler_diagnostics</text>
</g>
<!-- baml_workspace -->
<g id="node23" class="node">
<title>baml_workspace</title>
<path fill="#e6d5f2" stroke="black" d="M337.76,-201.6C337.76,-201.6 170.35,-201.6 170.35,-201.6 164.35,-201.6 158.35,-195.6 158.35,-189.6 158.35,-189.6 158.35,-170.4 158.35,-170.4 158.35,-164.4 164.35,-158.4 170.35,-158.4 170.35,-158.4 337.76,-158.4 337.76,-158.4 343.76,-158.4 349.76,-164.4 349.76,-170.4 349.76,-170.4 349.76,-189.6 349.76,-189.6 349.76,-195.6 343.76,-201.6 337.76,-201.6"/>
<text text-anchor="middle" x="254.05" y="-172.8" font-family="Times,serif" font-size="24.00">baml_workspace</text>
</g>
<!-- baml_compiler_diagnostics&#45;&gt;baml_workspace -->
<g id="edge7" class="edge">
<title>baml_compiler_diagnostics&#45;&gt;baml_workspace</title>
<path fill="none" stroke="#555555" d="M271.5,-237.1C269.35,-230.21 266.92,-222.37 264.56,-214.79"/>
<polygon fill="#555555" stroke="#555555" points="268.63,-213.73 261.05,-203.52 260.61,-216.22 268.63,-213.73"/>
</g>
<!-- baml_compiler_emit -->
<g id="node6" class="node">
<title>baml_compiler_emit</title>
<path fill="#82c99a" stroke="black" d="M742.43,-756C742.43,-756 537.68,-756 537.68,-756 531.68,-756 525.68,-750 525.68,-744 525.68,-744 525.68,-724.8 525.68,-724.8 525.68,-718.8 531.68,-712.8 537.68,-712.8 537.68,-712.8 742.43,-712.8 742.43,-712.8 748.43,-712.8 754.43,-718.8 754.43,-724.8 754.43,-724.8 754.43,-744 754.43,-744 754.43,-750 748.43,-756 742.43,-756"/>
<text text-anchor="middle" x="640.05" y="-727.2" font-family="Times,serif" font-size="24.00">baml_compiler_emit</text>
</g>
<!-- baml_compiler_mir -->
<g id="node9" class="node">
<title>baml_compiler_mir</title>
<path fill="#82c99a" stroke="black" d="M737.76,-676.8C737.76,-676.8 542.35,-676.8 542.35,-676.8 536.35,-676.8 530.35,-670.8 530.35,-664.8 530.35,-664.8 530.35,-645.6 530.35,-645.6 530.35,-639.6 536.35,-633.6 542.35,-633.6 542.35,-633.6 737.76,-633.6 737.76,-633.6 743.76,-633.6 749.76,-639.6 749.76,-645.6 749.76,-645.6 749.76,-664.8 749.76,-664.8 749.76,-670.8 743.76,-676.8 737.76,-676.8"/>
<text text-anchor="middle" x="640.05" y="-648" font-family="Times,serif" font-size="24.00">baml_compiler_mir</text>
</g>
<!-- baml_compiler_emit&#45;&gt;baml_compiler_mir -->
<g id="edge8" class="edge">
<title>baml_compiler_emit&#45;&gt;baml_compiler_mir</title>
<path fill="none" stroke="#555555" d="M640.05,-712.3C640.05,-705.58 640.05,-697.96 640.05,-690.55"/>
<polygon fill="#555555" stroke="#555555" points="644.25,-690.78 640.05,-678.78 635.85,-690.78 644.25,-690.78"/>
</g>
<!-- baml_compiler_hir -->
<g id="node7" class="node">
<title>baml_compiler_hir</title>
<path fill="#82c99a" stroke="black" d="M664.43,-439.2C664.43,-439.2 475.68,-439.2 475.68,-439.2 469.68,-439.2 463.68,-433.2 463.68,-427.2 463.68,-427.2 463.68,-408 463.68,-408 463.68,-402 469.68,-396 475.68,-396 475.68,-396 664.43,-396 664.43,-396 670.43,-396 676.43,-402 676.43,-408 676.43,-408 676.43,-427.2 676.43,-427.2 676.43,-433.2 670.43,-439.2 664.43,-439.2"/>
<text text-anchor="middle" x="570.05" y="-410.4" font-family="Times,serif" font-size="24.00">baml_compiler_hir</text>
</g>
<!-- baml_compiler_parser -->
<g id="node10" class="node">
<title>baml_compiler_parser</title>
<path fill="#82c99a" stroke="black" d="M648.41,-360C648.41,-360 427.7,-360 427.7,-360 421.7,-360 415.7,-354 415.7,-348 415.7,-348 415.7,-328.8 415.7,-328.8 415.7,-322.8 421.7,-316.8 427.7,-316.8 427.7,-316.8 648.41,-316.8 648.41,-316.8 654.41,-316.8 660.41,-322.8 660.41,-328.8 660.41,-328.8 660.41,-348 660.41,-348 660.41,-354 654.41,-360 648.41,-360"/>
<text text-anchor="middle" x="538.05" y="-331.2" font-family="Times,serif" font-size="24.00">baml_compiler_parser</text>
</g>
<!-- baml_compiler_hir&#45;&gt;baml_compiler_parser -->
<g id="edge9" class="edge">
<title>baml_compiler_hir&#45;&gt;baml_compiler_parser</title>
<path fill="none" stroke="#555555" d="M561.31,-395.5C558.42,-388.53 555.12,-380.58 551.94,-372.91"/>
<polygon fill="#555555" stroke="#555555" points="555.84,-371.35 547.37,-361.87 548.08,-374.56 555.84,-371.35"/>
</g>
<!-- baml_compiler_lexer -->
<g id="node8" class="node">
<title>baml_compiler_lexer</title>
<path fill="#82c99a" stroke="black" d="M594.08,-201.6C594.08,-201.6 384.03,-201.6 384.03,-201.6 378.03,-201.6 372.03,-195.6 372.03,-189.6 372.03,-189.6 372.03,-170.4 372.03,-170.4 372.03,-164.4 378.03,-158.4 384.03,-158.4 384.03,-158.4 594.08,-158.4 594.08,-158.4 600.08,-158.4 606.08,-164.4 606.08,-170.4 606.08,-170.4 606.08,-189.6 606.08,-189.6 606.08,-195.6 600.08,-201.6 594.08,-201.6"/>
<text text-anchor="middle" x="489.05" y="-172.8" font-family="Times,serif" font-size="24.00">baml_compiler_lexer</text>
</g>
<!-- baml_compiler_lexer&#45;&gt;baml_base -->
<g id="edge10" class="edge">
<title>baml_compiler_lexer&#45;&gt;baml_base</title>
<path fill="none" stroke="#555555" d="M509.55,-157.9C517.15,-150.08 525.95,-141.03 534.22,-132.51"/>
<polygon fill="#555555" stroke="#555555" points="537.18,-135.49 542.53,-123.96 531.16,-129.64 537.18,-135.49"/>
</g>
<!-- baml_compiler_vir -->
<g id="node13" class="node">
<title>baml_compiler_vir</title>
<path fill="#82c99a" stroke="black" d="M734.43,-597.6C734.43,-597.6 545.68,-597.6 545.68,-597.6 539.68,-597.6 533.68,-591.6 533.68,-585.6 533.68,-585.6 533.68,-566.4 533.68,-566.4 533.68,-560.4 539.68,-554.4 545.68,-554.4 545.68,-554.4 734.43,-554.4 734.43,-554.4 740.43,-554.4 746.43,-560.4 746.43,-566.4 746.43,-566.4 746.43,-585.6 746.43,-585.6 746.43,-591.6 740.43,-597.6 734.43,-597.6"/>
<text text-anchor="middle" x="640.05" y="-568.8" font-family="Times,serif" font-size="24.00">baml_compiler_vir</text>
</g>
<!-- baml_compiler_mir&#45;&gt;baml_compiler_vir -->
<g id="edge11" class="edge">
<title>baml_compiler_mir&#45;&gt;baml_compiler_vir</title>
<path fill="none" stroke="#555555" d="M640.05,-633.1C640.05,-626.38 640.05,-618.76 640.05,-611.35"/>
<polygon fill="#555555" stroke="#555555" points="644.25,-611.58 640.05,-599.58 635.85,-611.58 644.25,-611.58"/>
</g>
<!-- baml_compiler_parser&#45;&gt;baml_compiler_diagnostics -->
<g id="edge12" class="edge">
<title>baml_compiler_parser&#45;&gt;baml_compiler_diagnostics</title>
<path fill="none" stroke="#555555" d="M467.01,-316.3C434.48,-306.65 395.7,-295.13 361.76,-285.05"/>
<polygon fill="#555555" stroke="#555555" points="363.16,-281.09 350.47,-281.7 360.77,-289.14 363.16,-281.09"/>
</g>
<!-- baml_compiler_parser&#45;&gt;baml_compiler_lexer -->
<g id="edge13" class="edge">
<title>baml_compiler_parser&#45;&gt;baml_compiler_lexer</title>
<path fill="none" stroke="#555555" d="M523.4,-316.54C516.81,-306.23 509.54,-293.33 505.05,-280.8 497.49,-259.66 493.5,-234.72 491.39,-215.06"/>
<polygon fill="#555555" stroke="#555555" points="495.59,-214.88 490.3,-203.32 487.22,-215.65 495.59,-214.88"/>
</g>
<!-- baml_compiler_syntax -->
<g id="node11" class="node">
<title>baml_compiler_syntax</title>
<path fill="#82c99a" stroke="black" d="M752.43,-280.8C752.43,-280.8 527.68,-280.8 527.68,-280.8 521.68,-280.8 515.68,-274.8 515.68,-268.8 515.68,-268.8 515.68,-249.6 515.68,-249.6 515.68,-243.6 521.68,-237.6 527.68,-237.6 527.68,-237.6 752.43,-237.6 752.43,-237.6 758.43,-237.6 764.43,-243.6 764.43,-249.6 764.43,-249.6 764.43,-268.8 764.43,-268.8 764.43,-274.8 758.43,-280.8 752.43,-280.8"/>
<text text-anchor="middle" x="640.05" y="-252" font-family="Times,serif" font-size="24.00">baml_compiler_syntax</text>
</g>
<!-- baml_compiler_parser&#45;&gt;baml_compiler_syntax -->
<g id="edge14" class="edge">
<title>baml_compiler_parser&#45;&gt;baml_compiler_syntax</title>
<path fill="none" stroke="#555555" d="M565.93,-316.3C576.95,-307.96 589.79,-298.24 601.67,-289.25"/>
<polygon fill="#555555" stroke="#555555" points="603.98,-292.77 611.01,-282.18 598.91,-286.08 603.98,-292.77"/>
</g>
<!-- baml_compiler_syntax&#45;&gt;baml_base -->
<g id="edge15" class="edge">
<title>baml_compiler_syntax&#45;&gt;baml_base</title>
<path fill="none" stroke="#555555" d="M638.42,-237.21C636.07,-216.22 630.43,-183.51 617.05,-158.4 612.12,-149.15 605.29,-140.29 598.17,-132.44"/>
<polygon fill="#555555" stroke="#555555" points="601.19,-129.52 589.82,-123.83 595.16,-135.37 601.19,-129.52"/>
</g>
<!-- rowan -->
<g id="node24" class="node">
<title>rowan</title>
<path fill="white" stroke="black" d="M750.44,-201.6C750.44,-201.6 685.67,-201.6 685.67,-201.6 679.67,-201.6 673.67,-195.6 673.67,-189.6 673.67,-189.6 673.67,-170.4 673.67,-170.4 673.67,-164.4 679.67,-158.4 685.67,-158.4 685.67,-158.4 750.44,-158.4 750.44,-158.4 756.44,-158.4 762.44,-164.4 762.44,-170.4 762.44,-170.4 762.44,-189.6 762.44,-189.6 762.44,-195.6 756.44,-201.6 750.44,-201.6"/>
<text text-anchor="middle" x="718.05" y="-172.8" font-family="Times,serif" font-size="24.00">rowan</text>
</g>
<!-- baml_compiler_syntax&#45;&gt;rowan -->
<g id="edge16" class="edge">
<title>baml_compiler_syntax&#45;&gt;rowan</title>
<path fill="none" stroke="#555555" d="M661.37,-237.1C669.36,-229.19 678.62,-220.03 687.3,-211.44"/>
<polygon fill="#555555" stroke="#555555" points="690.12,-214.56 695.69,-203.13 684.21,-208.59 690.12,-214.56"/>
</g>
<!-- baml_compiler_tir -->
<g id="node12" class="node">
<title>baml_compiler_tir</title>
<path fill="#82c99a" stroke="black" d="M731.76,-518.4C731.76,-518.4 548.35,-518.4 548.35,-518.4 542.35,-518.4 536.35,-512.4 536.35,-506.4 536.35,-506.4 536.35,-487.2 536.35,-487.2 536.35,-481.2 542.35,-475.2 548.35,-475.2 548.35,-475.2 731.76,-475.2 731.76,-475.2 737.76,-475.2 743.76,-481.2 743.76,-487.2 743.76,-487.2 743.76,-506.4 743.76,-506.4 743.76,-512.4 737.76,-518.4 731.76,-518.4"/>
<text text-anchor="middle" x="640.05" y="-489.6" font-family="Times,serif" font-size="24.00">baml_compiler_tir</text>
</g>
<!-- baml_compiler_tir&#45;&gt;baml_compiler_hir -->
<g id="edge17" class="edge">
<title>baml_compiler_tir&#45;&gt;baml_compiler_hir</title>
<path fill="none" stroke="#555555" d="M620.93,-474.7C613.9,-466.96 605.8,-458.02 598.16,-449.59"/>
<polygon fill="#555555" stroke="#555555" points="601.35,-446.86 590.18,-440.79 595.12,-452.5 601.35,-446.86"/>
</g>
<!-- baml_vm -->
<g id="node22" class="node">
<title>baml_vm</title>
<path fill="#98d8c8" stroke="black" d="M817.78,-360C817.78,-360 722.33,-360 722.33,-360 716.33,-360 710.33,-354 710.33,-348 710.33,-348 710.33,-328.8 710.33,-328.8 710.33,-322.8 716.33,-316.8 722.33,-316.8 722.33,-316.8 817.78,-316.8 817.78,-316.8 823.78,-316.8 829.78,-322.8 829.78,-328.8 829.78,-328.8 829.78,-348 829.78,-348 829.78,-354 823.78,-360 817.78,-360"/>
<text text-anchor="middle" x="770.05" y="-331.2" font-family="Times,serif" font-size="24.00">baml_vm</text>
</g>
<!-- baml_compiler_tir&#45;&gt;baml_vm -->
<g id="edge18" class="edge">
<title>baml_compiler_tir&#45;&gt;baml_vm</title>
<path fill="none" stroke="#555555" d="M657.59,-474.71C679.84,-447.93 718.43,-401.51 744.1,-370.63"/>
<polygon fill="#555555" stroke="#555555" points="747.18,-373.48 751.63,-361.57 740.72,-368.12 747.18,-373.48"/>
</g>
<!-- baml_compiler_vir&#45;&gt;baml_compiler_tir -->
<g id="edge19" class="edge">
<title>baml_compiler_vir&#45;&gt;baml_compiler_tir</title>
<path fill="none" stroke="#555555" d="M640.05,-553.9C640.05,-547.18 640.05,-539.56 640.05,-532.15"/>
<polygon fill="#555555" stroke="#555555" points="644.25,-532.38 640.05,-520.38 635.85,-532.38 644.25,-532.38"/>
</g>
<!-- baml_db -->
<g id="node14" class="node">
<title>baml_db</title>
<path fill="#f8d7da" stroke="black" d="M684.45,-835.2C684.45,-835.2 595.66,-835.2 595.66,-835.2 589.66,-835.2 583.66,-829.2 583.66,-823.2 583.66,-823.2 583.66,-804 583.66,-804 583.66,-798 589.66,-792 595.66,-792 595.66,-792 684.45,-792 684.45,-792 690.45,-792 696.45,-798 696.45,-804 696.45,-804 696.45,-823.2 696.45,-823.2 696.45,-829.2 690.45,-835.2 684.45,-835.2"/>
<text text-anchor="middle" x="640.05" y="-806.4" font-family="Times,serif" font-size="24.00">baml_db</text>
</g>
<!-- baml_db&#45;&gt;baml_compiler_emit -->
<g id="edge20" class="edge">
<title>baml_db&#45;&gt;baml_compiler_emit</title>
<path fill="none" stroke="#555555" d="M640.05,-791.5C640.05,-784.78 640.05,-777.16 640.05,-769.75"/>
<polygon fill="#555555" stroke="#555555" points="644.25,-769.98 640.05,-757.98 635.85,-769.98 644.25,-769.98"/>
</g>
<!-- baml_ide -->
<g id="node15" class="node">
<title>baml_ide</title>
<path fill="#f8d7da" stroke="black" d="M106.11,-993.6C106.11,-993.6 12,-993.6 12,-993.6 6,-993.6 0,-987.6 0,-981.6 0,-981.6 0,-962.4 0,-962.4 0,-956.4 6,-950.4 12,-950.4 12,-950.4 106.11,-950.4 106.11,-950.4 112.11,-950.4 118.11,-956.4 118.11,-962.4 118.11,-962.4 118.11,-981.6 118.11,-981.6 118.11,-987.6 112.11,-993.6 106.11,-993.6"/>
<text text-anchor="middle" x="59.05" y="-964.8" font-family="Times,serif" font-size="24.00">baml_ide</text>
</g>
<!-- baml_project -->
<g id="node19" class="node">
<title>baml_project</title>
<path fill="#c3e6cb" stroke="black" d="M705.76,-914.4C705.76,-914.4 574.34,-914.4 574.34,-914.4 568.34,-914.4 562.34,-908.4 562.34,-902.4 562.34,-902.4 562.34,-883.2 562.34,-883.2 562.34,-877.2 568.34,-871.2 574.34,-871.2 574.34,-871.2 705.76,-871.2 705.76,-871.2 711.76,-871.2 717.76,-877.2 717.76,-883.2 717.76,-883.2 717.76,-902.4 717.76,-902.4 717.76,-908.4 711.76,-914.4 705.76,-914.4"/>
<text text-anchor="middle" x="640.05" y="-885.6" font-family="Times,serif" font-size="24.00">baml_project</text>
</g>
<!-- baml_ide&#45;&gt;baml_project -->
<g id="edge21" class="edge">
<title>baml_ide&#45;&gt;baml_project</title>
<path fill="none" stroke="#555555" d="M118.44,-952.72C122.02,-951.87 125.57,-951.09 129.05,-950.4 280.3,-920.51 320.88,-931.89 474.05,-914.4 498.28,-911.63 524.47,-908.47 548.72,-905.46"/>
<polygon fill="#555555" stroke="#555555" points="549.09,-909.65 560.48,-903.99 548.05,-901.31 549.09,-909.65"/>
</g>
<!-- baml_ide_tests&#45;&gt;baml_ide -->
<g id="edge22" class="edge">
<title>baml_ide_tests&#45;&gt;baml_ide</title>
<path fill="none" stroke="#555555" d="M121.55,-1029.1C112.55,-1021.02 102.09,-1011.64 92.34,-1002.88"/>
<polygon fill="#555555" stroke="#555555" points="95.39,-999.97 83.65,-995.08 89.78,-1006.22 95.39,-999.97"/>
</g>
<!-- baml_lsp&#45;&gt;baml_ide -->
<g id="edge23" class="edge">
<title>baml_lsp&#45;&gt;baml_ide</title>
<path fill="none" stroke="#555555" d="M338.2,-1039.14C286.57,-1029.14 209.22,-1013.4 131.52,-994.11"/>
<polygon fill="#555555" stroke="#555555" points="132.67,-990.06 120.01,-991.22 130.63,-998.21 132.67,-990.06"/>
</g>
<!-- baml_lsp_types -->
<g id="node18" class="node">
<title>baml_lsp_types</title>
<path fill="#98d8c8" stroke="black" d="M307.78,-993.6C307.78,-993.6 152.33,-993.6 152.33,-993.6 146.33,-993.6 140.33,-987.6 140.33,-981.6 140.33,-981.6 140.33,-962.4 140.33,-962.4 140.33,-956.4 146.33,-950.4 152.33,-950.4 152.33,-950.4 307.78,-950.4 307.78,-950.4 313.78,-950.4 319.78,-956.4 319.78,-962.4 319.78,-962.4 319.78,-981.6 319.78,-981.6 319.78,-987.6 313.78,-993.6 307.78,-993.6"/>
<text text-anchor="middle" x="230.05" y="-964.8" font-family="Times,serif" font-size="24.00">baml_lsp_types</text>
</g>
<!-- baml_lsp&#45;&gt;baml_lsp_types -->
<g id="edge24" class="edge">
<title>baml_lsp&#45;&gt;baml_lsp_types</title>
<path fill="none" stroke="#555555" d="M351.42,-1029.1C331.81,-1020.04 308.68,-1009.34 287.89,-999.73"/>
<polygon fill="#555555" stroke="#555555" points="289.66,-995.93 277.01,-994.7 286.14,-1003.55 289.66,-995.93"/>
</g>
<!-- thiserror -->
<g id="node27" class="node">
<title>thiserror</title>
<path fill="white" stroke="black" d="M440.11,-993.6C440.11,-993.6 354,-993.6 354,-993.6 348,-993.6 342,-987.6 342,-981.6 342,-981.6 342,-962.4 342,-962.4 342,-956.4 348,-950.4 354,-950.4 354,-950.4 440.11,-950.4 440.11,-950.4 446.11,-950.4 452.11,-956.4 452.11,-962.4 452.11,-962.4 452.11,-981.6 452.11,-981.6 452.11,-987.6 446.11,-993.6 440.11,-993.6"/>
<text text-anchor="middle" x="397.05" y="-964.8" font-family="Times,serif" font-size="24.00">thiserror</text>
</g>
<!-- baml_lsp&#45;&gt;thiserror -->
<g id="edge25" class="edge">
<title>baml_lsp&#45;&gt;thiserror</title>
<path fill="none" stroke="#555555" d="M397.05,-1029.1C397.05,-1022.38 397.05,-1014.76 397.05,-1007.35"/>
<polygon fill="#555555" stroke="#555555" points="401.25,-1007.58 397.05,-995.58 392.85,-1007.58 401.25,-1007.58"/>
</g>
<!-- tokio -->
<g id="node28" class="node">
<title>tokio</title>
<path fill="white" stroke="black" d="M540.12,-993.6C540.12,-993.6 485.99,-993.6 485.99,-993.6 479.99,-993.6 473.99,-987.6 473.99,-981.6 473.99,-981.6 473.99,-962.4 473.99,-962.4 473.99,-956.4 479.99,-950.4 485.99,-950.4 485.99,-950.4 540.12,-950.4 540.12,-950.4 546.12,-950.4 552.12,-956.4 552.12,-962.4 552.12,-962.4 552.12,-981.6 552.12,-981.6 552.12,-987.6 546.12,-993.6 540.12,-993.6"/>
<text text-anchor="middle" x="513.05" y="-964.8" font-family="Times,serif" font-size="24.00">tokio</text>
</g>
<!-- baml_lsp&#45;&gt;tokio -->
<g id="edge26" class="edge">
<title>baml_lsp&#45;&gt;tokio</title>
<path fill="none" stroke="#555555" d="M428.75,-1029.1C441.54,-1020.59 456.49,-1010.64 470.22,-1001.51"/>
<polygon fill="#555555" stroke="#555555" points="472.47,-1005.05 480.14,-994.91 467.82,-998.06 472.47,-1005.05"/>
</g>
<!-- baml_lsp_types&#45;&gt;anyhow -->
<g id="edge27" class="edge">
<title>baml_lsp_types&#45;&gt;anyhow</title>
<path fill="none" stroke="#555555" d="M251.64,-949.9C259.74,-941.99 269.11,-932.83 277.91,-924.24"/>
<polygon fill="#555555" stroke="#555555" points="280.76,-927.32 286.41,-915.93 274.89,-921.31 280.76,-927.32"/>
</g>
<!-- serde -->
<g id="node26" class="node">
<title>serde</title>
<path fill="white" stroke="black" d="M450.77,-914.4C450.77,-914.4 395.34,-914.4 395.34,-914.4 389.34,-914.4 383.34,-908.4 383.34,-902.4 383.34,-902.4 383.34,-883.2 383.34,-883.2 383.34,-877.2 389.34,-871.2 395.34,-871.2 395.34,-871.2 450.77,-871.2 450.77,-871.2 456.77,-871.2 462.77,-877.2 462.77,-883.2 462.77,-883.2 462.77,-902.4 462.77,-902.4 462.77,-908.4 456.77,-914.4 450.77,-914.4"/>
<text text-anchor="middle" x="423.05" y="-885.6" font-family="Times,serif" font-size="24.00">serde</text>
</g>
<!-- baml_lsp_types&#45;&gt;serde -->
<g id="edge28" class="edge">
<title>baml_lsp_types&#45;&gt;serde</title>
<path fill="none" stroke="#555555" d="M283.01,-949.96C306.91,-940.45 335.75,-928.95 370.45,-915.03"/>
<polygon fill="#555555" stroke="#555555" points="371.99,-918.94 381.57,-910.57 368.87,-911.14 371.99,-918.94"/>
</g>
<!-- baml_project&#45;&gt;baml_db -->
<g id="edge29" class="edge">
<title>baml_project&#45;&gt;baml_db</title>
<path fill="none" stroke="#555555" d="M640.05,-870.7C640.05,-863.98 640.05,-856.36 640.05,-848.95"/>
<polygon fill="#555555" stroke="#555555" points="644.25,-849.18 640.05,-837.18 635.85,-849.18 644.25,-849.18"/>
</g>
<!-- baml_tests&#45;&gt;anyhow -->
<g id="edge30" class="edge">
<title>baml_tests&#45;&gt;anyhow</title>
<path fill="none" stroke="#555555" d="M574.19,-953.03C570.43,-952.11 566.7,-951.23 563.05,-950.4 482.86,-932.14 458.08,-935.48 374.85,-914.9"/>
<polygon fill="#555555" stroke="#555555" points="375.97,-910.85 363.31,-911.98 373.91,-919 375.97,-910.85"/>
</g>
<!-- baml_tests&#45;&gt;baml_project -->
<g id="edge31" class="edge">
<title>baml_tests&#45;&gt;baml_project</title>
<path fill="none" stroke="#555555" d="M640.05,-949.9C640.05,-943.18 640.05,-935.56 640.05,-928.15"/>
<polygon fill="#555555" stroke="#555555" points="644.25,-928.38 640.05,-916.38 635.85,-928.38 644.25,-928.38"/>
</g>
<!-- baml_tools_onionskin&#45;&gt;anyhow -->
<g id="edge32" class="edge">
<title>baml_tools_onionskin&#45;&gt;anyhow</title>
<path fill="none" stroke="#555555" d="M727.53,-951.8C724,-951.32 720.5,-950.85 717.05,-950.4 568.36,-931.05 525.18,-945.69 374.72,-914.66"/>
<polygon fill="#555555" stroke="#555555" points="375.86,-910.61 363.25,-912.25 374.13,-918.83 375.86,-910.61"/>
</g>
<!-- baml_tools_onionskin&#45;&gt;baml_project -->
<g id="edge33" class="edge">
<title>baml_tools_onionskin&#45;&gt;baml_project</title>
<path fill="none" stroke="#555555" d="M791.94,-949.9C766.49,-940.5 736.27,-929.34 709.51,-919.46"/>
<polygon fill="#555555" stroke="#555555" points="711.23,-915.61 698.52,-915.39 708.32,-923.49 711.23,-915.61"/>
</g>
<!-- baml_vm&#45;&gt;baml_base -->
<g id="edge34" class="edge">
<title>baml_vm&#45;&gt;baml_base</title>
<path fill="none" stroke="#555555" d="M778.02,-316.53C790.41,-280.15 809.34,-204.6 773.05,-158.4 756.73,-137.62 695.31,-122.59 643.24,-113.27"/>
<polygon fill="#555555" stroke="#555555" points="644.27,-109.18 631.73,-111.28 642.84,-117.46 644.27,-109.18"/>
</g>
<!-- baml_workspace&#45;&gt;baml_base -->
<g id="edge35" class="edge">
<title>baml_workspace&#45;&gt;baml_base</title>
<path fill="none" stroke="#555555" d="M338.76,-157.9C384.45,-146.53 440.47,-132.58 485.22,-121.43"/>
<polygon fill="#555555" stroke="#555555" points="486.02,-125.56 496.65,-118.59 483.99,-117.41 486.02,-125.56"/>
</g>
</g>
</svg>
