<?xml version="1.0" encoding="UTF-8" standalone="no"?>
<!DOCTYPE svg PUBLIC "-//W3C//DTD SVG 1.1//EN"
 "http://www.w3.org/Graphics/SVG/1.1/DTD/svg11.dtd">
<!-- Generated by graphviz version 14.1.1 (20251213.1925)
 -->
<!-- Title: dependencies Pages: 1 -->
<svg width="1612pt" height="1415pt"
 viewBox="0.00 0.00 1612.00 1415.00" xmlns="http://www.w3.org/2000/svg" xmlns:xlink="http://www.w3.org/1999/xlink">
<g id="graph0" class="graph" transform="scale(1 1) rotate(0) translate(4 1411)">
<title>dependencies</title>
<polygon fill="#f8f9fa" stroke="none" points="-4,4 -4,-1411 1608,-1411 1608,4 -4,4"/>
<g id="clust1" class="cluster">
<title>cluster_baml</title>
<path fill="#e4cdcd" stroke="#971a1a" stroke-width="2" d="M1022,-8C1022,-8 1584,-8 1584,-8 1590,-8 1596,-14 1596,-20 1596,-20 1596,-1387 1596,-1387 1596,-1393 1590,-1399 1584,-1399 1584,-1399 1022,-1399 1022,-1399 1016,-1399 1010,-1393 1010,-1387 1010,-1387 1010,-20 1010,-20 1010,-14 1016,-8 1022,-8"/>
<text xml:space="preserve" text-anchor="middle" x="1303" y="-1381.7" font-family="Helvetica Bold" font-size="14.00">baml</text>
</g>
<g id="clust2" class="cluster">
<title>cluster_bex</title>
<path fill="#d8e4cd" stroke="#59971a" stroke-width="2" d="M458,-572C458,-572 712,-572 712,-572 718,-572 724,-578 724,-584 724,-584 724,-1105 724,-1105 724,-1111 718,-1117 712,-1117 712,-1117 458,-1117 458,-1117 452,-1117 446,-1111 446,-1105 446,-1105 446,-584 446,-584 446,-578 452,-572 458,-572"/>
<text xml:space="preserve" text-anchor="middle" x="585" y="-1099.7" font-family="Helvetica Bold" font-size="14.00">bex</text>
</g>
<g id="clust3" class="cluster">
<title>cluster_sys</title>
<path fill="#cde4e4" stroke="#1a9797" stroke-width="2" d="M744,-666C744,-666 990,-666 990,-666 996,-666 1002,-672 1002,-678 1002,-678 1002,-917 1002,-917 1002,-923 996,-929 990,-929 990,-929 744,-929 744,-929 738,-929 732,-923 732,-917 732,-917 732,-678 732,-678 732,-672 738,-666 744,-666"/>
<text xml:space="preserve" text-anchor="middle" x="867" y="-911.7" font-family="Helvetica Bold" font-size="14.00">sys</text>
</g>
<g id="clust4" class="cluster">
<title>cluster_tools</title>
<path fill="#d8cde4" stroke="#591a97" stroke-width="2" d="M20,-1042C20,-1042 426,-1042 426,-1042 432,-1042 438,-1048 438,-1054 438,-1054 438,-1199 438,-1199 438,-1205 432,-1211 426,-1211 426,-1211 20,-1211 20,-1211 14,-1211 8,-1205 8,-1199 8,-1199 8,-1054 8,-1054 8,-1048 14,-1042 20,-1042"/>
<text xml:space="preserve" text-anchor="middle" x="223" y="-1193.7" font-family="Helvetica Bold" font-size="14.00">tools</text>
</g>
<!-- baml_base -->
<g id="node1" class="node">
<title>baml_base</title>
<polygon fill="#e4cdcd" stroke="#971a1a" stroke-width="2" points="1264.25,-146 1195.75,-146 1195.75,-110 1264.25,-110 1264.25,-146"/>
<text xml:space="preserve" text-anchor="middle" x="1230" y="-123.55" font-family="Helvetica,sans-Serif" font-size="11.00">baml_base</text>
</g>
<!-- baml_salsa -->
<g id="node26" class="node">
<title>baml_salsa</title>
<polygon fill="#d0d0d0" stroke="#606060" stroke-width="2" points="1257,-52 1203,-52 1203,-16 1257,-16 1257,-52"/>
<text xml:space="preserve" text-anchor="middle" x="1230" y="-29.55" font-family="Helvetica,sans-Serif" font-size="11.00">salsa</text>
</g>
<!-- baml_base&#45;&gt;baml_salsa -->
<g id="edge1" class="edge">
<title>baml_base&#45;&gt;baml_salsa</title>
<path fill="none" stroke="#444444" d="M1230,-109.43C1230,-109.43 1230,-61.37 1230,-61.37"/>
<polygon fill="#444444" stroke="#444444" points="1232.45,-61.37 1230,-54.37 1227.55,-61.37 1232.45,-61.37"/>
</g>
<!-- baml_builtins -->
<g id="node2" class="node">
<title>baml_builtins</title>
<polygon fill="#e4cdcd" stroke="#971a1a" stroke-width="2" points="1107.12,-522 1028.88,-522 1028.88,-486 1107.12,-486 1107.12,-522"/>
<text xml:space="preserve" text-anchor="middle" x="1068" y="-499.55" font-family="Helvetica,sans-Serif" font-size="11.00">baml_builtins</text>
</g>
<!-- baml_builtins_macros -->
<g id="node3" class="node">
<title>baml_builtins_macros</title>
<polygon fill="#df9fd2" stroke="#971a1a" stroke-width="2" points="1137.75,-428 1018.25,-428 1018.25,-392 1137.75,-392 1137.75,-428"/>
<text xml:space="preserve" text-anchor="middle" x="1078" y="-405.55" font-family="Helvetica,sans-Serif" font-size="11.00">baml_builtins_macros</text>
</g>
<!-- baml_builtins&#45;&gt;baml_builtins_macros -->
<g id="edge2" class="edge">
<title>baml_builtins&#45;&gt;baml_builtins_macros</title>
<path fill="none" stroke="#444444" d="M1068,-485.43C1068,-485.43 1068,-437.37 1068,-437.37"/>
<polygon fill="#444444" stroke="#444444" points="1070.45,-437.37 1068,-430.37 1065.55,-437.37 1070.45,-437.37"/>
</g>
<!-- baml_cli -->
<g id="node4" class="node">
<title>baml_cli</title>
<polygon fill="#e4cdcd" stroke="#971a1a" stroke-width="2" points="1404.5,-1368 1349.5,-1368 1349.5,-1332 1404.5,-1332 1404.5,-1368"/>
<text xml:space="preserve" text-anchor="middle" x="1377" y="-1345.55" font-family="Helvetica,sans-Serif" font-size="11.00">baml_cli</text>
</g>
<!-- baml_lsp -->
<g id="node18" class="node">
<title>baml_lsp</title>
<polygon fill="#e4cdcd" stroke="#971a1a" stroke-width="2" points="1357.38,-1274 1298.62,-1274 1298.62,-1238 1357.38,-1238 1357.38,-1274"/>
<text xml:space="preserve" text-anchor="middle" x="1328" y="-1251.55" font-family="Helvetica,sans-Serif" font-size="11.00">baml_lsp</text>
</g>
<!-- baml_cli&#45;&gt;baml_lsp -->
<g id="edge3" class="edge">
<title>baml_cli&#45;&gt;baml_lsp</title>
<path fill="none" stroke="#444444" d="M1353.44,-1331.43C1353.44,-1331.43 1353.44,-1283.37 1353.44,-1283.37"/>
<polygon fill="#444444" stroke="#444444" points="1355.89,-1283.37 1353.44,-1276.37 1350.99,-1283.37 1355.89,-1283.37"/>
</g>
<!-- baml_clap_af4045ea -->
<g id="node24" class="node">
<title>baml_clap_af4045ea</title>
<polygon fill="#d0d0d0" stroke="#606060" stroke-width="2" points="1460.88,-1274 1393.12,-1274 1393.12,-1238 1460.88,-1238 1460.88,-1274"/>
<text xml:space="preserve" text-anchor="middle" x="1427" y="-1257.55" font-family="Helvetica,sans-Serif" font-size="11.00">clap</text>
<text xml:space="preserve" text-anchor="middle" x="1427" y="-1245.55" font-family="Helvetica,sans-Serif" font-size="11.00">[color, env]</text>
</g>
<!-- baml_cli&#45;&gt;baml_clap_af4045ea -->
<g id="edge4" class="edge">
<title>baml_cli&#45;&gt;baml_clap_af4045ea</title>
<path fill="none" stroke="#444444" d="M1398.81,-1331.43C1398.81,-1331.43 1398.81,-1283.37 1398.81,-1283.37"/>
<polygon fill="#444444" stroke="#444444" points="1401.26,-1283.37 1398.81,-1276.37 1396.36,-1283.37 1401.26,-1283.37"/>
</g>
<!-- baml_codegen_python -->
<g id="node5" class="node">
<title>baml_codegen_python</title>
<polygon fill="#9fdfde" stroke="#971a1a" stroke-width="2" points="1142.38,-334 1017.62,-334 1017.62,-298 1142.38,-298 1142.38,-334"/>
<text xml:space="preserve" text-anchor="middle" x="1080" y="-311.55" font-family="Helvetica,sans-Serif" font-size="11.00">baml_codegen_python</text>
</g>
<!-- baml_codegen_types -->
<g id="node6" class="node">
<title>baml_codegen_types</title>
<polygon fill="#9fdfde" stroke="#971a1a" stroke-width="2" points="1136,-240 1018,-240 1018,-204 1136,-204 1136,-240"/>
<text xml:space="preserve" text-anchor="middle" x="1077" y="-217.55" font-family="Helvetica,sans-Serif" font-size="11.00">baml_codegen_types</text>
</g>
<!-- baml_codegen_python&#45;&gt;baml_codegen_types -->
<g id="edge5" class="edge">
<title>baml_codegen_python&#45;&gt;baml_codegen_types</title>
<path fill="none" stroke="#444444" d="M1077,-297.43C1077,-297.43 1077,-249.37 1077,-249.37"/>
<polygon fill="#444444" stroke="#444444" points="1079.45,-249.37 1077,-242.37 1074.55,-249.37 1079.45,-249.37"/>
</g>
<!-- baml_codegen_types&#45;&gt;baml_base -->
<g id="edge6" class="edge">
<title>baml_codegen_types&#45;&gt;baml_base</title>
<path fill="none" stroke="#444444" d="M1077,-203.17C1077,-178.68 1077,-139 1077,-139 1077,-139 1186.39,-139 1186.39,-139"/>
<polygon fill="#444444" stroke="#444444" points="1186.39,-141.45 1193.39,-139 1186.39,-136.55 1186.39,-141.45"/>
</g>
<!-- baml_compiler_diagnostics -->
<g id="node7" class="node">
<title>baml_compiler_diagnostics</title>
<polygon fill="#9fdfa6" stroke="#971a1a" stroke-width="2" points="1390.5,-334 1245.5,-334 1245.5,-298 1390.5,-298 1390.5,-334"/>
<text xml:space="preserve" text-anchor="middle" x="1318" y="-311.55" font-family="Helvetica,sans-Serif" font-size="11.00">baml_compiler_diagnostics</text>
</g>
<!-- baml_workspace -->
<g id="node22" class="node">
<title>baml_workspace</title>
<polygon fill="#e4cdcd" stroke="#971a1a" stroke-width="2" points="1420.5,-240 1323.5,-240 1323.5,-204 1420.5,-204 1420.5,-240"/>
<text xml:space="preserve" text-anchor="middle" x="1372" y="-217.55" font-family="Helvetica,sans-Serif" font-size="11.00">baml_workspace</text>
</g>
<!-- baml_compiler_diagnostics&#45;&gt;baml_workspace -->
<g id="edge7" class="edge">
<title>baml_compiler_diagnostics&#45;&gt;baml_workspace</title>
<path fill="none" stroke="#444444" d="M1357,-297.43C1357,-297.43 1357,-249.37 1357,-249.37"/>
<polygon fill="#444444" stroke="#444444" points="1359.45,-249.37 1357,-242.37 1354.55,-249.37 1359.45,-249.37"/>
</g>
<!-- baml_compiler_emit -->
<g id="node8" class="node">
<title>baml_compiler_emit</title>
<polygon fill="#9fdfa6" stroke="#971a1a" stroke-width="2" points="1130,-898 1018,-898 1018,-862 1130,-862 1130,-898"/>
<text xml:space="preserve" text-anchor="middle" x="1074" y="-875.55" font-family="Helvetica,sans-Serif" font-size="11.00">baml_compiler_emit</text>
</g>
<!-- baml_compiler_mir -->
<g id="node11" class="node">
<title>baml_compiler_mir</title>
<polygon fill="#9fdfa6" stroke="#971a1a" stroke-width="2" points="1210.38,-804 1103.62,-804 1103.62,-768 1210.38,-768 1210.38,-804"/>
<text xml:space="preserve" text-anchor="middle" x="1157" y="-781.55" font-family="Helvetica,sans-Serif" font-size="11.00">baml_compiler_mir</text>
</g>
<!-- baml_compiler_emit&#45;&gt;baml_compiler_mir -->
<g id="edge8" class="edge">
<title>baml_compiler_emit&#45;&gt;baml_compiler_mir</title>
<path fill="none" stroke="#444444" d="M1116.81,-861.43C1116.81,-861.43 1116.81,-813.37 1116.81,-813.37"/>
<polygon fill="#444444" stroke="#444444" points="1119.26,-813.37 1116.81,-806.37 1114.36,-813.37 1119.26,-813.37"/>
</g>
<!-- bex_vm_types -->
<g id="node34" class="node">
<title>bex_vm_types</title>
<polygon fill="#9fdfd1" stroke="#59971a" stroke-width="2" points="715.5,-616 630.5,-616 630.5,-580 715.5,-580 715.5,-616"/>
<text xml:space="preserve" text-anchor="middle" x="673" y="-593.55" font-family="Helvetica,sans-Serif" font-size="11.00">bex_vm_types</text>
</g>
<!-- baml_compiler_emit&#45;&gt;bex_vm_types -->
<g id="edge9" class="edge">
<title>baml_compiler_emit&#45;&gt;bex_vm_types</title>
<path fill="none" stroke="#666666" stroke-width="1.5" stroke-dasharray="5,2" d="M1023.56,-861.03C1023.56,-798.67 1023.56,-604 1023.56,-604 1023.56,-604 725.61,-604 725.61,-604"/>
<polygon fill="#666666" stroke="#666666" stroke-width="1.5" points="725.61,-601.55 718.61,-604 725.61,-606.45 725.61,-601.55"/>
</g>
<!-- baml_compiler_hir -->
<g id="node9" class="node">
<title>baml_compiler_hir</title>
<polygon fill="#9fdfa6" stroke="#971a1a" stroke-width="2" points="1277.88,-522 1174.12,-522 1174.12,-486 1277.88,-486 1277.88,-522"/>
<text xml:space="preserve" text-anchor="middle" x="1226" y="-499.55" font-family="Helvetica,sans-Serif" font-size="11.00">baml_compiler_hir</text>
</g>
<!-- baml_compiler_parser -->
<g id="node12" class="node">
<title>baml_compiler_parser</title>
<polygon fill="#9fdfa6" stroke="#971a1a" stroke-width="2" points="1348.25,-428 1225.75,-428 1225.75,-392 1348.25,-392 1348.25,-428"/>
<text xml:space="preserve" text-anchor="middle" x="1287" y="-405.55" font-family="Helvetica,sans-Serif" font-size="11.00">baml_compiler_parser</text>
</g>
<!-- baml_compiler_hir&#45;&gt;baml_compiler_parser -->
<g id="edge10" class="edge">
<title>baml_compiler_hir&#45;&gt;baml_compiler_parser</title>
<path fill="none" stroke="#444444" d="M1251.81,-485.43C1251.81,-485.43 1251.81,-437.37 1251.81,-437.37"/>
<polygon fill="#444444" stroke="#444444" points="1254.26,-437.37 1251.81,-430.37 1249.36,-437.37 1254.26,-437.37"/>
</g>
<!-- baml_compiler_lexer -->
<g id="node10" class="node">
<title>baml_compiler_lexer</title>
<polygon fill="#9fdfa6" stroke="#971a1a" stroke-width="2" points="1287.5,-240 1172.5,-240 1172.5,-204 1287.5,-204 1287.5,-240"/>
<text xml:space="preserve" text-anchor="middle" x="1230" y="-217.55" font-family="Helvetica,sans-Serif" font-size="11.00">baml_compiler_lexer</text>
</g>
<!-- baml_compiler_lexer&#45;&gt;baml_base -->
<g id="edge11" class="edge">
<title>baml_compiler_lexer&#45;&gt;baml_base</title>
<path fill="none" stroke="#444444" d="M1230,-203.43C1230,-203.43 1230,-155.37 1230,-155.37"/>
<polygon fill="#444444" stroke="#444444" points="1232.45,-155.37 1230,-148.37 1227.55,-155.37 1232.45,-155.37"/>
</g>
<!-- baml_compiler_vir -->
<g id="node15" class="node">
<title>baml_compiler_vir</title>
<polygon fill="#9fdfa6" stroke="#971a1a" stroke-width="2" points="1208.5,-710 1105.5,-710 1105.5,-674 1208.5,-674 1208.5,-710"/>
<text xml:space="preserve" text-anchor="middle" x="1157" y="-687.55" font-family="Helvetica,sans-Serif" font-size="11.00">baml_compiler_vir</text>
</g>
<!-- baml_compiler_mir&#45;&gt;baml_compiler_vir -->
<g id="edge12" class="edge">
<title>baml_compiler_mir&#45;&gt;baml_compiler_vir</title>
<path fill="none" stroke="#444444" d="M1157,-767.43C1157,-767.43 1157,-719.37 1157,-719.37"/>
<polygon fill="#444444" stroke="#444444" points="1159.45,-719.37 1157,-712.37 1154.55,-719.37 1159.45,-719.37"/>
</g>
<!-- baml_compiler_parser&#45;&gt;baml_compiler_diagnostics -->
<g id="edge13" class="edge">
<title>baml_compiler_parser&#45;&gt;baml_compiler_diagnostics</title>
<path fill="none" stroke="#444444" d="M1296.88,-391.43C1296.88,-391.43 1296.88,-343.37 1296.88,-343.37"/>
<polygon fill="#444444" stroke="#444444" points="1299.33,-343.37 1296.88,-336.37 1294.43,-343.37 1299.33,-343.37"/>
</g>
<!-- baml_compiler_parser&#45;&gt;baml_compiler_lexer -->
<g id="edge14" class="edge">
<title>baml_compiler_parser&#45;&gt;baml_compiler_lexer</title>
<path fill="none" stroke="#444444" d="M1235.62,-391.29C1235.62,-391.29 1235.62,-249.43 1235.62,-249.43"/>
<polygon fill="#444444" stroke="#444444" points="1238.08,-249.43 1235.63,-242.43 1233.18,-249.43 1238.08,-249.43"/>
</g>
<!-- baml_compiler_syntax -->
<g id="node13" class="node">
<title>baml_compiler_syntax</title>
<polygon fill="#9fdfa6" stroke="#971a1a" stroke-width="2" points="1549.25,-334 1426.75,-334 1426.75,-298 1549.25,-298 1549.25,-334"/>
<text xml:space="preserve" text-anchor="middle" x="1488" y="-311.55" font-family="Helvetica,sans-Serif" font-size="11.00">baml_compiler_syntax</text>
</g>
<!-- baml_compiler_parser&#45;&gt;baml_compiler_syntax -->
<g id="edge15" class="edge">
<title>baml_compiler_parser&#45;&gt;baml_compiler_syntax</title>
<path fill="none" stroke="#444444" d="M1349.22,-410C1408.25,-410 1488,-410 1488,-410 1488,-410 1488,-343.08 1488,-343.08"/>
<polygon fill="#444444" stroke="#444444" points="1490.45,-343.08 1488,-336.08 1485.55,-343.08 1490.45,-343.08"/>
</g>
<!-- baml_compiler_syntax&#45;&gt;baml_base -->
<g id="edge16" class="edge">
<title>baml_compiler_syntax&#45;&gt;baml_base</title>
<path fill="none" stroke="#444444" d="M1460.88,-297.05C1460.88,-248.23 1460.88,-122 1460.88,-122 1460.88,-122 1273.58,-122 1273.58,-122"/>
<polygon fill="#444444" stroke="#444444" points="1273.58,-119.55 1266.58,-122 1273.58,-124.45 1273.58,-119.55"/>
</g>
<!-- baml_rowan -->
<g id="node25" class="node">
<title>baml_rowan</title>
<polygon fill="#d0d0d0" stroke="#606060" stroke-width="2" points="1549,-240 1495,-240 1495,-204 1549,-204 1549,-240"/>
<text xml:space="preserve" text-anchor="middle" x="1522" y="-217.55" font-family="Helvetica,sans-Serif" font-size="11.00">rowan</text>
</g>
<!-- baml_compiler_syntax&#45;&gt;baml_rowan -->
<g id="edge17" class="edge">
<title>baml_compiler_syntax&#45;&gt;baml_rowan</title>
<path fill="none" stroke="#444444" d="M1522,-297.43C1522,-297.43 1522,-249.37 1522,-249.37"/>
<polygon fill="#444444" stroke="#444444" points="1524.45,-249.37 1522,-242.37 1519.55,-249.37 1524.45,-249.37"/>
</g>
<!-- baml_compiler_tir -->
<g id="node14" class="node">
<title>baml_compiler_tir</title>
<polygon fill="#9fdfa6" stroke="#971a1a" stroke-width="2" points="1207.38,-616 1106.62,-616 1106.62,-580 1207.38,-580 1207.38,-616"/>
<text xml:space="preserve" text-anchor="middle" x="1157" y="-593.55" font-family="Helvetica,sans-Serif" font-size="11.00">baml_compiler_tir</text>
</g>
<!-- baml_compiler_tir&#45;&gt;baml_builtins -->
<g id="edge18" class="edge">
<title>baml_compiler_tir&#45;&gt;baml_builtins</title>
<path fill="none" stroke="#444444" d="M1122.44,-579.43C1122.44,-552.03 1122.44,-504 1122.44,-504 1122.44,-504 1116.36,-504 1116.36,-504"/>
<polygon fill="#444444" stroke="#444444" points="1116.36,-501.55 1109.36,-504 1116.36,-506.45 1116.36,-501.55"/>
</g>
<!-- baml_compiler_tir&#45;&gt;baml_compiler_hir -->
<g id="edge19" class="edge">
<title>baml_compiler_tir&#45;&gt;baml_compiler_hir</title>
<path fill="none" stroke="#444444" d="M1190.75,-579.43C1190.75,-579.43 1190.75,-531.37 1190.75,-531.37"/>
<polygon fill="#444444" stroke="#444444" points="1193.2,-531.37 1190.75,-524.37 1188.3,-531.37 1193.2,-531.37"/>
</g>
<!-- baml_compiler_vir&#45;&gt;baml_compiler_tir -->
<g id="edge20" class="edge">
<title>baml_compiler_vir&#45;&gt;baml_compiler_tir</title>
<path fill="none" stroke="#444444" d="M1157,-673.43C1157,-673.43 1157,-625.37 1157,-625.37"/>
<polygon fill="#444444" stroke="#444444" points="1159.45,-625.37 1157,-618.37 1154.55,-625.37 1159.45,-625.37"/>
</g>
<!-- baml_db -->
<g id="node16" class="node">
<title>baml_db</title>
<polygon fill="#e4cdcd" stroke="#971a1a" stroke-width="2" points="1097.62,-992 1040.38,-992 1040.38,-956 1097.62,-956 1097.62,-992"/>
<text xml:space="preserve" text-anchor="middle" x="1069" y="-969.55" font-family="Helvetica,sans-Serif" font-size="11.00">baml_db</text>
</g>
<!-- baml_db&#45;&gt;baml_compiler_emit -->
<g id="edge21" class="edge">
<title>baml_db&#45;&gt;baml_compiler_emit</title>
<path fill="none" stroke="#444444" d="M1069,-955.43C1069,-955.43 1069,-907.37 1069,-907.37"/>
<polygon fill="#444444" stroke="#444444" points="1071.45,-907.37 1069,-900.37 1066.55,-907.37 1071.45,-907.37"/>
</g>
<!-- baml_ide -->
<g id="node17" class="node">
<title>baml_ide</title>
<polygon fill="#e4cdcd" stroke="#971a1a" stroke-width="2" points="1077.75,-1180 1018.25,-1180 1018.25,-1144 1077.75,-1144 1077.75,-1180"/>
<text xml:space="preserve" text-anchor="middle" x="1048" y="-1157.55" font-family="Helvetica,sans-Serif" font-size="11.00">baml_ide</text>
</g>
<!-- baml_project -->
<g id="node21" class="node">
<title>baml_project</title>
<polygon fill="#e4cdcd" stroke="#971a1a" stroke-width="2" points="1103.75,-1086 1026.25,-1086 1026.25,-1050 1103.75,-1050 1103.75,-1086"/>
<text xml:space="preserve" text-anchor="middle" x="1065" y="-1063.55" font-family="Helvetica,sans-Serif" font-size="11.00">baml_project</text>
</g>
<!-- baml_ide&#45;&gt;baml_project -->
<g id="edge22" class="edge">
<title>baml_ide&#45;&gt;baml_project</title>
<path fill="none" stroke="#444444" d="M1060.58,-1143.43C1060.58,-1143.43 1060.58,-1095.37 1060.58,-1095.37"/>
<polygon fill="#444444" stroke="#444444" points="1063.03,-1095.37 1060.58,-1088.37 1058.13,-1095.37 1063.03,-1095.37"/>
</g>
<!-- baml_lsp&#45;&gt;baml_ide -->
<g id="edge23" class="edge">
<title>baml_lsp&#45;&gt;baml_ide</title>
<path fill="none" stroke="#444444" d="M1297.77,-1256C1225.37,-1256 1048,-1256 1048,-1256 1048,-1256 1048,-1189.08 1048,-1189.08"/>
<polygon fill="#444444" stroke="#444444" points="1050.45,-1189.08 1048,-1182.08 1045.55,-1189.08 1050.45,-1189.08"/>
</g>
<!-- baml_lsp_types -->
<g id="node19" class="node">
<title>baml_lsp_types</title>
<polygon fill="#9fd9df" stroke="#971a1a" stroke-width="2" points="1373.12,-1180 1282.88,-1180 1282.88,-1144 1373.12,-1144 1373.12,-1180"/>
<text xml:space="preserve" text-anchor="middle" x="1328" y="-1157.55" font-family="Helvetica,sans-Serif" font-size="11.00">baml_lsp_types</text>
</g>
<!-- baml_lsp&#45;&gt;baml_lsp_types -->
<g id="edge24" class="edge">
<title>baml_lsp&#45;&gt;baml_lsp_types</title>
<path fill="none" stroke="#444444" d="M1328,-1237.43C1328,-1237.43 1328,-1189.37 1328,-1189.37"/>
<polygon fill="#444444" stroke="#444444" points="1330.45,-1189.37 1328,-1182.37 1325.55,-1189.37 1330.45,-1189.37"/>
</g>
<!-- baml_tokio_e7cec3ab -->
<g id="node28" class="node">
<title>baml_tokio_e7cec3ab</title>
<polygon fill="#d0d0d0" stroke="#606060" stroke-width="2" points="1588.38,-1180 1409.62,-1180 1409.62,-1144 1588.38,-1144 1588.38,-1180"/>
<text xml:space="preserve" text-anchor="middle" x="1499" y="-1163.55" font-family="Helvetica,sans-Serif" font-size="11.00">tokio</text>
<text xml:space="preserve" text-anchor="middle" x="1499" y="-1151.55" font-family="Helvetica,sans-Serif" font-size="11.00">[fs, net, rt&#45;multi&#45;thread, sync, time]</text>
</g>
<!-- baml_lsp&#45;&gt;baml_tokio_e7cec3ab -->
<g id="edge25" class="edge">
<title>baml_lsp&#45;&gt;baml_tokio_e7cec3ab</title>
<path fill="none" stroke="#444444" d="M1358.14,-1256C1371.01,-1256 1383.12,-1256 1383.12,-1256 1383.12,-1256 1383.12,-1162 1383.12,-1162 1383.12,-1162 1400.33,-1162 1400.33,-1162"/>
<polygon fill="#444444" stroke="#444444" points="1400.33,-1164.45 1407.33,-1162 1400.33,-1159.55 1400.33,-1164.45"/>
</g>
<!-- baml_anyhow -->
<g id="node23" class="node">
<title>baml_anyhow</title>
<polygon fill="#d0d0d0" stroke="#606060" stroke-width="2" points="1310,-1086 1256,-1086 1256,-1050 1310,-1050 1310,-1086"/>
<text xml:space="preserve" text-anchor="middle" x="1283" y="-1063.55" font-family="Helvetica,sans-Serif" font-size="11.00">anyhow</text>
</g>
<!-- baml_lsp_types&#45;&gt;baml_anyhow -->
<g id="edge26" class="edge">
<title>baml_lsp_types&#45;&gt;baml_anyhow</title>
<path fill="none" stroke="#444444" d="M1296.44,-1143.43C1296.44,-1143.43 1296.44,-1095.37 1296.44,-1095.37"/>
<polygon fill="#444444" stroke="#444444" points="1298.89,-1095.37 1296.44,-1088.37 1293.99,-1095.37 1298.89,-1095.37"/>
</g>
<!-- baml_serde -->
<g id="node27" class="node">
<title>baml_serde</title>
<polygon fill="#d0d0d0" stroke="#606060" stroke-width="2" points="1400,-1086 1346,-1086 1346,-1050 1400,-1050 1400,-1086"/>
<text xml:space="preserve" text-anchor="middle" x="1373" y="-1063.55" font-family="Helvetica,sans-Serif" font-size="11.00">serde</text>
</g>
<!-- baml_lsp_types&#45;&gt;baml_serde -->
<g id="edge27" class="edge">
<title>baml_lsp_types&#45;&gt;baml_serde</title>
<path fill="none" stroke="#444444" d="M1359.56,-1143.43C1359.56,-1143.43 1359.56,-1095.37 1359.56,-1095.37"/>
<polygon fill="#444444" stroke="#444444" points="1362.01,-1095.37 1359.56,-1088.37 1357.11,-1095.37 1362.01,-1095.37"/>
</g>
<!-- baml_playground_wasm -->
<g id="node20" class="node">
<title>baml_playground_wasm</title>
<polygon fill="#c6df9f" stroke="#971a1a" stroke-width="2" points="1246.5,-1180 1113.5,-1180 1113.5,-1144 1246.5,-1144 1246.5,-1180"/>
<text xml:space="preserve" text-anchor="middle" x="1180" y="-1157.55" font-family="Helvetica,sans-Serif" font-size="11.00">baml_playground_wasm</text>
</g>
<!-- baml_playground_wasm&#45;&gt;baml_project -->
<g id="edge28" class="edge">
<title>baml_playground_wasm&#45;&gt;baml_project</title>
<path fill="none" stroke="#444444" d="M1121.75,-1143.43C1121.75,-1116.03 1121.75,-1068 1121.75,-1068 1121.75,-1068 1113.24,-1068 1113.24,-1068"/>
<polygon fill="#444444" stroke="#444444" points="1113.24,-1065.55 1106.24,-1068 1113.24,-1070.45 1113.24,-1065.55"/>
</g>
<!-- baml_project&#45;&gt;baml_db -->
<g id="edge29" class="edge">
<title>baml_project&#45;&gt;baml_db</title>
<path fill="none" stroke="#444444" d="M1069,-1049.43C1069,-1049.43 1069,-1001.37 1069,-1001.37"/>
<polygon fill="#444444" stroke="#444444" points="1071.45,-1001.37 1069,-994.37 1066.55,-1001.37 1071.45,-1001.37"/>
</g>
<!-- baml_workspace&#45;&gt;baml_base -->
<g id="edge30" class="edge">
<title>baml_workspace&#45;&gt;baml_base</title>
<path fill="none" stroke="#444444" d="M1372,-203.34C1372,-177.51 1372,-134 1372,-134 1372,-134 1273.61,-134 1273.61,-134"/>
<polygon fill="#444444" stroke="#444444" points="1273.61,-131.55 1266.61,-134 1273.61,-136.45 1273.61,-131.55"/>
</g>
<!-- bex_engine -->
<g id="node29" class="node">
<title>bex_engine</title>
<polygon fill="#d8e4cd" stroke="#59971a" stroke-width="2" points="665.75,-1086 594.25,-1086 594.25,-1050 665.75,-1050 665.75,-1086"/>
<text xml:space="preserve" text-anchor="middle" x="630" y="-1063.55" font-family="Helvetica,sans-Serif" font-size="11.00">bex_engine</text>
</g>
<!-- bex_vm -->
<g id="node33" class="node">
<title>bex_vm</title>
<polygon fill="#d8e4cd" stroke="#59971a" stroke-width="2" points="508,-992 454,-992 454,-956 508,-956 508,-992"/>
<text xml:space="preserve" text-anchor="middle" x="481" y="-969.55" font-family="Helvetica,sans-Serif" font-size="11.00">bex_vm</text>
</g>
<!-- bex_engine&#45;&gt;bex_vm -->
<g id="edge31" class="edge">
<title>bex_engine&#45;&gt;bex_vm</title>
<path fill="none" stroke="#444444" d="M593.55,-1068C549.44,-1068 481,-1068 481,-1068 481,-1068 481,-1001.08 481,-1001.08"/>
<polygon fill="#444444" stroke="#444444" points="483.45,-1001.08 481,-994.08 478.55,-1001.08 483.45,-1001.08"/>
</g>
<!-- bex_tokio_f0c4432d -->
<g id="node35" class="node">
<title>bex_tokio_f0c4432d</title>
<polygon fill="#d0d0d0" stroke="#606060" stroke-width="2" points="715.62,-992 544.38,-992 544.38,-956 715.62,-956 715.62,-992"/>
<text xml:space="preserve" text-anchor="middle" x="630" y="-975.55" font-family="Helvetica,sans-Serif" font-size="11.00">tokio</text>
<text xml:space="preserve" text-anchor="middle" x="630" y="-963.55" font-family="Helvetica,sans-Serif" font-size="11.00">[macros, rt, rt&#45;multi&#45;thread, sync]</text>
</g>
<!-- bex_engine&#45;&gt;bex_tokio_f0c4432d -->
<g id="edge33" class="edge">
<title>bex_engine&#45;&gt;bex_tokio_f0c4432d</title>
<path fill="none" stroke="#444444" d="M630,-1049.43C630,-1049.43 630,-1001.37 630,-1001.37"/>
<polygon fill="#444444" stroke="#444444" points="632.45,-1001.37 630,-994.37 627.55,-1001.37 632.45,-1001.37"/>
</g>
<!-- sys_types -->
<g id="node38" class="node">
<title>sys_types</title>
<polygon fill="#cde4e4" stroke="#1a9797" stroke-width="2" points="993.62,-804 930.38,-804 930.38,-768 993.62,-768 993.62,-804"/>
<text xml:space="preserve" text-anchor="middle" x="962" y="-781.55" font-family="Helvetica,sans-Serif" font-size="11.00">sys_types</text>
</g>
<!-- bex_engine&#45;&gt;sys_types -->
<g id="edge32" class="edge">
<title>bex_engine&#45;&gt;sys_types</title>
<path fill="none" stroke="#666666" stroke-width="1.5" stroke-dasharray="5,2" d="M666.56,-1068C755.86,-1068 977.81,-1068 977.81,-1068 977.81,-1068 977.81,-814.21 977.81,-814.21"/>
<polygon fill="#666666" stroke="#666666" stroke-width="1.5" points="980.26,-814.21 977.81,-807.21 975.36,-814.21 980.26,-814.21"/>
</g>
<!-- bex_external_types -->
<g id="node30" class="node">
<title>bex_external_types</title>
<polygon fill="#df9fcf" stroke="#59971a" stroke-width="2" points="629.5,-804 520.5,-804 520.5,-768 629.5,-768 629.5,-804"/>
<text xml:space="preserve" text-anchor="middle" x="575" y="-781.55" font-family="Helvetica,sans-Serif" font-size="11.00">bex_external_types</text>
</g>
<!-- bex_external_types&#45;&gt;baml_base -->
<g id="edge34" class="edge">
<title>bex_external_types&#45;&gt;baml_base</title>
<path fill="none" stroke="#666666" stroke-width="1.5" stroke-dasharray="5,2" d="M573.81,-767.25C573.81,-659.52 573.81,-124 573.81,-124 573.81,-124 1185.91,-124 1185.91,-124"/>
<polygon fill="#666666" stroke="#666666" stroke-width="1.5" points="1185.91,-126.45 1192.91,-124 1185.91,-121.55 1185.91,-126.45"/>
</g>
<!-- bex_program -->
<g id="node32" class="node">
<title>bex_program</title>
<polygon fill="#d8e4cd" stroke="#59971a" stroke-width="2" points="706.88,-710 627.12,-710 627.12,-674 706.88,-674 706.88,-710"/>
<text xml:space="preserve" text-anchor="middle" x="667" y="-687.55" font-family="Helvetica,sans-Serif" font-size="11.00">bex_program</text>
</g>
<!-- bex_external_types&#45;&gt;bex_program -->
<g id="edge35" class="edge">
<title>bex_external_types&#45;&gt;bex_program</title>
<path fill="none" stroke="#444444" d="M630.28,-780C650.35,-780 668.19,-780 668.19,-780 668.19,-780 668.19,-719.18 668.19,-719.18"/>
<polygon fill="#444444" stroke="#444444" points="670.64,-719.18 668.19,-712.18 665.74,-719.18 670.64,-719.18"/>
</g>
<!-- sys_resource_types -->
<g id="node37" class="node">
<title>sys_resource_types</title>
<polygon fill="#d09fdf" stroke="#1a9797" stroke-width="2" points="854.62,-710 743.38,-710 743.38,-674 854.62,-674 854.62,-710"/>
<text xml:space="preserve" text-anchor="middle" x="799" y="-687.55" font-family="Helvetica,sans-Serif" font-size="11.00">sys_resource_types</text>
</g>
<!-- bex_external_types&#45;&gt;sys_resource_types -->
<g id="edge36" class="edge">
<title>bex_external_types&#45;&gt;sys_resource_types</title>
<path fill="none" stroke="#666666" stroke-width="1.5" stroke-dasharray="5,2" d="M630.2,-792C667.41,-792 709.75,-792 709.75,-792 709.75,-792 709.75,-698 709.75,-698 709.75,-698 733.21,-698 733.21,-698"/>
<polygon fill="#666666" stroke="#666666" stroke-width="1.5" points="733.21,-700.45 740.21,-698 733.21,-695.55 733.21,-700.45"/>
</g>
<!-- bex_heap -->
<g id="node31" class="node">
<title>bex_heap</title>
<polygon fill="#d8e4cd" stroke="#59971a" stroke-width="2" points="595.62,-898 532.38,-898 532.38,-862 595.62,-862 595.62,-898"/>
<text xml:space="preserve" text-anchor="middle" x="564" y="-875.55" font-family="Helvetica,sans-Serif" font-size="11.00">bex_heap</text>
</g>
<!-- bex_heap&#45;&gt;bex_external_types -->
<g id="edge37" class="edge">
<title>bex_heap&#45;&gt;bex_external_types</title>
<path fill="none" stroke="#444444" d="M564,-861.43C564,-861.43 564,-813.37 564,-813.37"/>
<polygon fill="#444444" stroke="#444444" points="566.45,-813.37 564,-806.37 561.55,-813.37 566.45,-813.37"/>
</g>
<!-- bex_program&#45;&gt;bex_vm_types -->
<g id="edge38" class="edge">
<title>bex_program&#45;&gt;bex_vm_types</title>
<path fill="none" stroke="#444444" d="M668.69,-673.43C668.69,-673.43 668.69,-625.37 668.69,-625.37"/>
<polygon fill="#444444" stroke="#444444" points="671.14,-625.37 668.69,-618.37 666.24,-625.37 671.14,-625.37"/>
</g>
<!-- bex_vm&#45;&gt;baml_base -->
<g id="edge39" class="edge">
<title>bex_vm&#45;&gt;baml_base</title>
<path fill="none" stroke="#666666" stroke-width="1.5" stroke-dasharray="5,2" d="M467.5,-955.3C467.5,-829.98 467.5,-117 467.5,-117 467.5,-117 1185.48,-117 1185.48,-117"/>
<polygon fill="#666666" stroke="#666666" stroke-width="1.5" points="1185.48,-119.45 1192.48,-117 1185.48,-114.55 1185.48,-119.45"/>
</g>
<!-- bex_vm&#45;&gt;baml_builtins -->
<g id="edge40" class="edge">
<title>bex_vm&#45;&gt;baml_builtins</title>
<path fill="none" stroke="#666666" stroke-width="1.5" stroke-dasharray="5,2" d="M481,-955.29C481,-867.87 481,-504 481,-504 481,-504 1018.84,-504 1018.84,-504"/>
<polygon fill="#666666" stroke="#666666" stroke-width="1.5" points="1018.84,-506.45 1025.84,-504 1018.84,-501.55 1018.84,-506.45"/>
</g>
<!-- bex_vm&#45;&gt;bex_heap -->
<g id="edge41" class="edge">
<title>bex_vm&#45;&gt;bex_heap</title>
<path fill="none" stroke="#444444" d="M508.68,-974C523.35,-974 538.38,-974 538.38,-974 538.38,-974 538.38,-907.08 538.38,-907.08"/>
<polygon fill="#444444" stroke="#444444" points="540.83,-907.08 538.38,-900.08 535.93,-907.08 540.83,-907.08"/>
</g>
<!-- bex_vm&#45;&gt;sys_resource_types -->
<g id="edge42" class="edge">
<title>bex_vm&#45;&gt;sys_resource_types</title>
<path fill="none" stroke="#666666" stroke-width="1.5" stroke-dasharray="5,2" d="M494.5,-955.2C494.5,-901.13 494.5,-749 494.5,-749 494.5,-749 780.46,-749 780.46,-749 780.46,-749 780.46,-720.25 780.46,-720.25"/>
<polygon fill="#666666" stroke="#666666" stroke-width="1.5" points="782.91,-720.25 780.46,-713.25 778.01,-720.25 782.91,-720.25"/>
</g>
<!-- bex_vm_types&#45;&gt;baml_base -->
<g id="edge43" class="edge">
<title>bex_vm_types&#45;&gt;baml_base</title>
<path fill="none" stroke="#666666" stroke-width="1.5" stroke-dasharray="5,2" d="M673,-579.16C673,-491.97 673,-132 673,-132 673,-132 1185.89,-132 1185.89,-132"/>
<polygon fill="#666666" stroke="#666666" stroke-width="1.5" points="1185.89,-134.45 1192.89,-132 1185.89,-129.55 1185.89,-134.45"/>
</g>
<!-- bex_vm_types&#45;&gt;baml_builtins -->
<g id="edge44" class="edge">
<title>bex_vm_types&#45;&gt;baml_builtins</title>
<path fill="none" stroke="#666666" stroke-width="1.5" stroke-dasharray="5,2" d="M716.21,-592C818.37,-592 1066.25,-592 1066.25,-592 1066.25,-592 1066.25,-531.93 1066.25,-531.93"/>
<polygon fill="#666666" stroke="#666666" stroke-width="1.5" points="1068.7,-531.93 1066.25,-524.93 1063.8,-531.93 1068.7,-531.93"/>
</g>
<!-- bex_vm_types&#45;&gt;sys_resource_types -->
<g id="edge45" class="edge">
<title>bex_vm_types&#45;&gt;sys_resource_types</title>
<path fill="none" stroke="#666666" stroke-width="1.5" stroke-dasharray="5,2" d="M712.62,-616.66C712.62,-642.49 712.62,-686 712.62,-686 712.62,-686 733.56,-686 733.56,-686"/>
<polygon fill="#666666" stroke="#666666" stroke-width="1.5" points="733.56,-688.45 740.56,-686 733.56,-683.55 733.56,-688.45"/>
</g>
<!-- sys_native -->
<g id="node36" class="node">
<title>sys_native</title>
<polygon fill="#cde4e4" stroke="#1a9797" stroke-width="2" points="850.12,-898 783.88,-898 783.88,-862 850.12,-862 850.12,-898"/>
<text xml:space="preserve" text-anchor="middle" x="817" y="-875.55" font-family="Helvetica,sans-Serif" font-size="11.00">sys_native</text>
</g>
<!-- sys_native&#45;&gt;bex_external_types -->
<g id="edge48" class="edge">
<title>sys_native&#45;&gt;bex_external_types</title>
<path fill="none" stroke="#666666" stroke-width="1.5" stroke-dasharray="5,2" d="M783.25,-880C723.86,-880 606.92,-880 606.92,-880 606.92,-880 606.92,-813.84 606.92,-813.84"/>
<polygon fill="#666666" stroke="#666666" stroke-width="1.5" points="609.37,-813.84 606.92,-806.84 604.47,-813.84 609.37,-813.84"/>
</g>
<!-- sys_native&#45;&gt;sys_types -->
<g id="edge49" class="edge">
<title>sys_native&#45;&gt;sys_types</title>
<path fill="none" stroke="#444444" d="M850.94,-880C889.22,-880 946.19,-880 946.19,-880 946.19,-880 946.19,-813.08 946.19,-813.08"/>
<polygon fill="#444444" stroke="#444444" points="948.64,-813.08 946.19,-806.08 943.74,-813.08 948.64,-813.08"/>
</g>
<!-- sys_tokio_3671c1cd -->
<g id="node39" class="node">
<title>sys_tokio_3671c1cd</title>
<polygon fill="#d0d0d0" stroke="#606060" stroke-width="2" points="894,-804 740,-804 740,-768 894,-768 894,-804"/>
<text xml:space="preserve" text-anchor="middle" x="817" y="-787.55" font-family="Helvetica,sans-Serif" font-size="11.00">tokio</text>
<text xml:space="preserve" text-anchor="middle" x="817" y="-775.55" font-family="Helvetica,sans-Serif" font-size="11.00">[fs, io&#45;util, net, process, sync]</text>
</g>
<!-- sys_native&#45;&gt;sys_tokio_3671c1cd -->
<g id="edge50" class="edge">
<title>sys_native&#45;&gt;sys_tokio_3671c1cd</title>
<path fill="none" stroke="#444444" d="M817,-861.43C817,-861.43 817,-813.37 817,-813.37"/>
<polygon fill="#444444" stroke="#444444" points="819.45,-813.37 817,-806.37 814.55,-813.37 819.45,-813.37"/>
</g>
<!-- sys_types&#45;&gt;bex_external_types -->
<g id="edge51" class="edge">
<title>sys_types&#45;&gt;bex_external_types</title>
<path fill="none" stroke="#666666" stroke-width="1.5" stroke-dasharray="5,2" d="M962,-804.85C962,-817.92 962,-833 962,-833 962,-833 618.21,-833 618.21,-833 618.21,-833 618.21,-814.12 618.21,-814.12"/>
<polygon fill="#666666" stroke="#666666" stroke-width="1.5" points="620.66,-814.12 618.21,-807.12 615.76,-814.12 620.66,-814.12"/>
</g>
<!-- sys_types&#45;&gt;sys_resource_types -->
<g id="edge52" class="edge">
<title>sys_types&#45;&gt;sys_resource_types</title>
<path fill="none" stroke="#444444" d="M951.46,-767.02C951.46,-750.44 951.46,-729 951.46,-729 951.46,-729 817.54,-729 817.54,-729 817.54,-729 817.54,-719.45 817.54,-719.45"/>
<polygon fill="#444444" stroke="#444444" points="819.99,-719.45 817.54,-712.45 815.09,-719.45 819.99,-719.45"/>
</g>
<!-- sys_tokio_f5bec500 -->
<g id="node40" class="node">
<title>sys_tokio_f5bec500</title>
<polygon fill="#d0d0d0" stroke="#606060" stroke-width="2" points="993.88,-710 896.12,-710 896.12,-674 993.88,-674 993.88,-710"/>
<text xml:space="preserve" text-anchor="middle" x="945" y="-693.55" font-family="Helvetica,sans-Serif" font-size="11.00">tokio</text>
<text xml:space="preserve" text-anchor="middle" x="945" y="-681.55" font-family="Helvetica,sans-Serif" font-size="11.00">[macros, rt, sync]</text>
</g>
<!-- sys_types&#45;&gt;sys_tokio_f5bec500 -->
<g id="edge53" class="edge">
<title>sys_types&#45;&gt;sys_tokio_f5bec500</title>
<path fill="none" stroke="#444444" d="M972.54,-767.43C972.54,-767.43 972.54,-719.37 972.54,-719.37"/>
<polygon fill="#444444" stroke="#444444" points="974.99,-719.37 972.54,-712.37 970.09,-719.37 974.99,-719.37"/>
</g>
<!-- cargo_stow -->
<g id="node41" class="node">
<title>cargo_stow</title>
<polygon fill="#d8cde4" stroke="#591a97" stroke-width="2" points="131.62,-1180 62.38,-1180 62.38,-1144 131.62,-1144 131.62,-1180"/>
<text xml:space="preserve" text-anchor="middle" x="97" y="-1157.55" font-family="Helvetica,sans-Serif" font-size="11.00">cargo&#45;stow</text>
</g>
<!-- tools_clap -->
<g id="node45" class="node">
<title>tools_clap</title>
<polygon fill="#d0d0d0" stroke="#606060" stroke-width="2" points="160,-1086 106,-1086 106,-1050 160,-1050 160,-1086"/>
<text xml:space="preserve" text-anchor="middle" x="133" y="-1063.55" font-family="Helvetica,sans-Serif" font-size="11.00">clap</text>
</g>
<!-- cargo_stow&#45;&gt;tools_clap -->
<g id="edge46" class="edge">
<title>cargo_stow&#45;&gt;tools_clap</title>
<path fill="none" stroke="#444444" d="M118.81,-1143.43C118.81,-1143.43 118.81,-1095.37 118.81,-1095.37"/>
<polygon fill="#444444" stroke="#444444" points="121.26,-1095.37 118.81,-1088.37 116.36,-1095.37 121.26,-1095.37"/>
</g>
<!-- tools_serde -->
<g id="node48" class="node">
<title>tools_serde</title>
<polygon fill="#d0d0d0" stroke="#606060" stroke-width="2" points="70,-1086 16,-1086 16,-1050 70,-1050 70,-1086"/>
<text xml:space="preserve" text-anchor="middle" x="43" y="-1063.55" font-family="Helvetica,sans-Serif" font-size="11.00">serde</text>
</g>
<!-- cargo_stow&#45;&gt;tools_serde -->
<g id="edge47" class="edge">
<title>cargo_stow&#45;&gt;tools_serde</title>
<path fill="none" stroke="#444444" d="M66.19,-1143.43C66.19,-1143.43 66.19,-1095.37 66.19,-1095.37"/>
<polygon fill="#444444" stroke="#444444" points="68.64,-1095.37 66.19,-1088.37 63.74,-1095.37 68.64,-1095.37"/>
</g>
<!-- tools_onionskin -->
<g id="node42" class="node">
<title>tools_onionskin</title>
<polygon fill="#d8cde4" stroke="#591a97" stroke-width="2" points="284.75,-1180 195.25,-1180 195.25,-1144 284.75,-1144 284.75,-1180"/>
<text xml:space="preserve" text-anchor="middle" x="240" y="-1157.55" font-family="Helvetica,sans-Serif" font-size="11.00">tools_onionskin</text>
</g>
<!-- tools_onionskin&#45;&gt;baml_project -->
<g id="edge55" class="edge">
<title>tools_onionskin&#45;&gt;baml_project</title>
<path fill="none" stroke="#666666" stroke-width="1.5" stroke-dasharray="5,2" d="M263.9,-1143.07C263.9,-1133.96 263.9,-1125 263.9,-1125 263.9,-1125 1043.42,-1125 1043.42,-1125 1043.42,-1125 1043.42,-1096.25 1043.42,-1096.25"/>
<polygon fill="#666666" stroke="#666666" stroke-width="1.5" points="1045.87,-1096.25 1043.42,-1089.25 1040.97,-1096.25 1045.87,-1096.25"/>
</g>
<!-- tools_onionskin&#45;&gt;bex_vm -->
<g id="edge56" class="edge">
<title>tools_onionskin&#45;&gt;bex_vm</title>
<path fill="none" stroke="#666666" stroke-width="1.5" stroke-dasharray="5,2" d="M270.85,-1143.29C270.85,-1095.73 270.85,-974 270.85,-974 270.85,-974 443.82,-974 443.82,-974"/>
<polygon fill="#666666" stroke="#666666" stroke-width="1.5" points="443.82,-976.45 450.82,-974 443.82,-971.55 443.82,-976.45"/>
</g>
<!-- tools_anyhow -->
<g id="node44" class="node">
<title>tools_anyhow</title>
<polygon fill="#d0d0d0" stroke="#606060" stroke-width="2" points="340,-1086 286,-1086 286,-1050 340,-1050 340,-1086"/>
<text xml:space="preserve" text-anchor="middle" x="313" y="-1063.55" font-family="Helvetica,sans-Serif" font-size="11.00">anyhow</text>
</g>
<!-- tools_onionskin&#45;&gt;tools_anyhow -->
<g id="edge54" class="edge">
<title>tools_onionskin&#45;&gt;tools_anyhow</title>
<path fill="none" stroke="#444444" d="M277.8,-1143.43C277.8,-1116.03 277.8,-1068 277.8,-1068 277.8,-1068 278.55,-1068 278.55,-1068"/>
<polygon fill="#444444" stroke="#444444" points="276.75,-1070.45 283.75,-1068 276.75,-1065.55 276.75,-1070.45"/>
</g>
<!-- tools_onionskin&#45;&gt;tools_clap -->
<g id="edge57" class="edge">
<title>tools_onionskin&#45;&gt;tools_clap</title>
<path fill="none" stroke="#444444" d="M194.29,-1162C170.29,-1162 145.81,-1162 145.81,-1162 145.81,-1162 145.81,-1095.08 145.81,-1095.08"/>
<polygon fill="#444444" stroke="#444444" points="148.26,-1095.08 145.81,-1088.08 143.36,-1095.08 148.26,-1095.08"/>
</g>
<!-- tools_rowan -->
<g id="node46" class="node">
<title>tools_rowan</title>
<polygon fill="#d0d0d0" stroke="#606060" stroke-width="2" points="430,-1086 376,-1086 376,-1050 430,-1050 430,-1086"/>
<text xml:space="preserve" text-anchor="middle" x="403" y="-1063.55" font-family="Helvetica,sans-Serif" font-size="11.00">rowan</text>
</g>
<!-- tools_onionskin&#45;&gt;tools_rowan -->
<g id="edge58" class="edge">
<title>tools_onionskin&#45;&gt;tools_rowan</title>
<path fill="none" stroke="#444444" d="M256.95,-1143.02C256.95,-1126.44 256.95,-1105 256.95,-1105 256.95,-1105 394.12,-1105 394.12,-1105 394.12,-1105 394.12,-1095.45 394.12,-1095.45"/>
<polygon fill="#444444" stroke="#444444" points="396.58,-1095.45 394.13,-1088.45 391.68,-1095.45 396.58,-1095.45"/>
</g>
<!-- tools_salsa -->
<g id="node47" class="node">
<title>tools_salsa</title>
<polygon fill="#d0d0d0" stroke="#606060" stroke-width="2" points="250,-1086 196,-1086 196,-1050 250,-1050 250,-1086"/>
<text xml:space="preserve" text-anchor="middle" x="223" y="-1063.55" font-family="Helvetica,sans-Serif" font-size="11.00">salsa</text>
</g>
<!-- tools_onionskin&#45;&gt;tools_salsa -->
<g id="edge59" class="edge">
<title>tools_onionskin&#45;&gt;tools_salsa</title>
<path fill="none" stroke="#444444" d="M223,-1143.43C223,-1143.43 223,-1095.37 223,-1095.37"/>
<polygon fill="#444444" stroke="#444444" points="225.45,-1095.37 223,-1088.37 220.55,-1095.37 225.45,-1095.37"/>
</g>
<!-- tools_rig -->
<g id="node43" class="node">
<title>tools_rig</title>
<polygon fill="#d8cde4" stroke="#591a97" stroke-width="2" points="412.25,-1180 355.75,-1180 355.75,-1144 412.25,-1144 412.25,-1180"/>
<text xml:space="preserve" text-anchor="middle" x="384" y="-1157.55" font-family="Helvetica,sans-Serif" font-size="11.00">tools_rig</text>
</g>

<polygon fill="#666666" stroke="#666666" points="1023.56,-807.12 1027.06,-812.12 1020.06,-812.12"/>
<polygon fill="#666666" stroke="#666666" points="1023.56,-730.01 1027.06,-735.01 1020.06,-735.01"/>
<polygon fill="#666666" stroke="#666666" points="961.47,-604.00 966.47,-600.50 966.47,-607.50"/>
<polygon fill="#666666" stroke="#666666" points="872.09,-604.00 877.09,-600.50 877.09,-607.50"/>
<polygon fill="#666666" stroke="#666666" points="731.31,-1068.00 726.31,-1071.50 726.31,-1064.50"/>
<polygon fill="#666666" stroke="#666666" points="824.68,-1068.00 819.68,-1071.50 819.68,-1064.50"/>
<polygon fill="#666666" stroke="#666666" points="977.81,-1014.74 981.31,-1019.74 974.31,-1019.74"/>
<polygon fill="#666666" stroke="#666666" points="977.81,-938.61 981.31,-943.61 974.31,-943.61"/>
<polygon fill="#666666" stroke="#666666" points="573.81,-636.10 577.31,-641.10 570.31,-641.10"/>
<polygon fill="#666666" stroke="#666666" points="573.81,-443.12 577.31,-448.12 570.31,-448.12"/>
<polygon fill="#666666" stroke="#666666" points="698.73,-124.00 693.73,-127.50 693.73,-120.50"/>
<polygon fill="#666666" stroke="#666666" points="882.36,-124.00 877.36,-127.50 877.36,-120.50"/>
<polygon fill="#666666" stroke="#666666" points="709.75,-742.50 713.25,-747.50 706.25,-747.50"/>
<polygon fill="#666666" stroke="#666666" points="467.50,-785.14 471.00,-790.14 464.00,-790.14"/>
<polygon fill="#666666" stroke="#666666" points="467.50,-533.65 471.00,-538.65 464.00,-538.65"/>
<polygon fill="#666666" stroke="#666666" points="613.60,-117.00 608.60,-120.50 608.60,-113.50"/>
<polygon fill="#666666" stroke="#666666" points="828.99,-117.00 823.99,-120.50 823.99,-113.50"/>
<polygon fill="#666666" stroke="#666666" points="481.00,-862.53 484.50,-867.53 477.50,-867.53"/>
<polygon fill="#666666" stroke="#666666" points="481.00,-727.14 484.50,-732.14 477.50,-732.14"/>
<polygon fill="#666666" stroke="#666666" points="591.07,-504.00 586.07,-507.50 586.07,-500.50"/>
<polygon fill="#666666" stroke="#666666" points="752.42,-504.00 747.42,-507.50 747.42,-500.50"/>
<polygon fill="#666666" stroke="#666666" points="494.50,-911.46 498.00,-916.46 491.00,-916.46"/>
<polygon fill="#666666" stroke="#666666" points="494.50,-849.60 498.00,-854.60 491.00,-854.60"/>
<polygon fill="#666666" stroke="#666666" points="554.19,-749.00 549.19,-752.50 549.19,-745.50"/>
<polygon fill="#666666" stroke="#666666" points="639.98,-749.00 634.98,-752.50 634.98,-745.50"/>
<polygon fill="#666666" stroke="#666666" points="673.00,-487.23 676.50,-492.23 669.50,-492.23"/>
<polygon fill="#666666" stroke="#666666" points="673.00,-353.08 676.50,-358.08 669.50,-358.08"/>
<polygon fill="#666666" stroke="#666666" points="778.08,-132.00 773.08,-135.50 773.08,-128.50"/>
<polygon fill="#666666" stroke="#666666" points="931.95,-132.00 926.95,-135.50 926.95,-128.50"/>
<polygon fill="#666666" stroke="#666666" points="788.72,-592.00 783.72,-595.50 783.72,-588.50"/>
<polygon fill="#666666" stroke="#666666" points="893.73,-592.00 888.73,-595.50 888.73,-588.50"/>
<polygon fill="#666666" stroke="#666666" points="692.59,-880.00 697.59,-876.50 697.59,-883.50"/>
<polygon fill="#666666" stroke="#666666" points="890.74,-833.00 895.74,-829.50 895.74,-836.50"/>
<polygon fill="#666666" stroke="#666666" points="787.61,-833.00 792.61,-829.50 792.61,-836.50"/>
<polygon fill="#666666" stroke="#666666" points="422.30,-1125.00 417.30,-1128.50 417.30,-1121.50"/>
<polygon fill="#666666" stroke="#666666" points="656.16,-1125.00 651.16,-1128.50 651.16,-1121.50"/>
<polygon fill="#666666" stroke="#666666" points="270.85,-1056.14 274.35,-1061.14 267.35,-1061.14"/>
<polygon fill="#666666" stroke="#666666" points="359.84,-974.00 354.84,-977.50 354.84,-970.50"/>
</g>
</svg>
