<svg width="582" height="160" viewBox="0 0 582 160" fill="none" xmlns="http://www.w3.org/2000/svg">
<path fill-rule="evenodd" clip-rule="evenodd" d="M53.0144 80.1821V108.57H87.8572C95.7162 108.57 101.712 106.935 105.844 103.666C103.407 101.981 100.92 100.365 98.3858 98.8193C95.8629 100.067 92.6493 100.691 88.7449 100.691H61.3367V82.3913C58.593 81.5814 55.8181 80.8443 53.0144 80.1821ZM53.0144 73.0643L53.1586 73.097C56.3034 73.8096 59.4141 74.6123 62.4877 75.5022H87.8572C93.7013 75.5022 97.9549 76.8337 100.618 79.4969C103.281 82.086 104.613 85.1191 104.613 88.5959C104.613 90.564 104.245 92.3093 103.509 93.832C105.877 95.3118 108.203 96.8508 110.488 98.4472C112.119 95.7289 112.935 92.6671 112.935 89.2617C112.935 85.5629 112.232 82.4929 110.827 80.0517C109.421 77.6105 107.646 75.6871 105.5 74.2816C103.429 72.802 101.358 71.7294 99.2865 71.0636C101.876 69.88 104.169 68.0306 106.166 65.5154C108.164 62.9262 109.162 59.2644 109.162 54.5299C109.162 51.5709 108.423 48.6118 106.943 45.6528C105.463 42.6198 103.022 40.1046 99.6194 38.1072C96.2904 36.1098 91.7409 35.1112 85.9708 35.1112H53.0144V73.0643ZM85.9708 67.9566H61.3367V42.9896H86.8585C90.2614 42.9896 92.9615 43.5814 94.9589 44.7651C97.0302 45.9487 98.5097 47.4652 99.3974 49.3146C100.359 51.164 100.84 53.1244 100.84 55.1957C100.84 58.1548 100.137 60.596 98.7316 62.5193C97.3261 64.3687 95.4767 65.7373 93.1834 66.625C90.9641 67.5127 88.5599 67.9566 85.9708 67.9566ZM134.141 105.684C138.284 108.2 143.166 109.457 148.789 109.457C154.485 109.457 159.367 108.2 163.436 105.684C167.579 103.095 170.76 99.6184 172.979 95.2538C175.198 90.8892 176.308 86.0808 176.308 80.8284C176.308 75.5022 175.198 70.6937 172.979 66.4031C170.76 62.0385 167.579 58.5986 163.436 56.0834C159.367 53.4943 154.485 52.1997 148.789 52.1997C143.166 52.1997 138.284 53.4943 134.141 56.0834C129.999 58.5986 126.818 62.0385 124.598 66.4031C122.379 70.6937 121.27 75.5022 121.27 80.8284C121.27 86.0808 122.379 90.8892 124.598 95.2538C126.818 99.6184 129.999 103.095 134.141 105.684ZM159.219 99.0266C156.408 100.95 152.931 101.912 148.789 101.912C144.72 101.912 141.243 100.95 138.358 99.0266C135.473 97.1032 133.291 94.551 131.811 91.3701C130.332 88.1151 129.592 84.6012 129.592 80.8284C129.592 76.9817 130.332 73.4678 131.811 70.2868C133.291 67.1059 135.473 64.5537 138.358 62.6303C141.243 60.7069 144.72 59.7452 148.789 59.7452C152.931 59.7452 156.408 60.7069 159.219 62.6303C162.104 64.5537 164.287 67.1059 165.766 70.2868C167.246 73.4678 167.985 76.9817 167.985 80.8284C167.985 84.6012 167.246 88.1151 165.766 91.3701C164.287 94.551 162.104 97.1032 159.219 99.0266ZM198.218 106.794C201.621 108.57 205.209 109.457 208.982 109.457C213.494 109.457 217.193 108.533 220.078 106.683C222.963 104.834 225.404 102.577 227.402 99.9143V108.57H235.724V53.0874H227.402V85.0451C227.402 88.374 226.625 91.2961 225.071 93.8113C223.592 96.3265 221.594 98.3238 219.079 99.8033C216.564 101.209 213.753 101.912 210.646 101.912C206.133 101.912 202.398 100.395 199.439 97.3621C196.554 94.2551 195.111 90.1864 195.111 85.1561V53.0874H186.789V85.378C186.789 90.6303 187.824 95.0689 189.896 98.6937C192.041 102.245 194.815 104.945 198.218 106.794ZM258.517 53.0874H250.194V108.57H258.517V76.6118C258.517 73.2829 259.256 70.3608 260.736 67.8456C262.289 65.2565 264.324 63.2591 266.839 61.8536C269.354 60.448 272.165 59.7452 275.272 59.7452C279.859 59.7452 283.595 61.2987 286.48 64.4057C289.365 67.4388 290.807 71.4705 290.807 76.5008V107.522L299.13 102.86V76.2789C299.13 71.0266 298.057 66.625 295.912 63.0742C293.84 59.4493 291.103 56.7492 287.7 54.9738C284.371 53.1244 280.784 52.1997 276.937 52.1997C272.424 52.1997 268.725 53.1244 265.84 54.9738C262.955 56.8232 260.514 59.0795 258.517 61.7426V53.0874ZM316.759 100.943C318.352 102.762 320.185 104.342 322.255 105.684C326.324 108.2 331.058 109.457 336.459 109.457C341.045 109.457 344.966 108.57 348.221 106.794C351.55 105.019 354.25 102.651 356.321 99.6924V108.57H364.644V84.1574C361.848 84.6482 359.065 85.2154 356.298 85.8587C355.93 87.7716 355.346 89.6088 354.546 91.3701C353.066 94.551 350.884 97.1032 347.999 99.0266C345.188 100.95 341.711 101.912 337.568 101.912C333.5 101.912 329.986 100.95 327.027 99.0266C326.092 98.4192 325.228 97.7491 324.434 97.0163C321.846 98.251 319.287 99.5599 316.759 100.943ZM320.243 91.3379C317.764 92.5457 315.311 93.819 312.886 95.1575C310.699 90.8185 309.605 86.0422 309.605 80.8284C309.605 75.5022 310.715 70.6937 312.934 66.4031C315.154 62.0385 318.261 58.5986 322.255 56.0834C326.324 53.4943 331.058 52.1997 336.459 52.1997C341.045 52.1997 344.966 53.0874 348.221 54.8628C351.55 56.6382 354.25 59.0425 356.321 62.0755V30.8945H364.644V77.1206C361.979 77.5679 359.325 78.0816 356.684 78.6614C356.456 75.652 355.743 72.8605 354.546 70.2868C353.066 67.1059 350.884 64.5537 347.999 62.6303C345.188 60.7069 341.711 59.7452 337.568 59.7452C333.5 59.7452 329.986 60.7069 327.027 62.6303C324.068 64.5537 321.811 67.1059 320.258 70.2868C318.704 73.4678 317.928 76.9817 317.928 80.8284C317.928 84.5888 318.699 88.092 320.243 91.3379ZM375.643 82.6271C375.869 87.1834 376.964 91.3923 378.928 95.2538C381.147 99.6184 384.254 103.095 388.249 105.684C392.317 108.2 397.052 109.457 402.452 109.457C407.039 109.457 410.959 108.57 414.214 106.794C417.543 105.019 420.243 102.651 422.315 99.6924V108.57H430.637V86.7588C427.922 86.0578 425.195 85.4318 422.459 84.8803C422.115 87.1472 421.475 89.3105 420.539 91.3701C419.06 94.551 416.877 97.1032 413.992 99.0266C411.181 100.95 407.704 101.912 403.562 101.912C399.493 101.912 395.979 100.95 393.02 99.0266C390.061 97.1032 387.805 94.551 386.251 91.3701C384.859 88.453 384.091 85.328 383.946 81.995C381.173 82.1318 378.404 82.3427 375.643 82.6271ZM384.568 75.0234C381.699 75.148 378.834 75.3484 375.976 75.6242C376.472 72.3227 377.456 69.249 378.928 66.4031C381.147 62.0385 384.254 58.5986 388.249 56.0834C392.317 53.4943 397.052 52.1997 402.452 52.1997C407.039 52.1997 410.959 53.0874 414.214 54.8628C417.543 56.6382 420.243 59.0425 422.315 62.0755V53.0874H430.637V79.6062C427.968 78.9484 425.289 78.3595 422.603 77.8394C422.314 75.1421 421.627 72.6246 420.539 70.2868C419.06 67.1059 416.877 64.5537 413.992 62.6303C411.181 60.7069 407.704 59.7452 403.562 59.7452C399.493 59.7452 395.979 60.7069 393.02 62.6303C390.061 64.5537 387.805 67.1059 386.251 70.2868C385.517 71.7912 384.956 73.3701 384.568 75.0234ZM445.032 90.8458V108.57H453.354V93.2458L445.032 90.8458ZM453.354 86.0279L445.032 83.6279V53.0874H453.354V66.736C453.65 65.7743 454.205 64.5167 455.019 62.9632C455.906 61.3357 457.164 59.7083 458.792 58.0808C460.419 56.4533 462.453 55.0847 464.895 53.9751C467.41 52.7915 470.369 52.1997 473.772 52.1997H474.327V60.522H473.328C469.185 60.522 465.597 61.6686 462.564 63.9619C459.605 66.1812 457.312 69.1032 455.685 72.7281C454.131 76.2789 453.354 80.0887 453.354 84.1574V86.0279ZM498.523 106.271L499.152 107.793L489.054 130.54H498.043L507.265 108.792L498.523 106.271ZM509.993 102.361L495.131 98.0754L476.516 53.0874H485.726L503.591 98.5827L521.789 53.0874H530.888L509.993 102.361Z" fill="white"/>
</svg>
